G04 This is an RS-274x file exported by *
G04 gerbv version 2.6.1 *
G04 More information is available about gerbv at *
G04 http://gerbv.geda-project.org/ *
G04 --End of header info--*
%MOIN*%
%FSLAX34Y34*%
%IPPOS*%
G04 --Define apertures--*
%ADD10C,0.0118*%
%ADD11C,0.0059*%
G04 --Start main section--*
G54D10*
G01X0003817Y0015012D02*
G01X0003845Y0014984D01*
G01X0003845Y0014984D02*
G01X0003873Y0014928D01*
G01X0003873Y0014928D02*
G01X0003873Y0014787D01*
G01X0003873Y0014787D02*
G01X0003845Y0014731D01*
G01X0003845Y0014731D02*
G01X0003817Y0014703D01*
G01X0003817Y0014703D02*
G01X0003761Y0014675D01*
G01X0003761Y0014675D02*
G01X0003705Y0014675D01*
G01X0003705Y0014675D02*
G01X0003620Y0014703D01*
G01X0003620Y0014703D02*
G01X0003283Y0015040D01*
G01X0003283Y0015040D02*
G01X0003283Y0014675D01*
G01X0003873Y0014309D02*
G01X0003873Y0014253D01*
G01X0003873Y0014253D02*
G01X0003845Y0014197D01*
G01X0003845Y0014197D02*
G01X0003817Y0014169D01*
G01X0003817Y0014169D02*
G01X0003761Y0014141D01*
G01X0003761Y0014141D02*
G01X0003648Y0014112D01*
G01X0003648Y0014112D02*
G01X0003508Y0014112D01*
G01X0003508Y0014112D02*
G01X0003395Y0014141D01*
G01X0003395Y0014141D02*
G01X0003339Y0014169D01*
G01X0003339Y0014169D02*
G01X0003311Y0014197D01*
G01X0003311Y0014197D02*
G01X0003283Y0014253D01*
G01X0003283Y0014253D02*
G01X0003283Y0014309D01*
G01X0003283Y0014309D02*
G01X0003311Y0014366D01*
G01X0003311Y0014366D02*
G01X0003339Y0014394D01*
G01X0003339Y0014394D02*
G01X0003395Y0014422D01*
G01X0003395Y0014422D02*
G01X0003508Y0014450D01*
G01X0003508Y0014450D02*
G01X0003648Y0014450D01*
G01X0003648Y0014450D02*
G01X0003761Y0014422D01*
G01X0003761Y0014422D02*
G01X0003817Y0014394D01*
G01X0003817Y0014394D02*
G01X0003845Y0014366D01*
G01X0003845Y0014366D02*
G01X0003873Y0014309D01*
G01X0003283Y0013550D02*
G01X0003283Y0013888D01*
G01X0003283Y0013719D02*
G01X0003873Y0013719D01*
G01X0003873Y0013719D02*
G01X0003789Y0013775D01*
G01X0003789Y0013775D02*
G01X0003733Y0013831D01*
G01X0003733Y0013831D02*
G01X0003705Y0013888D01*
G01X0003873Y0013016D02*
G01X0003873Y0013297D01*
G01X0003873Y0013297D02*
G01X0003592Y0013325D01*
G01X0003592Y0013325D02*
G01X0003620Y0013297D01*
G01X0003620Y0013297D02*
G01X0003648Y0013241D01*
G01X0003648Y0013241D02*
G01X0003648Y0013100D01*
G01X0003648Y0013100D02*
G01X0003620Y0013044D01*
G01X0003620Y0013044D02*
G01X0003592Y0013016D01*
G01X0003592Y0013016D02*
G01X0003536Y0012988D01*
G01X0003536Y0012988D02*
G01X0003395Y0012988D01*
G01X0003395Y0012988D02*
G01X0003339Y0013016D01*
G01X0003339Y0013016D02*
G01X0003311Y0013044D01*
G01X0003311Y0013044D02*
G01X0003283Y0013100D01*
G01X0003283Y0013100D02*
G01X0003283Y0013241D01*
G01X0003283Y0013241D02*
G01X0003311Y0013297D01*
G01X0003311Y0013297D02*
G01X0003339Y0013325D01*
G01X0008117Y0011983D02*
G01X0007527Y0011983D01*
G01X0007527Y0011983D02*
G01X0007948Y0012180D01*
G01X0007948Y0012180D02*
G01X0007527Y0012377D01*
G01X0007527Y0012377D02*
G01X0008117Y0012377D01*
G01X0008117Y0012939D02*
G01X0008117Y0012658D01*
G01X0008117Y0012658D02*
G01X0007527Y0012658D01*
G01X0007948Y0013108D02*
G01X0007948Y0013389D01*
G01X0008117Y0013052D02*
G01X0007527Y0013248D01*
G01X0007527Y0013248D02*
G01X0008117Y0013445D01*
G01X0007808Y0013839D02*
G01X0007836Y0013923D01*
G01X0007836Y0013923D02*
G01X0007864Y0013952D01*
G01X0007864Y0013952D02*
G01X0007920Y0013980D01*
G01X0007920Y0013980D02*
G01X0008005Y0013980D01*
G01X0008005Y0013980D02*
G01X0008061Y0013952D01*
G01X0008061Y0013952D02*
G01X0008089Y0013923D01*
G01X0008089Y0013923D02*
G01X0008117Y0013867D01*
G01X0008117Y0013867D02*
G01X0008117Y0013642D01*
G01X0008117Y0013642D02*
G01X0007527Y0013642D01*
G01X0007527Y0013642D02*
G01X0007527Y0013839D01*
G01X0007527Y0013839D02*
G01X0007555Y0013895D01*
G01X0007555Y0013895D02*
G01X0007583Y0013923D01*
G01X0007583Y0013923D02*
G01X0007639Y0013952D01*
G01X0007639Y0013952D02*
G01X0007695Y0013952D01*
G01X0007695Y0013952D02*
G01X0007752Y0013923D01*
G01X0007752Y0013923D02*
G01X0007780Y0013895D01*
G01X0007780Y0013895D02*
G01X0007808Y0013839D01*
G01X0007808Y0013839D02*
G01X0007808Y0013642D01*
G01X0008061Y0014233D02*
G01X0008089Y0014261D01*
G01X0008089Y0014261D02*
G01X0008117Y0014233D01*
G01X0008117Y0014233D02*
G01X0008089Y0014205D01*
G01X0008089Y0014205D02*
G01X0008061Y0014233D01*
G01X0008061Y0014233D02*
G01X0008117Y0014233D01*
G01X0008089Y0014767D02*
G01X0008117Y0014711D01*
G01X0008117Y0014711D02*
G01X0008117Y0014598D01*
G01X0008117Y0014598D02*
G01X0008089Y0014542D01*
G01X0008089Y0014542D02*
G01X0008061Y0014514D01*
G01X0008061Y0014514D02*
G01X0008005Y0014486D01*
G01X0008005Y0014486D02*
G01X0007836Y0014486D01*
G01X0007836Y0014486D02*
G01X0007780Y0014514D01*
G01X0007780Y0014514D02*
G01X0007752Y0014542D01*
G01X0007752Y0014542D02*
G01X0007723Y0014598D01*
G01X0007723Y0014598D02*
G01X0007723Y0014711D01*
G01X0007723Y0014711D02*
G01X0007752Y0014767D01*
G01X0007723Y0014964D02*
G01X0007723Y0015273D01*
G01X0007723Y0015273D02*
G01X0008117Y0014964D01*
G01X0008117Y0014964D02*
G01X0008117Y0015273D01*
G01X0000867Y0005861D02*
G01X0000277Y0005861D01*
G01X0000333Y0006114D02*
G01X0000305Y0006142D01*
G01X0000305Y0006142D02*
G01X0000277Y0006199D01*
G01X0000277Y0006199D02*
G01X0000277Y0006339D01*
G01X0000277Y0006339D02*
G01X0000305Y0006396D01*
G01X0000305Y0006396D02*
G01X0000333Y0006424D01*
G01X0000333Y0006424D02*
G01X0000389Y0006452D01*
G01X0000389Y0006452D02*
G01X0000445Y0006452D01*
G01X0000445Y0006452D02*
G01X0000530Y0006424D01*
G01X0000530Y0006424D02*
G01X0000867Y0006086D01*
G01X0000867Y0006086D02*
G01X0000867Y0006452D01*
G01X0000811Y0007042D02*
G01X0000839Y0007014D01*
G01X0000839Y0007014D02*
G01X0000867Y0006930D01*
G01X0000867Y0006930D02*
G01X0000867Y0006874D01*
G01X0000867Y0006874D02*
G01X0000839Y0006789D01*
G01X0000839Y0006789D02*
G01X0000783Y0006733D01*
G01X0000783Y0006733D02*
G01X0000727Y0006705D01*
G01X0000727Y0006705D02*
G01X0000614Y0006677D01*
G01X0000614Y0006677D02*
G01X0000530Y0006677D01*
G01X0000530Y0006677D02*
G01X0000417Y0006705D01*
G01X0000417Y0006705D02*
G01X0000361Y0006733D01*
G01X0000361Y0006733D02*
G01X0000305Y0006789D01*
G01X0000305Y0006789D02*
G01X0000277Y0006874D01*
G01X0000277Y0006874D02*
G01X0000277Y0006930D01*
G01X0000277Y0006930D02*
G01X0000305Y0007014D01*
G01X0000305Y0007014D02*
G01X0000333Y0007042D01*
G01X0000333Y0007267D02*
G01X0000305Y0007295D01*
G01X0000305Y0007295D02*
G01X0000277Y0007352D01*
G01X0000277Y0007352D02*
G01X0000277Y0007492D01*
G01X0000277Y0007492D02*
G01X0000305Y0007549D01*
G01X0000305Y0007549D02*
G01X0000333Y0007577D01*
G01X0000333Y0007577D02*
G01X0000389Y0007605D01*
G01X0000389Y0007605D02*
G01X0000445Y0007605D01*
G01X0000445Y0007605D02*
G01X0000530Y0007577D01*
G01X0000530Y0007577D02*
G01X0000867Y0007239D01*
G01X0000867Y0007239D02*
G01X0000867Y0007605D01*
G01X0000277Y0007802D02*
G01X0000277Y0008167D01*
G01X0000277Y0008167D02*
G01X0000502Y0007970D01*
G01X0000502Y0007970D02*
G01X0000502Y0008055D01*
G01X0000502Y0008055D02*
G01X0000530Y0008111D01*
G01X0000530Y0008111D02*
G01X0000558Y0008139D01*
G01X0000558Y0008139D02*
G01X0000614Y0008167D01*
G01X0000614Y0008167D02*
G01X0000755Y0008167D01*
G01X0000755Y0008167D02*
G01X0000811Y0008139D01*
G01X0000811Y0008139D02*
G01X0000839Y0008111D01*
G01X0000839Y0008111D02*
G01X0000867Y0008055D01*
G01X0000867Y0008055D02*
G01X0000867Y0007886D01*
G01X0000867Y0007886D02*
G01X0000839Y0007830D01*
G01X0000839Y0007830D02*
G01X0000811Y0007802D01*
G01X0000333Y0008392D02*
G01X0000305Y0008420D01*
G01X0000305Y0008420D02*
G01X0000277Y0008477D01*
G01X0000277Y0008477D02*
G01X0000277Y0008617D01*
G01X0000277Y0008617D02*
G01X0000305Y0008673D01*
G01X0000305Y0008673D02*
G01X0000333Y0008702D01*
G01X0000333Y0008702D02*
G01X0000389Y0008730D01*
G01X0000389Y0008730D02*
G01X0000445Y0008730D01*
G01X0000445Y0008730D02*
G01X0000530Y0008702D01*
G01X0000530Y0008702D02*
G01X0000867Y0008364D01*
G01X0000867Y0008364D02*
G01X0000867Y0008730D01*
G01X0000277Y0008898D02*
G01X0000867Y0009095D01*
G01X0000867Y0009095D02*
G01X0000277Y0009292D01*
G01X0000277Y0009601D02*
G01X0000277Y0009658D01*
G01X0000277Y0009658D02*
G01X0000305Y0009714D01*
G01X0000305Y0009714D02*
G01X0000333Y0009742D01*
G01X0000333Y0009742D02*
G01X0000389Y0009770D01*
G01X0000389Y0009770D02*
G01X0000502Y0009798D01*
G01X0000502Y0009798D02*
G01X0000642Y0009798D01*
G01X0000642Y0009798D02*
G01X0000755Y0009770D01*
G01X0000755Y0009770D02*
G01X0000811Y0009742D01*
G01X0000811Y0009742D02*
G01X0000839Y0009714D01*
G01X0000839Y0009714D02*
G01X0000867Y0009658D01*
G01X0000867Y0009658D02*
G01X0000867Y0009601D01*
G01X0000867Y0009601D02*
G01X0000839Y0009545D01*
G01X0000839Y0009545D02*
G01X0000811Y0009517D01*
G01X0000811Y0009517D02*
G01X0000755Y0009489D01*
G01X0000755Y0009489D02*
G01X0000642Y0009461D01*
G01X0000642Y0009461D02*
G01X0000502Y0009461D01*
G01X0000502Y0009461D02*
G01X0000389Y0009489D01*
G01X0000389Y0009489D02*
G01X0000333Y0009517D01*
G01X0000333Y0009517D02*
G01X0000305Y0009545D01*
G01X0000305Y0009545D02*
G01X0000277Y0009601D01*
G01X0000867Y0010361D02*
G01X0000867Y0010023D01*
G01X0000867Y0010192D02*
G01X0000277Y0010192D01*
G01X0000277Y0010192D02*
G01X0000361Y0010136D01*
G01X0000361Y0010136D02*
G01X0000417Y0010079D01*
G01X0000417Y0010079D02*
G01X0000445Y0010023D01*
G01X0000698Y0010586D02*
G01X0000698Y0010867D01*
G01X0000867Y0010529D02*
G01X0000277Y0010726D01*
G01X0000277Y0010726D02*
G01X0000867Y0010923D01*
G01X0007450Y0003645D02*
G01X0007394Y0003673D01*
G01X0007394Y0003673D02*
G01X0007309Y0003673D01*
G01X0007309Y0003673D02*
G01X0007225Y0003645D01*
G01X0007225Y0003645D02*
G01X0007169Y0003589D01*
G01X0007169Y0003589D02*
G01X0007141Y0003533D01*
G01X0007141Y0003533D02*
G01X0007112Y0003420D01*
G01X0007112Y0003420D02*
G01X0007112Y0003336D01*
G01X0007112Y0003336D02*
G01X0007141Y0003223D01*
G01X0007141Y0003223D02*
G01X0007169Y0003167D01*
G01X0007169Y0003167D02*
G01X0007225Y0003111D01*
G01X0007225Y0003111D02*
G01X0007309Y0003083D01*
G01X0007309Y0003083D02*
G01X0007366Y0003083D01*
G01X0007366Y0003083D02*
G01X0007450Y0003111D01*
G01X0007450Y0003111D02*
G01X0007478Y0003139D01*
G01X0007478Y0003139D02*
G01X0007478Y0003336D01*
G01X0007478Y0003336D02*
G01X0007366Y0003336D01*
G01X0007675Y0003673D02*
G01X0008040Y0003673D01*
G01X0008040Y0003673D02*
G01X0007844Y0003448D01*
G01X0007844Y0003448D02*
G01X0007928Y0003448D01*
G01X0007928Y0003448D02*
G01X0007984Y0003420D01*
G01X0007984Y0003420D02*
G01X0008012Y0003392D01*
G01X0008012Y0003392D02*
G01X0008040Y0003336D01*
G01X0008040Y0003336D02*
G01X0008040Y0003195D01*
G01X0008040Y0003195D02*
G01X0008012Y0003139D01*
G01X0008012Y0003139D02*
G01X0007984Y0003111D01*
G01X0007984Y0003111D02*
G01X0007928Y0003083D01*
G01X0007928Y0003083D02*
G01X0007759Y0003083D01*
G01X0007759Y0003083D02*
G01X0007703Y0003111D01*
G01X0007703Y0003111D02*
G01X0007675Y0003139D01*
G01X0005255Y0003450D02*
G01X0005227Y0003394D01*
G01X0005227Y0003394D02*
G01X0005227Y0003309D01*
G01X0005227Y0003309D02*
G01X0005255Y0003225D01*
G01X0005255Y0003225D02*
G01X0005311Y0003169D01*
G01X0005311Y0003169D02*
G01X0005367Y0003141D01*
G01X0005367Y0003141D02*
G01X0005480Y0003112D01*
G01X0005480Y0003112D02*
G01X0005564Y0003112D01*
G01X0005564Y0003112D02*
G01X0005677Y0003141D01*
G01X0005677Y0003141D02*
G01X0005733Y0003169D01*
G01X0005733Y0003169D02*
G01X0005789Y0003225D01*
G01X0005789Y0003225D02*
G01X0005817Y0003309D01*
G01X0005817Y0003309D02*
G01X0005817Y0003366D01*
G01X0005817Y0003366D02*
G01X0005789Y0003450D01*
G01X0005789Y0003450D02*
G01X0005761Y0003478D01*
G01X0005761Y0003478D02*
G01X0005564Y0003478D01*
G01X0005564Y0003478D02*
G01X0005564Y0003366D01*
G01X0005817Y0004040D02*
G01X0005817Y0003703D01*
G01X0005817Y0003872D02*
G01X0005227Y0003872D01*
G01X0005227Y0003872D02*
G01X0005311Y0003816D01*
G01X0005311Y0003816D02*
G01X0005367Y0003759D01*
G01X0005367Y0003759D02*
G01X0005395Y0003703D01*
G01X0006255Y0003450D02*
G01X0006227Y0003394D01*
G01X0006227Y0003394D02*
G01X0006227Y0003309D01*
G01X0006227Y0003309D02*
G01X0006255Y0003225D01*
G01X0006255Y0003225D02*
G01X0006311Y0003169D01*
G01X0006311Y0003169D02*
G01X0006367Y0003141D01*
G01X0006367Y0003141D02*
G01X0006480Y0003112D01*
G01X0006480Y0003112D02*
G01X0006564Y0003112D01*
G01X0006564Y0003112D02*
G01X0006677Y0003141D01*
G01X0006677Y0003141D02*
G01X0006733Y0003169D01*
G01X0006733Y0003169D02*
G01X0006789Y0003225D01*
G01X0006789Y0003225D02*
G01X0006817Y0003309D01*
G01X0006817Y0003309D02*
G01X0006817Y0003366D01*
G01X0006817Y0003366D02*
G01X0006789Y0003450D01*
G01X0006789Y0003450D02*
G01X0006761Y0003478D01*
G01X0006761Y0003478D02*
G01X0006564Y0003478D01*
G01X0006564Y0003478D02*
G01X0006564Y0003366D01*
G01X0006283Y0003703D02*
G01X0006255Y0003731D01*
G01X0006255Y0003731D02*
G01X0006227Y0003787D01*
G01X0006227Y0003787D02*
G01X0006227Y0003928D01*
G01X0006227Y0003928D02*
G01X0006255Y0003984D01*
G01X0006255Y0003984D02*
G01X0006283Y0004012D01*
G01X0006283Y0004012D02*
G01X0006339Y0004040D01*
G01X0006339Y0004040D02*
G01X0006395Y0004040D01*
G01X0006395Y0004040D02*
G01X0006480Y0004012D01*
G01X0006480Y0004012D02*
G01X0006817Y0003675D01*
G01X0006817Y0003675D02*
G01X0006817Y0004040D01*
G01X0004405Y0003450D02*
G01X0004377Y0003394D01*
G01X0004377Y0003394D02*
G01X0004377Y0003309D01*
G01X0004377Y0003309D02*
G01X0004405Y0003225D01*
G01X0004405Y0003225D02*
G01X0004461Y0003169D01*
G01X0004461Y0003169D02*
G01X0004517Y0003141D01*
G01X0004517Y0003141D02*
G01X0004630Y0003112D01*
G01X0004630Y0003112D02*
G01X0004714Y0003112D01*
G01X0004714Y0003112D02*
G01X0004827Y0003141D01*
G01X0004827Y0003141D02*
G01X0004883Y0003169D01*
G01X0004883Y0003169D02*
G01X0004939Y0003225D01*
G01X0004939Y0003225D02*
G01X0004967Y0003309D01*
G01X0004967Y0003309D02*
G01X0004967Y0003366D01*
G01X0004967Y0003366D02*
G01X0004939Y0003450D01*
G01X0004939Y0003450D02*
G01X0004911Y0003478D01*
G01X0004911Y0003478D02*
G01X0004714Y0003478D01*
G01X0004714Y0003478D02*
G01X0004714Y0003366D01*
G01X0004377Y0003844D02*
G01X0004377Y0003900D01*
G01X0004377Y0003900D02*
G01X0004405Y0003956D01*
G01X0004405Y0003956D02*
G01X0004433Y0003984D01*
G01X0004433Y0003984D02*
G01X0004489Y0004012D01*
G01X0004489Y0004012D02*
G01X0004602Y0004040D01*
G01X0004602Y0004040D02*
G01X0004742Y0004040D01*
G01X0004742Y0004040D02*
G01X0004855Y0004012D01*
G01X0004855Y0004012D02*
G01X0004911Y0003984D01*
G01X0004911Y0003984D02*
G01X0004939Y0003956D01*
G01X0004939Y0003956D02*
G01X0004967Y0003900D01*
G01X0004967Y0003900D02*
G01X0004967Y0003844D01*
G01X0004967Y0003844D02*
G01X0004939Y0003787D01*
G01X0004939Y0003787D02*
G01X0004911Y0003759D01*
G01X0004911Y0003759D02*
G01X0004855Y0003731D01*
G01X0004855Y0003731D02*
G01X0004742Y0003703D01*
G01X0004742Y0003703D02*
G01X0004602Y0003703D01*
G01X0004602Y0003703D02*
G01X0004489Y0003731D01*
G01X0004489Y0003731D02*
G01X0004433Y0003759D01*
G01X0004433Y0003759D02*
G01X0004405Y0003787D01*
G01X0004405Y0003787D02*
G01X0004377Y0003844D01*
G01X0007277Y0008884D02*
G01X0007277Y0009250D01*
G01X0007277Y0009250D02*
G01X0007502Y0009053D01*
G01X0007502Y0009053D02*
G01X0007502Y0009137D01*
G01X0007502Y0009137D02*
G01X0007530Y0009194D01*
G01X0007530Y0009194D02*
G01X0007558Y0009222D01*
G01X0007558Y0009222D02*
G01X0007614Y0009250D01*
G01X0007614Y0009250D02*
G01X0007755Y0009250D01*
G01X0007755Y0009250D02*
G01X0007811Y0009222D01*
G01X0007811Y0009222D02*
G01X0007839Y0009194D01*
G01X0007839Y0009194D02*
G01X0007867Y0009137D01*
G01X0007867Y0009137D02*
G01X0007867Y0008969D01*
G01X0007867Y0008969D02*
G01X0007839Y0008912D01*
G01X0007839Y0008912D02*
G01X0007811Y0008884D01*
G01X0007811Y0009503D02*
G01X0007839Y0009531D01*
G01X0007839Y0009531D02*
G01X0007867Y0009503D01*
G01X0007867Y0009503D02*
G01X0007839Y0009475D01*
G01X0007839Y0009475D02*
G01X0007811Y0009503D01*
G01X0007811Y0009503D02*
G01X0007867Y0009503D01*
G01X0007277Y0009728D02*
G01X0007277Y0010094D01*
G01X0007277Y0010094D02*
G01X0007502Y0009897D01*
G01X0007502Y0009897D02*
G01X0007502Y0009981D01*
G01X0007502Y0009981D02*
G01X0007530Y0010037D01*
G01X0007530Y0010037D02*
G01X0007558Y0010065D01*
G01X0007558Y0010065D02*
G01X0007614Y0010094D01*
G01X0007614Y0010094D02*
G01X0007755Y0010094D01*
G01X0007755Y0010094D02*
G01X0007811Y0010065D01*
G01X0007811Y0010065D02*
G01X0007839Y0010037D01*
G01X0007839Y0010037D02*
G01X0007867Y0009981D01*
G01X0007867Y0009981D02*
G01X0007867Y0009812D01*
G01X0007867Y0009812D02*
G01X0007839Y0009756D01*
G01X0007839Y0009756D02*
G01X0007811Y0009728D01*
G01X0007277Y0010262D02*
G01X0007867Y0010459D01*
G01X0007867Y0010459D02*
G01X0007277Y0010656D01*
G01X0005202Y0008831D02*
G01X0005792Y0009028D01*
G01X0005792Y0009028D02*
G01X0005202Y0009225D01*
G01X0005792Y0009422D02*
G01X0005398Y0009422D01*
G01X0005202Y0009422D02*
G01X0005230Y0009394D01*
G01X0005230Y0009394D02*
G01X0005258Y0009422D01*
G01X0005258Y0009422D02*
G01X0005230Y0009450D01*
G01X0005230Y0009450D02*
G01X0005202Y0009422D01*
G01X0005202Y0009422D02*
G01X0005258Y0009422D01*
G01X0005398Y0009703D02*
G01X0005792Y0009703D01*
G01X0005455Y0009703D02*
G01X0005427Y0009731D01*
G01X0005427Y0009731D02*
G01X0005398Y0009787D01*
G01X0005398Y0009787D02*
G01X0005398Y0009872D01*
G01X0005398Y0009872D02*
G01X0005427Y0009928D01*
G01X0005427Y0009928D02*
G01X0005483Y0009956D01*
G01X0005483Y0009956D02*
G01X0005792Y0009956D01*
G01X0006202Y0008806D02*
G01X0006792Y0009003D01*
G01X0006792Y0009003D02*
G01X0006202Y0009200D01*
G01X0006792Y0009397D02*
G01X0006202Y0009397D01*
G01X0006258Y0009650D02*
G01X0006230Y0009678D01*
G01X0006230Y0009678D02*
G01X0006202Y0009734D01*
G01X0006202Y0009734D02*
G01X0006202Y0009875D01*
G01X0006202Y0009875D02*
G01X0006230Y0009931D01*
G01X0006230Y0009931D02*
G01X0006258Y0009959D01*
G01X0006258Y0009959D02*
G01X0006314Y0009987D01*
G01X0006314Y0009987D02*
G01X0006370Y0009987D01*
G01X0006370Y0009987D02*
G01X0006455Y0009959D01*
G01X0006455Y0009959D02*
G01X0006792Y0009622D01*
G01X0006792Y0009622D02*
G01X0006792Y0009987D01*
G01X0006736Y0010578D02*
G01X0006764Y0010550D01*
G01X0006764Y0010550D02*
G01X0006792Y0010465D01*
G01X0006792Y0010465D02*
G01X0006792Y0010409D01*
G01X0006792Y0010409D02*
G01X0006764Y0010325D01*
G01X0006764Y0010325D02*
G01X0006708Y0010269D01*
G01X0006708Y0010269D02*
G01X0006652Y0010240D01*
G01X0006652Y0010240D02*
G01X0006539Y0010212D01*
G01X0006539Y0010212D02*
G01X0006455Y0010212D01*
G01X0006455Y0010212D02*
G01X0006342Y0010240D01*
G01X0006342Y0010240D02*
G01X0006286Y0010269D01*
G01X0006286Y0010269D02*
G01X0006230Y0010325D01*
G01X0006230Y0010325D02*
G01X0006202Y0010409D01*
G01X0006202Y0010409D02*
G01X0006202Y0010465D01*
G01X0006202Y0010465D02*
G01X0006230Y0010550D01*
G01X0006230Y0010550D02*
G01X0006258Y0010578D01*
G01X0011127Y0009653D02*
G01X0011127Y0010019D01*
G01X0011127Y0010019D02*
G01X0011352Y0009822D01*
G01X0011352Y0009822D02*
G01X0011352Y0009906D01*
G01X0011352Y0009906D02*
G01X0011380Y0009963D01*
G01X0011380Y0009963D02*
G01X0011408Y0009991D01*
G01X0011408Y0009991D02*
G01X0011464Y0010019D01*
G01X0011464Y0010019D02*
G01X0011605Y0010019D01*
G01X0011605Y0010019D02*
G01X0011661Y0009991D01*
G01X0011661Y0009991D02*
G01X0011689Y0009963D01*
G01X0011689Y0009963D02*
G01X0011717Y0009906D01*
G01X0011717Y0009906D02*
G01X0011717Y0009738D01*
G01X0011717Y0009738D02*
G01X0011689Y0009681D01*
G01X0011689Y0009681D02*
G01X0011661Y0009653D01*
G01X0011661Y0010272D02*
G01X0011689Y0010300D01*
G01X0011689Y0010300D02*
G01X0011717Y0010272D01*
G01X0011717Y0010272D02*
G01X0011689Y0010244D01*
G01X0011689Y0010244D02*
G01X0011661Y0010272D01*
G01X0011661Y0010272D02*
G01X0011717Y0010272D01*
G01X0011127Y0010497D02*
G01X0011127Y0010862D01*
G01X0011127Y0010862D02*
G01X0011352Y0010666D01*
G01X0011352Y0010666D02*
G01X0011352Y0010750D01*
G01X0011352Y0010750D02*
G01X0011380Y0010806D01*
G01X0011380Y0010806D02*
G01X0011408Y0010834D01*
G01X0011408Y0010834D02*
G01X0011464Y0010862D01*
G01X0011464Y0010862D02*
G01X0011605Y0010862D01*
G01X0011605Y0010862D02*
G01X0011661Y0010834D01*
G01X0011661Y0010834D02*
G01X0011689Y0010806D01*
G01X0011689Y0010806D02*
G01X0011717Y0010750D01*
G01X0011717Y0010750D02*
G01X0011717Y0010581D01*
G01X0011717Y0010581D02*
G01X0011689Y0010525D01*
G01X0011689Y0010525D02*
G01X0011661Y0010497D01*
G01X0011127Y0011481D02*
G01X0011717Y0011678D01*
G01X0011717Y0011678D02*
G01X0011127Y0011875D01*
G01X0004895Y0012823D02*
G01X0005092Y0012233D01*
G01X0005092Y0012233D02*
G01X0005289Y0012823D01*
G01X0005486Y0012233D02*
G01X0005486Y0012627D01*
G01X0005486Y0012823D02*
G01X0005458Y0012795D01*
G01X0005458Y0012795D02*
G01X0005486Y0012767D01*
G01X0005486Y0012767D02*
G01X0005514Y0012795D01*
G01X0005514Y0012795D02*
G01X0005486Y0012823D01*
G01X0005486Y0012823D02*
G01X0005486Y0012767D01*
G01X0005767Y0012627D02*
G01X0005767Y0012233D01*
G01X0005767Y0012570D02*
G01X0005795Y0012598D01*
G01X0005795Y0012598D02*
G01X0005852Y0012627D01*
G01X0005852Y0012627D02*
G01X0005936Y0012627D01*
G01X0005936Y0012627D02*
G01X0005992Y0012598D01*
G01X0005992Y0012598D02*
G01X0006020Y0012542D01*
G01X0006020Y0012542D02*
G01X0006020Y0012233D01*
G01X0004186Y0015183D02*
G01X0004186Y0015773D01*
G01X0004186Y0015773D02*
G01X0004411Y0015773D01*
G01X0004411Y0015773D02*
G01X0004467Y0015745D01*
G01X0004467Y0015745D02*
G01X0004495Y0015717D01*
G01X0004495Y0015717D02*
G01X0004524Y0015661D01*
G01X0004524Y0015661D02*
G01X0004524Y0015577D01*
G01X0004524Y0015577D02*
G01X0004495Y0015520D01*
G01X0004495Y0015520D02*
G01X0004467Y0015492D01*
G01X0004467Y0015492D02*
G01X0004411Y0015464D01*
G01X0004411Y0015464D02*
G01X0004186Y0015464D01*
G01X0004889Y0015773D02*
G01X0005002Y0015773D01*
G01X0005002Y0015773D02*
G01X0005058Y0015745D01*
G01X0005058Y0015745D02*
G01X0005114Y0015689D01*
G01X0005114Y0015689D02*
G01X0005142Y0015577D01*
G01X0005142Y0015577D02*
G01X0005142Y0015380D01*
G01X0005142Y0015380D02*
G01X0005114Y0015267D01*
G01X0005114Y0015267D02*
G01X0005058Y0015211D01*
G01X0005058Y0015211D02*
G01X0005002Y0015183D01*
G01X0005002Y0015183D02*
G01X0004889Y0015183D01*
G01X0004889Y0015183D02*
G01X0004833Y0015211D01*
G01X0004833Y0015211D02*
G01X0004777Y0015267D01*
G01X0004777Y0015267D02*
G01X0004749Y0015380D01*
G01X0004749Y0015380D02*
G01X0004749Y0015577D01*
G01X0004749Y0015577D02*
G01X0004777Y0015689D01*
G01X0004777Y0015689D02*
G01X0004833Y0015745D01*
G01X0004833Y0015745D02*
G01X0004889Y0015773D01*
G01X0005339Y0015773D02*
G01X0005480Y0015183D01*
G01X0005480Y0015183D02*
G01X0005592Y0015605D01*
G01X0005592Y0015605D02*
G01X0005705Y0015183D01*
G01X0005705Y0015183D02*
G01X0005845Y0015773D01*
G01X0006070Y0015492D02*
G01X0006267Y0015492D01*
G01X0006351Y0015183D02*
G01X0006070Y0015183D01*
G01X0006070Y0015183D02*
G01X0006070Y0015773D01*
G01X0006070Y0015773D02*
G01X0006351Y0015773D01*
G01X0006942Y0015183D02*
G01X0006745Y0015464D01*
G01X0006605Y0015183D02*
G01X0006605Y0015773D01*
G01X0006605Y0015773D02*
G01X0006830Y0015773D01*
G01X0006830Y0015773D02*
G01X0006886Y0015745D01*
G01X0006886Y0015745D02*
G01X0006914Y0015717D01*
G01X0006914Y0015717D02*
G01X0006942Y0015661D01*
G01X0006942Y0015661D02*
G01X0006942Y0015577D01*
G01X0006942Y0015577D02*
G01X0006914Y0015520D01*
G01X0006914Y0015520D02*
G01X0006886Y0015492D01*
G01X0006886Y0015492D02*
G01X0006830Y0015464D01*
G01X0006830Y0015464D02*
G01X0006605Y0015464D01*
G01X0007500Y0004495D02*
G01X0007444Y0004523D01*
G01X0007444Y0004523D02*
G01X0007360Y0004523D01*
G01X0007360Y0004523D02*
G01X0007275Y0004495D01*
G01X0007275Y0004495D02*
G01X0007219Y0004439D01*
G01X0007219Y0004439D02*
G01X0007191Y0004383D01*
G01X0007191Y0004383D02*
G01X0007163Y0004270D01*
G01X0007163Y0004270D02*
G01X0007163Y0004186D01*
G01X0007163Y0004186D02*
G01X0007191Y0004073D01*
G01X0007191Y0004073D02*
G01X0007219Y0004017D01*
G01X0007219Y0004017D02*
G01X0007275Y0003961D01*
G01X0007275Y0003961D02*
G01X0007360Y0003933D01*
G01X0007360Y0003933D02*
G01X0007416Y0003933D01*
G01X0007416Y0003933D02*
G01X0007500Y0003961D01*
G01X0007500Y0003961D02*
G01X0007528Y0003989D01*
G01X0007528Y0003989D02*
G01X0007528Y0004186D01*
G01X0007528Y0004186D02*
G01X0007416Y0004186D01*
G01X0007781Y0003933D02*
G01X0007781Y0004523D01*
G01X0007781Y0004523D02*
G01X0008119Y0003933D01*
G01X0008119Y0003933D02*
G01X0008119Y0004523D01*
G01X0008400Y0003933D02*
G01X0008400Y0004523D01*
G01X0008400Y0004523D02*
G01X0008541Y0004523D01*
G01X0008541Y0004523D02*
G01X0008625Y0004495D01*
G01X0008625Y0004495D02*
G01X0008681Y0004439D01*
G01X0008681Y0004439D02*
G01X0008709Y0004383D01*
G01X0008709Y0004383D02*
G01X0008738Y0004270D01*
G01X0008738Y0004270D02*
G01X0008738Y0004186D01*
G01X0008738Y0004186D02*
G01X0008709Y0004073D01*
G01X0008709Y0004073D02*
G01X0008681Y0004017D01*
G01X0008681Y0004017D02*
G01X0008625Y0003961D01*
G01X0008625Y0003961D02*
G01X0008541Y0003933D01*
G01X0008541Y0003933D02*
G01X0008400Y0003933D01*
G01X0007331Y0004961D02*
G01X0007416Y0004933D01*
G01X0007416Y0004933D02*
G01X0007556Y0004933D01*
G01X0007556Y0004933D02*
G01X0007613Y0004961D01*
G01X0007613Y0004961D02*
G01X0007641Y0004989D01*
G01X0007641Y0004989D02*
G01X0007669Y0005045D01*
G01X0007669Y0005045D02*
G01X0007669Y0005102D01*
G01X0007669Y0005102D02*
G01X0007641Y0005158D01*
G01X0007641Y0005158D02*
G01X0007613Y0005186D01*
G01X0007613Y0005186D02*
G01X0007556Y0005214D01*
G01X0007556Y0005214D02*
G01X0007444Y0005242D01*
G01X0007444Y0005242D02*
G01X0007388Y0005270D01*
G01X0007388Y0005270D02*
G01X0007360Y0005298D01*
G01X0007360Y0005298D02*
G01X0007331Y0005355D01*
G01X0007331Y0005355D02*
G01X0007331Y0005411D01*
G01X0007331Y0005411D02*
G01X0007360Y0005467D01*
G01X0007360Y0005467D02*
G01X0007388Y0005495D01*
G01X0007388Y0005495D02*
G01X0007444Y0005523D01*
G01X0007444Y0005523D02*
G01X0007585Y0005523D01*
G01X0007585Y0005523D02*
G01X0007669Y0005495D01*
G01X0008259Y0004989D02*
G01X0008231Y0004961D01*
G01X0008231Y0004961D02*
G01X0008147Y0004933D01*
G01X0008147Y0004933D02*
G01X0008091Y0004933D01*
G01X0008091Y0004933D02*
G01X0008006Y0004961D01*
G01X0008006Y0004961D02*
G01X0007950Y0005017D01*
G01X0007950Y0005017D02*
G01X0007922Y0005073D01*
G01X0007922Y0005073D02*
G01X0007894Y0005186D01*
G01X0007894Y0005186D02*
G01X0007894Y0005270D01*
G01X0007894Y0005270D02*
G01X0007922Y0005383D01*
G01X0007922Y0005383D02*
G01X0007950Y0005439D01*
G01X0007950Y0005439D02*
G01X0008006Y0005495D01*
G01X0008006Y0005495D02*
G01X0008091Y0005523D01*
G01X0008091Y0005523D02*
G01X0008147Y0005523D01*
G01X0008147Y0005523D02*
G01X0008231Y0005495D01*
G01X0008231Y0005495D02*
G01X0008259Y0005467D01*
G01X0008794Y0004933D02*
G01X0008513Y0004933D01*
G01X0008513Y0004933D02*
G01X0008513Y0005523D01*
G01X0006966Y0006573D02*
G01X0007163Y0005983D01*
G01X0007163Y0005983D02*
G01X0007360Y0006573D01*
G01X0007556Y0005983D02*
G01X0007556Y0006573D01*
G01X0007810Y0006517D02*
G01X0007838Y0006545D01*
G01X0007838Y0006545D02*
G01X0007894Y0006573D01*
G01X0007894Y0006573D02*
G01X0008034Y0006573D01*
G01X0008034Y0006573D02*
G01X0008091Y0006545D01*
G01X0008091Y0006545D02*
G01X0008119Y0006517D01*
G01X0008119Y0006517D02*
G01X0008147Y0006461D01*
G01X0008147Y0006461D02*
G01X0008147Y0006405D01*
G01X0008147Y0006405D02*
G01X0008119Y0006320D01*
G01X0008119Y0006320D02*
G01X0007781Y0005983D01*
G01X0007781Y0005983D02*
G01X0008147Y0005983D01*
G01X0008738Y0006039D02*
G01X0008709Y0006011D01*
G01X0008709Y0006011D02*
G01X0008625Y0005983D01*
G01X0008625Y0005983D02*
G01X0008569Y0005983D01*
G01X0008569Y0005983D02*
G01X0008484Y0006011D01*
G01X0008484Y0006011D02*
G01X0008428Y0006067D01*
G01X0008428Y0006067D02*
G01X0008400Y0006123D01*
G01X0008400Y0006123D02*
G01X0008372Y0006236D01*
G01X0008372Y0006236D02*
G01X0008372Y0006320D01*
G01X0008372Y0006320D02*
G01X0008400Y0006433D01*
G01X0008400Y0006433D02*
G01X0008428Y0006489D01*
G01X0008428Y0006489D02*
G01X0008484Y0006545D01*
G01X0008484Y0006545D02*
G01X0008569Y0006573D01*
G01X0008569Y0006573D02*
G01X0008625Y0006573D01*
G01X0008625Y0006573D02*
G01X0008709Y0006545D01*
G01X0008709Y0006545D02*
G01X0008738Y0006517D01*
G01X0007303Y0006911D02*
G01X0007388Y0006883D01*
G01X0007388Y0006883D02*
G01X0007528Y0006883D01*
G01X0007528Y0006883D02*
G01X0007585Y0006911D01*
G01X0007585Y0006911D02*
G01X0007613Y0006939D01*
G01X0007613Y0006939D02*
G01X0007641Y0006995D01*
G01X0007641Y0006995D02*
G01X0007641Y0007052D01*
G01X0007641Y0007052D02*
G01X0007613Y0007108D01*
G01X0007613Y0007108D02*
G01X0007585Y0007136D01*
G01X0007585Y0007136D02*
G01X0007528Y0007164D01*
G01X0007528Y0007164D02*
G01X0007416Y0007192D01*
G01X0007416Y0007192D02*
G01X0007360Y0007220D01*
G01X0007360Y0007220D02*
G01X0007331Y0007248D01*
G01X0007331Y0007248D02*
G01X0007303Y0007305D01*
G01X0007303Y0007305D02*
G01X0007303Y0007361D01*
G01X0007303Y0007361D02*
G01X0007331Y0007417D01*
G01X0007331Y0007417D02*
G01X0007360Y0007445D01*
G01X0007360Y0007445D02*
G01X0007416Y0007473D01*
G01X0007416Y0007473D02*
G01X0007556Y0007473D01*
G01X0007556Y0007473D02*
G01X0007641Y0007445D01*
G01X0007894Y0006883D02*
G01X0007894Y0007473D01*
G01X0007894Y0007473D02*
G01X0008034Y0007473D01*
G01X0008034Y0007473D02*
G01X0008119Y0007445D01*
G01X0008119Y0007445D02*
G01X0008175Y0007389D01*
G01X0008175Y0007389D02*
G01X0008203Y0007333D01*
G01X0008203Y0007333D02*
G01X0008231Y0007220D01*
G01X0008231Y0007220D02*
G01X0008231Y0007136D01*
G01X0008231Y0007136D02*
G01X0008203Y0007023D01*
G01X0008203Y0007023D02*
G01X0008175Y0006967D01*
G01X0008175Y0006967D02*
G01X0008119Y0006911D01*
G01X0008119Y0006911D02*
G01X0008034Y0006883D01*
G01X0008034Y0006883D02*
G01X0007894Y0006883D01*
G01X0008456Y0007052D02*
G01X0008738Y0007052D01*
G01X0008400Y0006883D02*
G01X0008597Y0007473D01*
G01X0008597Y0007473D02*
G01X0008794Y0006883D01*
G01X0011717Y0005624D02*
G01X0011127Y0005624D01*
G01X0011183Y0005877D02*
G01X0011155Y0005905D01*
G01X0011155Y0005905D02*
G01X0011127Y0005961D01*
G01X0011127Y0005961D02*
G01X0011127Y0006102D01*
G01X0011127Y0006102D02*
G01X0011155Y0006158D01*
G01X0011155Y0006158D02*
G01X0011183Y0006186D01*
G01X0011183Y0006186D02*
G01X0011239Y0006214D01*
G01X0011239Y0006214D02*
G01X0011295Y0006214D01*
G01X0011295Y0006214D02*
G01X0011380Y0006186D01*
G01X0011380Y0006186D02*
G01X0011717Y0005848D01*
G01X0011717Y0005848D02*
G01X0011717Y0006214D01*
G01X0011661Y0006805D02*
G01X0011689Y0006776D01*
G01X0011689Y0006776D02*
G01X0011717Y0006692D01*
G01X0011717Y0006692D02*
G01X0011717Y0006636D01*
G01X0011717Y0006636D02*
G01X0011689Y0006552D01*
G01X0011689Y0006552D02*
G01X0011633Y0006495D01*
G01X0011633Y0006495D02*
G01X0011577Y0006467D01*
G01X0011577Y0006467D02*
G01X0011464Y0006439D01*
G01X0011464Y0006439D02*
G01X0011380Y0006439D01*
G01X0011380Y0006439D02*
G01X0011267Y0006467D01*
G01X0011267Y0006467D02*
G01X0011211Y0006495D01*
G01X0011211Y0006495D02*
G01X0011155Y0006552D01*
G01X0011155Y0006552D02*
G01X0011127Y0006636D01*
G01X0011127Y0006636D02*
G01X0011127Y0006692D01*
G01X0011127Y0006692D02*
G01X0011155Y0006776D01*
G01X0011155Y0006776D02*
G01X0011183Y0006805D01*
G01X0003553Y0004008D02*
G01X0003356Y0004289D01*
G01X0003216Y0004008D02*
G01X0003216Y0004598D01*
G01X0003216Y0004598D02*
G01X0003441Y0004598D01*
G01X0003441Y0004598D02*
G01X0003497Y0004570D01*
G01X0003497Y0004570D02*
G01X0003525Y0004542D01*
G01X0003525Y0004542D02*
G01X0003553Y0004486D01*
G01X0003553Y0004486D02*
G01X0003553Y0004402D01*
G01X0003553Y0004402D02*
G01X0003525Y0004345D01*
G01X0003525Y0004345D02*
G01X0003497Y0004317D01*
G01X0003497Y0004317D02*
G01X0003441Y0004289D01*
G01X0003441Y0004289D02*
G01X0003216Y0004289D01*
G01X0003750Y0004598D02*
G01X0004144Y0004008D01*
G01X0004144Y0004598D02*
G01X0003750Y0004008D01*
G01X0003181Y0005573D02*
G01X0003519Y0005573D01*
G01X0003350Y0004983D02*
G01X0003350Y0005573D01*
G01X0003659Y0005573D02*
G01X0004053Y0004983D01*
G01X0004053Y0005573D02*
G01X0003659Y0004983D01*
G01X0003212Y0006377D02*
G01X0003634Y0006377D01*
G01X0003381Y0006630D02*
G01X0003212Y0005870D01*
G01X0003578Y0006123D02*
G01X0003156Y0006123D01*
G01X0003409Y0005870D02*
G01X0003578Y0006630D01*
G01X0003775Y0006573D02*
G01X0003916Y0005983D01*
G01X0003916Y0005983D02*
G01X0004028Y0006405D01*
G01X0004028Y0006405D02*
G01X0004140Y0005983D01*
G01X0004140Y0005983D02*
G01X0004281Y0006573D01*
G01X0004478Y0006152D02*
G01X0004759Y0006152D01*
G01X0004422Y0005983D02*
G01X0004619Y0006573D01*
G01X0004619Y0006573D02*
G01X0004815Y0005983D01*
G01X0005012Y0005983D02*
G01X0005012Y0006573D01*
G01X0005350Y0005983D02*
G01X0005097Y0006320D01*
G01X0005350Y0006573D02*
G01X0005012Y0006236D01*
G01X0003212Y0007277D02*
G01X0003634Y0007277D01*
G01X0003381Y0007530D02*
G01X0003212Y0006770D01*
G01X0003578Y0007023D02*
G01X0003156Y0007023D01*
G01X0003409Y0006770D02*
G01X0003578Y0007530D01*
G01X0004169Y0006883D02*
G01X0003972Y0007164D01*
G01X0003831Y0006883D02*
G01X0003831Y0007473D01*
G01X0003831Y0007473D02*
G01X0004056Y0007473D01*
G01X0004056Y0007473D02*
G01X0004112Y0007445D01*
G01X0004112Y0007445D02*
G01X0004140Y0007417D01*
G01X0004140Y0007417D02*
G01X0004169Y0007361D01*
G01X0004169Y0007361D02*
G01X0004169Y0007277D01*
G01X0004169Y0007277D02*
G01X0004140Y0007220D01*
G01X0004140Y0007220D02*
G01X0004112Y0007192D01*
G01X0004112Y0007192D02*
G01X0004056Y0007164D01*
G01X0004056Y0007164D02*
G01X0003831Y0007164D01*
G01X0004422Y0007192D02*
G01X0004619Y0007192D01*
G01X0004703Y0006883D02*
G01X0004422Y0006883D01*
G01X0004422Y0006883D02*
G01X0004422Y0007473D01*
G01X0004422Y0007473D02*
G01X0004703Y0007473D01*
G01X0004928Y0006911D02*
G01X0005012Y0006883D01*
G01X0005012Y0006883D02*
G01X0005153Y0006883D01*
G01X0005153Y0006883D02*
G01X0005209Y0006911D01*
G01X0005209Y0006911D02*
G01X0005237Y0006939D01*
G01X0005237Y0006939D02*
G01X0005265Y0006995D01*
G01X0005265Y0006995D02*
G01X0005265Y0007052D01*
G01X0005265Y0007052D02*
G01X0005237Y0007108D01*
G01X0005237Y0007108D02*
G01X0005209Y0007136D01*
G01X0005209Y0007136D02*
G01X0005153Y0007164D01*
G01X0005153Y0007164D02*
G01X0005040Y0007192D01*
G01X0005040Y0007192D02*
G01X0004984Y0007220D01*
G01X0004984Y0007220D02*
G01X0004956Y0007248D01*
G01X0004956Y0007248D02*
G01X0004928Y0007305D01*
G01X0004928Y0007305D02*
G01X0004928Y0007361D01*
G01X0004928Y0007361D02*
G01X0004956Y0007417D01*
G01X0004956Y0007417D02*
G01X0004984Y0007445D01*
G01X0004984Y0007445D02*
G01X0005040Y0007473D01*
G01X0005040Y0007473D02*
G01X0005181Y0007473D01*
G01X0005181Y0007473D02*
G01X0005265Y0007445D01*
G01X0003550Y0009095D02*
G01X0003494Y0009123D01*
G01X0003494Y0009123D02*
G01X0003409Y0009123D01*
G01X0003409Y0009123D02*
G01X0003325Y0009095D01*
G01X0003325Y0009095D02*
G01X0003269Y0009039D01*
G01X0003269Y0009039D02*
G01X0003241Y0008983D01*
G01X0003241Y0008983D02*
G01X0003212Y0008870D01*
G01X0003212Y0008870D02*
G01X0003212Y0008786D01*
G01X0003212Y0008786D02*
G01X0003241Y0008673D01*
G01X0003241Y0008673D02*
G01X0003269Y0008617D01*
G01X0003269Y0008617D02*
G01X0003325Y0008561D01*
G01X0003325Y0008561D02*
G01X0003409Y0008533D01*
G01X0003409Y0008533D02*
G01X0003466Y0008533D01*
G01X0003466Y0008533D02*
G01X0003550Y0008561D01*
G01X0003550Y0008561D02*
G01X0003578Y0008589D01*
G01X0003578Y0008589D02*
G01X0003578Y0008786D01*
G01X0003578Y0008786D02*
G01X0003466Y0008786D01*
G01X0004084Y0009123D02*
G01X0003972Y0009123D01*
G01X0003972Y0009123D02*
G01X0003916Y0009095D01*
G01X0003916Y0009095D02*
G01X0003887Y0009067D01*
G01X0003887Y0009067D02*
G01X0003831Y0008983D01*
G01X0003831Y0008983D02*
G01X0003803Y0008870D01*
G01X0003803Y0008870D02*
G01X0003803Y0008645D01*
G01X0003803Y0008645D02*
G01X0003831Y0008589D01*
G01X0003831Y0008589D02*
G01X0003859Y0008561D01*
G01X0003859Y0008561D02*
G01X0003916Y0008533D01*
G01X0003916Y0008533D02*
G01X0004028Y0008533D01*
G01X0004028Y0008533D02*
G01X0004084Y0008561D01*
G01X0004084Y0008561D02*
G01X0004112Y0008589D01*
G01X0004112Y0008589D02*
G01X0004140Y0008645D01*
G01X0004140Y0008645D02*
G01X0004140Y0008786D01*
G01X0004140Y0008786D02*
G01X0004112Y0008842D01*
G01X0004112Y0008842D02*
G01X0004084Y0008870D01*
G01X0004084Y0008870D02*
G01X0004028Y0008898D01*
G01X0004028Y0008898D02*
G01X0003916Y0008898D01*
G01X0003916Y0008898D02*
G01X0003859Y0008870D01*
G01X0003859Y0008870D02*
G01X0003831Y0008842D01*
G01X0003831Y0008842D02*
G01X0003803Y0008786D01*
G01X0003550Y0010095D02*
G01X0003494Y0010123D01*
G01X0003494Y0010123D02*
G01X0003409Y0010123D01*
G01X0003409Y0010123D02*
G01X0003325Y0010095D01*
G01X0003325Y0010095D02*
G01X0003269Y0010039D01*
G01X0003269Y0010039D02*
G01X0003241Y0009983D01*
G01X0003241Y0009983D02*
G01X0003212Y0009870D01*
G01X0003212Y0009870D02*
G01X0003212Y0009786D01*
G01X0003212Y0009786D02*
G01X0003241Y0009673D01*
G01X0003241Y0009673D02*
G01X0003269Y0009617D01*
G01X0003269Y0009617D02*
G01X0003325Y0009561D01*
G01X0003325Y0009561D02*
G01X0003409Y0009533D01*
G01X0003409Y0009533D02*
G01X0003466Y0009533D01*
G01X0003466Y0009533D02*
G01X0003550Y0009561D01*
G01X0003550Y0009561D02*
G01X0003578Y0009589D01*
G01X0003578Y0009589D02*
G01X0003578Y0009786D01*
G01X0003578Y0009786D02*
G01X0003466Y0009786D01*
G01X0004112Y0010123D02*
G01X0003831Y0010123D01*
G01X0003831Y0010123D02*
G01X0003803Y0009842D01*
G01X0003803Y0009842D02*
G01X0003831Y0009870D01*
G01X0003831Y0009870D02*
G01X0003887Y0009898D01*
G01X0003887Y0009898D02*
G01X0004028Y0009898D01*
G01X0004028Y0009898D02*
G01X0004084Y0009870D01*
G01X0004084Y0009870D02*
G01X0004112Y0009842D01*
G01X0004112Y0009842D02*
G01X0004140Y0009786D01*
G01X0004140Y0009786D02*
G01X0004140Y0009645D01*
G01X0004140Y0009645D02*
G01X0004112Y0009589D01*
G01X0004112Y0009589D02*
G01X0004084Y0009561D01*
G01X0004084Y0009561D02*
G01X0004028Y0009533D01*
G01X0004028Y0009533D02*
G01X0003887Y0009533D01*
G01X0003887Y0009533D02*
G01X0003831Y0009561D01*
G01X0003831Y0009561D02*
G01X0003803Y0009589D01*
G01X0003550Y0011095D02*
G01X0003494Y0011123D01*
G01X0003494Y0011123D02*
G01X0003409Y0011123D01*
G01X0003409Y0011123D02*
G01X0003325Y0011095D01*
G01X0003325Y0011095D02*
G01X0003269Y0011039D01*
G01X0003269Y0011039D02*
G01X0003241Y0010983D01*
G01X0003241Y0010983D02*
G01X0003212Y0010870D01*
G01X0003212Y0010870D02*
G01X0003212Y0010786D01*
G01X0003212Y0010786D02*
G01X0003241Y0010673D01*
G01X0003241Y0010673D02*
G01X0003269Y0010617D01*
G01X0003269Y0010617D02*
G01X0003325Y0010561D01*
G01X0003325Y0010561D02*
G01X0003409Y0010533D01*
G01X0003409Y0010533D02*
G01X0003466Y0010533D01*
G01X0003466Y0010533D02*
G01X0003550Y0010561D01*
G01X0003550Y0010561D02*
G01X0003578Y0010589D01*
G01X0003578Y0010589D02*
G01X0003578Y0010786D01*
G01X0003578Y0010786D02*
G01X0003466Y0010786D01*
G01X0004084Y0010927D02*
G01X0004084Y0010533D01*
G01X0003944Y0011152D02*
G01X0003803Y0010730D01*
G01X0003803Y0010730D02*
G01X0004169Y0010730D01*
G01X0003550Y0012095D02*
G01X0003494Y0012123D01*
G01X0003494Y0012123D02*
G01X0003409Y0012123D01*
G01X0003409Y0012123D02*
G01X0003325Y0012095D01*
G01X0003325Y0012095D02*
G01X0003269Y0012039D01*
G01X0003269Y0012039D02*
G01X0003241Y0011983D01*
G01X0003241Y0011983D02*
G01X0003212Y0011870D01*
G01X0003212Y0011870D02*
G01X0003212Y0011786D01*
G01X0003212Y0011786D02*
G01X0003241Y0011673D01*
G01X0003241Y0011673D02*
G01X0003269Y0011617D01*
G01X0003269Y0011617D02*
G01X0003325Y0011561D01*
G01X0003325Y0011561D02*
G01X0003409Y0011533D01*
G01X0003409Y0011533D02*
G01X0003466Y0011533D01*
G01X0003466Y0011533D02*
G01X0003550Y0011561D01*
G01X0003550Y0011561D02*
G01X0003578Y0011589D01*
G01X0003578Y0011589D02*
G01X0003578Y0011786D01*
G01X0003578Y0011786D02*
G01X0003466Y0011786D01*
G01X0003775Y0012123D02*
G01X0004169Y0012123D01*
G01X0004169Y0012123D02*
G01X0003916Y0011533D01*
G54D11*
G01X0004000Y0013000D02*
G01X0004000Y0015000D01*
G01X0004000Y0015000D02*
G01X0007000Y0015000D01*
G01X0007000Y0015000D02*
G01X0007000Y0013000D01*
G01X0007000Y0013000D02*
G01X0004000Y0013000D01*
G01X0001000Y0005850D02*
G01X0003000Y0005850D01*
G01X0003000Y0005850D02*
G01X0003000Y0004850D01*
G01X0003000Y0004850D02*
G01X0001000Y0004850D01*
G01X0001000Y0004850D02*
G01X0001000Y0005850D01*
G01X0001000Y0004850D02*
G01X0003000Y0004850D01*
G01X0003000Y0004850D02*
G01X0003000Y0003850D01*
G01X0003000Y0003850D02*
G01X0001000Y0003850D01*
G01X0001000Y0003850D02*
G01X0001000Y0004850D01*
G01X0003000Y0006850D02*
G01X0001000Y0006850D01*
G01X0001000Y0006850D02*
G01X0001000Y0007850D01*
G01X0001000Y0007850D02*
G01X0003000Y0007850D01*
G01X0003000Y0007850D02*
G01X0003000Y0006850D01*
G01X0001000Y0006850D02*
G01X0003000Y0006850D01*
G01X0003000Y0006850D02*
G01X0003000Y0005850D01*
G01X0003000Y0005850D02*
G01X0001000Y0005850D01*
G01X0001000Y0005850D02*
G01X0001000Y0006850D01*
G01X0009000Y0012250D02*
G01X0011000Y0012250D01*
G01X0011000Y0012250D02*
G01X0011000Y0009250D01*
G01X0011000Y0009250D02*
G01X0009000Y0009250D01*
G01X0009000Y0009250D02*
G01X0009000Y0012250D01*
G01X0004050Y0000900D02*
G01X0004050Y0002900D01*
G01X0004050Y0002900D02*
G01X0005050Y0002900D01*
G01X0005050Y0002900D02*
G01X0005050Y0000900D01*
G01X0005050Y0000900D02*
G01X0004050Y0000900D01*
G01X0005050Y0000900D02*
G01X0005050Y0002900D01*
G01X0005050Y0002900D02*
G01X0006050Y0002900D01*
G01X0006050Y0002900D02*
G01X0006050Y0000900D01*
G01X0006050Y0000900D02*
G01X0005050Y0000900D01*
G01X0007050Y0002900D02*
G01X0007050Y0000900D01*
G01X0007050Y0000900D02*
G01X0006050Y0000900D01*
G01X0006050Y0000900D02*
G01X0006050Y0002900D01*
G01X0006050Y0002900D02*
G01X0007050Y0002900D01*
G01X0008050Y0002900D02*
G01X0008050Y0000900D01*
G01X0008050Y0000900D02*
G01X0007050Y0000900D01*
G01X0007050Y0000900D02*
G01X0007050Y0002900D01*
G01X0007050Y0002900D02*
G01X0008050Y0002900D01*
G01X0003000Y0010300D02*
G01X0001000Y0010300D01*
G01X0001000Y0010300D02*
G01X0001000Y0011300D01*
G01X0001000Y0011300D02*
G01X0003000Y0011300D01*
G01X0003000Y0011300D02*
G01X0003000Y0010300D01*
G01X0001000Y0010300D02*
G01X0003000Y0010300D01*
G01X0003000Y0010300D02*
G01X0003000Y0009300D01*
G01X0003000Y0009300D02*
G01X0001000Y0009300D01*
G01X0001000Y0009300D02*
G01X0001000Y0010300D01*
G01X0003000Y0008300D02*
G01X0001000Y0008300D01*
G01X0001000Y0008300D02*
G01X0001000Y0009300D01*
G01X0001000Y0009300D02*
G01X0003000Y0009300D01*
G01X0003000Y0009300D02*
G01X0003000Y0008300D01*
G01X0001000Y0012300D02*
G01X0003000Y0012300D01*
G01X0003000Y0012300D02*
G01X0003000Y0011300D01*
G01X0003000Y0011300D02*
G01X0001000Y0011300D01*
G01X0001000Y0011300D02*
G01X0001000Y0012300D01*
G01X0008000Y0008600D02*
G01X0008000Y0007600D01*
G01X0008000Y0007600D02*
G01X0005000Y0007600D01*
G01X0005000Y0007600D02*
G01X0005000Y0008600D01*
G01X0005000Y0008600D02*
G01X0008000Y0008600D01*
G01X0009000Y0008700D02*
G01X0011000Y0008700D01*
G01X0011000Y0008700D02*
G01X0011000Y0003700D01*
G01X0011000Y0003700D02*
G01X0009000Y0003700D01*
G01X0009000Y0003700D02*
G01X0009000Y0008700D01*
M02*
