G04 This is an RS-274x file exported by *
G04 gerbv version 2.6.1 *
G04 More information is available about gerbv at *
G04 http://gerbv.geda-project.org/ *
G04 --End of header info--*
%MOIN*%
%FSLAX34Y34*%
%IPPOS*%
G04 --Define apertures--*
%ADD10C,0.0118*%
%ADD11R,0.0600X0.0600*%
%ADD12C,0.2362*%
%ADD13O,0.0580X0.0240*%
%ADD14R,0.0550X0.0350*%
%ADD15R,0.0669X0.0512*%
%ADD16R,0.0984X0.0709*%
%ADD17R,0.0350X0.0550*%
%ADD18R,0.0768X0.0984*%
%ADD19R,0.0591X0.0177*%
G04 --Start main section--*
G54D11*
G01X0004500Y0013500D03*
G01X0004500Y0014500D03*
G01X0005500Y0013500D03*
G01X0005500Y0014500D03*
G01X0006500Y0013500D03*
G01X0006500Y0014500D03*
G01X0001500Y0005350D03*
G01X0002500Y0005350D03*
G01X0001500Y0004350D03*
G01X0002500Y0004350D03*
G01X0002500Y0007350D03*
G01X0001500Y0007350D03*
G01X0001500Y0006350D03*
G01X0002500Y0006350D03*
G01X0009500Y0011750D03*
G01X0010500Y0011750D03*
G01X0009500Y0010750D03*
G01X0010500Y0010750D03*
G01X0009500Y0009750D03*
G01X0010500Y0009750D03*
G01X0004550Y0001400D03*
G01X0004550Y0002400D03*
G01X0005550Y0001400D03*
G01X0005550Y0002400D03*
G01X0006550Y0002400D03*
G01X0006550Y0001400D03*
G01X0007550Y0002400D03*
G01X0007550Y0001400D03*
G01X0002500Y0010800D03*
G01X0001500Y0010800D03*
G01X0001500Y0009800D03*
G01X0002500Y0009800D03*
G01X0002500Y0008800D03*
G01X0001500Y0008800D03*
G01X0001500Y0011800D03*
G01X0002500Y0011800D03*
G01X0005500Y0008100D03*
G01X0006500Y0008100D03*
G01X0007500Y0008100D03*
G01X0009500Y0008200D03*
G01X0010500Y0008200D03*
G01X0009500Y0007200D03*
G01X0010500Y0007200D03*
G01X0009500Y0006200D03*
G01X0010500Y0006200D03*
G01X0009500Y0005200D03*
G01X0010500Y0005200D03*
G01X0009500Y0004200D03*
G01X0010500Y0004200D03*
G54D12*
G01X0002000Y0014000D03*
G01X0002000Y0002000D03*
G01X0010000Y0014000D03*
G01X0010000Y0002000D03*
G54D13*
G01X0006900Y0010550D03*
G01X0006900Y0010050D03*
G01X0006900Y0009550D03*
G01X0006900Y0009050D03*
G01X0004700Y0009050D03*
G01X0004700Y0009550D03*
G01X0004700Y0010050D03*
G01X0004700Y0010550D03*
G54D14*
G01X0008500Y0006275D03*
G01X0008500Y0007025D03*
G01X0008500Y0005525D03*
G01X0008500Y0004775D03*
G01X0003550Y0007775D03*
G01X0003550Y0007025D03*
G01X0004400Y0007775D03*
G01X0004400Y0007025D03*
G54D15*
G01X0008100Y0009011D03*
G01X0008100Y0010389D03*
G54D16*
G01X0004163Y0011800D03*
G01X0005737Y0011800D03*
G54D17*
G01X0006825Y0007100D03*
G01X0007575Y0007100D03*
G54D18*
G01X0008310Y0011800D03*
G01X0007090Y0011800D03*
G54D14*
G01X0003800Y0010475D03*
G01X0003800Y0009725D03*
G54D19*
G01X0007511Y0006346D03*
G01X0007511Y0006090D03*
G01X0007511Y0005834D03*
G01X0007511Y0005578D03*
G01X0007511Y0005322D03*
G01X0007511Y0005066D03*
G01X0007511Y0004810D03*
G01X0007511Y0004554D03*
G01X0005189Y0004554D03*
G01X0005189Y0004810D03*
G01X0005189Y0005066D03*
G01X0005189Y0005322D03*
G01X0005189Y0005578D03*
G01X0005189Y0005834D03*
G01X0005189Y0006090D03*
G01X0005189Y0006346D03*
M02*
