G04 This is an RS-274x file exported by *
G04 gerbv version 2.6.1 *
G04 More information is available about gerbv at *
G04 http://gerbv.geda-project.org/ *
G04 --End of header info--*
%MOIN*%
%FSLAX34Y34*%
%IPPOS*%
G04 --Define apertures--*
%ADD10C,0.0118*%
%ADD11R,0.0600X0.0600*%
%ADD12C,0.2362*%
%ADD13C,0.0350*%
%ADD14C,0.0197*%
%ADD15C,0.0100*%
G04 --Start main section--*
G54D11*
G01X0004500Y0013500D03*
G01X0004500Y0014500D03*
G01X0005500Y0013500D03*
G01X0005500Y0014500D03*
G01X0006500Y0013500D03*
G01X0006500Y0014500D03*
G01X0001500Y0005350D03*
G01X0002500Y0005350D03*
G01X0001500Y0004350D03*
G01X0002500Y0004350D03*
G01X0002500Y0007350D03*
G01X0001500Y0007350D03*
G01X0001500Y0006350D03*
G01X0002500Y0006350D03*
G01X0009500Y0011750D03*
G01X0010500Y0011750D03*
G01X0009500Y0010750D03*
G01X0010500Y0010750D03*
G01X0009500Y0009750D03*
G01X0010500Y0009750D03*
G01X0004550Y0001400D03*
G01X0004550Y0002400D03*
G01X0005550Y0001400D03*
G01X0005550Y0002400D03*
G01X0006550Y0002400D03*
G01X0006550Y0001400D03*
G01X0007550Y0002400D03*
G01X0007550Y0001400D03*
G01X0002500Y0010800D03*
G01X0001500Y0010800D03*
G01X0001500Y0009800D03*
G01X0002500Y0009800D03*
G01X0002500Y0008800D03*
G01X0001500Y0008800D03*
G01X0001500Y0011800D03*
G01X0002500Y0011800D03*
G01X0005500Y0008100D03*
G01X0006500Y0008100D03*
G01X0007500Y0008100D03*
G01X0009500Y0008200D03*
G01X0010500Y0008200D03*
G01X0009500Y0007200D03*
G01X0010500Y0007200D03*
G01X0009500Y0006200D03*
G01X0010500Y0006200D03*
G01X0009500Y0005200D03*
G01X0010500Y0005200D03*
G01X0009500Y0004200D03*
G01X0010500Y0004200D03*
G54D12*
G01X0002000Y0014000D03*
G01X0002000Y0002000D03*
G01X0010000Y0014000D03*
G01X0010000Y0002000D03*
G54D13*
G01X0005750Y0011050D03*
G01X0009500Y0010750D03*
G01X0006665Y0005735D03*
G01X0005450Y0007200D03*
G01X0004519Y0006575D03*
G01X0003951Y0006605D03*
G01X0004400Y0005075D03*
G01X0005200Y0006650D03*
G54D14*
G01X0005500Y0008100D02*
G01X0005500Y0010800D01*
G01X0005500Y0010800D02*
G01X0005750Y0011050D01*
G01X0007500Y0008100D02*
G01X0007500Y0009247D01*
G01X0007500Y0009247D02*
G01X0009003Y0010750D01*
G01X0009003Y0010750D02*
G01X0009500Y0010750D01*
G54D10*
G01X0006665Y0005735D02*
G01X0006665Y0005985D01*
G01X0006665Y0005985D02*
G01X0005450Y0007200D01*
G01X0002500Y0010800D02*
G01X0001500Y0010800D01*
G01X0004700Y0006756D02*
G01X0004694Y0006750D01*
G01X0004694Y0006750D02*
G01X0004519Y0006575D01*
G01X0002500Y0010800D02*
G01X0002918Y0010800D01*
G01X0002918Y0010800D02*
G01X0004700Y0009018D01*
G01X0004700Y0009018D02*
G01X0004700Y0006756D01*
G01X0002500Y0009800D02*
G01X0001500Y0009800D01*
G01X0002500Y0009800D02*
G01X0002918Y0009800D01*
G01X0002918Y0009800D02*
G01X0004200Y0008518D01*
G01X0004200Y0008518D02*
G01X0004200Y0006855D01*
G01X0004126Y0006780D02*
G01X0003951Y0006605D01*
G01X0004200Y0006855D02*
G01X0004126Y0006780D01*
G01X0002500Y0008800D02*
G01X0001500Y0008800D01*
G54D15*
G01X0002500Y0008800D02*
G01X0002500Y0008220D01*
G01X0002500Y0008220D02*
G01X0002950Y0007770D01*
G01X0002950Y0007770D02*
G01X0002950Y0006525D01*
G01X0002950Y0006525D02*
G01X0004225Y0005250D01*
G01X0004225Y0005250D02*
G01X0004400Y0005075D01*
G54D14*
G01X0009003Y0006200D02*
G01X0009500Y0006200D01*
G01X0007903Y0006200D02*
G01X0009003Y0006200D01*
G01X0006500Y0007603D02*
G01X0007903Y0006200D01*
G01X0006500Y0008100D02*
G01X0006500Y0007603D01*
G01X0009500Y0006200D02*
G01X0010500Y0006200D01*
G54D10*
G01X0002500Y0011800D02*
G01X0001500Y0011800D01*
G01X0005025Y0009693D02*
G01X0005025Y0007072D01*
G01X0002500Y0011800D02*
G01X0002918Y0011800D01*
G01X0002918Y0011800D02*
G01X0005025Y0009693D01*
G01X0005025Y0007072D02*
G01X0005200Y0006897D01*
G01X0005200Y0006897D02*
G01X0005200Y0006650D01*
G54D15*
G36*
G01X0011630Y0000370D02*
G01X0011055Y0000370D01*
G01X0011055Y0004900D01*
G01X0011055Y0005500D01*
G01X0011036Y0005595D01*
G01X0010981Y0005679D01*
G01X0010951Y0005700D01*
G01X0010979Y0005719D01*
G01X0011035Y0005802D01*
G01X0011055Y0005900D01*
G01X0011055Y0006500D01*
G01X0011036Y0006595D01*
G01X0010981Y0006679D01*
G01X0010951Y0006700D01*
G01X0010979Y0006719D01*
G01X0011035Y0006802D01*
G01X0011055Y0006900D01*
G01X0011055Y0007500D01*
G01X0011036Y0007595D01*
G01X0010981Y0007679D01*
G01X0010898Y0007735D01*
G01X0010800Y0007755D01*
G01X0010200Y0007755D01*
G01X0010105Y0007736D01*
G01X0010021Y0007681D01*
G01X0010000Y0007651D01*
G01X0009981Y0007679D01*
G01X0009898Y0007735D01*
G01X0009800Y0007755D01*
G01X0009200Y0007755D01*
G01X0009105Y0007736D01*
G01X0009021Y0007681D01*
G01X0008965Y0007598D01*
G01X0008945Y0007500D01*
G01X0008945Y0006900D01*
G01X0008964Y0006805D01*
G01X0009019Y0006721D01*
G01X0009049Y0006700D01*
G01X0009021Y0006681D01*
G01X0008965Y0006598D01*
G01X0008955Y0006548D01*
G01X0008047Y0006548D01*
G01X0006978Y0007618D01*
G01X0006979Y0007619D01*
G01X0007000Y0007649D01*
G01X0007019Y0007621D01*
G01X0007102Y0007565D01*
G01X0007200Y0007545D01*
G01X0007800Y0007545D01*
G01X0007895Y0007564D01*
G01X0007979Y0007619D01*
G01X0008035Y0007702D01*
G01X0008055Y0007800D01*
G01X0008055Y0008400D01*
G01X0008036Y0008495D01*
G01X0007981Y0008579D01*
G01X0007898Y0008635D01*
G01X0007848Y0008645D01*
G01X0007848Y0009103D01*
G01X0009018Y0010272D01*
G01X0009019Y0010271D01*
G01X0009102Y0010215D01*
G01X0009200Y0010195D01*
G01X0009800Y0010195D01*
G01X0009895Y0010214D01*
G01X0009979Y0010269D01*
G01X0010000Y0010299D01*
G01X0010019Y0010271D01*
G01X0010102Y0010215D01*
G01X0010200Y0010195D01*
G01X0010800Y0010195D01*
G01X0010895Y0010214D01*
G01X0010979Y0010269D01*
G01X0011035Y0010352D01*
G01X0011055Y0010450D01*
G01X0011055Y0011050D01*
G01X0011036Y0011145D01*
G01X0010981Y0011229D01*
G01X0010898Y0011285D01*
G01X0010800Y0011305D01*
G01X0010200Y0011305D01*
G01X0010105Y0011286D01*
G01X0010021Y0011231D01*
G01X0010000Y0011201D01*
G01X0009981Y0011229D01*
G01X0009898Y0011285D01*
G01X0009800Y0011305D01*
G01X0009200Y0011305D01*
G01X0009105Y0011286D01*
G01X0009021Y0011231D01*
G01X0008965Y0011148D01*
G01X0008953Y0011088D01*
G01X0008870Y0011072D01*
G01X0008757Y0010996D01*
G01X0008757Y0010996D01*
G01X0007254Y0009493D01*
G01X0007178Y0009380D01*
G01X0007174Y0009358D01*
G01X0007152Y0009247D01*
G01X0007152Y0009247D01*
G01X0007152Y0008646D01*
G01X0007105Y0008636D01*
G01X0007021Y0008581D01*
G01X0007000Y0008551D01*
G01X0006981Y0008579D01*
G01X0006898Y0008635D01*
G01X0006800Y0008655D01*
G01X0006200Y0008655D01*
G01X0006105Y0008636D01*
G01X0006021Y0008581D01*
G01X0006000Y0008551D01*
G01X0005981Y0008579D01*
G01X0005898Y0008635D01*
G01X0005848Y0008645D01*
G01X0005848Y0010631D01*
G01X0005990Y0010689D01*
G01X0006110Y0010809D01*
G01X0006175Y0010965D01*
G01X0006175Y0011134D01*
G01X0006111Y0011290D01*
G01X0006055Y0011346D01*
G01X0006055Y0013200D01*
G01X0006055Y0013800D01*
G01X0006036Y0013895D01*
G01X0005981Y0013979D01*
G01X0005951Y0014000D01*
G01X0005979Y0014019D01*
G01X0006035Y0014102D01*
G01X0006055Y0014200D01*
G01X0006055Y0014800D01*
G01X0006036Y0014895D01*
G01X0005981Y0014979D01*
G01X0005898Y0015035D01*
G01X0005800Y0015055D01*
G01X0005200Y0015055D01*
G01X0005105Y0015036D01*
G01X0005021Y0014981D01*
G01X0004965Y0014898D01*
G01X0004945Y0014800D01*
G01X0004945Y0014200D01*
G01X0004964Y0014105D01*
G01X0005019Y0014021D01*
G01X0005049Y0014000D01*
G01X0005021Y0013981D01*
G01X0004965Y0013898D01*
G01X0004945Y0013800D01*
G01X0004945Y0013200D01*
G01X0004964Y0013105D01*
G01X0005019Y0013021D01*
G01X0005102Y0012965D01*
G01X0005200Y0012945D01*
G01X0005800Y0012945D01*
G01X0005895Y0012964D01*
G01X0005979Y0013019D01*
G01X0006035Y0013102D01*
G01X0006055Y0013200D01*
G01X0006055Y0011346D01*
G01X0005991Y0011410D01*
G01X0005835Y0011475D01*
G01X0005666Y0011475D01*
G01X0005510Y0011411D01*
G01X0005390Y0011291D01*
G01X0005325Y0011135D01*
G01X0005325Y0011118D01*
G01X0005254Y0011046D01*
G01X0005178Y0010933D01*
G01X0005174Y0010911D01*
G01X0005152Y0010800D01*
G01X0005152Y0010800D01*
G01X0005152Y0010004D01*
G01X0003137Y0012019D01*
G01X0003055Y0012073D01*
G01X0003055Y0012100D01*
G01X0003036Y0012195D01*
G01X0002981Y0012279D01*
G01X0002898Y0012335D01*
G01X0002800Y0012355D01*
G01X0002200Y0012355D01*
G01X0002105Y0012336D01*
G01X0002021Y0012281D01*
G01X0002000Y0012251D01*
G01X0001981Y0012279D01*
G01X0001898Y0012335D01*
G01X0001800Y0012355D01*
G01X0001200Y0012355D01*
G01X0001105Y0012336D01*
G01X0001021Y0012281D01*
G01X0000965Y0012198D01*
G01X0000945Y0012100D01*
G01X0000945Y0011500D01*
G01X0000964Y0011405D01*
G01X0001019Y0011321D01*
G01X0001049Y0011300D01*
G01X0001021Y0011281D01*
G01X0000965Y0011198D01*
G01X0000945Y0011100D01*
G01X0000945Y0010500D01*
G01X0000964Y0010405D01*
G01X0001019Y0010321D01*
G01X0001049Y0010300D01*
G01X0001021Y0010281D01*
G01X0000965Y0010198D01*
G01X0000945Y0010100D01*
G01X0000945Y0009500D01*
G01X0000964Y0009405D01*
G01X0001019Y0009321D01*
G01X0001049Y0009300D01*
G01X0001021Y0009281D01*
G01X0000965Y0009198D01*
G01X0000945Y0009100D01*
G01X0000945Y0008500D01*
G01X0000964Y0008405D01*
G01X0001019Y0008321D01*
G01X0001102Y0008265D01*
G01X0001200Y0008245D01*
G01X0001800Y0008245D01*
G01X0001895Y0008264D01*
G01X0001979Y0008319D01*
G01X0002000Y0008349D01*
G01X0002019Y0008321D01*
G01X0002102Y0008265D01*
G01X0002200Y0008245D01*
G01X0002200Y0008220D01*
G01X0002223Y0008105D01*
G01X0002288Y0008008D01*
G01X0002391Y0007905D01*
G01X0002200Y0007905D01*
G01X0002105Y0007886D01*
G01X0002021Y0007831D01*
G01X0002000Y0007801D01*
G01X0001981Y0007829D01*
G01X0001898Y0007885D01*
G01X0001800Y0007905D01*
G01X0001200Y0007905D01*
G01X0001105Y0007886D01*
G01X0001021Y0007831D01*
G01X0000965Y0007748D01*
G01X0000945Y0007650D01*
G01X0000945Y0007050D01*
G01X0000964Y0006955D01*
G01X0001019Y0006871D01*
G01X0001049Y0006850D01*
G01X0001021Y0006831D01*
G01X0000965Y0006748D01*
G01X0000945Y0006650D01*
G01X0000945Y0006050D01*
G01X0000964Y0005955D01*
G01X0001019Y0005871D01*
G01X0001049Y0005850D01*
G01X0001021Y0005831D01*
G01X0000965Y0005748D01*
G01X0000945Y0005650D01*
G01X0000945Y0005050D01*
G01X0000964Y0004955D01*
G01X0001019Y0004871D01*
G01X0001049Y0004850D01*
G01X0001021Y0004831D01*
G01X0000965Y0004748D01*
G01X0000945Y0004650D01*
G01X0000945Y0004050D01*
G01X0000964Y0003955D01*
G01X0001019Y0003871D01*
G01X0001102Y0003815D01*
G01X0001200Y0003795D01*
G01X0001800Y0003795D01*
G01X0001895Y0003814D01*
G01X0001979Y0003869D01*
G01X0002000Y0003899D01*
G01X0002019Y0003871D01*
G01X0002102Y0003815D01*
G01X0002200Y0003795D01*
G01X0002800Y0003795D01*
G01X0002895Y0003814D01*
G01X0002979Y0003869D01*
G01X0003035Y0003952D01*
G01X0003055Y0004050D01*
G01X0003055Y0004650D01*
G01X0003036Y0004745D01*
G01X0002981Y0004829D01*
G01X0002951Y0004850D01*
G01X0002979Y0004869D01*
G01X0003035Y0004952D01*
G01X0003055Y0005050D01*
G01X0003055Y0005650D01*
G01X0003036Y0005745D01*
G01X0002981Y0005829D01*
G01X0002951Y0005850D01*
G01X0002979Y0005869D01*
G01X0003035Y0005952D01*
G01X0003046Y0006005D01*
G01X0003975Y0005076D01*
G01X0003975Y0004991D01*
G01X0004039Y0004835D01*
G01X0004159Y0004715D01*
G01X0004315Y0004650D01*
G01X0004484Y0004650D01*
G01X0004640Y0004714D01*
G01X0004760Y0004834D01*
G01X0004825Y0004990D01*
G01X0004825Y0005159D01*
G01X0004761Y0005315D01*
G01X0004641Y0005435D01*
G01X0004485Y0005500D01*
G01X0004399Y0005500D01*
G01X0003250Y0006649D01*
G01X0003250Y0007770D01*
G01X0003227Y0007885D01*
G01X0003227Y0007885D01*
G01X0003162Y0007982D01*
G01X0002883Y0008261D01*
G01X0002895Y0008264D01*
G01X0002979Y0008319D01*
G01X0003035Y0008402D01*
G01X0003055Y0008500D01*
G01X0003055Y0009100D01*
G01X0003036Y0009195D01*
G01X0002981Y0009279D01*
G01X0002951Y0009300D01*
G01X0002969Y0009312D01*
G01X0003891Y0008390D01*
G01X0003891Y0007030D01*
G01X0003867Y0007030D01*
G01X0003710Y0006966D01*
G01X0003591Y0006846D01*
G01X0003526Y0006690D01*
G01X0003526Y0006521D01*
G01X0003590Y0006365D01*
G01X0003710Y0006245D01*
G01X0003866Y0006180D01*
G01X0004035Y0006180D01*
G01X0004191Y0006245D01*
G01X0004219Y0006273D01*
G01X0004278Y0006215D01*
G01X0004434Y0006150D01*
G01X0004603Y0006150D01*
G01X0004759Y0006214D01*
G01X0004879Y0006334D01*
G01X0004889Y0006360D01*
G01X0004959Y0006290D01*
G01X0005115Y0006225D01*
G01X0005284Y0006225D01*
G01X0005440Y0006289D01*
G01X0005560Y0006409D01*
G01X0005625Y0006565D01*
G01X0005625Y0006588D01*
G01X0006285Y0005928D01*
G01X0006241Y0005819D01*
G01X0006240Y0005650D01*
G01X0006305Y0005494D01*
G01X0006424Y0005374D01*
G01X0006581Y0005310D01*
G01X0006750Y0005309D01*
G01X0006906Y0005374D01*
G01X0007026Y0005493D01*
G01X0007090Y0005650D01*
G01X0007091Y0005819D01*
G01X0007026Y0005975D01*
G01X0006964Y0006037D01*
G01X0006951Y0006103D01*
G01X0006951Y0006103D01*
G01X0006884Y0006203D01*
G01X0005875Y0007212D01*
G01X0005875Y0007284D01*
G01X0005811Y0007440D01*
G01X0005706Y0007545D01*
G01X0005800Y0007545D01*
G01X0005895Y0007564D01*
G01X0005979Y0007619D01*
G01X0006000Y0007649D01*
G01X0006019Y0007621D01*
G01X0006102Y0007565D01*
G01X0006162Y0007553D01*
G01X0006174Y0007492D01*
G01X0006178Y0007470D01*
G01X0006254Y0007357D01*
G01X0007657Y0005954D01*
G01X0007657Y0005954D01*
G01X0007770Y0005878D01*
G01X0007903Y0005852D01*
G01X0007903Y0005852D01*
G01X0007903Y0005852D01*
G01X0008954Y0005852D01*
G01X0008964Y0005805D01*
G01X0009019Y0005721D01*
G01X0009049Y0005700D01*
G01X0009021Y0005681D01*
G01X0008965Y0005598D01*
G01X0008945Y0005500D01*
G01X0008945Y0004900D01*
G01X0008964Y0004805D01*
G01X0009019Y0004721D01*
G01X0009102Y0004665D01*
G01X0009200Y0004645D01*
G01X0009800Y0004645D01*
G01X0009895Y0004664D01*
G01X0009979Y0004719D01*
G01X0010000Y0004749D01*
G01X0010019Y0004721D01*
G01X0010102Y0004665D01*
G01X0010200Y0004645D01*
G01X0010800Y0004645D01*
G01X0010895Y0004664D01*
G01X0010979Y0004719D01*
G01X0011035Y0004802D01*
G01X0011055Y0004900D01*
G01X0011055Y0000370D01*
G01X0008105Y0000370D01*
G01X0008105Y0001100D01*
G01X0008105Y0001700D01*
G01X0008086Y0001795D01*
G01X0008031Y0001879D01*
G01X0008001Y0001900D01*
G01X0008029Y0001919D01*
G01X0008085Y0002002D01*
G01X0008105Y0002100D01*
G01X0008105Y0002700D01*
G01X0008086Y0002795D01*
G01X0008031Y0002879D01*
G01X0007948Y0002935D01*
G01X0007850Y0002955D01*
G01X0007250Y0002955D01*
G01X0007155Y0002936D01*
G01X0007071Y0002881D01*
G01X0007050Y0002851D01*
G01X0007031Y0002879D01*
G01X0006948Y0002935D01*
G01X0006850Y0002955D01*
G01X0006250Y0002955D01*
G01X0006155Y0002936D01*
G01X0006071Y0002881D01*
G01X0006050Y0002851D01*
G01X0006031Y0002879D01*
G01X0005948Y0002935D01*
G01X0005850Y0002955D01*
G01X0005250Y0002955D01*
G01X0005155Y0002936D01*
G01X0005071Y0002881D01*
G01X0005050Y0002851D01*
G01X0005031Y0002879D01*
G01X0004948Y0002935D01*
G01X0004850Y0002955D01*
G01X0004250Y0002955D01*
G01X0004155Y0002936D01*
G01X0004071Y0002881D01*
G01X0004015Y0002798D01*
G01X0003995Y0002700D01*
G01X0003995Y0002100D01*
G01X0004014Y0002005D01*
G01X0004069Y0001921D01*
G01X0004099Y0001900D01*
G01X0004071Y0001881D01*
G01X0004015Y0001798D01*
G01X0003995Y0001700D01*
G01X0003995Y0001100D01*
G01X0004014Y0001005D01*
G01X0004069Y0000921D01*
G01X0004152Y0000865D01*
G01X0004250Y0000845D01*
G01X0004850Y0000845D01*
G01X0004945Y0000864D01*
G01X0005029Y0000919D01*
G01X0005050Y0000949D01*
G01X0005069Y0000921D01*
G01X0005152Y0000865D01*
G01X0005250Y0000845D01*
G01X0005850Y0000845D01*
G01X0005945Y0000864D01*
G01X0006029Y0000919D01*
G01X0006050Y0000949D01*
G01X0006069Y0000921D01*
G01X0006152Y0000865D01*
G01X0006250Y0000845D01*
G01X0006850Y0000845D01*
G01X0006945Y0000864D01*
G01X0007029Y0000919D01*
G01X0007050Y0000949D01*
G01X0007069Y0000921D01*
G01X0007152Y0000865D01*
G01X0007250Y0000845D01*
G01X0007850Y0000845D01*
G01X0007945Y0000864D01*
G01X0008029Y0000919D01*
G01X0008085Y0001002D01*
G01X0008105Y0001100D01*
G01X0008105Y0000370D01*
G01X0000370Y0000370D01*
G01X0000370Y0015630D01*
G01X0011630Y0015630D01*
G01X0011630Y0000370D01*
G01X0011630Y0000370D01*
G37*
G01X0011630Y0000370D02*
G01X0011055Y0000370D01*
G01X0011055Y0000370D02*
G01X0011055Y0004900D01*
G01X0011055Y0004900D02*
G01X0011055Y0005500D01*
G01X0011055Y0005500D02*
G01X0011036Y0005595D01*
G01X0011036Y0005595D02*
G01X0010981Y0005679D01*
G01X0010981Y0005679D02*
G01X0010951Y0005700D01*
G01X0010951Y0005700D02*
G01X0010979Y0005719D01*
G01X0010979Y0005719D02*
G01X0011035Y0005802D01*
G01X0011035Y0005802D02*
G01X0011055Y0005900D01*
G01X0011055Y0005900D02*
G01X0011055Y0006500D01*
G01X0011055Y0006500D02*
G01X0011036Y0006595D01*
G01X0011036Y0006595D02*
G01X0010981Y0006679D01*
G01X0010981Y0006679D02*
G01X0010951Y0006700D01*
G01X0010951Y0006700D02*
G01X0010979Y0006719D01*
G01X0010979Y0006719D02*
G01X0011035Y0006802D01*
G01X0011035Y0006802D02*
G01X0011055Y0006900D01*
G01X0011055Y0006900D02*
G01X0011055Y0007500D01*
G01X0011055Y0007500D02*
G01X0011036Y0007595D01*
G01X0011036Y0007595D02*
G01X0010981Y0007679D01*
G01X0010981Y0007679D02*
G01X0010898Y0007735D01*
G01X0010898Y0007735D02*
G01X0010800Y0007755D01*
G01X0010800Y0007755D02*
G01X0010200Y0007755D01*
G01X0010200Y0007755D02*
G01X0010105Y0007736D01*
G01X0010105Y0007736D02*
G01X0010021Y0007681D01*
G01X0010021Y0007681D02*
G01X0010000Y0007651D01*
G01X0010000Y0007651D02*
G01X0009981Y0007679D01*
G01X0009981Y0007679D02*
G01X0009898Y0007735D01*
G01X0009898Y0007735D02*
G01X0009800Y0007755D01*
G01X0009800Y0007755D02*
G01X0009200Y0007755D01*
G01X0009200Y0007755D02*
G01X0009105Y0007736D01*
G01X0009105Y0007736D02*
G01X0009021Y0007681D01*
G01X0009021Y0007681D02*
G01X0008965Y0007598D01*
G01X0008965Y0007598D02*
G01X0008945Y0007500D01*
G01X0008945Y0007500D02*
G01X0008945Y0006900D01*
G01X0008945Y0006900D02*
G01X0008964Y0006805D01*
G01X0008964Y0006805D02*
G01X0009019Y0006721D01*
G01X0009019Y0006721D02*
G01X0009049Y0006700D01*
G01X0009049Y0006700D02*
G01X0009021Y0006681D01*
G01X0009021Y0006681D02*
G01X0008965Y0006598D01*
G01X0008965Y0006598D02*
G01X0008955Y0006548D01*
G01X0008955Y0006548D02*
G01X0008047Y0006548D01*
G01X0008047Y0006548D02*
G01X0006978Y0007618D01*
G01X0006978Y0007618D02*
G01X0006979Y0007619D01*
G01X0006979Y0007619D02*
G01X0007000Y0007649D01*
G01X0007000Y0007649D02*
G01X0007019Y0007621D01*
G01X0007019Y0007621D02*
G01X0007102Y0007565D01*
G01X0007102Y0007565D02*
G01X0007200Y0007545D01*
G01X0007200Y0007545D02*
G01X0007800Y0007545D01*
G01X0007800Y0007545D02*
G01X0007895Y0007564D01*
G01X0007895Y0007564D02*
G01X0007979Y0007619D01*
G01X0007979Y0007619D02*
G01X0008035Y0007702D01*
G01X0008035Y0007702D02*
G01X0008055Y0007800D01*
G01X0008055Y0007800D02*
G01X0008055Y0008400D01*
G01X0008055Y0008400D02*
G01X0008036Y0008495D01*
G01X0008036Y0008495D02*
G01X0007981Y0008579D01*
G01X0007981Y0008579D02*
G01X0007898Y0008635D01*
G01X0007898Y0008635D02*
G01X0007848Y0008645D01*
G01X0007848Y0008645D02*
G01X0007848Y0009103D01*
G01X0007848Y0009103D02*
G01X0009018Y0010272D01*
G01X0009018Y0010272D02*
G01X0009019Y0010271D01*
G01X0009019Y0010271D02*
G01X0009102Y0010215D01*
G01X0009102Y0010215D02*
G01X0009200Y0010195D01*
G01X0009200Y0010195D02*
G01X0009800Y0010195D01*
G01X0009800Y0010195D02*
G01X0009895Y0010214D01*
G01X0009895Y0010214D02*
G01X0009979Y0010269D01*
G01X0009979Y0010269D02*
G01X0010000Y0010299D01*
G01X0010000Y0010299D02*
G01X0010019Y0010271D01*
G01X0010019Y0010271D02*
G01X0010102Y0010215D01*
G01X0010102Y0010215D02*
G01X0010200Y0010195D01*
G01X0010200Y0010195D02*
G01X0010800Y0010195D01*
G01X0010800Y0010195D02*
G01X0010895Y0010214D01*
G01X0010895Y0010214D02*
G01X0010979Y0010269D01*
G01X0010979Y0010269D02*
G01X0011035Y0010352D01*
G01X0011035Y0010352D02*
G01X0011055Y0010450D01*
G01X0011055Y0010450D02*
G01X0011055Y0011050D01*
G01X0011055Y0011050D02*
G01X0011036Y0011145D01*
G01X0011036Y0011145D02*
G01X0010981Y0011229D01*
G01X0010981Y0011229D02*
G01X0010898Y0011285D01*
G01X0010898Y0011285D02*
G01X0010800Y0011305D01*
G01X0010800Y0011305D02*
G01X0010200Y0011305D01*
G01X0010200Y0011305D02*
G01X0010105Y0011286D01*
G01X0010105Y0011286D02*
G01X0010021Y0011231D01*
G01X0010021Y0011231D02*
G01X0010000Y0011201D01*
G01X0010000Y0011201D02*
G01X0009981Y0011229D01*
G01X0009981Y0011229D02*
G01X0009898Y0011285D01*
G01X0009898Y0011285D02*
G01X0009800Y0011305D01*
G01X0009800Y0011305D02*
G01X0009200Y0011305D01*
G01X0009200Y0011305D02*
G01X0009105Y0011286D01*
G01X0009105Y0011286D02*
G01X0009021Y0011231D01*
G01X0009021Y0011231D02*
G01X0008965Y0011148D01*
G01X0008965Y0011148D02*
G01X0008953Y0011088D01*
G01X0008953Y0011088D02*
G01X0008870Y0011072D01*
G01X0008870Y0011072D02*
G01X0008757Y0010996D01*
G01X0008757Y0010996D02*
G01X0008757Y0010996D01*
G01X0008757Y0010996D02*
G01X0007254Y0009493D01*
G01X0007254Y0009493D02*
G01X0007178Y0009380D01*
G01X0007178Y0009380D02*
G01X0007174Y0009358D01*
G01X0007174Y0009358D02*
G01X0007152Y0009247D01*
G01X0007152Y0009247D02*
G01X0007152Y0009247D01*
G01X0007152Y0009247D02*
G01X0007152Y0008646D01*
G01X0007152Y0008646D02*
G01X0007105Y0008636D01*
G01X0007105Y0008636D02*
G01X0007021Y0008581D01*
G01X0007021Y0008581D02*
G01X0007000Y0008551D01*
G01X0007000Y0008551D02*
G01X0006981Y0008579D01*
G01X0006981Y0008579D02*
G01X0006898Y0008635D01*
G01X0006898Y0008635D02*
G01X0006800Y0008655D01*
G01X0006800Y0008655D02*
G01X0006200Y0008655D01*
G01X0006200Y0008655D02*
G01X0006105Y0008636D01*
G01X0006105Y0008636D02*
G01X0006021Y0008581D01*
G01X0006021Y0008581D02*
G01X0006000Y0008551D01*
G01X0006000Y0008551D02*
G01X0005981Y0008579D01*
G01X0005981Y0008579D02*
G01X0005898Y0008635D01*
G01X0005898Y0008635D02*
G01X0005848Y0008645D01*
G01X0005848Y0008645D02*
G01X0005848Y0010631D01*
G01X0005848Y0010631D02*
G01X0005990Y0010689D01*
G01X0005990Y0010689D02*
G01X0006110Y0010809D01*
G01X0006110Y0010809D02*
G01X0006175Y0010965D01*
G01X0006175Y0010965D02*
G01X0006175Y0011134D01*
G01X0006175Y0011134D02*
G01X0006111Y0011290D01*
G01X0006111Y0011290D02*
G01X0006055Y0011346D01*
G01X0006055Y0011346D02*
G01X0006055Y0013200D01*
G01X0006055Y0013200D02*
G01X0006055Y0013800D01*
G01X0006055Y0013800D02*
G01X0006036Y0013895D01*
G01X0006036Y0013895D02*
G01X0005981Y0013979D01*
G01X0005981Y0013979D02*
G01X0005951Y0014000D01*
G01X0005951Y0014000D02*
G01X0005979Y0014019D01*
G01X0005979Y0014019D02*
G01X0006035Y0014102D01*
G01X0006035Y0014102D02*
G01X0006055Y0014200D01*
G01X0006055Y0014200D02*
G01X0006055Y0014800D01*
G01X0006055Y0014800D02*
G01X0006036Y0014895D01*
G01X0006036Y0014895D02*
G01X0005981Y0014979D01*
G01X0005981Y0014979D02*
G01X0005898Y0015035D01*
G01X0005898Y0015035D02*
G01X0005800Y0015055D01*
G01X0005800Y0015055D02*
G01X0005200Y0015055D01*
G01X0005200Y0015055D02*
G01X0005105Y0015036D01*
G01X0005105Y0015036D02*
G01X0005021Y0014981D01*
G01X0005021Y0014981D02*
G01X0004965Y0014898D01*
G01X0004965Y0014898D02*
G01X0004945Y0014800D01*
G01X0004945Y0014800D02*
G01X0004945Y0014200D01*
G01X0004945Y0014200D02*
G01X0004964Y0014105D01*
G01X0004964Y0014105D02*
G01X0005019Y0014021D01*
G01X0005019Y0014021D02*
G01X0005049Y0014000D01*
G01X0005049Y0014000D02*
G01X0005021Y0013981D01*
G01X0005021Y0013981D02*
G01X0004965Y0013898D01*
G01X0004965Y0013898D02*
G01X0004945Y0013800D01*
G01X0004945Y0013800D02*
G01X0004945Y0013200D01*
G01X0004945Y0013200D02*
G01X0004964Y0013105D01*
G01X0004964Y0013105D02*
G01X0005019Y0013021D01*
G01X0005019Y0013021D02*
G01X0005102Y0012965D01*
G01X0005102Y0012965D02*
G01X0005200Y0012945D01*
G01X0005200Y0012945D02*
G01X0005800Y0012945D01*
G01X0005800Y0012945D02*
G01X0005895Y0012964D01*
G01X0005895Y0012964D02*
G01X0005979Y0013019D01*
G01X0005979Y0013019D02*
G01X0006035Y0013102D01*
G01X0006035Y0013102D02*
G01X0006055Y0013200D01*
G01X0006055Y0013200D02*
G01X0006055Y0011346D01*
G01X0006055Y0011346D02*
G01X0005991Y0011410D01*
G01X0005991Y0011410D02*
G01X0005835Y0011475D01*
G01X0005835Y0011475D02*
G01X0005666Y0011475D01*
G01X0005666Y0011475D02*
G01X0005510Y0011411D01*
G01X0005510Y0011411D02*
G01X0005390Y0011291D01*
G01X0005390Y0011291D02*
G01X0005325Y0011135D01*
G01X0005325Y0011135D02*
G01X0005325Y0011118D01*
G01X0005325Y0011118D02*
G01X0005254Y0011046D01*
G01X0005254Y0011046D02*
G01X0005178Y0010933D01*
G01X0005178Y0010933D02*
G01X0005174Y0010911D01*
G01X0005174Y0010911D02*
G01X0005152Y0010800D01*
G01X0005152Y0010800D02*
G01X0005152Y0010800D01*
G01X0005152Y0010800D02*
G01X0005152Y0010004D01*
G01X0005152Y0010004D02*
G01X0003137Y0012019D01*
G01X0003137Y0012019D02*
G01X0003055Y0012073D01*
G01X0003055Y0012073D02*
G01X0003055Y0012100D01*
G01X0003055Y0012100D02*
G01X0003036Y0012195D01*
G01X0003036Y0012195D02*
G01X0002981Y0012279D01*
G01X0002981Y0012279D02*
G01X0002898Y0012335D01*
G01X0002898Y0012335D02*
G01X0002800Y0012355D01*
G01X0002800Y0012355D02*
G01X0002200Y0012355D01*
G01X0002200Y0012355D02*
G01X0002105Y0012336D01*
G01X0002105Y0012336D02*
G01X0002021Y0012281D01*
G01X0002021Y0012281D02*
G01X0002000Y0012251D01*
G01X0002000Y0012251D02*
G01X0001981Y0012279D01*
G01X0001981Y0012279D02*
G01X0001898Y0012335D01*
G01X0001898Y0012335D02*
G01X0001800Y0012355D01*
G01X0001800Y0012355D02*
G01X0001200Y0012355D01*
G01X0001200Y0012355D02*
G01X0001105Y0012336D01*
G01X0001105Y0012336D02*
G01X0001021Y0012281D01*
G01X0001021Y0012281D02*
G01X0000965Y0012198D01*
G01X0000965Y0012198D02*
G01X0000945Y0012100D01*
G01X0000945Y0012100D02*
G01X0000945Y0011500D01*
G01X0000945Y0011500D02*
G01X0000964Y0011405D01*
G01X0000964Y0011405D02*
G01X0001019Y0011321D01*
G01X0001019Y0011321D02*
G01X0001049Y0011300D01*
G01X0001049Y0011300D02*
G01X0001021Y0011281D01*
G01X0001021Y0011281D02*
G01X0000965Y0011198D01*
G01X0000965Y0011198D02*
G01X0000945Y0011100D01*
G01X0000945Y0011100D02*
G01X0000945Y0010500D01*
G01X0000945Y0010500D02*
G01X0000964Y0010405D01*
G01X0000964Y0010405D02*
G01X0001019Y0010321D01*
G01X0001019Y0010321D02*
G01X0001049Y0010300D01*
G01X0001049Y0010300D02*
G01X0001021Y0010281D01*
G01X0001021Y0010281D02*
G01X0000965Y0010198D01*
G01X0000965Y0010198D02*
G01X0000945Y0010100D01*
G01X0000945Y0010100D02*
G01X0000945Y0009500D01*
G01X0000945Y0009500D02*
G01X0000964Y0009405D01*
G01X0000964Y0009405D02*
G01X0001019Y0009321D01*
G01X0001019Y0009321D02*
G01X0001049Y0009300D01*
G01X0001049Y0009300D02*
G01X0001021Y0009281D01*
G01X0001021Y0009281D02*
G01X0000965Y0009198D01*
G01X0000965Y0009198D02*
G01X0000945Y0009100D01*
G01X0000945Y0009100D02*
G01X0000945Y0008500D01*
G01X0000945Y0008500D02*
G01X0000964Y0008405D01*
G01X0000964Y0008405D02*
G01X0001019Y0008321D01*
G01X0001019Y0008321D02*
G01X0001102Y0008265D01*
G01X0001102Y0008265D02*
G01X0001200Y0008245D01*
G01X0001200Y0008245D02*
G01X0001800Y0008245D01*
G01X0001800Y0008245D02*
G01X0001895Y0008264D01*
G01X0001895Y0008264D02*
G01X0001979Y0008319D01*
G01X0001979Y0008319D02*
G01X0002000Y0008349D01*
G01X0002000Y0008349D02*
G01X0002019Y0008321D01*
G01X0002019Y0008321D02*
G01X0002102Y0008265D01*
G01X0002102Y0008265D02*
G01X0002200Y0008245D01*
G01X0002200Y0008245D02*
G01X0002200Y0008220D01*
G01X0002200Y0008220D02*
G01X0002223Y0008105D01*
G01X0002223Y0008105D02*
G01X0002288Y0008008D01*
G01X0002288Y0008008D02*
G01X0002391Y0007905D01*
G01X0002391Y0007905D02*
G01X0002200Y0007905D01*
G01X0002200Y0007905D02*
G01X0002105Y0007886D01*
G01X0002105Y0007886D02*
G01X0002021Y0007831D01*
G01X0002021Y0007831D02*
G01X0002000Y0007801D01*
G01X0002000Y0007801D02*
G01X0001981Y0007829D01*
G01X0001981Y0007829D02*
G01X0001898Y0007885D01*
G01X0001898Y0007885D02*
G01X0001800Y0007905D01*
G01X0001800Y0007905D02*
G01X0001200Y0007905D01*
G01X0001200Y0007905D02*
G01X0001105Y0007886D01*
G01X0001105Y0007886D02*
G01X0001021Y0007831D01*
G01X0001021Y0007831D02*
G01X0000965Y0007748D01*
G01X0000965Y0007748D02*
G01X0000945Y0007650D01*
G01X0000945Y0007650D02*
G01X0000945Y0007050D01*
G01X0000945Y0007050D02*
G01X0000964Y0006955D01*
G01X0000964Y0006955D02*
G01X0001019Y0006871D01*
G01X0001019Y0006871D02*
G01X0001049Y0006850D01*
G01X0001049Y0006850D02*
G01X0001021Y0006831D01*
G01X0001021Y0006831D02*
G01X0000965Y0006748D01*
G01X0000965Y0006748D02*
G01X0000945Y0006650D01*
G01X0000945Y0006650D02*
G01X0000945Y0006050D01*
G01X0000945Y0006050D02*
G01X0000964Y0005955D01*
G01X0000964Y0005955D02*
G01X0001019Y0005871D01*
G01X0001019Y0005871D02*
G01X0001049Y0005850D01*
G01X0001049Y0005850D02*
G01X0001021Y0005831D01*
G01X0001021Y0005831D02*
G01X0000965Y0005748D01*
G01X0000965Y0005748D02*
G01X0000945Y0005650D01*
G01X0000945Y0005650D02*
G01X0000945Y0005050D01*
G01X0000945Y0005050D02*
G01X0000964Y0004955D01*
G01X0000964Y0004955D02*
G01X0001019Y0004871D01*
G01X0001019Y0004871D02*
G01X0001049Y0004850D01*
G01X0001049Y0004850D02*
G01X0001021Y0004831D01*
G01X0001021Y0004831D02*
G01X0000965Y0004748D01*
G01X0000965Y0004748D02*
G01X0000945Y0004650D01*
G01X0000945Y0004650D02*
G01X0000945Y0004050D01*
G01X0000945Y0004050D02*
G01X0000964Y0003955D01*
G01X0000964Y0003955D02*
G01X0001019Y0003871D01*
G01X0001019Y0003871D02*
G01X0001102Y0003815D01*
G01X0001102Y0003815D02*
G01X0001200Y0003795D01*
G01X0001200Y0003795D02*
G01X0001800Y0003795D01*
G01X0001800Y0003795D02*
G01X0001895Y0003814D01*
G01X0001895Y0003814D02*
G01X0001979Y0003869D01*
G01X0001979Y0003869D02*
G01X0002000Y0003899D01*
G01X0002000Y0003899D02*
G01X0002019Y0003871D01*
G01X0002019Y0003871D02*
G01X0002102Y0003815D01*
G01X0002102Y0003815D02*
G01X0002200Y0003795D01*
G01X0002200Y0003795D02*
G01X0002800Y0003795D01*
G01X0002800Y0003795D02*
G01X0002895Y0003814D01*
G01X0002895Y0003814D02*
G01X0002979Y0003869D01*
G01X0002979Y0003869D02*
G01X0003035Y0003952D01*
G01X0003035Y0003952D02*
G01X0003055Y0004050D01*
G01X0003055Y0004050D02*
G01X0003055Y0004650D01*
G01X0003055Y0004650D02*
G01X0003036Y0004745D01*
G01X0003036Y0004745D02*
G01X0002981Y0004829D01*
G01X0002981Y0004829D02*
G01X0002951Y0004850D01*
G01X0002951Y0004850D02*
G01X0002979Y0004869D01*
G01X0002979Y0004869D02*
G01X0003035Y0004952D01*
G01X0003035Y0004952D02*
G01X0003055Y0005050D01*
G01X0003055Y0005050D02*
G01X0003055Y0005650D01*
G01X0003055Y0005650D02*
G01X0003036Y0005745D01*
G01X0003036Y0005745D02*
G01X0002981Y0005829D01*
G01X0002981Y0005829D02*
G01X0002951Y0005850D01*
G01X0002951Y0005850D02*
G01X0002979Y0005869D01*
G01X0002979Y0005869D02*
G01X0003035Y0005952D01*
G01X0003035Y0005952D02*
G01X0003046Y0006005D01*
G01X0003046Y0006005D02*
G01X0003975Y0005076D01*
G01X0003975Y0005076D02*
G01X0003975Y0004991D01*
G01X0003975Y0004991D02*
G01X0004039Y0004835D01*
G01X0004039Y0004835D02*
G01X0004159Y0004715D01*
G01X0004159Y0004715D02*
G01X0004315Y0004650D01*
G01X0004315Y0004650D02*
G01X0004484Y0004650D01*
G01X0004484Y0004650D02*
G01X0004640Y0004714D01*
G01X0004640Y0004714D02*
G01X0004760Y0004834D01*
G01X0004760Y0004834D02*
G01X0004825Y0004990D01*
G01X0004825Y0004990D02*
G01X0004825Y0005159D01*
G01X0004825Y0005159D02*
G01X0004761Y0005315D01*
G01X0004761Y0005315D02*
G01X0004641Y0005435D01*
G01X0004641Y0005435D02*
G01X0004485Y0005500D01*
G01X0004485Y0005500D02*
G01X0004399Y0005500D01*
G01X0004399Y0005500D02*
G01X0003250Y0006649D01*
G01X0003250Y0006649D02*
G01X0003250Y0007770D01*
G01X0003250Y0007770D02*
G01X0003227Y0007885D01*
G01X0003227Y0007885D02*
G01X0003227Y0007885D01*
G01X0003227Y0007885D02*
G01X0003162Y0007982D01*
G01X0003162Y0007982D02*
G01X0002883Y0008261D01*
G01X0002883Y0008261D02*
G01X0002895Y0008264D01*
G01X0002895Y0008264D02*
G01X0002979Y0008319D01*
G01X0002979Y0008319D02*
G01X0003035Y0008402D01*
G01X0003035Y0008402D02*
G01X0003055Y0008500D01*
G01X0003055Y0008500D02*
G01X0003055Y0009100D01*
G01X0003055Y0009100D02*
G01X0003036Y0009195D01*
G01X0003036Y0009195D02*
G01X0002981Y0009279D01*
G01X0002981Y0009279D02*
G01X0002951Y0009300D01*
G01X0002951Y0009300D02*
G01X0002969Y0009312D01*
G01X0002969Y0009312D02*
G01X0003891Y0008390D01*
G01X0003891Y0008390D02*
G01X0003891Y0007030D01*
G01X0003891Y0007030D02*
G01X0003867Y0007030D01*
G01X0003867Y0007030D02*
G01X0003710Y0006966D01*
G01X0003710Y0006966D02*
G01X0003591Y0006846D01*
G01X0003591Y0006846D02*
G01X0003526Y0006690D01*
G01X0003526Y0006690D02*
G01X0003526Y0006521D01*
G01X0003526Y0006521D02*
G01X0003590Y0006365D01*
G01X0003590Y0006365D02*
G01X0003710Y0006245D01*
G01X0003710Y0006245D02*
G01X0003866Y0006180D01*
G01X0003866Y0006180D02*
G01X0004035Y0006180D01*
G01X0004035Y0006180D02*
G01X0004191Y0006245D01*
G01X0004191Y0006245D02*
G01X0004219Y0006273D01*
G01X0004219Y0006273D02*
G01X0004278Y0006215D01*
G01X0004278Y0006215D02*
G01X0004434Y0006150D01*
G01X0004434Y0006150D02*
G01X0004603Y0006150D01*
G01X0004603Y0006150D02*
G01X0004759Y0006214D01*
G01X0004759Y0006214D02*
G01X0004879Y0006334D01*
G01X0004879Y0006334D02*
G01X0004889Y0006360D01*
G01X0004889Y0006360D02*
G01X0004959Y0006290D01*
G01X0004959Y0006290D02*
G01X0005115Y0006225D01*
G01X0005115Y0006225D02*
G01X0005284Y0006225D01*
G01X0005284Y0006225D02*
G01X0005440Y0006289D01*
G01X0005440Y0006289D02*
G01X0005560Y0006409D01*
G01X0005560Y0006409D02*
G01X0005625Y0006565D01*
G01X0005625Y0006565D02*
G01X0005625Y0006588D01*
G01X0005625Y0006588D02*
G01X0006285Y0005928D01*
G01X0006285Y0005928D02*
G01X0006241Y0005819D01*
G01X0006241Y0005819D02*
G01X0006240Y0005650D01*
G01X0006240Y0005650D02*
G01X0006305Y0005494D01*
G01X0006305Y0005494D02*
G01X0006424Y0005374D01*
G01X0006424Y0005374D02*
G01X0006581Y0005310D01*
G01X0006581Y0005310D02*
G01X0006750Y0005309D01*
G01X0006750Y0005309D02*
G01X0006906Y0005374D01*
G01X0006906Y0005374D02*
G01X0007026Y0005493D01*
G01X0007026Y0005493D02*
G01X0007090Y0005650D01*
G01X0007090Y0005650D02*
G01X0007091Y0005819D01*
G01X0007091Y0005819D02*
G01X0007026Y0005975D01*
G01X0007026Y0005975D02*
G01X0006964Y0006037D01*
G01X0006964Y0006037D02*
G01X0006951Y0006103D01*
G01X0006951Y0006103D02*
G01X0006951Y0006103D01*
G01X0006951Y0006103D02*
G01X0006884Y0006203D01*
G01X0006884Y0006203D02*
G01X0005875Y0007212D01*
G01X0005875Y0007212D02*
G01X0005875Y0007284D01*
G01X0005875Y0007284D02*
G01X0005811Y0007440D01*
G01X0005811Y0007440D02*
G01X0005706Y0007545D01*
G01X0005706Y0007545D02*
G01X0005800Y0007545D01*
G01X0005800Y0007545D02*
G01X0005895Y0007564D01*
G01X0005895Y0007564D02*
G01X0005979Y0007619D01*
G01X0005979Y0007619D02*
G01X0006000Y0007649D01*
G01X0006000Y0007649D02*
G01X0006019Y0007621D01*
G01X0006019Y0007621D02*
G01X0006102Y0007565D01*
G01X0006102Y0007565D02*
G01X0006162Y0007553D01*
G01X0006162Y0007553D02*
G01X0006174Y0007492D01*
G01X0006174Y0007492D02*
G01X0006178Y0007470D01*
G01X0006178Y0007470D02*
G01X0006254Y0007357D01*
G01X0006254Y0007357D02*
G01X0007657Y0005954D01*
G01X0007657Y0005954D02*
G01X0007657Y0005954D01*
G01X0007657Y0005954D02*
G01X0007770Y0005878D01*
G01X0007770Y0005878D02*
G01X0007903Y0005852D01*
G01X0007903Y0005852D02*
G01X0007903Y0005852D01*
G01X0007903Y0005852D02*
G01X0007903Y0005852D01*
G01X0007903Y0005852D02*
G01X0008954Y0005852D01*
G01X0008954Y0005852D02*
G01X0008964Y0005805D01*
G01X0008964Y0005805D02*
G01X0009019Y0005721D01*
G01X0009019Y0005721D02*
G01X0009049Y0005700D01*
G01X0009049Y0005700D02*
G01X0009021Y0005681D01*
G01X0009021Y0005681D02*
G01X0008965Y0005598D01*
G01X0008965Y0005598D02*
G01X0008945Y0005500D01*
G01X0008945Y0005500D02*
G01X0008945Y0004900D01*
G01X0008945Y0004900D02*
G01X0008964Y0004805D01*
G01X0008964Y0004805D02*
G01X0009019Y0004721D01*
G01X0009019Y0004721D02*
G01X0009102Y0004665D01*
G01X0009102Y0004665D02*
G01X0009200Y0004645D01*
G01X0009200Y0004645D02*
G01X0009800Y0004645D01*
G01X0009800Y0004645D02*
G01X0009895Y0004664D01*
G01X0009895Y0004664D02*
G01X0009979Y0004719D01*
G01X0009979Y0004719D02*
G01X0010000Y0004749D01*
G01X0010000Y0004749D02*
G01X0010019Y0004721D01*
G01X0010019Y0004721D02*
G01X0010102Y0004665D01*
G01X0010102Y0004665D02*
G01X0010200Y0004645D01*
G01X0010200Y0004645D02*
G01X0010800Y0004645D01*
G01X0010800Y0004645D02*
G01X0010895Y0004664D01*
G01X0010895Y0004664D02*
G01X0010979Y0004719D01*
G01X0010979Y0004719D02*
G01X0011035Y0004802D01*
G01X0011035Y0004802D02*
G01X0011055Y0004900D01*
G01X0011055Y0004900D02*
G01X0011055Y0000370D01*
G01X0011055Y0000370D02*
G01X0008105Y0000370D01*
G01X0008105Y0000370D02*
G01X0008105Y0001100D01*
G01X0008105Y0001100D02*
G01X0008105Y0001700D01*
G01X0008105Y0001700D02*
G01X0008086Y0001795D01*
G01X0008086Y0001795D02*
G01X0008031Y0001879D01*
G01X0008031Y0001879D02*
G01X0008001Y0001900D01*
G01X0008001Y0001900D02*
G01X0008029Y0001919D01*
G01X0008029Y0001919D02*
G01X0008085Y0002002D01*
G01X0008085Y0002002D02*
G01X0008105Y0002100D01*
G01X0008105Y0002100D02*
G01X0008105Y0002700D01*
G01X0008105Y0002700D02*
G01X0008086Y0002795D01*
G01X0008086Y0002795D02*
G01X0008031Y0002879D01*
G01X0008031Y0002879D02*
G01X0007948Y0002935D01*
G01X0007948Y0002935D02*
G01X0007850Y0002955D01*
G01X0007850Y0002955D02*
G01X0007250Y0002955D01*
G01X0007250Y0002955D02*
G01X0007155Y0002936D01*
G01X0007155Y0002936D02*
G01X0007071Y0002881D01*
G01X0007071Y0002881D02*
G01X0007050Y0002851D01*
G01X0007050Y0002851D02*
G01X0007031Y0002879D01*
G01X0007031Y0002879D02*
G01X0006948Y0002935D01*
G01X0006948Y0002935D02*
G01X0006850Y0002955D01*
G01X0006850Y0002955D02*
G01X0006250Y0002955D01*
G01X0006250Y0002955D02*
G01X0006155Y0002936D01*
G01X0006155Y0002936D02*
G01X0006071Y0002881D01*
G01X0006071Y0002881D02*
G01X0006050Y0002851D01*
G01X0006050Y0002851D02*
G01X0006031Y0002879D01*
G01X0006031Y0002879D02*
G01X0005948Y0002935D01*
G01X0005948Y0002935D02*
G01X0005850Y0002955D01*
G01X0005850Y0002955D02*
G01X0005250Y0002955D01*
G01X0005250Y0002955D02*
G01X0005155Y0002936D01*
G01X0005155Y0002936D02*
G01X0005071Y0002881D01*
G01X0005071Y0002881D02*
G01X0005050Y0002851D01*
G01X0005050Y0002851D02*
G01X0005031Y0002879D01*
G01X0005031Y0002879D02*
G01X0004948Y0002935D01*
G01X0004948Y0002935D02*
G01X0004850Y0002955D01*
G01X0004850Y0002955D02*
G01X0004250Y0002955D01*
G01X0004250Y0002955D02*
G01X0004155Y0002936D01*
G01X0004155Y0002936D02*
G01X0004071Y0002881D01*
G01X0004071Y0002881D02*
G01X0004015Y0002798D01*
G01X0004015Y0002798D02*
G01X0003995Y0002700D01*
G01X0003995Y0002700D02*
G01X0003995Y0002100D01*
G01X0003995Y0002100D02*
G01X0004014Y0002005D01*
G01X0004014Y0002005D02*
G01X0004069Y0001921D01*
G01X0004069Y0001921D02*
G01X0004099Y0001900D01*
G01X0004099Y0001900D02*
G01X0004071Y0001881D01*
G01X0004071Y0001881D02*
G01X0004015Y0001798D01*
G01X0004015Y0001798D02*
G01X0003995Y0001700D01*
G01X0003995Y0001700D02*
G01X0003995Y0001100D01*
G01X0003995Y0001100D02*
G01X0004014Y0001005D01*
G01X0004014Y0001005D02*
G01X0004069Y0000921D01*
G01X0004069Y0000921D02*
G01X0004152Y0000865D01*
G01X0004152Y0000865D02*
G01X0004250Y0000845D01*
G01X0004250Y0000845D02*
G01X0004850Y0000845D01*
G01X0004850Y0000845D02*
G01X0004945Y0000864D01*
G01X0004945Y0000864D02*
G01X0005029Y0000919D01*
G01X0005029Y0000919D02*
G01X0005050Y0000949D01*
G01X0005050Y0000949D02*
G01X0005069Y0000921D01*
G01X0005069Y0000921D02*
G01X0005152Y0000865D01*
G01X0005152Y0000865D02*
G01X0005250Y0000845D01*
G01X0005250Y0000845D02*
G01X0005850Y0000845D01*
G01X0005850Y0000845D02*
G01X0005945Y0000864D01*
G01X0005945Y0000864D02*
G01X0006029Y0000919D01*
G01X0006029Y0000919D02*
G01X0006050Y0000949D01*
G01X0006050Y0000949D02*
G01X0006069Y0000921D01*
G01X0006069Y0000921D02*
G01X0006152Y0000865D01*
G01X0006152Y0000865D02*
G01X0006250Y0000845D01*
G01X0006250Y0000845D02*
G01X0006850Y0000845D01*
G01X0006850Y0000845D02*
G01X0006945Y0000864D01*
G01X0006945Y0000864D02*
G01X0007029Y0000919D01*
G01X0007029Y0000919D02*
G01X0007050Y0000949D01*
G01X0007050Y0000949D02*
G01X0007069Y0000921D01*
G01X0007069Y0000921D02*
G01X0007152Y0000865D01*
G01X0007152Y0000865D02*
G01X0007250Y0000845D01*
G01X0007250Y0000845D02*
G01X0007850Y0000845D01*
G01X0007850Y0000845D02*
G01X0007945Y0000864D01*
G01X0007945Y0000864D02*
G01X0008029Y0000919D01*
G01X0008029Y0000919D02*
G01X0008085Y0001002D01*
G01X0008085Y0001002D02*
G01X0008105Y0001100D01*
G01X0008105Y0001100D02*
G01X0008105Y0000370D01*
G01X0008105Y0000370D02*
G01X0000370Y0000370D01*
G01X0000370Y0000370D02*
G01X0000370Y0015630D01*
G01X0000370Y0015630D02*
G01X0011630Y0015630D01*
G01X0011630Y0015630D02*
G01X0011630Y0000370D01*
M02*
