G04 This is an RS-274x file exported by *
G04 gerbv version 2.6.1 *
G04 More information is available about gerbv at *
G04 http://gerbv.geda-project.org/ *
G04 --End of header info--*
%MOIN*%
%FSLAX34Y34*%
%IPPOS*%
G04 --Define apertures--*
%ADD10C,0.0118*%
%ADD11R,0.0600X0.0600*%
%ADD12C,0.2362*%
G04 --Start main section--*
G54D11*
G01X0004500Y0013500D03*
G01X0004500Y0014500D03*
G01X0005500Y0013500D03*
G01X0005500Y0014500D03*
G01X0006500Y0013500D03*
G01X0006500Y0014500D03*
G01X0001500Y0005350D03*
G01X0002500Y0005350D03*
G01X0001500Y0004350D03*
G01X0002500Y0004350D03*
G01X0002500Y0007350D03*
G01X0001500Y0007350D03*
G01X0001500Y0006350D03*
G01X0002500Y0006350D03*
G01X0009500Y0011750D03*
G01X0010500Y0011750D03*
G01X0009500Y0010750D03*
G01X0010500Y0010750D03*
G01X0009500Y0009750D03*
G01X0010500Y0009750D03*
G01X0004550Y0001400D03*
G01X0004550Y0002400D03*
G01X0005550Y0001400D03*
G01X0005550Y0002400D03*
G01X0006550Y0002400D03*
G01X0006550Y0001400D03*
G01X0007550Y0002400D03*
G01X0007550Y0001400D03*
G01X0002500Y0010800D03*
G01X0001500Y0010800D03*
G01X0001500Y0009800D03*
G01X0002500Y0009800D03*
G01X0002500Y0008800D03*
G01X0001500Y0008800D03*
G01X0001500Y0011800D03*
G01X0002500Y0011800D03*
G01X0005500Y0008100D03*
G01X0006500Y0008100D03*
G01X0007500Y0008100D03*
G01X0009500Y0008200D03*
G01X0010500Y0008200D03*
G01X0009500Y0007200D03*
G01X0010500Y0007200D03*
G01X0009500Y0006200D03*
G01X0010500Y0006200D03*
G01X0009500Y0005200D03*
G01X0010500Y0005200D03*
G01X0009500Y0004200D03*
G01X0010500Y0004200D03*
G54D12*
G01X0002000Y0014000D03*
G01X0002000Y0002000D03*
G01X0010000Y0014000D03*
G01X0010000Y0002000D03*
M02*
