%
M48
M72
T01C0.0250
T02C0.0350
T03C0.0510
T04C0.1180
%
T01
X4851Y7506
X5300Y5975
X5419Y7475
X6100Y7550
X6350Y8100
X6650Y11950
X7565Y6635
X10400Y11650
X16651Y7506
X17100Y5975
X17219Y7475
X17900Y7550
X18150Y8100
X18450Y11950
X19365Y6635
X22200Y11650
X28451Y7506
X28900Y5975
X29019Y7475
X29700Y7550
X29950Y8100
X30250Y11950
X31165Y6635
X34000Y11650
X39999Y7749
X40139Y4289
X40599Y8799
X40649Y4109
X40689Y2069
X40699Y8099
X41359Y2679
X41699Y10799
X41699Y10099
X41799Y9099
X41879Y4079
X42149Y2719
X42169Y1699
X42499Y8899
X42699Y9799
X42799Y10699
X43419Y4989
X43549Y1689
X43699Y12099
X43839Y7509
X43859Y6909
X43879Y6279
X44429Y6239
X44449Y7509
X44449Y6929
X44589Y1699
X44899Y12199
X45627Y1820
X45779Y4929
X46319Y4919
X46329Y5469
X46470Y2443
X47339Y2419
X47419Y5029
X49099Y5099
X55797Y7749
X55937Y4289
X56397Y8799
X56447Y4109
X56487Y2069
X56497Y8099
X57157Y2679
X57497Y10799
X57497Y10099
X57597Y9099
X57677Y4079
X57947Y2719
X57967Y1699
X58297Y8899
X58497Y9799
X58597Y10699
X59217Y4989
X59347Y1689
X59497Y12099
X59637Y7509
X59657Y6909
X59677Y6279
X60227Y6239
X60247Y7509
X60247Y6929
X60387Y1699
X60697Y12199
X61425Y1820
X61577Y4929
X62117Y4919
X62127Y5469
X62268Y2443
X63137Y2419
X63217Y5029
X64897Y5099
X71847Y7506
X72296Y5975
X72415Y7475
X73096Y7550
X73346Y8100
X73646Y11950
X74561Y6635
X77396Y11650
T02
X2400Y12700
X2400Y11700
X2400Y10700
X2400Y9700
X2400Y8250
X2400Y7250
X2400Y6250
X2400Y5250
X3400Y12700
X3400Y11700
X3400Y10700
X3400Y9700
X3400Y8250
X3400Y7250
X3400Y6250
X3400Y5250
X5400Y15400
X5400Y14400
X5450Y3300
X5450Y2300
X6400Y15400
X6400Y14400
X6400Y9000
X6450Y3300
X6450Y2300
X7400Y15400
X7400Y14400
X7400Y9000
X7450Y3300
X7450Y2300
X8400Y9000
X8450Y3300
X8450Y2300
X10400Y12650
X10400Y11650
X10400Y10650
X10400Y9100
X10400Y8100
X10400Y7100
X10400Y6100
X10400Y5100
X11400Y12650
X11400Y11650
X11400Y10650
X11400Y9100
X11400Y8100
X11400Y7100
X11400Y6100
X11400Y5100
X14200Y12700
X14200Y11700
X14200Y10700
X14200Y9700
X14200Y8250
X14200Y7250
X14200Y6250
X14200Y5250
X15200Y12700
X15200Y11700
X15200Y10700
X15200Y9700
X15200Y8250
X15200Y7250
X15200Y6250
X15200Y5250
X17200Y15400
X17200Y14400
X17250Y3300
X17250Y2300
X18200Y15400
X18200Y14400
X18200Y9000
X18250Y3300
X18250Y2300
X19200Y15400
X19200Y14400
X19200Y9000
X19250Y3300
X19250Y2300
X20200Y9000
X20250Y3300
X20250Y2300
X22200Y12650
X22200Y11650
X22200Y10650
X22200Y9100
X22200Y8100
X22200Y7100
X22200Y6100
X22200Y5100
X23200Y12650
X23200Y11650
X23200Y10650
X23200Y9100
X23200Y8100
X23200Y7100
X23200Y6100
X23200Y5100
X26000Y12700
X26000Y11700
X26000Y10700
X26000Y9700
X26000Y8250
X26000Y7250
X26000Y6250
X26000Y5250
X27000Y12700
X27000Y11700
X27000Y10700
X27000Y9700
X27000Y8250
X27000Y7250
X27000Y6250
X27000Y5250
X29000Y15400
X29000Y14400
X29050Y3300
X29050Y2300
X30000Y15400
X30000Y14400
X30000Y9000
X30050Y3300
X30050Y2300
X31000Y15400
X31000Y14400
X31000Y9000
X31050Y3300
X31050Y2300
X32000Y9000
X32050Y3300
X32050Y2300
X34000Y12650
X34000Y11650
X34000Y10650
X34000Y9100
X34000Y8100
X34000Y7100
X34000Y6100
X34000Y5100
X35000Y12650
X35000Y11650
X35000Y10650
X35000Y9100
X35000Y8100
X35000Y7100
X35000Y6100
X35000Y5100
X40549Y15449
X40549Y14449
X41549Y15449
X41549Y14449
X42549Y15449
X42549Y14449
X43074Y4274
X43074Y3274
X43549Y15449
X43549Y14449
X44074Y4274
X44074Y3274
X45049Y15646
X45049Y14646
X45074Y4274
X45074Y3274
X46049Y15646
X46049Y14646
X47049Y15646
X47049Y14646
X48049Y15646
X48049Y14646
X56347Y15449
X56347Y14449
X57347Y15449
X57347Y14449
X58347Y15449
X58347Y14449
X58872Y4274
X58872Y3274
X59347Y15449
X59347Y14449
X59872Y4274
X59872Y3274
X60847Y15646
X60847Y14646
X60872Y4274
X60872Y3274
X61847Y15646
X61847Y14646
X62847Y15646
X62847Y14646
X63847Y15646
X63847Y14646
X69396Y12700
X69396Y11700
X69396Y10700
X69396Y9700
X69396Y8250
X69396Y7250
X69396Y6250
X69396Y5250
X70396Y12700
X70396Y11700
X70396Y10700
X70396Y9700
X70396Y8250
X70396Y7250
X70396Y6250
X70396Y5250
X72396Y15400
X72396Y14400
X72446Y3300
X72446Y2300
X73396Y15400
X73396Y14400
X73396Y9000
X73446Y3300
X73446Y2300
X74396Y15400
X74396Y14400
X74396Y9000
X74446Y3300
X74446Y2300
X75396Y9000
X75446Y3300
X75446Y2300
X77396Y12650
X77396Y11650
X77396Y10650
X77396Y9100
X77396Y8100
X77396Y7100
X77396Y6100
X77396Y5100
X78396Y12650
X78396Y11650
X78396Y10650
X78396Y9100
X78396Y8100
X78396Y7100
X78396Y6100
X78396Y5100
T03
X38405Y11924
X38405Y9949
X40374Y11924
X40374Y9949
X48199Y12549
X48199Y10574
X50168Y12549
X50168Y10574
X54203Y11924
X54203Y9949
X56172Y11924
X56172Y9949
X63997Y12549
X63997Y10574
X65966Y12549
X65966Y10574
T04
X2900Y14900
X2900Y2900
X10900Y14900
X10900Y2900
X14700Y14900
X14700Y2900
X22700Y14900
X22700Y2900
X26500Y14900
X26500Y2900
X34500Y14900
X34500Y2900
X38299Y14899
X38299Y2899
X50299Y14899
X50299Y2899
X54097Y14899
X54097Y2899
X66097Y14899
X66097Y2899
X69896Y14900
X69896Y2900
X77896Y14900
X77896Y2900
M30
