G75*
G70*
%OFA0B0*%
%FSLAX25Y25*%
%IPPOS*%
%LPD*%
%AMOC8*
5,1,8,0,0,1.08239X$1,22.5*
%
%ADD27C,0.00390*%
X0010000Y0010000D02*
D27*
G01*
X0010000Y0010000D02*
G01*
X0010000Y0168000D01*
G01*
X0010000Y0010000D02*
G01*
X0128000Y0010000D01*
G01*
X0128000Y0168000D02*
G01*
X0128000Y0010000D01*
G01*
X0010000Y0168000D02*
G01*
X0128000Y0168000D01*
X0128000Y0010000D02*
D27*
G01*
X0128000Y0010000D02*
G01*
X0128000Y0168000D01*
G01*
X0128000Y0010000D02*
G01*
X0246000Y0010000D01*
G01*
X0246000Y0168000D02*
G01*
X0246000Y0010000D01*
G01*
X0128000Y0168000D02*
G01*
X0246000Y0168000D01*
X0246000Y0010000D02*
D27*
G01*
X0246000Y0010000D02*
G01*
X0246000Y0168000D01*
G01*
X0246000Y0010000D02*
G01*
X0364000Y0010000D01*
G01*
X0364000Y0168000D02*
G01*
X0364000Y0010000D01*
G01*
X0246000Y0168000D02*
G01*
X0364000Y0168000D01*
X0364000Y0010000D02*
D27*
G01*
X0364000Y0010000D02*
G01*
X0364000Y0167980D01*
G01*
X0364000Y0010000D02*
G01*
X0521980Y0010000D01*
G01*
X0521980Y0167980D02*
G01*
X0521980Y0010000D01*
G01*
X0364000Y0167980D02*
G01*
X0521980Y0167980D01*
X0521980Y0010000D02*
D27*
G01*
X0521980Y0010000D02*
G01*
X0521980Y0167980D01*
G01*
X0521980Y0010000D02*
G01*
X0679960Y0010000D01*
G01*
X0679960Y0167980D02*
G01*
X0679960Y0010000D01*
G01*
X0521980Y0167980D02*
G01*
X0679960Y0167980D01*
X0679960Y0010000D02*
D27*
G01*
X0679960Y0010000D02*
G01*
X0679960Y0168000D01*
G01*
X0679960Y0010000D02*
G01*
X0797960Y0010000D01*
G01*
X0797960Y0168000D02*
G01*
X0797960Y0010000D01*
G01*
X0679960Y0168000D02*
G01*
X0797960Y0168000D01*
M02*
