G75*
G70*
%OFA0B0*%
%FSLAX25Y25*%
%IPPOS*%
%LPD*%
%AMOC8*
5,1,8,0,0,1.08239X$1,22.5*
%
%ADD23R,0.06500X0.06500*%
%ADD28R,0.15000X0.15000*%
%ADD35C,0.23620*%
%ADD37R,0.06000X0.06000*%
X0010000Y0010000D02*
D37*
G01*
X0054000Y0144000D03*
G01*
X0054000Y0154000D03*
G01*
X0064000Y0144000D03*
G01*
X0064000Y0154000D03*
G01*
X0074000Y0144000D03*
G01*
X0074000Y0154000D03*
G01*
X0024000Y0062500D03*
G01*
X0034000Y0062500D03*
G01*
X0024000Y0052500D03*
G01*
X0034000Y0052500D03*
G01*
X0034000Y0082500D03*
G01*
X0024000Y0082500D03*
G01*
X0024000Y0072500D03*
G01*
X0034000Y0072500D03*
G01*
X0104000Y0126500D03*
G01*
X0114000Y0126500D03*
G01*
X0104000Y0116500D03*
G01*
X0114000Y0116500D03*
G01*
X0104000Y0106500D03*
G01*
X0114000Y0106500D03*
G01*
X0054500Y0023000D03*
G01*
X0054500Y0033000D03*
G01*
X0064500Y0023000D03*
G01*
X0064500Y0033000D03*
G01*
X0074500Y0033000D03*
G01*
X0074500Y0023000D03*
G01*
X0084500Y0033000D03*
G01*
X0084500Y0023000D03*
G01*
X0034000Y0117000D03*
G01*
X0024000Y0117000D03*
G01*
X0024000Y0107000D03*
G01*
X0034000Y0107000D03*
G01*
X0034000Y0097000D03*
G01*
X0024000Y0097000D03*
G01*
X0024000Y0127000D03*
G01*
X0034000Y0127000D03*
G01*
X0064000Y0090000D03*
G01*
X0074000Y0090000D03*
G01*
X0084000Y0090000D03*
G01*
X0104000Y0091000D03*
G01*
X0114000Y0091000D03*
G01*
X0104000Y0081000D03*
G01*
X0114000Y0081000D03*
G01*
X0104000Y0071000D03*
G01*
X0114000Y0071000D03*
G01*
X0104000Y0061000D03*
G01*
X0114000Y0061000D03*
G01*
X0104000Y0051000D03*
G01*
X0114000Y0051000D03*
D35*
G01*
X0029000Y0149000D03*
G01*
X0029000Y0029000D03*
G01*
X0109000Y0149000D03*
G01*
X0109000Y0029000D03*
X0128000Y0010000D02*
D37*
G01*
X0172000Y0144000D03*
G01*
X0172000Y0154000D03*
G01*
X0182000Y0144000D03*
G01*
X0182000Y0154000D03*
G01*
X0192000Y0144000D03*
G01*
X0192000Y0154000D03*
G01*
X0142000Y0062500D03*
G01*
X0152000Y0062500D03*
G01*
X0142000Y0052500D03*
G01*
X0152000Y0052500D03*
G01*
X0152000Y0082500D03*
G01*
X0142000Y0082500D03*
G01*
X0142000Y0072500D03*
G01*
X0152000Y0072500D03*
G01*
X0222000Y0126500D03*
G01*
X0232000Y0126500D03*
G01*
X0222000Y0116500D03*
G01*
X0232000Y0116500D03*
G01*
X0222000Y0106500D03*
G01*
X0232000Y0106500D03*
G01*
X0172500Y0023000D03*
G01*
X0172500Y0033000D03*
G01*
X0182500Y0023000D03*
G01*
X0182500Y0033000D03*
G01*
X0192500Y0033000D03*
G01*
X0192500Y0023000D03*
G01*
X0202500Y0033000D03*
G01*
X0202500Y0023000D03*
G01*
X0152000Y0117000D03*
G01*
X0142000Y0117000D03*
G01*
X0142000Y0107000D03*
G01*
X0152000Y0107000D03*
G01*
X0152000Y0097000D03*
G01*
X0142000Y0097000D03*
G01*
X0142000Y0127000D03*
G01*
X0152000Y0127000D03*
G01*
X0182000Y0090000D03*
G01*
X0192000Y0090000D03*
G01*
X0202000Y0090000D03*
G01*
X0222000Y0091000D03*
G01*
X0232000Y0091000D03*
G01*
X0222000Y0081000D03*
G01*
X0232000Y0081000D03*
G01*
X0222000Y0071000D03*
G01*
X0232000Y0071000D03*
G01*
X0222000Y0061000D03*
G01*
X0232000Y0061000D03*
G01*
X0222000Y0051000D03*
G01*
X0232000Y0051000D03*
D35*
G01*
X0147000Y0149000D03*
G01*
X0147000Y0029000D03*
G01*
X0227000Y0149000D03*
G01*
X0227000Y0029000D03*
X0246000Y0010000D02*
D37*
G01*
X0290000Y0144000D03*
G01*
X0290000Y0154000D03*
G01*
X0300000Y0144000D03*
G01*
X0300000Y0154000D03*
G01*
X0310000Y0144000D03*
G01*
X0310000Y0154000D03*
G01*
X0260000Y0062500D03*
G01*
X0270000Y0062500D03*
G01*
X0260000Y0052500D03*
G01*
X0270000Y0052500D03*
G01*
X0270000Y0082500D03*
G01*
X0260000Y0082500D03*
G01*
X0260000Y0072500D03*
G01*
X0270000Y0072500D03*
G01*
X0340000Y0126500D03*
G01*
X0350000Y0126500D03*
G01*
X0340000Y0116500D03*
G01*
X0350000Y0116500D03*
G01*
X0340000Y0106500D03*
G01*
X0350000Y0106500D03*
G01*
X0290500Y0023000D03*
G01*
X0290500Y0033000D03*
G01*
X0300500Y0023000D03*
G01*
X0300500Y0033000D03*
G01*
X0310500Y0033000D03*
G01*
X0310500Y0023000D03*
G01*
X0320500Y0033000D03*
G01*
X0320500Y0023000D03*
G01*
X0270000Y0117000D03*
G01*
X0260000Y0117000D03*
G01*
X0260000Y0107000D03*
G01*
X0270000Y0107000D03*
G01*
X0270000Y0097000D03*
G01*
X0260000Y0097000D03*
G01*
X0260000Y0127000D03*
G01*
X0270000Y0127000D03*
G01*
X0300000Y0090000D03*
G01*
X0310000Y0090000D03*
G01*
X0320000Y0090000D03*
G01*
X0340000Y0091000D03*
G01*
X0350000Y0091000D03*
G01*
X0340000Y0081000D03*
G01*
X0350000Y0081000D03*
G01*
X0340000Y0071000D03*
G01*
X0350000Y0071000D03*
G01*
X0340000Y0061000D03*
G01*
X0350000Y0061000D03*
G01*
X0340000Y0051000D03*
G01*
X0350000Y0051000D03*
D35*
G01*
X0265000Y0149000D03*
G01*
X0265000Y0029000D03*
G01*
X0345000Y0149000D03*
G01*
X0345000Y0029000D03*
X0364000Y0010000D02*
D23*
G01*
X0425490Y0144490D03*
G01*
X0425490Y0154490D03*
G01*
X0405490Y0144490D03*
G01*
X0415490Y0144490D03*
G01*
X0435490Y0144490D03*
G01*
X0435490Y0154490D03*
G01*
X0415490Y0154490D03*
G01*
X0405490Y0154490D03*
G01*
X0450740Y0032740D03*
G01*
X0450740Y0042740D03*
G01*
X0440740Y0032740D03*
G01*
X0440740Y0042740D03*
G01*
X0430740Y0032740D03*
G01*
X0430740Y0042740D03*
G01*
X0460490Y0156460D03*
G01*
X0460490Y0146460D03*
G01*
X0480490Y0156460D03*
G01*
X0470490Y0156460D03*
G01*
X0450490Y0156460D03*
G01*
X0450490Y0146460D03*
G01*
X0470490Y0146460D03*
G01*
X0480490Y0146460D03*
D35*
G01*
X0502990Y0028990D03*
G01*
X0382990Y0148990D03*
G01*
X0382990Y0028990D03*
G01*
X0502990Y0148990D03*
D28*
G01*
X0501680Y0125490D03*
G01*
X0481990Y0125490D03*
G01*
X0501680Y0105740D03*
G01*
X0481990Y0105740D03*
G01*
X0384050Y0119240D03*
G01*
X0403740Y0119240D03*
G01*
X0384050Y0099490D03*
G01*
X0403740Y0099490D03*
X0521980Y0010000D02*
D23*
G01*
X0583470Y0144490D03*
G01*
X0583470Y0154490D03*
G01*
X0563470Y0144490D03*
G01*
X0573470Y0144490D03*
G01*
X0593470Y0144490D03*
G01*
X0593470Y0154490D03*
G01*
X0573470Y0154490D03*
G01*
X0563470Y0154490D03*
G01*
X0608720Y0032740D03*
G01*
X0608720Y0042740D03*
G01*
X0598720Y0032740D03*
G01*
X0598720Y0042740D03*
G01*
X0588720Y0032740D03*
G01*
X0588720Y0042740D03*
G01*
X0618470Y0156460D03*
G01*
X0618470Y0146460D03*
G01*
X0638470Y0156460D03*
G01*
X0628470Y0156460D03*
G01*
X0608470Y0156460D03*
G01*
X0608470Y0146460D03*
G01*
X0628470Y0146460D03*
G01*
X0638470Y0146460D03*
D35*
G01*
X0660970Y0028990D03*
G01*
X0540970Y0148990D03*
G01*
X0540970Y0028990D03*
G01*
X0660970Y0148990D03*
D28*
G01*
X0659660Y0125490D03*
G01*
X0639970Y0125490D03*
G01*
X0659660Y0105740D03*
G01*
X0639970Y0105740D03*
G01*
X0542030Y0119240D03*
G01*
X0561720Y0119240D03*
G01*
X0542030Y0099490D03*
G01*
X0561720Y0099490D03*
X0679960Y0010000D02*
D37*
G01*
X0723960Y0144000D03*
G01*
X0723960Y0154000D03*
G01*
X0733960Y0144000D03*
G01*
X0733960Y0154000D03*
G01*
X0743960Y0144000D03*
G01*
X0743960Y0154000D03*
G01*
X0693960Y0062500D03*
G01*
X0703960Y0062500D03*
G01*
X0693960Y0052500D03*
G01*
X0703960Y0052500D03*
G01*
X0703960Y0082500D03*
G01*
X0693960Y0082500D03*
G01*
X0693960Y0072500D03*
G01*
X0703960Y0072500D03*
G01*
X0773960Y0126500D03*
G01*
X0783960Y0126500D03*
G01*
X0773960Y0116500D03*
G01*
X0783960Y0116500D03*
G01*
X0773960Y0106500D03*
G01*
X0783960Y0106500D03*
G01*
X0724460Y0023000D03*
G01*
X0724460Y0033000D03*
G01*
X0734460Y0023000D03*
G01*
X0734460Y0033000D03*
G01*
X0744460Y0033000D03*
G01*
X0744460Y0023000D03*
G01*
X0754460Y0033000D03*
G01*
X0754460Y0023000D03*
G01*
X0703960Y0117000D03*
G01*
X0693960Y0117000D03*
G01*
X0693960Y0107000D03*
G01*
X0703960Y0107000D03*
G01*
X0703960Y0097000D03*
G01*
X0693960Y0097000D03*
G01*
X0693960Y0127000D03*
G01*
X0703960Y0127000D03*
G01*
X0733960Y0090000D03*
G01*
X0743960Y0090000D03*
G01*
X0753960Y0090000D03*
G01*
X0773960Y0091000D03*
G01*
X0783960Y0091000D03*
G01*
X0773960Y0081000D03*
G01*
X0783960Y0081000D03*
G01*
X0773960Y0071000D03*
G01*
X0783960Y0071000D03*
G01*
X0773960Y0061000D03*
G01*
X0783960Y0061000D03*
G01*
X0773960Y0051000D03*
G01*
X0783960Y0051000D03*
D35*
G01*
X0698960Y0149000D03*
G01*
X0698960Y0029000D03*
G01*
X0778960Y0149000D03*
G01*
X0778960Y0029000D03*
M02*
