G04 This is an RS-274x file exported by *
G04 gerbv version 2.6.1 *
G04 More information is available about gerbv at *
G04 http://gerbv.geda-project.org/ *
G04 --End of header info--*
%MOIN*%
%FSLAX34Y34*%
%IPPOS*%
G04 --Define apertures--*
%ADD10C,0.0118*%
%ADD11R,0.0600X0.0600*%
%ADD12R,0.0350X0.0550*%
%ADD13C,0.2362*%
%ADD14R,0.0177X0.0591*%
%ADD15R,0.0550X0.0350*%
%ADD16R,0.0709X0.0984*%
%ADD17C,0.0350*%
%ADD18C,0.0197*%
%ADD19C,0.0157*%
%ADD20C,0.0100*%
G04 --Start main section--*
G54D10*
G01X0002587Y0003786D02*
G01X0002587Y0004259D01*
G01X0002587Y0004259D02*
G01X0002430Y0003921D01*
G01X0002430Y0003921D02*
G01X0002272Y0004259D01*
G01X0002272Y0004259D02*
G01X0002272Y0003786D01*
G01X0001822Y0003786D02*
G01X0002047Y0003786D01*
G01X0002047Y0003786D02*
G01X0002047Y0004259D01*
G01X0001688Y0003921D02*
G01X0001463Y0003921D01*
G01X0001733Y0003786D02*
G01X0001575Y0004259D01*
G01X0001575Y0004259D02*
G01X0001418Y0003786D01*
G01X0001103Y0004034D02*
G01X0001035Y0004011D01*
G01X0001035Y0004011D02*
G01X0001013Y0003989D01*
G01X0001013Y0003989D02*
G01X0000990Y0003944D01*
G01X0000990Y0003944D02*
G01X0000990Y0003876D01*
G01X0000990Y0003876D02*
G01X0001013Y0003831D01*
G01X0001013Y0003831D02*
G01X0001035Y0003809D01*
G01X0001035Y0003809D02*
G01X0001080Y0003786D01*
G01X0001080Y0003786D02*
G01X0001260Y0003786D01*
G01X0001260Y0003786D02*
G01X0001260Y0004259D01*
G01X0001260Y0004259D02*
G01X0001103Y0004259D01*
G01X0001103Y0004259D02*
G01X0001058Y0004236D01*
G01X0001058Y0004236D02*
G01X0001035Y0004214D01*
G01X0001035Y0004214D02*
G01X0001013Y0004169D01*
G01X0001013Y0004169D02*
G01X0001013Y0004124D01*
G01X0001013Y0004124D02*
G01X0001035Y0004079D01*
G01X0001035Y0004079D02*
G01X0001058Y0004056D01*
G01X0001058Y0004056D02*
G01X0001103Y0004034D01*
G01X0001103Y0004034D02*
G01X0001260Y0004034D01*
G54D11*
G01X0007950Y0000850D03*
G01X0006950Y0000850D03*
G01X0007950Y0001850D03*
G01X0006950Y0001850D03*
G01X0007950Y0002850D03*
G01X0006950Y0002850D03*
G01X0008600Y0010750D03*
G01X0009600Y0010750D03*
G54D12*
G01X0004575Y0004150D03*
G01X0003825Y0004150D03*
G54D13*
G01X0010000Y0014000D03*
G54D14*
G01X0003604Y0009111D03*
G01X0003860Y0009111D03*
G01X0004116Y0009111D03*
G01X0004372Y0009111D03*
G01X0004628Y0009111D03*
G01X0004884Y0009111D03*
G01X0005140Y0009111D03*
G01X0005396Y0009111D03*
G01X0005396Y0006789D03*
G01X0005140Y0006789D03*
G01X0004884Y0006789D03*
G01X0004628Y0006789D03*
G01X0004372Y0006789D03*
G01X0004116Y0006789D03*
G01X0003860Y0006789D03*
G01X0003604Y0006789D03*
G54D12*
G01X0011225Y0004700D03*
G01X0010475Y0004700D03*
G01X0011225Y0005700D03*
G01X0010475Y0005700D03*
G01X0011225Y0006700D03*
G01X0010475Y0006700D03*
G01X0011225Y0007700D03*
G01X0010475Y0007700D03*
G01X0011225Y0008700D03*
G01X0010475Y0008700D03*
G01X0011225Y0009700D03*
G01X0010475Y0009700D03*
G01X0011225Y0010700D03*
G01X0010475Y0010700D03*
G01X0011225Y0011700D03*
G01X0010475Y0011700D03*
G54D15*
G01X0003700Y0005125D03*
G01X0003700Y0005875D03*
G01X0005400Y0005125D03*
G01X0005400Y0005875D03*
G01X0004600Y0005075D03*
G01X0004600Y0005825D03*
G01X0005200Y0011525D03*
G01X0005200Y0012275D03*
G54D12*
G01X0003475Y0010700D03*
G01X0004225Y0010700D03*
G01X0003475Y0011600D03*
G01X0004225Y0011600D03*
G01X0003475Y0012450D03*
G01X0004225Y0012450D03*
G54D13*
G01X0002000Y0014000D03*
G01X0010000Y0002000D03*
G01X0002000Y0002000D03*
G54D11*
G01X0006300Y0004750D03*
G01X0007300Y0004750D03*
G01X0006300Y0005750D03*
G01X0007300Y0005750D03*
G01X0006300Y0006750D03*
G01X0007300Y0006750D03*
G01X0006300Y0007750D03*
G01X0007300Y0007750D03*
G01X0006300Y0008750D03*
G01X0007300Y0008750D03*
G01X0006300Y0009750D03*
G01X0007300Y0009750D03*
G01X0006300Y0010750D03*
G01X0007300Y0010750D03*
G01X0006300Y0011750D03*
G01X0007300Y0011750D03*
G01X0008600Y0004750D03*
G01X0009600Y0004750D03*
G01X0008600Y0005750D03*
G01X0009600Y0005750D03*
G01X0008600Y0006750D03*
G01X0009600Y0006750D03*
G01X0008600Y0007750D03*
G01X0009600Y0007750D03*
G01X0008600Y0008750D03*
G01X0009600Y0008750D03*
G01X0008600Y0009750D03*
G01X0009600Y0009750D03*
G01X0008600Y0011750D03*
G01X0009600Y0011750D03*
G01X0006700Y0013500D03*
G01X0006700Y0014500D03*
G01X0002500Y0006700D03*
G01X0001500Y0006700D03*
G01X0002500Y0007700D03*
G01X0001500Y0007700D03*
G01X0002500Y0008700D03*
G01X0001500Y0008700D03*
G01X0002500Y0009700D03*
G01X0001500Y0009700D03*
G01X0002500Y0010700D03*
G01X0001500Y0010700D03*
G01X0005700Y0014500D03*
G01X0005700Y0013500D03*
G01X0004700Y0014500D03*
G01X0004700Y0013500D03*
G54D16*
G01X0005050Y0001463D03*
G01X0005050Y0003037D03*
G54D12*
G01X0011225Y0003800D03*
G01X0010475Y0003800D03*
G01X0002575Y0005550D03*
G01X0001825Y0005550D03*
G54D17*
G01X0011040Y0004220D03*
G01X0003250Y0004650D03*
G01X0005780Y0009215D03*
G01X0003420Y0009660D03*
G01X0004300Y0007550D03*
G01X0005572Y0007345D03*
G01X0005049Y0007577D03*
G54D18*
G01X0011215Y0004045D02*
G01X0011040Y0004220D01*
G01X0011225Y0004035D02*
G01X0011215Y0004045D01*
G01X0011225Y0003800D02*
G01X0011225Y0004035D01*
G01X0007950Y0001850D02*
G01X0006950Y0001850D01*
G01X0005050Y0003037D02*
G01X0005050Y0002900D01*
G01X0005050Y0002900D02*
G01X0006100Y0001850D01*
G01X0006100Y0001850D02*
G01X0006453Y0001850D01*
G01X0006453Y0001850D02*
G01X0006950Y0001850D01*
G01X0004575Y0004150D02*
G01X0004575Y0003512D01*
G01X0004575Y0003512D02*
G01X0005050Y0003037D01*
G01X0004600Y0005075D02*
G01X0004600Y0004175D01*
G01X0004600Y0004175D02*
G01X0004575Y0004150D01*
G01X0004650Y0005125D02*
G01X0004600Y0005075D01*
G01X0005400Y0005125D02*
G01X0004650Y0005125D01*
G01X0003750Y0005075D02*
G01X0003700Y0005125D01*
G01X0004600Y0005075D02*
G01X0003750Y0005075D01*
G01X0003275Y0005550D02*
G01X0003700Y0005125D01*
G54D10*
G01X0003604Y0006582D02*
G01X0002974Y0005952D01*
G01X0003604Y0006789D02*
G01X0003604Y0006582D01*
G01X0002974Y0005952D02*
G01X0002974Y0005550D01*
G54D18*
G01X0002974Y0005550D02*
G01X0003275Y0005550D01*
G01X0002575Y0005550D02*
G01X0002974Y0005550D01*
G01X0011304Y0003721D02*
G01X0011225Y0003800D01*
G01X0011225Y0003800D02*
G01X0011225Y0004700D01*
G01X0011225Y0005700D02*
G01X0011225Y0004700D01*
G01X0011225Y0005700D02*
G01X0011225Y0006700D01*
G01X0011225Y0006700D02*
G01X0011225Y0007700D01*
G01X0011225Y0007700D02*
G01X0011225Y0008700D01*
G01X0011225Y0008700D02*
G01X0011225Y0009700D01*
G01X0011225Y0009700D02*
G01X0011225Y0010700D01*
G01X0011225Y0011700D02*
G01X0011225Y0010700D01*
G01X0001003Y0008700D02*
G01X0000900Y0008803D01*
G01X0001500Y0008700D02*
G01X0001003Y0008700D01*
G01X0000900Y0008803D02*
G01X0000900Y0011400D01*
G01X0001100Y0011600D02*
G01X0003475Y0011600D01*
G01X0000900Y0011400D02*
G01X0001100Y0011600D01*
G01X0003475Y0011600D02*
G01X0003475Y0012450D01*
G01X0003475Y0011600D02*
G01X0003475Y0010700D01*
G01X0003250Y0004675D02*
G01X0003700Y0005125D01*
G01X0003250Y0004650D02*
G01X0003250Y0004675D01*
G54D19*
G01X0010475Y0003800D02*
G01X0010475Y0003368D01*
G01X0010475Y0003368D02*
G01X0010000Y0002893D01*
G01X0010000Y0002893D02*
G01X0010000Y0002000D01*
G54D10*
G01X0005676Y0009111D02*
G01X0005780Y0009215D01*
G01X0005396Y0009111D02*
G01X0005676Y0009111D01*
G01X0003469Y0009660D02*
G01X0003420Y0009660D01*
G01X0003604Y0009525D02*
G01X0003469Y0009660D01*
G01X0003604Y0009111D02*
G01X0003604Y0009525D01*
G01X0004225Y0013443D02*
G01X0004282Y0013500D01*
G01X0004282Y0013500D02*
G01X0004700Y0013500D01*
G01X0004225Y0012450D02*
G01X0004225Y0013443D01*
G01X0003860Y0009111D02*
G01X0003869Y0009120D01*
G01X0003906Y0009888D02*
G01X0003860Y0009934D01*
G01X0003869Y0009534D02*
G01X0003906Y0009572D01*
G01X0003860Y0009934D02*
G01X0003860Y0011616D01*
G01X0003869Y0009120D02*
G01X0003869Y0009534D01*
G01X0003906Y0009572D02*
G01X0003906Y0009888D01*
G01X0004273Y0013959D02*
G01X0003860Y0013547D01*
G01X0005659Y0013959D02*
G01X0004273Y0013959D01*
G01X0005700Y0013918D02*
G01X0005659Y0013959D01*
G01X0005700Y0013500D02*
G01X0005700Y0013918D01*
G01X0003876Y0011600D02*
G01X0003860Y0011616D01*
G01X0004225Y0011600D02*
G01X0003876Y0011600D01*
G01X0003860Y0013547D02*
G01X0003860Y0011616D01*
G01X0003375Y0007243D02*
G01X0002918Y0007700D01*
G01X0003819Y0007243D02*
G01X0003375Y0007243D01*
G01X0003860Y0006789D02*
G01X0003860Y0007202D01*
G01X0002918Y0007700D02*
G01X0002500Y0007700D01*
G01X0003860Y0007202D02*
G01X0003819Y0007243D01*
G01X0003860Y0006035D02*
G01X0003860Y0006789D01*
G01X0003700Y0005875D02*
G01X0003860Y0006035D01*
G01X0002500Y0007700D02*
G01X0001500Y0007700D01*
G01X0003200Y0009000D02*
G01X0002500Y0009700D01*
G01X0003765Y0007461D02*
G01X0003200Y0008026D01*
G01X0004116Y0007255D02*
G01X0003911Y0007461D01*
G01X0004116Y0006789D02*
G01X0004116Y0007255D01*
G01X0003200Y0008026D02*
G01X0003200Y0009000D01*
G01X0003911Y0007461D02*
G01X0003765Y0007461D01*
G01X0004500Y0005825D02*
G01X0004600Y0005825D01*
G01X0004116Y0006209D02*
G01X0004500Y0005825D01*
G01X0004116Y0006789D02*
G01X0004116Y0006209D01*
G01X0002500Y0009700D02*
G01X0001500Y0009700D01*
G01X0005331Y0005875D02*
G01X0005400Y0005875D01*
G01X0005047Y0006159D02*
G01X0005331Y0005875D01*
G01X0004588Y0006159D02*
G01X0005047Y0006159D01*
G01X0004372Y0006375D02*
G01X0004588Y0006159D01*
G01X0004372Y0006789D02*
G01X0004372Y0006375D01*
G54D19*
G01X0006700Y0013500D02*
G01X0006700Y0014500D01*
G54D20*
G01X0004372Y0007478D02*
G01X0004300Y0007550D01*
G01X0004372Y0006789D02*
G01X0004372Y0007478D01*
G54D10*
G01X0004372Y0009111D02*
G01X0004372Y0009457D01*
G01X0004390Y0009840D02*
G01X0006300Y0011750D01*
G01X0004390Y0009475D02*
G01X0004390Y0009840D01*
G01X0004372Y0009457D02*
G01X0004390Y0009475D01*
G54D19*
G01X0007300Y0011750D02*
G01X0006300Y0011750D01*
G54D18*
G01X0007300Y0011750D02*
G01X0008600Y0011750D01*
G01X0009650Y0011700D02*
G01X0009600Y0011750D01*
G01X0010475Y0011700D02*
G01X0009650Y0011700D01*
G54D10*
G01X0004628Y0009111D02*
G01X0004628Y0009578D01*
G01X0005882Y0010750D02*
G01X0006300Y0010750D01*
G01X0004628Y0009578D02*
G01X0005800Y0010750D01*
G01X0005800Y0010750D02*
G01X0005882Y0010750D01*
G54D19*
G01X0007300Y0010750D02*
G01X0006300Y0010750D01*
G54D18*
G01X0007300Y0010750D02*
G01X0008600Y0010750D01*
G01X0009650Y0010700D02*
G01X0009600Y0010750D01*
G01X0010475Y0010700D02*
G01X0009650Y0010700D01*
G54D10*
G01X0005882Y0009750D02*
G01X0006300Y0009750D01*
G01X0005109Y0009750D02*
G01X0005882Y0009750D01*
G01X0004884Y0009111D02*
G01X0004884Y0009525D01*
G01X0004884Y0009525D02*
G01X0005109Y0009750D01*
G54D19*
G01X0007300Y0009750D02*
G01X0006300Y0009750D01*
G54D18*
G01X0007300Y0009750D02*
G01X0008600Y0009750D01*
G01X0009650Y0009700D02*
G01X0009600Y0009750D01*
G01X0010475Y0009700D02*
G01X0009650Y0009700D01*
G54D19*
G01X0007300Y0008750D02*
G01X0006300Y0008750D01*
G54D10*
G01X0005882Y0008750D02*
G01X0006300Y0008750D01*
G01X0005789Y0008657D02*
G01X0005882Y0008750D01*
G01X0005181Y0008657D02*
G01X0005789Y0008657D01*
G01X0005140Y0008698D02*
G01X0005181Y0008657D01*
G01X0005140Y0009111D02*
G01X0005140Y0008698D01*
G54D18*
G01X0007300Y0008750D02*
G01X0008600Y0008750D01*
G01X0009650Y0008700D02*
G01X0009600Y0008750D01*
G01X0010475Y0008700D02*
G01X0009650Y0008700D01*
G54D10*
G01X0005506Y0006789D02*
G01X0006300Y0007583D01*
G01X0006300Y0007583D02*
G01X0006300Y0007750D01*
G01X0005396Y0006789D02*
G01X0005506Y0006789D01*
G54D19*
G01X0007300Y0007750D02*
G01X0006300Y0007750D01*
G54D18*
G01X0007300Y0007750D02*
G01X0008600Y0007750D01*
G01X0009650Y0007700D02*
G01X0009600Y0007750D01*
G01X0010475Y0007700D02*
G01X0009650Y0007700D01*
G54D19*
G01X0007300Y0006750D02*
G01X0006300Y0006750D01*
G54D10*
G01X0005884Y0006334D02*
G01X0006300Y0006750D01*
G01X0005180Y0006334D02*
G01X0005884Y0006334D01*
G01X0005140Y0006374D02*
G01X0005180Y0006334D01*
G01X0005140Y0006789D02*
G01X0005140Y0006374D01*
G54D18*
G01X0007300Y0006750D02*
G01X0008600Y0006750D01*
G01X0009650Y0006700D02*
G01X0009600Y0006750D01*
G01X0010475Y0006700D02*
G01X0009650Y0006700D01*
G54D10*
G01X0005324Y0007345D02*
G01X0005572Y0007345D01*
G01X0005223Y0007243D02*
G01X0005324Y0007345D01*
G01X0004884Y0007202D02*
G01X0004925Y0007243D01*
G01X0004884Y0006789D02*
G01X0004884Y0007202D01*
G01X0004925Y0007243D02*
G01X0005223Y0007243D01*
G54D19*
G01X0007300Y0005750D02*
G01X0006300Y0005750D01*
G54D18*
G01X0007300Y0005750D02*
G01X0008600Y0005750D01*
G01X0010425Y0005750D02*
G01X0010475Y0005700D01*
G01X0009600Y0005750D02*
G01X0010425Y0005750D01*
G54D10*
G01X0004801Y0007577D02*
G01X0005049Y0007577D01*
G01X0004628Y0006789D02*
G01X0004628Y0007404D01*
G01X0004628Y0007404D02*
G01X0004801Y0007577D01*
G54D19*
G01X0007300Y0004750D02*
G01X0006300Y0004750D01*
G54D18*
G01X0007300Y0004750D02*
G01X0008600Y0004750D01*
G01X0010425Y0004750D02*
G01X0010475Y0004700D01*
G01X0009600Y0004750D02*
G01X0010425Y0004750D01*
G54D10*
G01X0004130Y0010212D02*
G01X0004225Y0010307D01*
G01X0004130Y0009475D02*
G01X0004130Y0010212D01*
G01X0004225Y0010307D02*
G01X0004225Y0010700D01*
G01X0004116Y0009461D02*
G01X0004130Y0009475D01*
G01X0004116Y0009111D02*
G01X0004116Y0009461D01*
G01X0004950Y0011525D02*
G01X0005200Y0011525D01*
G01X0004225Y0010800D02*
G01X0004950Y0011525D01*
G01X0004225Y0010700D02*
G01X0004225Y0010800D01*
G54D20*
G36*
G01X0003551Y0010066D02*
G01X0003505Y0010085D01*
G01X0003336Y0010085D01*
G01X0003180Y0010021D01*
G01X0003060Y0009901D01*
G01X0003055Y0009889D01*
G01X0003055Y0010000D01*
G01X0003036Y0010095D01*
G01X0002981Y0010179D01*
G01X0002898Y0010235D01*
G01X0002800Y0010255D01*
G01X0002200Y0010255D01*
G01X0002105Y0010236D01*
G01X0002021Y0010181D01*
G01X0002000Y0010151D01*
G01X0001981Y0010179D01*
G01X0001898Y0010235D01*
G01X0001800Y0010255D01*
G01X0001248Y0010255D01*
G01X0001248Y0011252D01*
G01X0003059Y0011252D01*
G01X0003064Y0011230D01*
G01X0003116Y0011150D01*
G01X0003065Y0011073D01*
G01X0003045Y0010975D01*
G01X0003045Y0010425D01*
G01X0003064Y0010330D01*
G01X0003119Y0010246D01*
G01X0003202Y0010190D01*
G01X0003300Y0010170D01*
G01X0003551Y0010170D01*
G01X0003551Y0010066D01*
G01X0003551Y0010066D01*
G37*
G01X0003551Y0010066D02*
G01X0003505Y0010085D01*
G01X0003505Y0010085D02*
G01X0003336Y0010085D01*
G01X0003336Y0010085D02*
G01X0003180Y0010021D01*
G01X0003180Y0010021D02*
G01X0003060Y0009901D01*
G01X0003060Y0009901D02*
G01X0003055Y0009889D01*
G01X0003055Y0009889D02*
G01X0003055Y0010000D01*
G01X0003055Y0010000D02*
G01X0003036Y0010095D01*
G01X0003036Y0010095D02*
G01X0002981Y0010179D01*
G01X0002981Y0010179D02*
G01X0002898Y0010235D01*
G01X0002898Y0010235D02*
G01X0002800Y0010255D01*
G01X0002800Y0010255D02*
G01X0002200Y0010255D01*
G01X0002200Y0010255D02*
G01X0002105Y0010236D01*
G01X0002105Y0010236D02*
G01X0002021Y0010181D01*
G01X0002021Y0010181D02*
G01X0002000Y0010151D01*
G01X0002000Y0010151D02*
G01X0001981Y0010179D01*
G01X0001981Y0010179D02*
G01X0001898Y0010235D01*
G01X0001898Y0010235D02*
G01X0001800Y0010255D01*
G01X0001800Y0010255D02*
G01X0001248Y0010255D01*
G01X0001248Y0010255D02*
G01X0001248Y0011252D01*
G01X0001248Y0011252D02*
G01X0003059Y0011252D01*
G01X0003059Y0011252D02*
G01X0003064Y0011230D01*
G01X0003064Y0011230D02*
G01X0003116Y0011150D01*
G01X0003116Y0011150D02*
G01X0003065Y0011073D01*
G01X0003065Y0011073D02*
G01X0003045Y0010975D01*
G01X0003045Y0010975D02*
G01X0003045Y0010425D01*
G01X0003045Y0010425D02*
G01X0003064Y0010330D01*
G01X0003064Y0010330D02*
G01X0003119Y0010246D01*
G01X0003119Y0010246D02*
G01X0003202Y0010190D01*
G01X0003202Y0010190D02*
G01X0003300Y0010170D01*
G01X0003300Y0010170D02*
G01X0003551Y0010170D01*
G01X0003551Y0010170D02*
G01X0003551Y0010066D01*
G36*
G01X0005849Y0009250D02*
G01X0005821Y0009231D01*
G01X0005765Y0009148D01*
G01X0005745Y0009050D01*
G01X0005745Y0009023D01*
G01X0005663Y0008969D01*
G01X0005661Y0008966D01*
G01X0005483Y0008966D01*
G01X0005483Y0009407D01*
G01X0005477Y0009441D01*
G01X0005747Y0009441D01*
G01X0005764Y0009355D01*
G01X0005819Y0009271D01*
G01X0005849Y0009250D01*
G01X0005849Y0009250D01*
G37*
G01X0005849Y0009250D02*
G01X0005821Y0009231D01*
G01X0005821Y0009231D02*
G01X0005765Y0009148D01*
G01X0005765Y0009148D02*
G01X0005745Y0009050D01*
G01X0005745Y0009050D02*
G01X0005745Y0009023D01*
G01X0005745Y0009023D02*
G01X0005663Y0008969D01*
G01X0005663Y0008969D02*
G01X0005661Y0008966D01*
G01X0005661Y0008966D02*
G01X0005483Y0008966D01*
G01X0005483Y0008966D02*
G01X0005483Y0009407D01*
G01X0005483Y0009407D02*
G01X0005477Y0009441D01*
G01X0005477Y0009441D02*
G01X0005747Y0009441D01*
G01X0005747Y0009441D02*
G01X0005764Y0009355D01*
G01X0005764Y0009355D02*
G01X0005819Y0009271D01*
G01X0005819Y0009271D02*
G01X0005849Y0009250D01*
G36*
G01X0011630Y0000370D02*
G01X0000370Y0000370D01*
G01X0000370Y0015630D01*
G01X0011630Y0015630D01*
G01X0011630Y0012080D01*
G01X0011581Y0012154D01*
G01X0011498Y0012210D01*
G01X0011400Y0012230D01*
G01X0011050Y0012230D01*
G01X0010955Y0012211D01*
G01X0010871Y0012156D01*
G01X0010850Y0012126D01*
G01X0010831Y0012154D01*
G01X0010748Y0012210D01*
G01X0010650Y0012230D01*
G01X0010300Y0012230D01*
G01X0010205Y0012211D01*
G01X0010127Y0012160D01*
G01X0010081Y0012229D01*
G01X0009998Y0012285D01*
G01X0009900Y0012305D01*
G01X0009300Y0012305D01*
G01X0009205Y0012286D01*
G01X0009121Y0012231D01*
G01X0009100Y0012201D01*
G01X0009081Y0012229D01*
G01X0008998Y0012285D01*
G01X0008900Y0012305D01*
G01X0008300Y0012305D01*
G01X0008205Y0012286D01*
G01X0008121Y0012231D01*
G01X0008065Y0012148D01*
G01X0008055Y0012098D01*
G01X0007846Y0012098D01*
G01X0007836Y0012145D01*
G01X0007781Y0012229D01*
G01X0007698Y0012285D01*
G01X0007600Y0012305D01*
G01X0007000Y0012305D01*
G01X0006905Y0012286D01*
G01X0006821Y0012231D01*
G01X0006800Y0012201D01*
G01X0006781Y0012229D01*
G01X0006698Y0012285D01*
G01X0006600Y0012305D01*
G01X0006000Y0012305D01*
G01X0005905Y0012286D01*
G01X0005821Y0012231D01*
G01X0005765Y0012148D01*
G01X0005745Y0012050D01*
G01X0005745Y0011632D01*
G01X0005730Y0011617D01*
G01X0005730Y0011700D01*
G01X0005711Y0011795D01*
G01X0005656Y0011879D01*
G01X0005573Y0011935D01*
G01X0005475Y0011955D01*
G01X0004925Y0011955D01*
G01X0004830Y0011936D01*
G01X0004746Y0011881D01*
G01X0004690Y0011798D01*
G01X0004670Y0011700D01*
G01X0004670Y0011682D01*
G01X0004655Y0011667D01*
G01X0004655Y0011875D01*
G01X0004636Y0011970D01*
G01X0004600Y0012025D01*
G01X0004635Y0012077D01*
G01X0004655Y0012175D01*
G01X0004655Y0012725D01*
G01X0004636Y0012820D01*
G01X0004581Y0012904D01*
G01X0004534Y0012936D01*
G01X0004534Y0012945D01*
G01X0005000Y0012945D01*
G01X0005095Y0012964D01*
G01X0005179Y0013019D01*
G01X0005200Y0013049D01*
G01X0005219Y0013021D01*
G01X0005302Y0012965D01*
G01X0005400Y0012945D01*
G01X0006000Y0012945D01*
G01X0006095Y0012964D01*
G01X0006179Y0013019D01*
G01X0006200Y0013049D01*
G01X0006219Y0013021D01*
G01X0006302Y0012965D01*
G01X0006400Y0012945D01*
G01X0007000Y0012945D01*
G01X0007095Y0012964D01*
G01X0007179Y0013019D01*
G01X0007235Y0013102D01*
G01X0007255Y0013200D01*
G01X0007255Y0013800D01*
G01X0007236Y0013895D01*
G01X0007181Y0013979D01*
G01X0007151Y0014000D01*
G01X0007179Y0014019D01*
G01X0007235Y0014102D01*
G01X0007255Y0014200D01*
G01X0007255Y0014800D01*
G01X0007236Y0014895D01*
G01X0007181Y0014979D01*
G01X0007098Y0015035D01*
G01X0007000Y0015055D01*
G01X0006400Y0015055D01*
G01X0006305Y0015036D01*
G01X0006221Y0014981D01*
G01X0006165Y0014898D01*
G01X0006145Y0014800D01*
G01X0006145Y0014200D01*
G01X0006164Y0014105D01*
G01X0006219Y0014021D01*
G01X0006249Y0014000D01*
G01X0006221Y0013981D01*
G01X0006200Y0013951D01*
G01X0006181Y0013979D01*
G01X0006098Y0014035D01*
G01X0006000Y0014055D01*
G01X0005973Y0014055D01*
G01X0005919Y0014137D01*
G01X0005878Y0014178D01*
G01X0005777Y0014245D01*
G01X0005659Y0014268D01*
G01X0004273Y0014268D01*
G01X0004273Y0014268D01*
G01X0004154Y0014245D01*
G01X0004054Y0014178D01*
G01X0003642Y0013765D01*
G01X0003575Y0013665D01*
G01X0003551Y0013547D01*
G01X0003551Y0012980D01*
G01X0003300Y0012980D01*
G01X0003205Y0012961D01*
G01X0003121Y0012906D01*
G01X0003065Y0012823D01*
G01X0003045Y0012725D01*
G01X0003045Y0012175D01*
G01X0003064Y0012080D01*
G01X0003100Y0012025D01*
G01X0003065Y0011973D01*
G01X0003060Y0011948D01*
G01X0001100Y0011948D01*
G01X0000967Y0011922D01*
G01X0000854Y0011846D01*
G01X0000854Y0011846D01*
G01X0000654Y0011646D01*
G01X0000578Y0011533D01*
G01X0000574Y0011511D01*
G01X0000552Y0011400D01*
G01X0000552Y0011400D01*
G01X0000552Y0008803D01*
G01X0000552Y0008803D01*
G01X0000574Y0008692D01*
G01X0000578Y0008670D01*
G01X0000654Y0008557D01*
G01X0000757Y0008454D01*
G01X0000757Y0008454D01*
G01X0000757Y0008454D01*
G01X0000870Y0008378D01*
G01X0000870Y0008378D01*
G01X0000892Y0008374D01*
G01X0000953Y0008362D01*
G01X0000953Y0008362D01*
G01X0000964Y0008305D01*
G01X0001019Y0008221D01*
G01X0001049Y0008200D01*
G01X0001021Y0008181D01*
G01X0000965Y0008098D01*
G01X0000945Y0008000D01*
G01X0000945Y0007400D01*
G01X0000964Y0007305D01*
G01X0001019Y0007221D01*
G01X0001102Y0007165D01*
G01X0001200Y0007145D01*
G01X0001800Y0007145D01*
G01X0001895Y0007164D01*
G01X0001979Y0007219D01*
G01X0002000Y0007249D01*
G01X0002019Y0007221D01*
G01X0002102Y0007165D01*
G01X0002200Y0007145D01*
G01X0002800Y0007145D01*
G01X0002895Y0007164D01*
G01X0002969Y0007212D01*
G01X0003157Y0007024D01*
G01X0003157Y0007024D01*
G01X0003157Y0007024D01*
G01X0003257Y0006957D01*
G01X0003261Y0006957D01*
G01X0003261Y0006675D01*
G01X0002756Y0006170D01*
G01X0002695Y0006080D01*
G01X0002400Y0006080D01*
G01X0002305Y0006061D01*
G01X0002221Y0006006D01*
G01X0002165Y0005923D01*
G01X0002145Y0005825D01*
G01X0002145Y0005275D01*
G01X0002164Y0005180D01*
G01X0002219Y0005096D01*
G01X0002302Y0005040D01*
G01X0002400Y0005020D01*
G01X0002750Y0005020D01*
G01X0002845Y0005039D01*
G01X0002929Y0005094D01*
G01X0002985Y0005177D01*
G01X0002990Y0005202D01*
G01X0003131Y0005202D01*
G01X0003170Y0005162D01*
G01X0003170Y0005088D01*
G01X0003151Y0005069D01*
G01X0003010Y0005011D01*
G01X0002890Y0004891D01*
G01X0002835Y0004758D01*
G01X0000591Y0004758D01*
G01X0000591Y0003360D01*
G01X0003009Y0003360D01*
G01X0003009Y0004290D01*
G01X0003165Y0004225D01*
G01X0003334Y0004225D01*
G01X0003490Y0004289D01*
G01X0003610Y0004409D01*
G01X0003675Y0004565D01*
G01X0003675Y0004607D01*
G01X0003763Y0004695D01*
G01X0003975Y0004695D01*
G01X0004070Y0004714D01*
G01X0004090Y0004727D01*
G01X0004140Y0004727D01*
G01X0004144Y0004721D01*
G01X0004227Y0004665D01*
G01X0004252Y0004660D01*
G01X0004252Y0004627D01*
G01X0004221Y0004606D01*
G01X0004165Y0004523D01*
G01X0004145Y0004425D01*
G01X0004145Y0003875D01*
G01X0004164Y0003780D01*
G01X0004219Y0003696D01*
G01X0004227Y0003691D01*
G01X0004227Y0003512D01*
G01X0004227Y0003512D01*
G01X0004249Y0003401D01*
G01X0004253Y0003379D01*
G01X0004329Y0003266D01*
G01X0004441Y0003154D01*
G01X0004441Y0002545D01*
G01X0004459Y0002450D01*
G01X0004514Y0002366D01*
G01X0004597Y0002310D01*
G01X0004696Y0002290D01*
G01X0005167Y0002290D01*
G01X0005853Y0001604D01*
G01X0005853Y0001604D01*
G01X0005853Y0001604D01*
G01X0005929Y0001553D01*
G01X0005966Y0001528D01*
G01X0005966Y0001528D01*
G01X0006100Y0001502D01*
G01X0006100Y0001502D01*
G01X0006100Y0001502D01*
G01X0006404Y0001502D01*
G01X0006414Y0001455D01*
G01X0006469Y0001371D01*
G01X0006552Y0001315D01*
G01X0006650Y0001295D01*
G01X0007250Y0001295D01*
G01X0007345Y0001314D01*
G01X0007429Y0001369D01*
G01X0007450Y0001399D01*
G01X0007469Y0001371D01*
G01X0007552Y0001315D01*
G01X0007650Y0001295D01*
G01X0008250Y0001295D01*
G01X0008345Y0001314D01*
G01X0008429Y0001369D01*
G01X0008485Y0001452D01*
G01X0008505Y0001550D01*
G01X0008505Y0002150D01*
G01X0008486Y0002245D01*
G01X0008431Y0002329D01*
G01X0008348Y0002385D01*
G01X0008250Y0002405D01*
G01X0007650Y0002405D01*
G01X0007555Y0002386D01*
G01X0007471Y0002331D01*
G01X0007450Y0002301D01*
G01X0007431Y0002329D01*
G01X0007348Y0002385D01*
G01X0007250Y0002405D01*
G01X0006650Y0002405D01*
G01X0006555Y0002386D01*
G01X0006471Y0002331D01*
G01X0006415Y0002248D01*
G01X0006405Y0002198D01*
G01X0006244Y0002198D01*
G01X0005659Y0002783D01*
G01X0005659Y0003529D01*
G01X0005641Y0003624D01*
G01X0005586Y0003708D01*
G01X0005503Y0003764D01*
G01X0005405Y0003784D01*
G01X0004987Y0003784D01*
G01X0005005Y0003875D01*
G01X0005005Y0004425D01*
G01X0004986Y0004520D01*
G01X0004948Y0004578D01*
G01X0004948Y0004659D01*
G01X0004970Y0004664D01*
G01X0005043Y0004711D01*
G01X0005125Y0004695D01*
G01X0005675Y0004695D01*
G01X0005745Y0004709D01*
G01X0005745Y0004450D01*
G01X0005764Y0004355D01*
G01X0005819Y0004271D01*
G01X0005902Y0004215D01*
G01X0006000Y0004195D01*
G01X0006600Y0004195D01*
G01X0006695Y0004214D01*
G01X0006779Y0004269D01*
G01X0006800Y0004299D01*
G01X0006819Y0004271D01*
G01X0006902Y0004215D01*
G01X0007000Y0004195D01*
G01X0007600Y0004195D01*
G01X0007695Y0004214D01*
G01X0007779Y0004269D01*
G01X0007835Y0004352D01*
G01X0007845Y0004402D01*
G01X0008054Y0004402D01*
G01X0008064Y0004355D01*
G01X0008119Y0004271D01*
G01X0008202Y0004215D01*
G01X0008300Y0004195D01*
G01X0008900Y0004195D01*
G01X0008995Y0004214D01*
G01X0009079Y0004269D01*
G01X0009100Y0004299D01*
G01X0009119Y0004271D01*
G01X0009202Y0004215D01*
G01X0009300Y0004195D01*
G01X0009900Y0004195D01*
G01X0009995Y0004214D01*
G01X0010079Y0004269D01*
G01X0010092Y0004287D01*
G01X0010119Y0004246D01*
G01X0010202Y0004190D01*
G01X0010300Y0004170D01*
G01X0010615Y0004170D01*
G01X0010615Y0004136D01*
G01X0010679Y0003980D01*
G01X0010795Y0003864D01*
G01X0010795Y0003525D01*
G01X0010814Y0003430D01*
G01X0010869Y0003346D01*
G01X0010952Y0003290D01*
G01X0011050Y0003270D01*
G01X0011400Y0003270D01*
G01X0011495Y0003289D01*
G01X0011579Y0003344D01*
G01X0011630Y0003419D01*
G01X0011630Y0000370D01*
G01X0011630Y0000370D01*
G37*
G01X0011630Y0000370D02*
G01X0000370Y0000370D01*
G01X0000370Y0000370D02*
G01X0000370Y0015630D01*
G01X0000370Y0015630D02*
G01X0011630Y0015630D01*
G01X0011630Y0015630D02*
G01X0011630Y0012080D01*
G01X0011630Y0012080D02*
G01X0011581Y0012154D01*
G01X0011581Y0012154D02*
G01X0011498Y0012210D01*
G01X0011498Y0012210D02*
G01X0011400Y0012230D01*
G01X0011400Y0012230D02*
G01X0011050Y0012230D01*
G01X0011050Y0012230D02*
G01X0010955Y0012211D01*
G01X0010955Y0012211D02*
G01X0010871Y0012156D01*
G01X0010871Y0012156D02*
G01X0010850Y0012126D01*
G01X0010850Y0012126D02*
G01X0010831Y0012154D01*
G01X0010831Y0012154D02*
G01X0010748Y0012210D01*
G01X0010748Y0012210D02*
G01X0010650Y0012230D01*
G01X0010650Y0012230D02*
G01X0010300Y0012230D01*
G01X0010300Y0012230D02*
G01X0010205Y0012211D01*
G01X0010205Y0012211D02*
G01X0010127Y0012160D01*
G01X0010127Y0012160D02*
G01X0010081Y0012229D01*
G01X0010081Y0012229D02*
G01X0009998Y0012285D01*
G01X0009998Y0012285D02*
G01X0009900Y0012305D01*
G01X0009900Y0012305D02*
G01X0009300Y0012305D01*
G01X0009300Y0012305D02*
G01X0009205Y0012286D01*
G01X0009205Y0012286D02*
G01X0009121Y0012231D01*
G01X0009121Y0012231D02*
G01X0009100Y0012201D01*
G01X0009100Y0012201D02*
G01X0009081Y0012229D01*
G01X0009081Y0012229D02*
G01X0008998Y0012285D01*
G01X0008998Y0012285D02*
G01X0008900Y0012305D01*
G01X0008900Y0012305D02*
G01X0008300Y0012305D01*
G01X0008300Y0012305D02*
G01X0008205Y0012286D01*
G01X0008205Y0012286D02*
G01X0008121Y0012231D01*
G01X0008121Y0012231D02*
G01X0008065Y0012148D01*
G01X0008065Y0012148D02*
G01X0008055Y0012098D01*
G01X0008055Y0012098D02*
G01X0007846Y0012098D01*
G01X0007846Y0012098D02*
G01X0007836Y0012145D01*
G01X0007836Y0012145D02*
G01X0007781Y0012229D01*
G01X0007781Y0012229D02*
G01X0007698Y0012285D01*
G01X0007698Y0012285D02*
G01X0007600Y0012305D01*
G01X0007600Y0012305D02*
G01X0007000Y0012305D01*
G01X0007000Y0012305D02*
G01X0006905Y0012286D01*
G01X0006905Y0012286D02*
G01X0006821Y0012231D01*
G01X0006821Y0012231D02*
G01X0006800Y0012201D01*
G01X0006800Y0012201D02*
G01X0006781Y0012229D01*
G01X0006781Y0012229D02*
G01X0006698Y0012285D01*
G01X0006698Y0012285D02*
G01X0006600Y0012305D01*
G01X0006600Y0012305D02*
G01X0006000Y0012305D01*
G01X0006000Y0012305D02*
G01X0005905Y0012286D01*
G01X0005905Y0012286D02*
G01X0005821Y0012231D01*
G01X0005821Y0012231D02*
G01X0005765Y0012148D01*
G01X0005765Y0012148D02*
G01X0005745Y0012050D01*
G01X0005745Y0012050D02*
G01X0005745Y0011632D01*
G01X0005745Y0011632D02*
G01X0005730Y0011617D01*
G01X0005730Y0011617D02*
G01X0005730Y0011700D01*
G01X0005730Y0011700D02*
G01X0005711Y0011795D01*
G01X0005711Y0011795D02*
G01X0005656Y0011879D01*
G01X0005656Y0011879D02*
G01X0005573Y0011935D01*
G01X0005573Y0011935D02*
G01X0005475Y0011955D01*
G01X0005475Y0011955D02*
G01X0004925Y0011955D01*
G01X0004925Y0011955D02*
G01X0004830Y0011936D01*
G01X0004830Y0011936D02*
G01X0004746Y0011881D01*
G01X0004746Y0011881D02*
G01X0004690Y0011798D01*
G01X0004690Y0011798D02*
G01X0004670Y0011700D01*
G01X0004670Y0011700D02*
G01X0004670Y0011682D01*
G01X0004670Y0011682D02*
G01X0004655Y0011667D01*
G01X0004655Y0011667D02*
G01X0004655Y0011875D01*
G01X0004655Y0011875D02*
G01X0004636Y0011970D01*
G01X0004636Y0011970D02*
G01X0004600Y0012025D01*
G01X0004600Y0012025D02*
G01X0004635Y0012077D01*
G01X0004635Y0012077D02*
G01X0004655Y0012175D01*
G01X0004655Y0012175D02*
G01X0004655Y0012725D01*
G01X0004655Y0012725D02*
G01X0004636Y0012820D01*
G01X0004636Y0012820D02*
G01X0004581Y0012904D01*
G01X0004581Y0012904D02*
G01X0004534Y0012936D01*
G01X0004534Y0012936D02*
G01X0004534Y0012945D01*
G01X0004534Y0012945D02*
G01X0005000Y0012945D01*
G01X0005000Y0012945D02*
G01X0005095Y0012964D01*
G01X0005095Y0012964D02*
G01X0005179Y0013019D01*
G01X0005179Y0013019D02*
G01X0005200Y0013049D01*
G01X0005200Y0013049D02*
G01X0005219Y0013021D01*
G01X0005219Y0013021D02*
G01X0005302Y0012965D01*
G01X0005302Y0012965D02*
G01X0005400Y0012945D01*
G01X0005400Y0012945D02*
G01X0006000Y0012945D01*
G01X0006000Y0012945D02*
G01X0006095Y0012964D01*
G01X0006095Y0012964D02*
G01X0006179Y0013019D01*
G01X0006179Y0013019D02*
G01X0006200Y0013049D01*
G01X0006200Y0013049D02*
G01X0006219Y0013021D01*
G01X0006219Y0013021D02*
G01X0006302Y0012965D01*
G01X0006302Y0012965D02*
G01X0006400Y0012945D01*
G01X0006400Y0012945D02*
G01X0007000Y0012945D01*
G01X0007000Y0012945D02*
G01X0007095Y0012964D01*
G01X0007095Y0012964D02*
G01X0007179Y0013019D01*
G01X0007179Y0013019D02*
G01X0007235Y0013102D01*
G01X0007235Y0013102D02*
G01X0007255Y0013200D01*
G01X0007255Y0013200D02*
G01X0007255Y0013800D01*
G01X0007255Y0013800D02*
G01X0007236Y0013895D01*
G01X0007236Y0013895D02*
G01X0007181Y0013979D01*
G01X0007181Y0013979D02*
G01X0007151Y0014000D01*
G01X0007151Y0014000D02*
G01X0007179Y0014019D01*
G01X0007179Y0014019D02*
G01X0007235Y0014102D01*
G01X0007235Y0014102D02*
G01X0007255Y0014200D01*
G01X0007255Y0014200D02*
G01X0007255Y0014800D01*
G01X0007255Y0014800D02*
G01X0007236Y0014895D01*
G01X0007236Y0014895D02*
G01X0007181Y0014979D01*
G01X0007181Y0014979D02*
G01X0007098Y0015035D01*
G01X0007098Y0015035D02*
G01X0007000Y0015055D01*
G01X0007000Y0015055D02*
G01X0006400Y0015055D01*
G01X0006400Y0015055D02*
G01X0006305Y0015036D01*
G01X0006305Y0015036D02*
G01X0006221Y0014981D01*
G01X0006221Y0014981D02*
G01X0006165Y0014898D01*
G01X0006165Y0014898D02*
G01X0006145Y0014800D01*
G01X0006145Y0014800D02*
G01X0006145Y0014200D01*
G01X0006145Y0014200D02*
G01X0006164Y0014105D01*
G01X0006164Y0014105D02*
G01X0006219Y0014021D01*
G01X0006219Y0014021D02*
G01X0006249Y0014000D01*
G01X0006249Y0014000D02*
G01X0006221Y0013981D01*
G01X0006221Y0013981D02*
G01X0006200Y0013951D01*
G01X0006200Y0013951D02*
G01X0006181Y0013979D01*
G01X0006181Y0013979D02*
G01X0006098Y0014035D01*
G01X0006098Y0014035D02*
G01X0006000Y0014055D01*
G01X0006000Y0014055D02*
G01X0005973Y0014055D01*
G01X0005973Y0014055D02*
G01X0005919Y0014137D01*
G01X0005919Y0014137D02*
G01X0005878Y0014178D01*
G01X0005878Y0014178D02*
G01X0005777Y0014245D01*
G01X0005777Y0014245D02*
G01X0005659Y0014268D01*
G01X0005659Y0014268D02*
G01X0004273Y0014268D01*
G01X0004273Y0014268D02*
G01X0004273Y0014268D01*
G01X0004273Y0014268D02*
G01X0004154Y0014245D01*
G01X0004154Y0014245D02*
G01X0004054Y0014178D01*
G01X0004054Y0014178D02*
G01X0003642Y0013765D01*
G01X0003642Y0013765D02*
G01X0003575Y0013665D01*
G01X0003575Y0013665D02*
G01X0003551Y0013547D01*
G01X0003551Y0013547D02*
G01X0003551Y0012980D01*
G01X0003551Y0012980D02*
G01X0003300Y0012980D01*
G01X0003300Y0012980D02*
G01X0003205Y0012961D01*
G01X0003205Y0012961D02*
G01X0003121Y0012906D01*
G01X0003121Y0012906D02*
G01X0003065Y0012823D01*
G01X0003065Y0012823D02*
G01X0003045Y0012725D01*
G01X0003045Y0012725D02*
G01X0003045Y0012175D01*
G01X0003045Y0012175D02*
G01X0003064Y0012080D01*
G01X0003064Y0012080D02*
G01X0003100Y0012025D01*
G01X0003100Y0012025D02*
G01X0003065Y0011973D01*
G01X0003065Y0011973D02*
G01X0003060Y0011948D01*
G01X0003060Y0011948D02*
G01X0001100Y0011948D01*
G01X0001100Y0011948D02*
G01X0000967Y0011922D01*
G01X0000967Y0011922D02*
G01X0000854Y0011846D01*
G01X0000854Y0011846D02*
G01X0000854Y0011846D01*
G01X0000854Y0011846D02*
G01X0000654Y0011646D01*
G01X0000654Y0011646D02*
G01X0000578Y0011533D01*
G01X0000578Y0011533D02*
G01X0000574Y0011511D01*
G01X0000574Y0011511D02*
G01X0000552Y0011400D01*
G01X0000552Y0011400D02*
G01X0000552Y0011400D01*
G01X0000552Y0011400D02*
G01X0000552Y0008803D01*
G01X0000552Y0008803D02*
G01X0000552Y0008803D01*
G01X0000552Y0008803D02*
G01X0000574Y0008692D01*
G01X0000574Y0008692D02*
G01X0000578Y0008670D01*
G01X0000578Y0008670D02*
G01X0000654Y0008557D01*
G01X0000654Y0008557D02*
G01X0000757Y0008454D01*
G01X0000757Y0008454D02*
G01X0000757Y0008454D01*
G01X0000757Y0008454D02*
G01X0000757Y0008454D01*
G01X0000757Y0008454D02*
G01X0000870Y0008378D01*
G01X0000870Y0008378D02*
G01X0000870Y0008378D01*
G01X0000870Y0008378D02*
G01X0000892Y0008374D01*
G01X0000892Y0008374D02*
G01X0000953Y0008362D01*
G01X0000953Y0008362D02*
G01X0000953Y0008362D01*
G01X0000953Y0008362D02*
G01X0000964Y0008305D01*
G01X0000964Y0008305D02*
G01X0001019Y0008221D01*
G01X0001019Y0008221D02*
G01X0001049Y0008200D01*
G01X0001049Y0008200D02*
G01X0001021Y0008181D01*
G01X0001021Y0008181D02*
G01X0000965Y0008098D01*
G01X0000965Y0008098D02*
G01X0000945Y0008000D01*
G01X0000945Y0008000D02*
G01X0000945Y0007400D01*
G01X0000945Y0007400D02*
G01X0000964Y0007305D01*
G01X0000964Y0007305D02*
G01X0001019Y0007221D01*
G01X0001019Y0007221D02*
G01X0001102Y0007165D01*
G01X0001102Y0007165D02*
G01X0001200Y0007145D01*
G01X0001200Y0007145D02*
G01X0001800Y0007145D01*
G01X0001800Y0007145D02*
G01X0001895Y0007164D01*
G01X0001895Y0007164D02*
G01X0001979Y0007219D01*
G01X0001979Y0007219D02*
G01X0002000Y0007249D01*
G01X0002000Y0007249D02*
G01X0002019Y0007221D01*
G01X0002019Y0007221D02*
G01X0002102Y0007165D01*
G01X0002102Y0007165D02*
G01X0002200Y0007145D01*
G01X0002200Y0007145D02*
G01X0002800Y0007145D01*
G01X0002800Y0007145D02*
G01X0002895Y0007164D01*
G01X0002895Y0007164D02*
G01X0002969Y0007212D01*
G01X0002969Y0007212D02*
G01X0003157Y0007024D01*
G01X0003157Y0007024D02*
G01X0003157Y0007024D01*
G01X0003157Y0007024D02*
G01X0003157Y0007024D01*
G01X0003157Y0007024D02*
G01X0003257Y0006957D01*
G01X0003257Y0006957D02*
G01X0003261Y0006957D01*
G01X0003261Y0006957D02*
G01X0003261Y0006675D01*
G01X0003261Y0006675D02*
G01X0002756Y0006170D01*
G01X0002756Y0006170D02*
G01X0002695Y0006080D01*
G01X0002695Y0006080D02*
G01X0002400Y0006080D01*
G01X0002400Y0006080D02*
G01X0002305Y0006061D01*
G01X0002305Y0006061D02*
G01X0002221Y0006006D01*
G01X0002221Y0006006D02*
G01X0002165Y0005923D01*
G01X0002165Y0005923D02*
G01X0002145Y0005825D01*
G01X0002145Y0005825D02*
G01X0002145Y0005275D01*
G01X0002145Y0005275D02*
G01X0002164Y0005180D01*
G01X0002164Y0005180D02*
G01X0002219Y0005096D01*
G01X0002219Y0005096D02*
G01X0002302Y0005040D01*
G01X0002302Y0005040D02*
G01X0002400Y0005020D01*
G01X0002400Y0005020D02*
G01X0002750Y0005020D01*
G01X0002750Y0005020D02*
G01X0002845Y0005039D01*
G01X0002845Y0005039D02*
G01X0002929Y0005094D01*
G01X0002929Y0005094D02*
G01X0002985Y0005177D01*
G01X0002985Y0005177D02*
G01X0002990Y0005202D01*
G01X0002990Y0005202D02*
G01X0003131Y0005202D01*
G01X0003131Y0005202D02*
G01X0003170Y0005162D01*
G01X0003170Y0005162D02*
G01X0003170Y0005088D01*
G01X0003170Y0005088D02*
G01X0003151Y0005069D01*
G01X0003151Y0005069D02*
G01X0003010Y0005011D01*
G01X0003010Y0005011D02*
G01X0002890Y0004891D01*
G01X0002890Y0004891D02*
G01X0002835Y0004758D01*
G01X0002835Y0004758D02*
G01X0000591Y0004758D01*
G01X0000591Y0004758D02*
G01X0000591Y0003360D01*
G01X0000591Y0003360D02*
G01X0003009Y0003360D01*
G01X0003009Y0003360D02*
G01X0003009Y0004290D01*
G01X0003009Y0004290D02*
G01X0003165Y0004225D01*
G01X0003165Y0004225D02*
G01X0003334Y0004225D01*
G01X0003334Y0004225D02*
G01X0003490Y0004289D01*
G01X0003490Y0004289D02*
G01X0003610Y0004409D01*
G01X0003610Y0004409D02*
G01X0003675Y0004565D01*
G01X0003675Y0004565D02*
G01X0003675Y0004607D01*
G01X0003675Y0004607D02*
G01X0003763Y0004695D01*
G01X0003763Y0004695D02*
G01X0003975Y0004695D01*
G01X0003975Y0004695D02*
G01X0004070Y0004714D01*
G01X0004070Y0004714D02*
G01X0004090Y0004727D01*
G01X0004090Y0004727D02*
G01X0004140Y0004727D01*
G01X0004140Y0004727D02*
G01X0004144Y0004721D01*
G01X0004144Y0004721D02*
G01X0004227Y0004665D01*
G01X0004227Y0004665D02*
G01X0004252Y0004660D01*
G01X0004252Y0004660D02*
G01X0004252Y0004627D01*
G01X0004252Y0004627D02*
G01X0004221Y0004606D01*
G01X0004221Y0004606D02*
G01X0004165Y0004523D01*
G01X0004165Y0004523D02*
G01X0004145Y0004425D01*
G01X0004145Y0004425D02*
G01X0004145Y0003875D01*
G01X0004145Y0003875D02*
G01X0004164Y0003780D01*
G01X0004164Y0003780D02*
G01X0004219Y0003696D01*
G01X0004219Y0003696D02*
G01X0004227Y0003691D01*
G01X0004227Y0003691D02*
G01X0004227Y0003512D01*
G01X0004227Y0003512D02*
G01X0004227Y0003512D01*
G01X0004227Y0003512D02*
G01X0004249Y0003401D01*
G01X0004249Y0003401D02*
G01X0004253Y0003379D01*
G01X0004253Y0003379D02*
G01X0004329Y0003266D01*
G01X0004329Y0003266D02*
G01X0004441Y0003154D01*
G01X0004441Y0003154D02*
G01X0004441Y0002545D01*
G01X0004441Y0002545D02*
G01X0004459Y0002450D01*
G01X0004459Y0002450D02*
G01X0004514Y0002366D01*
G01X0004514Y0002366D02*
G01X0004597Y0002310D01*
G01X0004597Y0002310D02*
G01X0004696Y0002290D01*
G01X0004696Y0002290D02*
G01X0005167Y0002290D01*
G01X0005167Y0002290D02*
G01X0005853Y0001604D01*
G01X0005853Y0001604D02*
G01X0005853Y0001604D01*
G01X0005853Y0001604D02*
G01X0005853Y0001604D01*
G01X0005853Y0001604D02*
G01X0005929Y0001553D01*
G01X0005929Y0001553D02*
G01X0005966Y0001528D01*
G01X0005966Y0001528D02*
G01X0005966Y0001528D01*
G01X0005966Y0001528D02*
G01X0006100Y0001502D01*
G01X0006100Y0001502D02*
G01X0006100Y0001502D01*
G01X0006100Y0001502D02*
G01X0006100Y0001502D01*
G01X0006100Y0001502D02*
G01X0006404Y0001502D01*
G01X0006404Y0001502D02*
G01X0006414Y0001455D01*
G01X0006414Y0001455D02*
G01X0006469Y0001371D01*
G01X0006469Y0001371D02*
G01X0006552Y0001315D01*
G01X0006552Y0001315D02*
G01X0006650Y0001295D01*
G01X0006650Y0001295D02*
G01X0007250Y0001295D01*
G01X0007250Y0001295D02*
G01X0007345Y0001314D01*
G01X0007345Y0001314D02*
G01X0007429Y0001369D01*
G01X0007429Y0001369D02*
G01X0007450Y0001399D01*
G01X0007450Y0001399D02*
G01X0007469Y0001371D01*
G01X0007469Y0001371D02*
G01X0007552Y0001315D01*
G01X0007552Y0001315D02*
G01X0007650Y0001295D01*
G01X0007650Y0001295D02*
G01X0008250Y0001295D01*
G01X0008250Y0001295D02*
G01X0008345Y0001314D01*
G01X0008345Y0001314D02*
G01X0008429Y0001369D01*
G01X0008429Y0001369D02*
G01X0008485Y0001452D01*
G01X0008485Y0001452D02*
G01X0008505Y0001550D01*
G01X0008505Y0001550D02*
G01X0008505Y0002150D01*
G01X0008505Y0002150D02*
G01X0008486Y0002245D01*
G01X0008486Y0002245D02*
G01X0008431Y0002329D01*
G01X0008431Y0002329D02*
G01X0008348Y0002385D01*
G01X0008348Y0002385D02*
G01X0008250Y0002405D01*
G01X0008250Y0002405D02*
G01X0007650Y0002405D01*
G01X0007650Y0002405D02*
G01X0007555Y0002386D01*
G01X0007555Y0002386D02*
G01X0007471Y0002331D01*
G01X0007471Y0002331D02*
G01X0007450Y0002301D01*
G01X0007450Y0002301D02*
G01X0007431Y0002329D01*
G01X0007431Y0002329D02*
G01X0007348Y0002385D01*
G01X0007348Y0002385D02*
G01X0007250Y0002405D01*
G01X0007250Y0002405D02*
G01X0006650Y0002405D01*
G01X0006650Y0002405D02*
G01X0006555Y0002386D01*
G01X0006555Y0002386D02*
G01X0006471Y0002331D01*
G01X0006471Y0002331D02*
G01X0006415Y0002248D01*
G01X0006415Y0002248D02*
G01X0006405Y0002198D01*
G01X0006405Y0002198D02*
G01X0006244Y0002198D01*
G01X0006244Y0002198D02*
G01X0005659Y0002783D01*
G01X0005659Y0002783D02*
G01X0005659Y0003529D01*
G01X0005659Y0003529D02*
G01X0005641Y0003624D01*
G01X0005641Y0003624D02*
G01X0005586Y0003708D01*
G01X0005586Y0003708D02*
G01X0005503Y0003764D01*
G01X0005503Y0003764D02*
G01X0005405Y0003784D01*
G01X0005405Y0003784D02*
G01X0004987Y0003784D01*
G01X0004987Y0003784D02*
G01X0005005Y0003875D01*
G01X0005005Y0003875D02*
G01X0005005Y0004425D01*
G01X0005005Y0004425D02*
G01X0004986Y0004520D01*
G01X0004986Y0004520D02*
G01X0004948Y0004578D01*
G01X0004948Y0004578D02*
G01X0004948Y0004659D01*
G01X0004948Y0004659D02*
G01X0004970Y0004664D01*
G01X0004970Y0004664D02*
G01X0005043Y0004711D01*
G01X0005043Y0004711D02*
G01X0005125Y0004695D01*
G01X0005125Y0004695D02*
G01X0005675Y0004695D01*
G01X0005675Y0004695D02*
G01X0005745Y0004709D01*
G01X0005745Y0004709D02*
G01X0005745Y0004450D01*
G01X0005745Y0004450D02*
G01X0005764Y0004355D01*
G01X0005764Y0004355D02*
G01X0005819Y0004271D01*
G01X0005819Y0004271D02*
G01X0005902Y0004215D01*
G01X0005902Y0004215D02*
G01X0006000Y0004195D01*
G01X0006000Y0004195D02*
G01X0006600Y0004195D01*
G01X0006600Y0004195D02*
G01X0006695Y0004214D01*
G01X0006695Y0004214D02*
G01X0006779Y0004269D01*
G01X0006779Y0004269D02*
G01X0006800Y0004299D01*
G01X0006800Y0004299D02*
G01X0006819Y0004271D01*
G01X0006819Y0004271D02*
G01X0006902Y0004215D01*
G01X0006902Y0004215D02*
G01X0007000Y0004195D01*
G01X0007000Y0004195D02*
G01X0007600Y0004195D01*
G01X0007600Y0004195D02*
G01X0007695Y0004214D01*
G01X0007695Y0004214D02*
G01X0007779Y0004269D01*
G01X0007779Y0004269D02*
G01X0007835Y0004352D01*
G01X0007835Y0004352D02*
G01X0007845Y0004402D01*
G01X0007845Y0004402D02*
G01X0008054Y0004402D01*
G01X0008054Y0004402D02*
G01X0008064Y0004355D01*
G01X0008064Y0004355D02*
G01X0008119Y0004271D01*
G01X0008119Y0004271D02*
G01X0008202Y0004215D01*
G01X0008202Y0004215D02*
G01X0008300Y0004195D01*
G01X0008300Y0004195D02*
G01X0008900Y0004195D01*
G01X0008900Y0004195D02*
G01X0008995Y0004214D01*
G01X0008995Y0004214D02*
G01X0009079Y0004269D01*
G01X0009079Y0004269D02*
G01X0009100Y0004299D01*
G01X0009100Y0004299D02*
G01X0009119Y0004271D01*
G01X0009119Y0004271D02*
G01X0009202Y0004215D01*
G01X0009202Y0004215D02*
G01X0009300Y0004195D01*
G01X0009300Y0004195D02*
G01X0009900Y0004195D01*
G01X0009900Y0004195D02*
G01X0009995Y0004214D01*
G01X0009995Y0004214D02*
G01X0010079Y0004269D01*
G01X0010079Y0004269D02*
G01X0010092Y0004287D01*
G01X0010092Y0004287D02*
G01X0010119Y0004246D01*
G01X0010119Y0004246D02*
G01X0010202Y0004190D01*
G01X0010202Y0004190D02*
G01X0010300Y0004170D01*
G01X0010300Y0004170D02*
G01X0010615Y0004170D01*
G01X0010615Y0004170D02*
G01X0010615Y0004136D01*
G01X0010615Y0004136D02*
G01X0010679Y0003980D01*
G01X0010679Y0003980D02*
G01X0010795Y0003864D01*
G01X0010795Y0003864D02*
G01X0010795Y0003525D01*
G01X0010795Y0003525D02*
G01X0010814Y0003430D01*
G01X0010814Y0003430D02*
G01X0010869Y0003346D01*
G01X0010869Y0003346D02*
G01X0010952Y0003290D01*
G01X0010952Y0003290D02*
G01X0011050Y0003270D01*
G01X0011050Y0003270D02*
G01X0011400Y0003270D01*
G01X0011400Y0003270D02*
G01X0011495Y0003289D01*
G01X0011495Y0003289D02*
G01X0011579Y0003344D01*
G01X0011579Y0003344D02*
G01X0011630Y0003419D01*
G01X0011630Y0003419D02*
G01X0011630Y0000370D01*
M02*
