G04 This is an RS-274x file exported by *
G04 gerbv version 2.6.1 *
G04 More information is available about gerbv at *
G04 http://gerbv.geda-project.org/ *
G04 --End of header info--*
%MOIN*%
%FSLAX34Y34*%
%IPPOS*%
G04 --Define apertures--*
%ADD10C,0.0118*%
%ADD11R,0.0600X0.0600*%
%ADD12R,0.0350X0.0550*%
%ADD13C,0.2362*%
%ADD14R,0.0177X0.0591*%
%ADD15R,0.0550X0.0350*%
%ADD16R,0.0709X0.0984*%
G04 --Start main section--*
G54D11*
G01X0007950Y0000850D03*
G01X0006950Y0000850D03*
G01X0007950Y0001850D03*
G01X0006950Y0001850D03*
G01X0007950Y0002850D03*
G01X0006950Y0002850D03*
G01X0008600Y0010750D03*
G01X0009600Y0010750D03*
G54D12*
G01X0004575Y0004150D03*
G01X0003825Y0004150D03*
G54D13*
G01X0010000Y0014000D03*
G54D14*
G01X0003604Y0009111D03*
G01X0003860Y0009111D03*
G01X0004116Y0009111D03*
G01X0004372Y0009111D03*
G01X0004628Y0009111D03*
G01X0004884Y0009111D03*
G01X0005140Y0009111D03*
G01X0005396Y0009111D03*
G01X0005396Y0006789D03*
G01X0005140Y0006789D03*
G01X0004884Y0006789D03*
G01X0004628Y0006789D03*
G01X0004372Y0006789D03*
G01X0004116Y0006789D03*
G01X0003860Y0006789D03*
G01X0003604Y0006789D03*
G54D12*
G01X0011225Y0004700D03*
G01X0010475Y0004700D03*
G01X0011225Y0005700D03*
G01X0010475Y0005700D03*
G01X0011225Y0006700D03*
G01X0010475Y0006700D03*
G01X0011225Y0007700D03*
G01X0010475Y0007700D03*
G01X0011225Y0008700D03*
G01X0010475Y0008700D03*
G01X0011225Y0009700D03*
G01X0010475Y0009700D03*
G01X0011225Y0010700D03*
G01X0010475Y0010700D03*
G01X0011225Y0011700D03*
G01X0010475Y0011700D03*
G54D15*
G01X0003700Y0005125D03*
G01X0003700Y0005875D03*
G01X0005400Y0005125D03*
G01X0005400Y0005875D03*
G01X0004600Y0005075D03*
G01X0004600Y0005825D03*
G01X0005200Y0011525D03*
G01X0005200Y0012275D03*
G54D12*
G01X0003475Y0010700D03*
G01X0004225Y0010700D03*
G01X0003475Y0011600D03*
G01X0004225Y0011600D03*
G01X0003475Y0012450D03*
G01X0004225Y0012450D03*
G54D13*
G01X0002000Y0014000D03*
G01X0010000Y0002000D03*
G01X0002000Y0002000D03*
G54D11*
G01X0006300Y0004750D03*
G01X0007300Y0004750D03*
G01X0006300Y0005750D03*
G01X0007300Y0005750D03*
G01X0006300Y0006750D03*
G01X0007300Y0006750D03*
G01X0006300Y0007750D03*
G01X0007300Y0007750D03*
G01X0006300Y0008750D03*
G01X0007300Y0008750D03*
G01X0006300Y0009750D03*
G01X0007300Y0009750D03*
G01X0006300Y0010750D03*
G01X0007300Y0010750D03*
G01X0006300Y0011750D03*
G01X0007300Y0011750D03*
G01X0008600Y0004750D03*
G01X0009600Y0004750D03*
G01X0008600Y0005750D03*
G01X0009600Y0005750D03*
G01X0008600Y0006750D03*
G01X0009600Y0006750D03*
G01X0008600Y0007750D03*
G01X0009600Y0007750D03*
G01X0008600Y0008750D03*
G01X0009600Y0008750D03*
G01X0008600Y0009750D03*
G01X0009600Y0009750D03*
G01X0008600Y0011750D03*
G01X0009600Y0011750D03*
G01X0006700Y0013500D03*
G01X0006700Y0014500D03*
G01X0002500Y0006700D03*
G01X0001500Y0006700D03*
G01X0002500Y0007700D03*
G01X0001500Y0007700D03*
G01X0002500Y0008700D03*
G01X0001500Y0008700D03*
G01X0002500Y0009700D03*
G01X0001500Y0009700D03*
G01X0002500Y0010700D03*
G01X0001500Y0010700D03*
G01X0005700Y0014500D03*
G01X0005700Y0013500D03*
G01X0004700Y0014500D03*
G01X0004700Y0013500D03*
G54D16*
G01X0005050Y0001463D03*
G01X0005050Y0003037D03*
G54D12*
G01X0011225Y0003800D03*
G01X0010475Y0003800D03*
G01X0002575Y0005550D03*
G01X0001825Y0005550D03*
M02*
