M48
INCH,TZ
T10C0.025
T11C0.035
T12C0.118
%
T10
X003250Y004650
X003420Y009660
X004300Y007550
X005049Y007577
X005572Y007344
X005780Y009215
X011040Y004220
T11
X001500Y010700
X001500Y009700
X001500Y008700
X001500Y007700
X001500Y006700
X002500Y010700
X002500Y009700
X002500Y008700
X002500Y007700
X002500Y006700
X004700Y014500
X004700Y013500
X005700Y014500
X005700Y013500
X006300Y011750
X006300Y010750
X006300Y009750
X006300Y008750
X006300Y007750
X006300Y006750
X006300Y005750
X006300Y004750
X006700Y014500
X006700Y013500
X006950Y002850
X006950Y001850
X006950Y000850
X007300Y011750
X007300Y010750
X007300Y009750
X007300Y008750
X007300Y007750
X007300Y006750
X007300Y005750
X007300Y004750
X007950Y002850
X007950Y001850
X007950Y000850
X008600Y011750
X008600Y010750
X008600Y009750
X008600Y008750
X008600Y007750
X008600Y006750
X008600Y005750
X008600Y004750
X009600Y011750
X009600Y010750
X009600Y009750
X009600Y008750
X009600Y007750
X009600Y006750
X009600Y005750
X009600Y004750
T12
X002000Y014000
X002000Y002000
X010000Y014000
X010000Y002000
M30

