G04 This is an RS-274x file exported by *
G04 gerbv version 2.6.1 *
G04 More information is available about gerbv at *
G04 http://gerbv.geda-project.org/ *
G04 --End of header info--*
%MOIN*%
%FSLAX34Y34*%
%IPPOS*%
G04 --Define apertures--*
%ADD10C,0.0118*%
%ADD11C,0.0079*%
%ADD12C,0.0059*%
G04 --Start main section--*
G54D11*
G01X0009178Y0003404D02*
G01X0009178Y0003837D01*
G01X0009178Y0003837D02*
G01X0009323Y0003528D01*
G01X0009323Y0003528D02*
G01X0009467Y0003837D01*
G01X0009467Y0003837D02*
G01X0009467Y0003404D01*
G01X0009879Y0003404D02*
G01X0009673Y0003404D01*
G01X0009673Y0003404D02*
G01X0009673Y0003837D01*
G01X0010003Y0003528D02*
G01X0010209Y0003528D01*
G01X0009962Y0003404D02*
G01X0010106Y0003837D01*
G01X0010106Y0003837D02*
G01X0010251Y0003404D01*
G01X0010539Y0003631D02*
G01X0010601Y0003610D01*
G01X0010601Y0003610D02*
G01X0010622Y0003590D01*
G01X0010622Y0003590D02*
G01X0010642Y0003548D01*
G01X0010642Y0003548D02*
G01X0010642Y0003487D01*
G01X0010642Y0003487D02*
G01X0010622Y0003445D01*
G01X0010622Y0003445D02*
G01X0010601Y0003425D01*
G01X0010601Y0003425D02*
G01X0010560Y0003404D01*
G01X0010560Y0003404D02*
G01X0010395Y0003404D01*
G01X0010395Y0003404D02*
G01X0010395Y0003837D01*
G01X0010395Y0003837D02*
G01X0010539Y0003837D01*
G01X0010539Y0003837D02*
G01X0010581Y0003817D01*
G01X0010581Y0003817D02*
G01X0010601Y0003796D01*
G01X0010601Y0003796D02*
G01X0010622Y0003755D01*
G01X0010622Y0003755D02*
G01X0010622Y0003713D01*
G01X0010622Y0003713D02*
G01X0010601Y0003672D01*
G01X0010601Y0003672D02*
G01X0010581Y0003652D01*
G01X0010581Y0003652D02*
G01X0010539Y0003631D01*
G01X0010539Y0003631D02*
G01X0010395Y0003631D01*
G54D10*
G01X0003856Y0006483D02*
G01X0003575Y0006483D01*
G01X0003575Y0006483D02*
G01X0003575Y0007073D01*
G01X0004053Y0006792D02*
G01X0004250Y0006792D01*
G01X0004335Y0006483D02*
G01X0004053Y0006483D01*
G01X0004053Y0006483D02*
G01X0004053Y0007073D01*
G01X0004053Y0007073D02*
G01X0004335Y0007073D01*
G01X0004588Y0006483D02*
G01X0004588Y0007073D01*
G01X0004588Y0007073D02*
G01X0004728Y0007073D01*
G01X0004728Y0007073D02*
G01X0004813Y0007045D01*
G01X0004813Y0007045D02*
G01X0004869Y0006989D01*
G01X0004869Y0006989D02*
G01X0004897Y0006933D01*
G01X0004897Y0006933D02*
G01X0004925Y0006820D01*
G01X0004925Y0006820D02*
G01X0004925Y0006736D01*
G01X0004925Y0006736D02*
G01X0004897Y0006623D01*
G01X0004897Y0006623D02*
G01X0004869Y0006567D01*
G01X0004869Y0006567D02*
G01X0004813Y0006511D01*
G01X0004813Y0006511D02*
G01X0004728Y0006483D01*
G01X0004728Y0006483D02*
G01X0004588Y0006483D01*
G01X0005459Y0007073D02*
G01X0005178Y0007073D01*
G01X0005178Y0007073D02*
G01X0005150Y0006792D01*
G01X0005150Y0006792D02*
G01X0005178Y0006820D01*
G01X0005178Y0006820D02*
G01X0005234Y0006848D01*
G01X0005234Y0006848D02*
G01X0005375Y0006848D01*
G01X0005375Y0006848D02*
G01X0005431Y0006820D01*
G01X0005431Y0006820D02*
G01X0005459Y0006792D01*
G01X0005459Y0006792D02*
G01X0005488Y0006736D01*
G01X0005488Y0006736D02*
G01X0005488Y0006595D01*
G01X0005488Y0006595D02*
G01X0005459Y0006539D01*
G01X0005459Y0006539D02*
G01X0005431Y0006511D01*
G01X0005431Y0006511D02*
G01X0005375Y0006483D01*
G01X0005375Y0006483D02*
G01X0005234Y0006483D01*
G01X0005234Y0006483D02*
G01X0005178Y0006511D01*
G01X0005178Y0006511D02*
G01X0005150Y0006539D01*
G54D11*
G01X0000746Y0004747D02*
G01X0000746Y0005180D01*
G01X0000931Y0005138D02*
G01X0000952Y0005159D01*
G01X0000952Y0005159D02*
G01X0000993Y0005180D01*
G01X0000993Y0005180D02*
G01X0001096Y0005180D01*
G01X0001096Y0005180D02*
G01X0001138Y0005159D01*
G01X0001138Y0005159D02*
G01X0001158Y0005138D01*
G01X0001158Y0005138D02*
G01X0001179Y0005097D01*
G01X0001179Y0005097D02*
G01X0001179Y0005056D01*
G01X0001179Y0005056D02*
G01X0001158Y0004994D01*
G01X0001158Y0004994D02*
G01X0000911Y0004747D01*
G01X0000911Y0004747D02*
G01X0001179Y0004747D01*
G01X0001612Y0004788D02*
G01X0001591Y0004767D01*
G01X0001591Y0004767D02*
G01X0001529Y0004747D01*
G01X0001529Y0004747D02*
G01X0001488Y0004747D01*
G01X0001488Y0004747D02*
G01X0001426Y0004767D01*
G01X0001426Y0004767D02*
G01X0001385Y0004808D01*
G01X0001385Y0004808D02*
G01X0001364Y0004850D01*
G01X0001364Y0004850D02*
G01X0001344Y0004932D01*
G01X0001344Y0004932D02*
G01X0001344Y0004994D01*
G01X0001344Y0004994D02*
G01X0001364Y0005077D01*
G01X0001364Y0005077D02*
G01X0001385Y0005118D01*
G01X0001385Y0005118D02*
G01X0001426Y0005159D01*
G01X0001426Y0005159D02*
G01X0001488Y0005180D01*
G01X0001488Y0005180D02*
G01X0001529Y0005180D01*
G01X0001529Y0005180D02*
G01X0001591Y0005159D01*
G01X0001591Y0005159D02*
G01X0001612Y0005138D01*
G01X0001798Y0004747D02*
G01X0001798Y0005180D01*
G01X0001798Y0005180D02*
G01X0001962Y0005180D01*
G01X0001962Y0005180D02*
G01X0002004Y0005159D01*
G01X0002004Y0005159D02*
G01X0002024Y0005138D01*
G01X0002024Y0005138D02*
G01X0002045Y0005097D01*
G01X0002045Y0005097D02*
G01X0002045Y0005035D01*
G01X0002045Y0005035D02*
G01X0002024Y0004994D01*
G01X0002024Y0004994D02*
G01X0002004Y0004973D01*
G01X0002004Y0004973D02*
G01X0001962Y0004953D01*
G01X0001962Y0004953D02*
G01X0001798Y0004953D01*
G01X0002189Y0005180D02*
G01X0002292Y0004747D01*
G01X0002292Y0004747D02*
G01X0002375Y0005056D01*
G01X0002375Y0005056D02*
G01X0002457Y0004747D01*
G01X0002457Y0004747D02*
G01X0002561Y0005180D01*
G01X0002726Y0004747D02*
G01X0002726Y0005180D01*
G01X0002726Y0005180D02*
G01X0002870Y0004870D01*
G01X0002870Y0004870D02*
G01X0003014Y0005180D01*
G01X0003014Y0005180D02*
G01X0003014Y0004747D01*
G01X0001468Y0004495D02*
G01X0001509Y0004495D01*
G01X0001509Y0004495D02*
G01X0001550Y0004474D01*
G01X0001550Y0004474D02*
G01X0001571Y0004453D01*
G01X0001571Y0004453D02*
G01X0001591Y0004412D01*
G01X0001591Y0004412D02*
G01X0001612Y0004330D01*
G01X0001612Y0004330D02*
G01X0001612Y0004227D01*
G01X0001612Y0004227D02*
G01X0001591Y0004144D01*
G01X0001591Y0004144D02*
G01X0001571Y0004103D01*
G01X0001571Y0004103D02*
G01X0001550Y0004082D01*
G01X0001550Y0004082D02*
G01X0001509Y0004062D01*
G01X0001509Y0004062D02*
G01X0001468Y0004062D01*
G01X0001468Y0004062D02*
G01X0001426Y0004082D01*
G01X0001426Y0004082D02*
G01X0001406Y0004103D01*
G01X0001406Y0004103D02*
G01X0001385Y0004144D01*
G01X0001385Y0004144D02*
G01X0001364Y0004227D01*
G01X0001364Y0004227D02*
G01X0001364Y0004330D01*
G01X0001364Y0004330D02*
G01X0001385Y0004412D01*
G01X0001385Y0004412D02*
G01X0001406Y0004453D01*
G01X0001406Y0004453D02*
G01X0001426Y0004474D01*
G01X0001426Y0004474D02*
G01X0001468Y0004495D01*
G01X0002024Y0004062D02*
G01X0001777Y0004062D01*
G01X0001901Y0004062D02*
G01X0001901Y0004495D01*
G01X0001901Y0004495D02*
G01X0001859Y0004433D01*
G01X0001859Y0004433D02*
G01X0001818Y0004392D01*
G01X0001818Y0004392D02*
G01X0001777Y0004371D01*
G01X0002189Y0004185D02*
G01X0002396Y0004185D01*
G01X0002148Y0004062D02*
G01X0002292Y0004495D01*
G01X0002292Y0004495D02*
G01X0002437Y0004062D01*
G54D10*
G01X0003820Y0000531D02*
G01X0003843Y0000509D01*
G01X0003843Y0000509D02*
G01X0003820Y0000486D01*
G01X0003820Y0000486D02*
G01X0003798Y0000509D01*
G01X0003798Y0000509D02*
G01X0003820Y0000531D01*
G01X0003820Y0000531D02*
G01X0003820Y0000486D01*
G01X0003820Y0000779D02*
G01X0003843Y0000756D01*
G01X0003843Y0000756D02*
G01X0003820Y0000734D01*
G01X0003820Y0000734D02*
G01X0003798Y0000756D01*
G01X0003798Y0000756D02*
G01X0003820Y0000779D01*
G01X0003820Y0000779D02*
G01X0003820Y0000734D01*
G01X0004045Y0000531D02*
G01X0004068Y0000509D01*
G01X0004068Y0000509D02*
G01X0004045Y0000486D01*
G01X0004045Y0000486D02*
G01X0004023Y0000509D01*
G01X0004023Y0000509D02*
G01X0004045Y0000531D01*
G01X0004045Y0000531D02*
G01X0004045Y0000486D01*
G01X0004045Y0000779D02*
G01X0004068Y0000756D01*
G01X0004068Y0000756D02*
G01X0004045Y0000734D01*
G01X0004045Y0000734D02*
G01X0004023Y0000756D01*
G01X0004023Y0000756D02*
G01X0004045Y0000779D01*
G01X0004045Y0000779D02*
G01X0004045Y0000734D01*
G01X0004720Y0000959D02*
G01X0004765Y0000959D01*
G01X0004765Y0000959D02*
G01X0004810Y0000936D01*
G01X0004810Y0000936D02*
G01X0004833Y0000914D01*
G01X0004833Y0000914D02*
G01X0004855Y0000869D01*
G01X0004855Y0000869D02*
G01X0004878Y0000779D01*
G01X0004878Y0000779D02*
G01X0004878Y0000666D01*
G01X0004878Y0000666D02*
G01X0004855Y0000576D01*
G01X0004855Y0000576D02*
G01X0004833Y0000531D01*
G01X0004833Y0000531D02*
G01X0004810Y0000509D01*
G01X0004810Y0000509D02*
G01X0004765Y0000486D01*
G01X0004765Y0000486D02*
G01X0004720Y0000486D01*
G01X0004720Y0000486D02*
G01X0004675Y0000509D01*
G01X0004675Y0000509D02*
G01X0004653Y0000531D01*
G01X0004653Y0000531D02*
G01X0004630Y0000576D01*
G01X0004630Y0000576D02*
G01X0004608Y0000666D01*
G01X0004608Y0000666D02*
G01X0004608Y0000779D01*
G01X0004608Y0000779D02*
G01X0004630Y0000869D01*
G01X0004630Y0000869D02*
G01X0004653Y0000914D01*
G01X0004653Y0000914D02*
G01X0004675Y0000936D01*
G01X0004675Y0000936D02*
G01X0004720Y0000959D01*
G01X0005035Y0000486D02*
G01X0005283Y0000801D01*
G01X0005035Y0000801D02*
G01X0005283Y0000486D01*
G01X0005665Y0000959D02*
G01X0005575Y0000959D01*
G01X0005575Y0000959D02*
G01X0005530Y0000936D01*
G01X0005530Y0000936D02*
G01X0005508Y0000914D01*
G01X0005508Y0000914D02*
G01X0005463Y0000846D01*
G01X0005463Y0000846D02*
G01X0005440Y0000756D01*
G01X0005440Y0000756D02*
G01X0005440Y0000576D01*
G01X0005440Y0000576D02*
G01X0005463Y0000531D01*
G01X0005463Y0000531D02*
G01X0005485Y0000509D01*
G01X0005485Y0000509D02*
G01X0005530Y0000486D01*
G01X0005530Y0000486D02*
G01X0005620Y0000486D01*
G01X0005620Y0000486D02*
G01X0005665Y0000509D01*
G01X0005665Y0000509D02*
G01X0005688Y0000531D01*
G01X0005688Y0000531D02*
G01X0005710Y0000576D01*
G01X0005710Y0000576D02*
G01X0005710Y0000689D01*
G01X0005710Y0000689D02*
G01X0005688Y0000734D01*
G01X0005688Y0000734D02*
G01X0005665Y0000756D01*
G01X0005665Y0000756D02*
G01X0005620Y0000779D01*
G01X0005620Y0000779D02*
G01X0005530Y0000779D01*
G01X0005530Y0000779D02*
G01X0005485Y0000756D01*
G01X0005485Y0000756D02*
G01X0005463Y0000734D01*
G01X0005463Y0000734D02*
G01X0005440Y0000689D01*
G01X0005868Y0000959D02*
G01X0006160Y0000959D01*
G01X0006160Y0000959D02*
G01X0006003Y0000779D01*
G01X0006003Y0000779D02*
G01X0006070Y0000779D01*
G01X0006070Y0000779D02*
G01X0006115Y0000756D01*
G01X0006115Y0000756D02*
G01X0006138Y0000734D01*
G01X0006138Y0000734D02*
G01X0006160Y0000689D01*
G01X0006160Y0000689D02*
G01X0006160Y0000576D01*
G01X0006160Y0000576D02*
G01X0006138Y0000531D01*
G01X0006138Y0000531D02*
G01X0006115Y0000509D01*
G01X0006115Y0000509D02*
G01X0006070Y0000486D01*
G01X0006070Y0000486D02*
G01X0005935Y0000486D01*
G01X0005935Y0000486D02*
G01X0005890Y0000509D01*
G01X0005890Y0000509D02*
G01X0005868Y0000531D01*
G01X0003550Y0001659D02*
G01X0003865Y0001186D01*
G01X0003865Y0001659D02*
G01X0003550Y0001186D01*
G01X0004045Y0001231D02*
G01X0004068Y0001209D01*
G01X0004068Y0001209D02*
G01X0004045Y0001186D01*
G01X0004045Y0001186D02*
G01X0004023Y0001209D01*
G01X0004023Y0001209D02*
G01X0004045Y0001231D01*
G01X0004045Y0001231D02*
G01X0004045Y0001186D01*
G01X0004045Y0001479D02*
G01X0004068Y0001456D01*
G01X0004068Y0001456D02*
G01X0004045Y0001434D01*
G01X0004045Y0001434D02*
G01X0004023Y0001456D01*
G01X0004023Y0001456D02*
G01X0004045Y0001479D01*
G01X0004045Y0001479D02*
G01X0004045Y0001434D01*
G01X0004720Y0001659D02*
G01X0004765Y0001659D01*
G01X0004765Y0001659D02*
G01X0004810Y0001636D01*
G01X0004810Y0001636D02*
G01X0004833Y0001614D01*
G01X0004833Y0001614D02*
G01X0004855Y0001569D01*
G01X0004855Y0001569D02*
G01X0004878Y0001479D01*
G01X0004878Y0001479D02*
G01X0004878Y0001366D01*
G01X0004878Y0001366D02*
G01X0004855Y0001276D01*
G01X0004855Y0001276D02*
G01X0004833Y0001231D01*
G01X0004833Y0001231D02*
G01X0004810Y0001209D01*
G01X0004810Y0001209D02*
G01X0004765Y0001186D01*
G01X0004765Y0001186D02*
G01X0004720Y0001186D01*
G01X0004720Y0001186D02*
G01X0004675Y0001209D01*
G01X0004675Y0001209D02*
G01X0004653Y0001231D01*
G01X0004653Y0001231D02*
G01X0004630Y0001276D01*
G01X0004630Y0001276D02*
G01X0004608Y0001366D01*
G01X0004608Y0001366D02*
G01X0004608Y0001479D01*
G01X0004608Y0001479D02*
G01X0004630Y0001569D01*
G01X0004630Y0001569D02*
G01X0004653Y0001614D01*
G01X0004653Y0001614D02*
G01X0004675Y0001636D01*
G01X0004675Y0001636D02*
G01X0004720Y0001659D01*
G01X0005035Y0001186D02*
G01X0005283Y0001501D01*
G01X0005035Y0001501D02*
G01X0005283Y0001186D01*
G01X0005665Y0001659D02*
G01X0005575Y0001659D01*
G01X0005575Y0001659D02*
G01X0005530Y0001636D01*
G01X0005530Y0001636D02*
G01X0005508Y0001614D01*
G01X0005508Y0001614D02*
G01X0005463Y0001546D01*
G01X0005463Y0001546D02*
G01X0005440Y0001456D01*
G01X0005440Y0001456D02*
G01X0005440Y0001276D01*
G01X0005440Y0001276D02*
G01X0005463Y0001231D01*
G01X0005463Y0001231D02*
G01X0005485Y0001209D01*
G01X0005485Y0001209D02*
G01X0005530Y0001186D01*
G01X0005530Y0001186D02*
G01X0005620Y0001186D01*
G01X0005620Y0001186D02*
G01X0005665Y0001209D01*
G01X0005665Y0001209D02*
G01X0005688Y0001231D01*
G01X0005688Y0001231D02*
G01X0005710Y0001276D01*
G01X0005710Y0001276D02*
G01X0005710Y0001389D01*
G01X0005710Y0001389D02*
G01X0005688Y0001434D01*
G01X0005688Y0001434D02*
G01X0005665Y0001456D01*
G01X0005665Y0001456D02*
G01X0005620Y0001479D01*
G01X0005620Y0001479D02*
G01X0005530Y0001479D01*
G01X0005530Y0001479D02*
G01X0005485Y0001456D01*
G01X0005485Y0001456D02*
G01X0005463Y0001434D01*
G01X0005463Y0001434D02*
G01X0005440Y0001389D01*
G01X0005890Y0001614D02*
G01X0005913Y0001636D01*
G01X0005913Y0001636D02*
G01X0005958Y0001659D01*
G01X0005958Y0001659D02*
G01X0006070Y0001659D01*
G01X0006070Y0001659D02*
G01X0006115Y0001636D01*
G01X0006115Y0001636D02*
G01X0006138Y0001614D01*
G01X0006138Y0001614D02*
G01X0006160Y0001569D01*
G01X0006160Y0001569D02*
G01X0006160Y0001524D01*
G01X0006160Y0001524D02*
G01X0006138Y0001456D01*
G01X0006138Y0001456D02*
G01X0005868Y0001186D01*
G01X0005868Y0001186D02*
G01X0006160Y0001186D01*
G01X0003670Y0001951D02*
G01X0003693Y0001929D01*
G01X0003693Y0001929D02*
G01X0003670Y0001906D01*
G01X0003670Y0001906D02*
G01X0003648Y0001929D01*
G01X0003648Y0001929D02*
G01X0003670Y0001951D01*
G01X0003670Y0001951D02*
G01X0003670Y0001906D01*
G01X0003670Y0002199D02*
G01X0003693Y0002176D01*
G01X0003693Y0002176D02*
G01X0003670Y0002154D01*
G01X0003670Y0002154D02*
G01X0003648Y0002176D01*
G01X0003648Y0002176D02*
G01X0003670Y0002199D01*
G01X0003670Y0002199D02*
G01X0003670Y0002154D01*
G01X0003985Y0002131D02*
G01X0003985Y0001906D01*
G01X0003828Y0002379D02*
G01X0003985Y0002131D01*
G01X0003985Y0002131D02*
G01X0004143Y0002379D01*
G01X0004750Y0002379D02*
G01X0004795Y0002379D01*
G01X0004795Y0002379D02*
G01X0004840Y0002356D01*
G01X0004840Y0002356D02*
G01X0004863Y0002334D01*
G01X0004863Y0002334D02*
G01X0004885Y0002289D01*
G01X0004885Y0002289D02*
G01X0004908Y0002199D01*
G01X0004908Y0002199D02*
G01X0004908Y0002086D01*
G01X0004908Y0002086D02*
G01X0004885Y0001996D01*
G01X0004885Y0001996D02*
G01X0004863Y0001951D01*
G01X0004863Y0001951D02*
G01X0004840Y0001929D01*
G01X0004840Y0001929D02*
G01X0004795Y0001906D01*
G01X0004795Y0001906D02*
G01X0004750Y0001906D01*
G01X0004750Y0001906D02*
G01X0004705Y0001929D01*
G01X0004705Y0001929D02*
G01X0004683Y0001951D01*
G01X0004683Y0001951D02*
G01X0004660Y0001996D01*
G01X0004660Y0001996D02*
G01X0004638Y0002086D01*
G01X0004638Y0002086D02*
G01X0004638Y0002199D01*
G01X0004638Y0002199D02*
G01X0004660Y0002289D01*
G01X0004660Y0002289D02*
G01X0004683Y0002334D01*
G01X0004683Y0002334D02*
G01X0004705Y0002356D01*
G01X0004705Y0002356D02*
G01X0004750Y0002379D01*
G01X0005065Y0001906D02*
G01X0005313Y0002221D01*
G01X0005065Y0002221D02*
G01X0005313Y0001906D01*
G01X0005695Y0002379D02*
G01X0005605Y0002379D01*
G01X0005605Y0002379D02*
G01X0005560Y0002356D01*
G01X0005560Y0002356D02*
G01X0005538Y0002334D01*
G01X0005538Y0002334D02*
G01X0005493Y0002266D01*
G01X0005493Y0002266D02*
G01X0005470Y0002176D01*
G01X0005470Y0002176D02*
G01X0005470Y0001996D01*
G01X0005470Y0001996D02*
G01X0005493Y0001951D01*
G01X0005493Y0001951D02*
G01X0005515Y0001929D01*
G01X0005515Y0001929D02*
G01X0005560Y0001906D01*
G01X0005560Y0001906D02*
G01X0005650Y0001906D01*
G01X0005650Y0001906D02*
G01X0005695Y0001929D01*
G01X0005695Y0001929D02*
G01X0005718Y0001951D01*
G01X0005718Y0001951D02*
G01X0005740Y0001996D01*
G01X0005740Y0001996D02*
G01X0005740Y0002109D01*
G01X0005740Y0002109D02*
G01X0005718Y0002154D01*
G01X0005718Y0002154D02*
G01X0005695Y0002176D01*
G01X0005695Y0002176D02*
G01X0005650Y0002199D01*
G01X0005650Y0002199D02*
G01X0005560Y0002199D01*
G01X0005560Y0002199D02*
G01X0005515Y0002176D01*
G01X0005515Y0002176D02*
G01X0005493Y0002154D01*
G01X0005493Y0002154D02*
G01X0005470Y0002109D01*
G01X0006190Y0001906D02*
G01X0005920Y0001906D01*
G01X0006055Y0001906D02*
G01X0006055Y0002379D01*
G01X0006055Y0002379D02*
G01X0006010Y0002311D01*
G01X0006010Y0002311D02*
G01X0005965Y0002266D01*
G01X0005965Y0002266D02*
G01X0005920Y0002244D01*
G01X0003380Y0003099D02*
G01X0003695Y0002626D01*
G01X0003695Y0003099D02*
G01X0003380Y0002626D01*
G01X0003965Y0002851D02*
G01X0003965Y0002626D01*
G01X0003808Y0003099D02*
G01X0003965Y0002851D01*
G01X0003965Y0002851D02*
G01X0004123Y0003099D01*
G01X0004730Y0003099D02*
G01X0004775Y0003099D01*
G01X0004775Y0003099D02*
G01X0004820Y0003076D01*
G01X0004820Y0003076D02*
G01X0004843Y0003054D01*
G01X0004843Y0003054D02*
G01X0004865Y0003009D01*
G01X0004865Y0003009D02*
G01X0004888Y0002919D01*
G01X0004888Y0002919D02*
G01X0004888Y0002806D01*
G01X0004888Y0002806D02*
G01X0004865Y0002716D01*
G01X0004865Y0002716D02*
G01X0004843Y0002671D01*
G01X0004843Y0002671D02*
G01X0004820Y0002649D01*
G01X0004820Y0002649D02*
G01X0004775Y0002626D01*
G01X0004775Y0002626D02*
G01X0004730Y0002626D01*
G01X0004730Y0002626D02*
G01X0004685Y0002649D01*
G01X0004685Y0002649D02*
G01X0004663Y0002671D01*
G01X0004663Y0002671D02*
G01X0004640Y0002716D01*
G01X0004640Y0002716D02*
G01X0004618Y0002806D01*
G01X0004618Y0002806D02*
G01X0004618Y0002919D01*
G01X0004618Y0002919D02*
G01X0004640Y0003009D01*
G01X0004640Y0003009D02*
G01X0004663Y0003054D01*
G01X0004663Y0003054D02*
G01X0004685Y0003076D01*
G01X0004685Y0003076D02*
G01X0004730Y0003099D01*
G01X0005045Y0002626D02*
G01X0005293Y0002941D01*
G01X0005045Y0002941D02*
G01X0005293Y0002626D01*
G01X0005675Y0003099D02*
G01X0005585Y0003099D01*
G01X0005585Y0003099D02*
G01X0005540Y0003076D01*
G01X0005540Y0003076D02*
G01X0005518Y0003054D01*
G01X0005518Y0003054D02*
G01X0005473Y0002986D01*
G01X0005473Y0002986D02*
G01X0005450Y0002896D01*
G01X0005450Y0002896D02*
G01X0005450Y0002716D01*
G01X0005450Y0002716D02*
G01X0005473Y0002671D01*
G01X0005473Y0002671D02*
G01X0005495Y0002649D01*
G01X0005495Y0002649D02*
G01X0005540Y0002626D01*
G01X0005540Y0002626D02*
G01X0005630Y0002626D01*
G01X0005630Y0002626D02*
G01X0005675Y0002649D01*
G01X0005675Y0002649D02*
G01X0005698Y0002671D01*
G01X0005698Y0002671D02*
G01X0005720Y0002716D01*
G01X0005720Y0002716D02*
G01X0005720Y0002829D01*
G01X0005720Y0002829D02*
G01X0005698Y0002874D01*
G01X0005698Y0002874D02*
G01X0005675Y0002896D01*
G01X0005675Y0002896D02*
G01X0005630Y0002919D01*
G01X0005630Y0002919D02*
G01X0005540Y0002919D01*
G01X0005540Y0002919D02*
G01X0005495Y0002896D01*
G01X0005495Y0002896D02*
G01X0005473Y0002874D01*
G01X0005473Y0002874D02*
G01X0005450Y0002829D01*
G01X0006013Y0003099D02*
G01X0006058Y0003099D01*
G01X0006058Y0003099D02*
G01X0006103Y0003076D01*
G01X0006103Y0003076D02*
G01X0006125Y0003054D01*
G01X0006125Y0003054D02*
G01X0006148Y0003009D01*
G01X0006148Y0003009D02*
G01X0006170Y0002919D01*
G01X0006170Y0002919D02*
G01X0006170Y0002806D01*
G01X0006170Y0002806D02*
G01X0006148Y0002716D01*
G01X0006148Y0002716D02*
G01X0006125Y0002671D01*
G01X0006125Y0002671D02*
G01X0006103Y0002649D01*
G01X0006103Y0002649D02*
G01X0006058Y0002626D01*
G01X0006058Y0002626D02*
G01X0006013Y0002626D01*
G01X0006013Y0002626D02*
G01X0005968Y0002649D01*
G01X0005968Y0002649D02*
G01X0005945Y0002671D01*
G01X0005945Y0002671D02*
G01X0005923Y0002716D01*
G01X0005923Y0002716D02*
G01X0005900Y0002806D01*
G01X0005900Y0002806D02*
G01X0005900Y0002919D01*
G01X0005900Y0002919D02*
G01X0005923Y0003009D01*
G01X0005923Y0003009D02*
G01X0005945Y0003054D01*
G01X0005945Y0003054D02*
G01X0005968Y0003076D01*
G01X0005968Y0003076D02*
G01X0006013Y0003099D01*
G01X0003866Y0003581D02*
G01X0004091Y0003581D01*
G01X0003821Y0003446D02*
G01X0003979Y0003919D01*
G01X0003979Y0003919D02*
G01X0004136Y0003446D01*
G01X0004294Y0003446D02*
G01X0004294Y0003919D01*
G01X0004294Y0003919D02*
G01X0004406Y0003919D01*
G01X0004406Y0003919D02*
G01X0004474Y0003896D01*
G01X0004474Y0003896D02*
G01X0004519Y0003851D01*
G01X0004519Y0003851D02*
G01X0004541Y0003806D01*
G01X0004541Y0003806D02*
G01X0004564Y0003716D01*
G01X0004564Y0003716D02*
G01X0004564Y0003649D01*
G01X0004564Y0003649D02*
G01X0004541Y0003559D01*
G01X0004541Y0003559D02*
G01X0004519Y0003514D01*
G01X0004519Y0003514D02*
G01X0004474Y0003469D01*
G01X0004474Y0003469D02*
G01X0004406Y0003446D01*
G01X0004406Y0003446D02*
G01X0004294Y0003446D01*
G01X0004766Y0003446D02*
G01X0004766Y0003919D01*
G01X0004766Y0003919D02*
G01X0004879Y0003919D01*
G01X0004879Y0003919D02*
G01X0004946Y0003896D01*
G01X0004946Y0003896D02*
G01X0004991Y0003851D01*
G01X0004991Y0003851D02*
G01X0005014Y0003806D01*
G01X0005014Y0003806D02*
G01X0005036Y0003716D01*
G01X0005036Y0003716D02*
G01X0005036Y0003649D01*
G01X0005036Y0003649D02*
G01X0005014Y0003559D01*
G01X0005014Y0003559D02*
G01X0004991Y0003514D01*
G01X0004991Y0003514D02*
G01X0004946Y0003469D01*
G01X0004946Y0003469D02*
G01X0004879Y0003446D01*
G01X0004879Y0003446D02*
G01X0004766Y0003446D01*
G01X0005509Y0003446D02*
G01X0005351Y0003671D01*
G01X0005239Y0003446D02*
G01X0005239Y0003919D01*
G01X0005239Y0003919D02*
G01X0005419Y0003919D01*
G01X0005419Y0003919D02*
G01X0005464Y0003896D01*
G01X0005464Y0003896D02*
G01X0005486Y0003874D01*
G01X0005486Y0003874D02*
G01X0005509Y0003829D01*
G01X0005509Y0003829D02*
G01X0005509Y0003761D01*
G01X0005509Y0003761D02*
G01X0005486Y0003716D01*
G01X0005486Y0003716D02*
G01X0005464Y0003694D01*
G01X0005464Y0003694D02*
G01X0005419Y0003671D01*
G01X0005419Y0003671D02*
G01X0005239Y0003671D01*
G01X0005711Y0003491D02*
G01X0005734Y0003469D01*
G01X0005734Y0003469D02*
G01X0005711Y0003446D01*
G01X0005711Y0003446D02*
G01X0005689Y0003469D01*
G01X0005689Y0003469D02*
G01X0005711Y0003491D01*
G01X0005711Y0003491D02*
G01X0005711Y0003446D01*
G01X0003848Y0013283D02*
G01X0003848Y0013564D01*
G01X0004017Y0013227D02*
G01X0003427Y0013424D01*
G01X0003427Y0013424D02*
G01X0004017Y0013620D01*
G01X0004017Y0013817D02*
G01X0003427Y0013817D01*
G01X0003427Y0013817D02*
G01X0003427Y0013958D01*
G01X0003427Y0013958D02*
G01X0003455Y0014042D01*
G01X0003455Y0014042D02*
G01X0003511Y0014098D01*
G01X0003511Y0014098D02*
G01X0003567Y0014127D01*
G01X0003567Y0014127D02*
G01X0003680Y0014155D01*
G01X0003680Y0014155D02*
G01X0003764Y0014155D01*
G01X0003764Y0014155D02*
G01X0003877Y0014127D01*
G01X0003877Y0014127D02*
G01X0003933Y0014098D01*
G01X0003933Y0014098D02*
G01X0003989Y0014042D01*
G01X0003989Y0014042D02*
G01X0004017Y0013958D01*
G01X0004017Y0013958D02*
G01X0004017Y0013817D01*
G01X0004017Y0014408D02*
G01X0003427Y0014408D01*
G01X0003427Y0014408D02*
G01X0003427Y0014548D01*
G01X0003427Y0014548D02*
G01X0003455Y0014633D01*
G01X0003455Y0014633D02*
G01X0003511Y0014689D01*
G01X0003511Y0014689D02*
G01X0003567Y0014717D01*
G01X0003567Y0014717D02*
G01X0003680Y0014745D01*
G01X0003680Y0014745D02*
G01X0003764Y0014745D01*
G01X0003764Y0014745D02*
G01X0003877Y0014717D01*
G01X0003877Y0014717D02*
G01X0003933Y0014689D01*
G01X0003933Y0014689D02*
G01X0003989Y0014633D01*
G01X0003989Y0014633D02*
G01X0004017Y0014548D01*
G01X0004017Y0014548D02*
G01X0004017Y0014408D01*
G01X0004017Y0015336D02*
G01X0003736Y0015139D01*
G01X0004017Y0014998D02*
G01X0003427Y0014998D01*
G01X0003427Y0014998D02*
G01X0003427Y0015223D01*
G01X0003427Y0015223D02*
G01X0003455Y0015280D01*
G01X0003455Y0015280D02*
G01X0003483Y0015308D01*
G01X0003483Y0015308D02*
G01X0003539Y0015336D01*
G01X0003539Y0015336D02*
G01X0003623Y0015336D01*
G01X0003623Y0015336D02*
G01X0003680Y0015308D01*
G01X0003680Y0015308D02*
G01X0003708Y0015280D01*
G01X0003708Y0015280D02*
G01X0003736Y0015223D01*
G01X0003736Y0015223D02*
G01X0003736Y0014998D01*
G01X0003961Y0015589D02*
G01X0003989Y0015617D01*
G01X0003989Y0015617D02*
G01X0004017Y0015589D01*
G01X0004017Y0015589D02*
G01X0003989Y0015561D01*
G01X0003989Y0015561D02*
G01X0003961Y0015589D01*
G01X0003961Y0015589D02*
G01X0004017Y0015589D01*
G01X0005700Y0015414D02*
G01X0005700Y0015133D01*
G01X0005503Y0015723D02*
G01X0005700Y0015414D01*
G01X0005700Y0015414D02*
G01X0005897Y0015723D01*
G01X0004503Y0015723D02*
G01X0004897Y0015133D01*
G01X0004897Y0015723D02*
G01X0004503Y0015133D01*
G01X0007673Y0012974D02*
G01X0007673Y0013395D01*
G01X0007420Y0013142D02*
G01X0008180Y0012974D01*
G01X0007927Y0013339D02*
G01X0007927Y0012917D01*
G01X0008180Y0013170D02*
G01X0007420Y0013339D01*
G01X0008067Y0013930D02*
G01X0007786Y0013733D01*
G01X0008067Y0013592D02*
G01X0007477Y0013592D01*
G01X0007477Y0013592D02*
G01X0007477Y0013817D01*
G01X0007477Y0013817D02*
G01X0007505Y0013873D01*
G01X0007505Y0013873D02*
G01X0007533Y0013902D01*
G01X0007533Y0013902D02*
G01X0007589Y0013930D01*
G01X0007589Y0013930D02*
G01X0007673Y0013930D01*
G01X0007673Y0013930D02*
G01X0007730Y0013902D01*
G01X0007730Y0013902D02*
G01X0007758Y0013873D01*
G01X0007758Y0013873D02*
G01X0007786Y0013817D01*
G01X0007786Y0013817D02*
G01X0007786Y0013592D01*
G01X0007758Y0014183D02*
G01X0007758Y0014380D01*
G01X0008067Y0014464D02*
G01X0008067Y0014183D01*
G01X0008067Y0014183D02*
G01X0007477Y0014183D01*
G01X0007477Y0014183D02*
G01X0007477Y0014464D01*
G01X0008039Y0014689D02*
G01X0008067Y0014773D01*
G01X0008067Y0014773D02*
G01X0008067Y0014914D01*
G01X0008067Y0014914D02*
G01X0008039Y0014970D01*
G01X0008039Y0014970D02*
G01X0008011Y0014998D01*
G01X0008011Y0014998D02*
G01X0007955Y0015026D01*
G01X0007955Y0015026D02*
G01X0007898Y0015026D01*
G01X0007898Y0015026D02*
G01X0007842Y0014998D01*
G01X0007842Y0014998D02*
G01X0007814Y0014970D01*
G01X0007814Y0014970D02*
G01X0007786Y0014914D01*
G01X0007786Y0014914D02*
G01X0007758Y0014801D01*
G01X0007758Y0014801D02*
G01X0007730Y0014745D01*
G01X0007730Y0014745D02*
G01X0007702Y0014717D01*
G01X0007702Y0014717D02*
G01X0007645Y0014689D01*
G01X0007645Y0014689D02*
G01X0007589Y0014689D01*
G01X0007589Y0014689D02*
G01X0007533Y0014717D01*
G01X0007533Y0014717D02*
G01X0007505Y0014745D01*
G01X0007505Y0014745D02*
G01X0007477Y0014801D01*
G01X0007477Y0014801D02*
G01X0007477Y0014942D01*
G01X0007477Y0014942D02*
G01X0007505Y0015026D01*
G01X0001550Y0012095D02*
G01X0001494Y0012123D01*
G01X0001494Y0012123D02*
G01X0001409Y0012123D01*
G01X0001409Y0012123D02*
G01X0001325Y0012095D01*
G01X0001325Y0012095D02*
G01X0001269Y0012039D01*
G01X0001269Y0012039D02*
G01X0001241Y0011983D01*
G01X0001241Y0011983D02*
G01X0001213Y0011870D01*
G01X0001213Y0011870D02*
G01X0001213Y0011786D01*
G01X0001213Y0011786D02*
G01X0001241Y0011673D01*
G01X0001241Y0011673D02*
G01X0001269Y0011617D01*
G01X0001269Y0011617D02*
G01X0001325Y0011561D01*
G01X0001325Y0011561D02*
G01X0001409Y0011533D01*
G01X0001409Y0011533D02*
G01X0001466Y0011533D01*
G01X0001466Y0011533D02*
G01X0001550Y0011561D01*
G01X0001550Y0011561D02*
G01X0001578Y0011589D01*
G01X0001578Y0011589D02*
G01X0001578Y0011786D01*
G01X0001578Y0011786D02*
G01X0001466Y0011786D01*
G01X0001831Y0011533D02*
G01X0001831Y0012123D01*
G01X0001831Y0012123D02*
G01X0002169Y0011533D01*
G01X0002169Y0011533D02*
G01X0002169Y0012123D01*
G01X0002450Y0011533D02*
G01X0002450Y0012123D01*
G01X0002450Y0012123D02*
G01X0002591Y0012123D01*
G01X0002591Y0012123D02*
G01X0002675Y0012095D01*
G01X0002675Y0012095D02*
G01X0002731Y0012039D01*
G01X0002731Y0012039D02*
G01X0002759Y0011983D01*
G01X0002759Y0011983D02*
G01X0002787Y0011870D01*
G01X0002787Y0011870D02*
G01X0002787Y0011786D01*
G01X0002787Y0011786D02*
G01X0002759Y0011673D01*
G01X0002759Y0011673D02*
G01X0002731Y0011617D01*
G01X0002731Y0011617D02*
G01X0002675Y0011561D01*
G01X0002675Y0011561D02*
G01X0002591Y0011533D01*
G01X0002591Y0011533D02*
G01X0002450Y0011533D01*
G01X0000839Y0006983D02*
G01X0000867Y0007067D01*
G01X0000867Y0007067D02*
G01X0000867Y0007208D01*
G01X0000867Y0007208D02*
G01X0000839Y0007264D01*
G01X0000839Y0007264D02*
G01X0000811Y0007292D01*
G01X0000811Y0007292D02*
G01X0000755Y0007320D01*
G01X0000755Y0007320D02*
G01X0000698Y0007320D01*
G01X0000698Y0007320D02*
G01X0000642Y0007292D01*
G01X0000642Y0007292D02*
G01X0000614Y0007264D01*
G01X0000614Y0007264D02*
G01X0000586Y0007208D01*
G01X0000586Y0007208D02*
G01X0000558Y0007095D01*
G01X0000558Y0007095D02*
G01X0000530Y0007039D01*
G01X0000530Y0007039D02*
G01X0000502Y0007011D01*
G01X0000502Y0007011D02*
G01X0000445Y0006983D01*
G01X0000445Y0006983D02*
G01X0000389Y0006983D01*
G01X0000389Y0006983D02*
G01X0000333Y0007011D01*
G01X0000333Y0007011D02*
G01X0000305Y0007039D01*
G01X0000305Y0007039D02*
G01X0000277Y0007095D01*
G01X0000277Y0007095D02*
G01X0000277Y0007236D01*
G01X0000277Y0007236D02*
G01X0000305Y0007320D01*
G01X0000867Y0007573D02*
G01X0000277Y0007573D01*
G01X0000277Y0007573D02*
G01X0000277Y0007714D01*
G01X0000277Y0007714D02*
G01X0000305Y0007798D01*
G01X0000305Y0007798D02*
G01X0000361Y0007855D01*
G01X0000361Y0007855D02*
G01X0000417Y0007883D01*
G01X0000417Y0007883D02*
G01X0000530Y0007911D01*
G01X0000530Y0007911D02*
G01X0000614Y0007911D01*
G01X0000614Y0007911D02*
G01X0000727Y0007883D01*
G01X0000727Y0007883D02*
G01X0000783Y0007855D01*
G01X0000783Y0007855D02*
G01X0000839Y0007798D01*
G01X0000839Y0007798D02*
G01X0000867Y0007714D01*
G01X0000867Y0007714D02*
G01X0000867Y0007573D01*
G01X0000698Y0008136D02*
G01X0000698Y0008417D01*
G01X0000867Y0008080D02*
G01X0000277Y0008276D01*
G01X0000277Y0008276D02*
G01X0000867Y0008473D01*
G01X0000839Y0009097D02*
G01X0000867Y0009181D01*
G01X0000867Y0009181D02*
G01X0000867Y0009322D01*
G01X0000867Y0009322D02*
G01X0000839Y0009378D01*
G01X0000839Y0009378D02*
G01X0000811Y0009406D01*
G01X0000811Y0009406D02*
G01X0000755Y0009434D01*
G01X0000755Y0009434D02*
G01X0000698Y0009434D01*
G01X0000698Y0009434D02*
G01X0000642Y0009406D01*
G01X0000642Y0009406D02*
G01X0000614Y0009378D01*
G01X0000614Y0009378D02*
G01X0000586Y0009322D01*
G01X0000586Y0009322D02*
G01X0000558Y0009209D01*
G01X0000558Y0009209D02*
G01X0000530Y0009153D01*
G01X0000530Y0009153D02*
G01X0000502Y0009125D01*
G01X0000502Y0009125D02*
G01X0000445Y0009097D01*
G01X0000445Y0009097D02*
G01X0000389Y0009097D01*
G01X0000389Y0009097D02*
G01X0000333Y0009125D01*
G01X0000333Y0009125D02*
G01X0000305Y0009153D01*
G01X0000305Y0009153D02*
G01X0000277Y0009209D01*
G01X0000277Y0009209D02*
G01X0000277Y0009350D01*
G01X0000277Y0009350D02*
G01X0000305Y0009434D01*
G01X0000811Y0010025D02*
G01X0000839Y0009997D01*
G01X0000839Y0009997D02*
G01X0000867Y0009912D01*
G01X0000867Y0009912D02*
G01X0000867Y0009856D01*
G01X0000867Y0009856D02*
G01X0000839Y0009772D01*
G01X0000839Y0009772D02*
G01X0000783Y0009716D01*
G01X0000783Y0009716D02*
G01X0000727Y0009688D01*
G01X0000727Y0009688D02*
G01X0000614Y0009659D01*
G01X0000614Y0009659D02*
G01X0000530Y0009659D01*
G01X0000530Y0009659D02*
G01X0000417Y0009688D01*
G01X0000417Y0009688D02*
G01X0000361Y0009716D01*
G01X0000361Y0009716D02*
G01X0000305Y0009772D01*
G01X0000305Y0009772D02*
G01X0000277Y0009856D01*
G01X0000277Y0009856D02*
G01X0000277Y0009912D01*
G01X0000277Y0009912D02*
G01X0000305Y0009997D01*
G01X0000305Y0009997D02*
G01X0000333Y0010025D01*
G01X0000867Y0010559D02*
G01X0000867Y0010278D01*
G01X0000867Y0010278D02*
G01X0000277Y0010278D01*
G01X0006359Y0003536D02*
G01X0006359Y0004009D01*
G01X0006359Y0004009D02*
G01X0006539Y0004009D01*
G01X0006539Y0004009D02*
G01X0006584Y0003986D01*
G01X0006584Y0003986D02*
G01X0006606Y0003964D01*
G01X0006606Y0003964D02*
G01X0006629Y0003919D01*
G01X0006629Y0003919D02*
G01X0006629Y0003851D01*
G01X0006629Y0003851D02*
G01X0006606Y0003806D01*
G01X0006606Y0003806D02*
G01X0006584Y0003784D01*
G01X0006584Y0003784D02*
G01X0006539Y0003761D01*
G01X0006539Y0003761D02*
G01X0006359Y0003761D01*
G01X0006921Y0004009D02*
G01X0007011Y0004009D01*
G01X0007011Y0004009D02*
G01X0007056Y0003986D01*
G01X0007056Y0003986D02*
G01X0007101Y0003941D01*
G01X0007101Y0003941D02*
G01X0007124Y0003851D01*
G01X0007124Y0003851D02*
G01X0007124Y0003694D01*
G01X0007124Y0003694D02*
G01X0007101Y0003604D01*
G01X0007101Y0003604D02*
G01X0007056Y0003559D01*
G01X0007056Y0003559D02*
G01X0007011Y0003536D01*
G01X0007011Y0003536D02*
G01X0006921Y0003536D01*
G01X0006921Y0003536D02*
G01X0006876Y0003559D01*
G01X0006876Y0003559D02*
G01X0006831Y0003604D01*
G01X0006831Y0003604D02*
G01X0006809Y0003694D01*
G01X0006809Y0003694D02*
G01X0006809Y0003851D01*
G01X0006809Y0003851D02*
G01X0006831Y0003941D01*
G01X0006831Y0003941D02*
G01X0006876Y0003986D01*
G01X0006876Y0003986D02*
G01X0006921Y0004009D01*
G01X0007281Y0004009D02*
G01X0007394Y0003536D01*
G01X0007394Y0003536D02*
G01X0007484Y0003874D01*
G01X0007484Y0003874D02*
G01X0007574Y0003536D01*
G01X0007574Y0003536D02*
G01X0007686Y0004009D01*
G01X0007866Y0003784D02*
G01X0008024Y0003784D01*
G01X0008091Y0003536D02*
G01X0007866Y0003536D01*
G01X0007866Y0003536D02*
G01X0007866Y0004009D01*
G01X0007866Y0004009D02*
G01X0008091Y0004009D01*
G01X0008564Y0003536D02*
G01X0008406Y0003761D01*
G01X0008294Y0003536D02*
G01X0008294Y0004009D01*
G01X0008294Y0004009D02*
G01X0008474Y0004009D01*
G01X0008474Y0004009D02*
G01X0008519Y0003986D01*
G01X0008519Y0003986D02*
G01X0008541Y0003964D01*
G01X0008541Y0003964D02*
G01X0008564Y0003919D01*
G01X0008564Y0003919D02*
G01X0008564Y0003851D01*
G01X0008564Y0003851D02*
G01X0008541Y0003806D01*
G01X0008541Y0003806D02*
G01X0008519Y0003784D01*
G01X0008519Y0003784D02*
G01X0008474Y0003761D01*
G01X0008474Y0003761D02*
G01X0008294Y0003761D01*
G01X0003856Y0004483D02*
G01X0003575Y0004483D01*
G01X0003575Y0004483D02*
G01X0003575Y0005073D01*
G01X0004053Y0004792D02*
G01X0004250Y0004792D01*
G01X0004335Y0004483D02*
G01X0004053Y0004483D01*
G01X0004053Y0004483D02*
G01X0004053Y0005073D01*
G01X0004053Y0005073D02*
G01X0004335Y0005073D01*
G01X0004588Y0004483D02*
G01X0004588Y0005073D01*
G01X0004588Y0005073D02*
G01X0004728Y0005073D01*
G01X0004728Y0005073D02*
G01X0004813Y0005045D01*
G01X0004813Y0005045D02*
G01X0004869Y0004989D01*
G01X0004869Y0004989D02*
G01X0004897Y0004933D01*
G01X0004897Y0004933D02*
G01X0004925Y0004820D01*
G01X0004925Y0004820D02*
G01X0004925Y0004736D01*
G01X0004925Y0004736D02*
G01X0004897Y0004623D01*
G01X0004897Y0004623D02*
G01X0004869Y0004567D01*
G01X0004869Y0004567D02*
G01X0004813Y0004511D01*
G01X0004813Y0004511D02*
G01X0004728Y0004483D01*
G01X0004728Y0004483D02*
G01X0004588Y0004483D01*
G01X0005122Y0005073D02*
G01X0005516Y0005073D01*
G01X0005516Y0005073D02*
G01X0005263Y0004483D01*
G01X0003856Y0005483D02*
G01X0003575Y0005483D01*
G01X0003575Y0005483D02*
G01X0003575Y0006073D01*
G01X0004053Y0005792D02*
G01X0004250Y0005792D01*
G01X0004335Y0005483D02*
G01X0004053Y0005483D01*
G01X0004053Y0005483D02*
G01X0004053Y0006073D01*
G01X0004053Y0006073D02*
G01X0004335Y0006073D01*
G01X0004588Y0005483D02*
G01X0004588Y0006073D01*
G01X0004588Y0006073D02*
G01X0004728Y0006073D01*
G01X0004728Y0006073D02*
G01X0004813Y0006045D01*
G01X0004813Y0006045D02*
G01X0004869Y0005989D01*
G01X0004869Y0005989D02*
G01X0004897Y0005933D01*
G01X0004897Y0005933D02*
G01X0004925Y0005820D01*
G01X0004925Y0005820D02*
G01X0004925Y0005736D01*
G01X0004925Y0005736D02*
G01X0004897Y0005623D01*
G01X0004897Y0005623D02*
G01X0004869Y0005567D01*
G01X0004869Y0005567D02*
G01X0004813Y0005511D01*
G01X0004813Y0005511D02*
G01X0004728Y0005483D01*
G01X0004728Y0005483D02*
G01X0004588Y0005483D01*
G01X0005431Y0006073D02*
G01X0005319Y0006073D01*
G01X0005319Y0006073D02*
G01X0005263Y0006045D01*
G01X0005263Y0006045D02*
G01X0005234Y0006017D01*
G01X0005234Y0006017D02*
G01X0005178Y0005933D01*
G01X0005178Y0005933D02*
G01X0005150Y0005820D01*
G01X0005150Y0005820D02*
G01X0005150Y0005595D01*
G01X0005150Y0005595D02*
G01X0005178Y0005539D01*
G01X0005178Y0005539D02*
G01X0005206Y0005511D01*
G01X0005206Y0005511D02*
G01X0005263Y0005483D01*
G01X0005263Y0005483D02*
G01X0005375Y0005483D01*
G01X0005375Y0005483D02*
G01X0005431Y0005511D01*
G01X0005431Y0005511D02*
G01X0005459Y0005539D01*
G01X0005459Y0005539D02*
G01X0005488Y0005595D01*
G01X0005488Y0005595D02*
G01X0005488Y0005736D01*
G01X0005488Y0005736D02*
G01X0005459Y0005792D01*
G01X0005459Y0005792D02*
G01X0005431Y0005820D01*
G01X0005431Y0005820D02*
G01X0005375Y0005848D01*
G01X0005375Y0005848D02*
G01X0005263Y0005848D01*
G01X0005263Y0005848D02*
G01X0005206Y0005820D01*
G01X0005206Y0005820D02*
G01X0005178Y0005792D01*
G01X0005178Y0005792D02*
G01X0005150Y0005736D01*
G01X0003856Y0007883D02*
G01X0003575Y0007883D01*
G01X0003575Y0007883D02*
G01X0003575Y0008473D01*
G01X0004053Y0008192D02*
G01X0004250Y0008192D01*
G01X0004335Y0007883D02*
G01X0004053Y0007883D01*
G01X0004053Y0007883D02*
G01X0004053Y0008473D01*
G01X0004053Y0008473D02*
G01X0004335Y0008473D01*
G01X0004588Y0007883D02*
G01X0004588Y0008473D01*
G01X0004588Y0008473D02*
G01X0004728Y0008473D01*
G01X0004728Y0008473D02*
G01X0004813Y0008445D01*
G01X0004813Y0008445D02*
G01X0004869Y0008389D01*
G01X0004869Y0008389D02*
G01X0004897Y0008333D01*
G01X0004897Y0008333D02*
G01X0004925Y0008220D01*
G01X0004925Y0008220D02*
G01X0004925Y0008136D01*
G01X0004925Y0008136D02*
G01X0004897Y0008023D01*
G01X0004897Y0008023D02*
G01X0004869Y0007967D01*
G01X0004869Y0007967D02*
G01X0004813Y0007911D01*
G01X0004813Y0007911D02*
G01X0004728Y0007883D01*
G01X0004728Y0007883D02*
G01X0004588Y0007883D01*
G01X0005431Y0008277D02*
G01X0005431Y0007883D01*
G01X0005291Y0008502D02*
G01X0005150Y0008080D01*
G01X0005150Y0008080D02*
G01X0005516Y0008080D01*
G01X0003856Y0011933D02*
G01X0003575Y0011933D01*
G01X0003575Y0011933D02*
G01X0003575Y0012523D01*
G01X0004053Y0012242D02*
G01X0004250Y0012242D01*
G01X0004335Y0011933D02*
G01X0004053Y0011933D01*
G01X0004053Y0011933D02*
G01X0004053Y0012523D01*
G01X0004053Y0012523D02*
G01X0004335Y0012523D01*
G01X0004588Y0011933D02*
G01X0004588Y0012523D01*
G01X0004588Y0012523D02*
G01X0004728Y0012523D01*
G01X0004728Y0012523D02*
G01X0004813Y0012495D01*
G01X0004813Y0012495D02*
G01X0004869Y0012439D01*
G01X0004869Y0012439D02*
G01X0004897Y0012383D01*
G01X0004897Y0012383D02*
G01X0004925Y0012270D01*
G01X0004925Y0012270D02*
G01X0004925Y0012186D01*
G01X0004925Y0012186D02*
G01X0004897Y0012073D01*
G01X0004897Y0012073D02*
G01X0004869Y0012017D01*
G01X0004869Y0012017D02*
G01X0004813Y0011961D01*
G01X0004813Y0011961D02*
G01X0004728Y0011933D01*
G01X0004728Y0011933D02*
G01X0004588Y0011933D01*
G01X0005291Y0012523D02*
G01X0005347Y0012523D01*
G01X0005347Y0012523D02*
G01X0005403Y0012495D01*
G01X0005403Y0012495D02*
G01X0005431Y0012467D01*
G01X0005431Y0012467D02*
G01X0005459Y0012411D01*
G01X0005459Y0012411D02*
G01X0005488Y0012298D01*
G01X0005488Y0012298D02*
G01X0005488Y0012158D01*
G01X0005488Y0012158D02*
G01X0005459Y0012045D01*
G01X0005459Y0012045D02*
G01X0005431Y0011989D01*
G01X0005431Y0011989D02*
G01X0005403Y0011961D01*
G01X0005403Y0011961D02*
G01X0005347Y0011933D01*
G01X0005347Y0011933D02*
G01X0005291Y0011933D01*
G01X0005291Y0011933D02*
G01X0005234Y0011961D01*
G01X0005234Y0011961D02*
G01X0005206Y0011989D01*
G01X0005206Y0011989D02*
G01X0005178Y0012045D01*
G01X0005178Y0012045D02*
G01X0005150Y0012158D01*
G01X0005150Y0012158D02*
G01X0005150Y0012298D01*
G01X0005150Y0012298D02*
G01X0005178Y0012411D01*
G01X0005178Y0012411D02*
G01X0005206Y0012467D01*
G01X0005206Y0012467D02*
G01X0005234Y0012495D01*
G01X0005234Y0012495D02*
G01X0005291Y0012523D01*
G01X0003856Y0010933D02*
G01X0003575Y0010933D01*
G01X0003575Y0010933D02*
G01X0003575Y0011523D01*
G01X0004053Y0011242D02*
G01X0004250Y0011242D01*
G01X0004335Y0010933D02*
G01X0004053Y0010933D01*
G01X0004053Y0010933D02*
G01X0004053Y0011523D01*
G01X0004053Y0011523D02*
G01X0004335Y0011523D01*
G01X0004588Y0010933D02*
G01X0004588Y0011523D01*
G01X0004588Y0011523D02*
G01X0004728Y0011523D01*
G01X0004728Y0011523D02*
G01X0004813Y0011495D01*
G01X0004813Y0011495D02*
G01X0004869Y0011439D01*
G01X0004869Y0011439D02*
G01X0004897Y0011383D01*
G01X0004897Y0011383D02*
G01X0004925Y0011270D01*
G01X0004925Y0011270D02*
G01X0004925Y0011186D01*
G01X0004925Y0011186D02*
G01X0004897Y0011073D01*
G01X0004897Y0011073D02*
G01X0004869Y0011017D01*
G01X0004869Y0011017D02*
G01X0004813Y0010961D01*
G01X0004813Y0010961D02*
G01X0004728Y0010933D01*
G01X0004728Y0010933D02*
G01X0004588Y0010933D01*
G01X0005488Y0010933D02*
G01X0005150Y0010933D01*
G01X0005319Y0010933D02*
G01X0005319Y0011523D01*
G01X0005319Y0011523D02*
G01X0005263Y0011439D01*
G01X0005263Y0011439D02*
G01X0005206Y0011383D01*
G01X0005206Y0011383D02*
G01X0005150Y0011355D01*
G01X0003806Y0009933D02*
G01X0003525Y0009933D01*
G01X0003525Y0009933D02*
G01X0003525Y0010523D01*
G01X0004003Y0010242D02*
G01X0004200Y0010242D01*
G01X0004285Y0009933D02*
G01X0004003Y0009933D01*
G01X0004003Y0009933D02*
G01X0004003Y0010523D01*
G01X0004003Y0010523D02*
G01X0004285Y0010523D01*
G01X0004538Y0009933D02*
G01X0004538Y0010523D01*
G01X0004538Y0010523D02*
G01X0004678Y0010523D01*
G01X0004678Y0010523D02*
G01X0004763Y0010495D01*
G01X0004763Y0010495D02*
G01X0004819Y0010439D01*
G01X0004819Y0010439D02*
G01X0004847Y0010383D01*
G01X0004847Y0010383D02*
G01X0004875Y0010270D01*
G01X0004875Y0010270D02*
G01X0004875Y0010186D01*
G01X0004875Y0010186D02*
G01X0004847Y0010073D01*
G01X0004847Y0010073D02*
G01X0004819Y0010017D01*
G01X0004819Y0010017D02*
G01X0004763Y0009961D01*
G01X0004763Y0009961D02*
G01X0004678Y0009933D01*
G01X0004678Y0009933D02*
G01X0004538Y0009933D01*
G01X0005100Y0010467D02*
G01X0005128Y0010495D01*
G01X0005128Y0010495D02*
G01X0005184Y0010523D01*
G01X0005184Y0010523D02*
G01X0005325Y0010523D01*
G01X0005325Y0010523D02*
G01X0005381Y0010495D01*
G01X0005381Y0010495D02*
G01X0005409Y0010467D01*
G01X0005409Y0010467D02*
G01X0005438Y0010411D01*
G01X0005438Y0010411D02*
G01X0005438Y0010355D01*
G01X0005438Y0010355D02*
G01X0005409Y0010270D01*
G01X0005409Y0010270D02*
G01X0005072Y0009933D01*
G01X0005072Y0009933D02*
G01X0005438Y0009933D01*
G01X0003856Y0008933D02*
G01X0003575Y0008933D01*
G01X0003575Y0008933D02*
G01X0003575Y0009523D01*
G01X0004053Y0009242D02*
G01X0004250Y0009242D01*
G01X0004335Y0008933D02*
G01X0004053Y0008933D01*
G01X0004053Y0008933D02*
G01X0004053Y0009523D01*
G01X0004053Y0009523D02*
G01X0004335Y0009523D01*
G01X0004588Y0008933D02*
G01X0004588Y0009523D01*
G01X0004588Y0009523D02*
G01X0004728Y0009523D01*
G01X0004728Y0009523D02*
G01X0004813Y0009495D01*
G01X0004813Y0009495D02*
G01X0004869Y0009439D01*
G01X0004869Y0009439D02*
G01X0004897Y0009383D01*
G01X0004897Y0009383D02*
G01X0004925Y0009270D01*
G01X0004925Y0009270D02*
G01X0004925Y0009186D01*
G01X0004925Y0009186D02*
G01X0004897Y0009073D01*
G01X0004897Y0009073D02*
G01X0004869Y0009017D01*
G01X0004869Y0009017D02*
G01X0004813Y0008961D01*
G01X0004813Y0008961D02*
G01X0004728Y0008933D01*
G01X0004728Y0008933D02*
G01X0004588Y0008933D01*
G01X0005122Y0009523D02*
G01X0005488Y0009523D01*
G01X0005488Y0009523D02*
G01X0005291Y0009298D01*
G01X0005291Y0009298D02*
G01X0005375Y0009298D01*
G01X0005375Y0009298D02*
G01X0005431Y0009270D01*
G01X0005431Y0009270D02*
G01X0005459Y0009242D01*
G01X0005459Y0009242D02*
G01X0005488Y0009186D01*
G01X0005488Y0009186D02*
G01X0005488Y0009045D01*
G01X0005488Y0009045D02*
G01X0005459Y0008989D01*
G01X0005459Y0008989D02*
G01X0005431Y0008961D01*
G01X0005431Y0008961D02*
G01X0005375Y0008933D01*
G01X0005375Y0008933D02*
G01X0005206Y0008933D01*
G01X0005206Y0008933D02*
G01X0005150Y0008961D01*
G01X0005150Y0008961D02*
G01X0005122Y0008989D01*
G01X0011117Y0006338D02*
G01X0010527Y0006338D01*
G01X0010527Y0006338D02*
G01X0010527Y0006563D01*
G01X0010527Y0006563D02*
G01X0010555Y0006619D01*
G01X0010555Y0006619D02*
G01X0010583Y0006647D01*
G01X0010583Y0006647D02*
G01X0010639Y0006675D01*
G01X0010639Y0006675D02*
G01X0010723Y0006675D01*
G01X0010723Y0006675D02*
G01X0010780Y0006647D01*
G01X0010780Y0006647D02*
G01X0010808Y0006619D01*
G01X0010808Y0006619D02*
G01X0010836Y0006563D01*
G01X0010836Y0006563D02*
G01X0010836Y0006338D01*
G01X0010527Y0006928D02*
G01X0011005Y0006928D01*
G01X0011005Y0006928D02*
G01X0011061Y0006956D01*
G01X0011061Y0006956D02*
G01X0011089Y0006985D01*
G01X0011089Y0006985D02*
G01X0011117Y0007041D01*
G01X0011117Y0007041D02*
G01X0011117Y0007153D01*
G01X0011117Y0007153D02*
G01X0011089Y0007210D01*
G01X0011089Y0007210D02*
G01X0011061Y0007238D01*
G01X0011061Y0007238D02*
G01X0011005Y0007266D01*
G01X0011005Y0007266D02*
G01X0010527Y0007266D01*
G01X0011117Y0007828D02*
G01X0011117Y0007547D01*
G01X0011117Y0007547D02*
G01X0010527Y0007547D01*
G01X0011117Y0008306D02*
G01X0011117Y0008025D01*
G01X0011117Y0008025D02*
G01X0010527Y0008025D01*
G01X0010892Y0008503D02*
G01X0010892Y0008953D01*
G01X0010527Y0009234D02*
G01X0011005Y0009234D01*
G01X0011005Y0009234D02*
G01X0011061Y0009262D01*
G01X0011061Y0009262D02*
G01X0011089Y0009290D01*
G01X0011089Y0009290D02*
G01X0011117Y0009347D01*
G01X0011117Y0009347D02*
G01X0011117Y0009459D01*
G01X0011117Y0009459D02*
G01X0011089Y0009515D01*
G01X0011089Y0009515D02*
G01X0011061Y0009544D01*
G01X0011061Y0009544D02*
G01X0011005Y0009572D01*
G01X0011005Y0009572D02*
G01X0010527Y0009572D01*
G01X0011117Y0009853D02*
G01X0010527Y0009853D01*
G01X0010527Y0009853D02*
G01X0010527Y0010078D01*
G01X0010527Y0010078D02*
G01X0010555Y0010134D01*
G01X0010555Y0010134D02*
G01X0010583Y0010162D01*
G01X0010583Y0010162D02*
G01X0010639Y0010190D01*
G01X0010639Y0010190D02*
G01X0010723Y0010190D01*
G01X0010723Y0010190D02*
G01X0010780Y0010162D01*
G01X0010780Y0010162D02*
G01X0010808Y0010134D01*
G01X0010808Y0010134D02*
G01X0010836Y0010078D01*
G01X0010836Y0010078D02*
G01X0010836Y0009853D01*
G54D12*
G01X0008450Y0000350D02*
G01X0006450Y0000350D01*
G01X0006450Y0000350D02*
G01X0006450Y0003350D01*
G01X0006450Y0003350D02*
G01X0008450Y0003350D01*
G01X0008450Y0003350D02*
G01X0008450Y0000350D01*
G01X0008100Y0011250D02*
G01X0010100Y0011250D01*
G01X0010100Y0011250D02*
G01X0010100Y0010250D01*
G01X0010100Y0010250D02*
G01X0008100Y0010250D01*
G01X0008100Y0010250D02*
G01X0008100Y0011250D01*
G01X0005800Y0005250D02*
G01X0007800Y0005250D01*
G01X0007800Y0005250D02*
G01X0007800Y0004250D01*
G01X0007800Y0004250D02*
G01X0005800Y0004250D01*
G01X0005800Y0004250D02*
G01X0005800Y0005250D01*
G01X0005800Y0006250D02*
G01X0007800Y0006250D01*
G01X0007800Y0006250D02*
G01X0007800Y0005250D01*
G01X0007800Y0005250D02*
G01X0005800Y0005250D01*
G01X0005800Y0005250D02*
G01X0005800Y0006250D01*
G01X0005800Y0007250D02*
G01X0007800Y0007250D01*
G01X0007800Y0007250D02*
G01X0007800Y0006250D01*
G01X0007800Y0006250D02*
G01X0005800Y0006250D01*
G01X0005800Y0006250D02*
G01X0005800Y0007250D01*
G01X0005800Y0008250D02*
G01X0007800Y0008250D01*
G01X0007800Y0008250D02*
G01X0007800Y0007250D01*
G01X0007800Y0007250D02*
G01X0005800Y0007250D01*
G01X0005800Y0007250D02*
G01X0005800Y0008250D01*
G01X0005800Y0009250D02*
G01X0007800Y0009250D01*
G01X0007800Y0009250D02*
G01X0007800Y0008250D01*
G01X0007800Y0008250D02*
G01X0005800Y0008250D01*
G01X0005800Y0008250D02*
G01X0005800Y0009250D01*
G01X0005800Y0010250D02*
G01X0007800Y0010250D01*
G01X0007800Y0010250D02*
G01X0007800Y0009250D01*
G01X0007800Y0009250D02*
G01X0005800Y0009250D01*
G01X0005800Y0009250D02*
G01X0005800Y0010250D01*
G01X0005800Y0011250D02*
G01X0007800Y0011250D01*
G01X0007800Y0011250D02*
G01X0007800Y0010250D01*
G01X0007800Y0010250D02*
G01X0005800Y0010250D01*
G01X0005800Y0010250D02*
G01X0005800Y0011250D01*
G01X0005800Y0012250D02*
G01X0007800Y0012250D01*
G01X0007800Y0012250D02*
G01X0007800Y0011250D01*
G01X0007800Y0011250D02*
G01X0005800Y0011250D01*
G01X0005800Y0011250D02*
G01X0005800Y0012250D01*
G01X0008100Y0005250D02*
G01X0010100Y0005250D01*
G01X0010100Y0005250D02*
G01X0010100Y0004250D01*
G01X0010100Y0004250D02*
G01X0008100Y0004250D01*
G01X0008100Y0004250D02*
G01X0008100Y0005250D01*
G01X0008100Y0006250D02*
G01X0010100Y0006250D01*
G01X0010100Y0006250D02*
G01X0010100Y0005250D01*
G01X0010100Y0005250D02*
G01X0008100Y0005250D01*
G01X0008100Y0005250D02*
G01X0008100Y0006250D01*
G01X0008100Y0007250D02*
G01X0010100Y0007250D01*
G01X0010100Y0007250D02*
G01X0010100Y0006250D01*
G01X0010100Y0006250D02*
G01X0008100Y0006250D01*
G01X0008100Y0006250D02*
G01X0008100Y0007250D01*
G01X0008100Y0008250D02*
G01X0010100Y0008250D01*
G01X0010100Y0008250D02*
G01X0010100Y0007250D01*
G01X0010100Y0007250D02*
G01X0008100Y0007250D01*
G01X0008100Y0007250D02*
G01X0008100Y0008250D01*
G01X0008100Y0009250D02*
G01X0010100Y0009250D01*
G01X0010100Y0009250D02*
G01X0010100Y0008250D01*
G01X0010100Y0008250D02*
G01X0008100Y0008250D01*
G01X0008100Y0008250D02*
G01X0008100Y0009250D01*
G01X0008100Y0010250D02*
G01X0010100Y0010250D01*
G01X0010100Y0010250D02*
G01X0010100Y0009250D01*
G01X0010100Y0009250D02*
G01X0008100Y0009250D01*
G01X0008100Y0009250D02*
G01X0008100Y0010250D01*
G01X0008100Y0012250D02*
G01X0010100Y0012250D01*
G01X0010100Y0012250D02*
G01X0010100Y0011250D01*
G01X0010100Y0011250D02*
G01X0008100Y0011250D01*
G01X0008100Y0011250D02*
G01X0008100Y0012250D01*
G01X0006200Y0013000D02*
G01X0006200Y0015000D01*
G01X0006200Y0015000D02*
G01X0007200Y0015000D01*
G01X0007200Y0015000D02*
G01X0007200Y0013000D01*
G01X0007200Y0013000D02*
G01X0006200Y0013000D01*
G01X0003000Y0006200D02*
G01X0001000Y0006200D01*
G01X0001000Y0006200D02*
G01X0001000Y0011200D01*
G01X0001000Y0011200D02*
G01X0003000Y0011200D01*
G01X0003000Y0011200D02*
G01X0003000Y0006200D01*
G01X0006200Y0015000D02*
G01X0006200Y0013000D01*
G01X0006200Y0013000D02*
G01X0005200Y0013000D01*
G01X0005200Y0013000D02*
G01X0005200Y0015000D01*
G01X0005200Y0015000D02*
G01X0006200Y0015000D01*
G01X0005200Y0015000D02*
G01X0005200Y0013000D01*
G01X0005200Y0013000D02*
G01X0004200Y0013000D01*
G01X0004200Y0013000D02*
G01X0004200Y0015000D01*
G01X0004200Y0015000D02*
G01X0005200Y0015000D01*
M02*
