G04 This is an RS-274x file exported by *
G04 gerbv version 2.6.1 *
G04 More information is available about gerbv at *
G04 http://gerbv.geda-project.org/ *
G04 --End of header info--*
%MOIN*%
%FSLAX34Y34*%
%IPPOS*%
G04 --Define apertures--*
%ADD10C,0.0118*%
%ADD11C,0.0059*%
%ADD12C,0.0043*%
%ADD13C,0.0120*%
%ADD14C,0.0039*%
G04 --Start main section--*
G54D11*
G01X0004900Y0003850D02*
G75*
G03X0004900Y0003850I-000050J0000000D01*
G01X0004400Y0003850D02*
G01X0004800Y0003850D01*
G01X0004800Y0003850D02*
G01X0004800Y0004450D01*
G01X0004800Y0004450D02*
G01X0004400Y0004450D01*
G01X0004000Y0004450D02*
G01X0003600Y0004450D01*
G01X0003600Y0004450D02*
G01X0003600Y0003850D01*
G01X0003600Y0003850D02*
G01X0004000Y0003850D01*
G01X0005573Y0008816D02*
G01X0005573Y0007084D01*
G01X0003427Y0009436D02*
G01X0003427Y0007084D01*
G01X0011550Y0004400D02*
G75*
G03X0011550Y0004400I-000050J0000000D01*
G01X0011050Y0004400D02*
G01X0011450Y0004400D01*
G01X0011450Y0004400D02*
G01X0011450Y0005000D01*
G01X0011450Y0005000D02*
G01X0011050Y0005000D01*
G01X0010650Y0005000D02*
G01X0010250Y0005000D01*
G01X0010250Y0005000D02*
G01X0010250Y0004400D01*
G01X0010250Y0004400D02*
G01X0010650Y0004400D01*
G01X0011550Y0005400D02*
G75*
G03X0011550Y0005400I-000050J0000000D01*
G01X0011050Y0005400D02*
G01X0011450Y0005400D01*
G01X0011450Y0005400D02*
G01X0011450Y0006000D01*
G01X0011450Y0006000D02*
G01X0011050Y0006000D01*
G01X0010650Y0006000D02*
G01X0010250Y0006000D01*
G01X0010250Y0006000D02*
G01X0010250Y0005400D01*
G01X0010250Y0005400D02*
G01X0010650Y0005400D01*
G01X0011550Y0006400D02*
G75*
G03X0011550Y0006400I-000050J0000000D01*
G01X0011050Y0006400D02*
G01X0011450Y0006400D01*
G01X0011450Y0006400D02*
G01X0011450Y0007000D01*
G01X0011450Y0007000D02*
G01X0011050Y0007000D01*
G01X0010650Y0007000D02*
G01X0010250Y0007000D01*
G01X0010250Y0007000D02*
G01X0010250Y0006400D01*
G01X0010250Y0006400D02*
G01X0010650Y0006400D01*
G01X0011550Y0007400D02*
G75*
G03X0011550Y0007400I-000050J0000000D01*
G01X0011050Y0007400D02*
G01X0011450Y0007400D01*
G01X0011450Y0007400D02*
G01X0011450Y0008000D01*
G01X0011450Y0008000D02*
G01X0011050Y0008000D01*
G01X0010650Y0008000D02*
G01X0010250Y0008000D01*
G01X0010250Y0008000D02*
G01X0010250Y0007400D01*
G01X0010250Y0007400D02*
G01X0010650Y0007400D01*
G01X0011550Y0008400D02*
G75*
G03X0011550Y0008400I-000050J0000000D01*
G01X0011050Y0008400D02*
G01X0011450Y0008400D01*
G01X0011450Y0008400D02*
G01X0011450Y0009000D01*
G01X0011450Y0009000D02*
G01X0011050Y0009000D01*
G01X0010650Y0009000D02*
G01X0010250Y0009000D01*
G01X0010250Y0009000D02*
G01X0010250Y0008400D01*
G01X0010250Y0008400D02*
G01X0010650Y0008400D01*
G01X0011550Y0009400D02*
G75*
G03X0011550Y0009400I-000050J0000000D01*
G01X0011050Y0009400D02*
G01X0011450Y0009400D01*
G01X0011450Y0009400D02*
G01X0011450Y0010000D01*
G01X0011450Y0010000D02*
G01X0011050Y0010000D01*
G01X0010650Y0010000D02*
G01X0010250Y0010000D01*
G01X0010250Y0010000D02*
G01X0010250Y0009400D01*
G01X0010250Y0009400D02*
G01X0010650Y0009400D01*
G01X0011550Y0010400D02*
G75*
G03X0011550Y0010400I-000050J0000000D01*
G01X0011050Y0010400D02*
G01X0011450Y0010400D01*
G01X0011450Y0010400D02*
G01X0011450Y0011000D01*
G01X0011450Y0011000D02*
G01X0011050Y0011000D01*
G01X0010650Y0011000D02*
G01X0010250Y0011000D01*
G01X0010250Y0011000D02*
G01X0010250Y0010400D01*
G01X0010250Y0010400D02*
G01X0010650Y0010400D01*
G01X0011550Y0011400D02*
G75*
G03X0011550Y0011400I-000050J0000000D01*
G01X0011050Y0011400D02*
G01X0011450Y0011400D01*
G01X0011450Y0011400D02*
G01X0011450Y0012000D01*
G01X0011450Y0012000D02*
G01X0011050Y0012000D01*
G01X0010650Y0012000D02*
G01X0010250Y0012000D01*
G01X0010250Y0012000D02*
G01X0010250Y0011400D01*
G01X0010250Y0011400D02*
G01X0010650Y0011400D01*
G01X0003450Y0004850D02*
G75*
G03X0003450Y0004850I-000050J0000000D01*
G01X0003400Y0005300D02*
G01X0003400Y0004900D01*
G01X0003400Y0004900D02*
G01X0004000Y0004900D01*
G01X0004000Y0004900D02*
G01X0004000Y0005300D01*
G01X0004000Y0005700D02*
G01X0004000Y0006100D01*
G01X0004000Y0006100D02*
G01X0003400Y0006100D01*
G01X0003400Y0006100D02*
G01X0003400Y0005700D01*
G01X0005150Y0004850D02*
G75*
G03X0005150Y0004850I-000050J0000000D01*
G01X0005100Y0005300D02*
G01X0005100Y0004900D01*
G01X0005100Y0004900D02*
G01X0005700Y0004900D01*
G01X0005700Y0004900D02*
G01X0005700Y0005300D01*
G01X0005700Y0005700D02*
G01X0005700Y0006100D01*
G01X0005700Y0006100D02*
G01X0005100Y0006100D01*
G01X0005100Y0006100D02*
G01X0005100Y0005700D01*
G01X0004350Y0004800D02*
G75*
G03X0004350Y0004800I-000050J0000000D01*
G01X0004300Y0005250D02*
G01X0004300Y0004850D01*
G01X0004300Y0004850D02*
G01X0004900Y0004850D01*
G01X0004900Y0004850D02*
G01X0004900Y0005250D01*
G01X0004900Y0005650D02*
G01X0004900Y0006050D01*
G01X0004900Y0006050D02*
G01X0004300Y0006050D01*
G01X0004300Y0006050D02*
G01X0004300Y0005650D01*
G01X0004950Y0011250D02*
G75*
G03X0004950Y0011250I-000050J0000000D01*
G01X0004900Y0011700D02*
G01X0004900Y0011300D01*
G01X0004900Y0011300D02*
G01X0005500Y0011300D01*
G01X0005500Y0011300D02*
G01X0005500Y0011700D01*
G01X0005500Y0012100D02*
G01X0005500Y0012500D01*
G01X0005500Y0012500D02*
G01X0004900Y0012500D01*
G01X0004900Y0012500D02*
G01X0004900Y0012100D01*
G01X0003250Y0011000D02*
G75*
G03X0003250Y0011000I-000050J0000000D01*
G01X0003650Y0011000D02*
G01X0003250Y0011000D01*
G01X0003250Y0011000D02*
G01X0003250Y0010400D01*
G01X0003250Y0010400D02*
G01X0003650Y0010400D01*
G01X0004050Y0010400D02*
G01X0004450Y0010400D01*
G01X0004450Y0010400D02*
G01X0004450Y0011000D01*
G01X0004450Y0011000D02*
G01X0004050Y0011000D01*
G01X0003250Y0011900D02*
G75*
G03X0003250Y0011900I-000050J0000000D01*
G01X0003650Y0011900D02*
G01X0003250Y0011900D01*
G01X0003250Y0011900D02*
G01X0003250Y0011300D01*
G01X0003250Y0011300D02*
G01X0003650Y0011300D01*
G01X0004050Y0011300D02*
G01X0004450Y0011300D01*
G01X0004450Y0011300D02*
G01X0004450Y0011900D01*
G01X0004450Y0011900D02*
G01X0004050Y0011900D01*
G01X0003250Y0012750D02*
G75*
G03X0003250Y0012750I-000050J0000000D01*
G01X0003650Y0012750D02*
G01X0003250Y0012750D01*
G01X0003250Y0012750D02*
G01X0003250Y0012150D01*
G01X0003250Y0012150D02*
G01X0003650Y0012150D01*
G01X0004050Y0012150D02*
G01X0004450Y0012150D01*
G01X0004450Y0012150D02*
G01X0004450Y0012750D01*
G01X0004450Y0012750D02*
G01X0004050Y0012750D01*
G01X0004361Y0002959D02*
G01X0004499Y0002959D01*
G01X0005739Y0002959D02*
G01X0005601Y0002959D01*
G01X0004361Y0003136D02*
G01X0004499Y0003136D01*
G01X0004361Y0001364D02*
G01X0004499Y0001364D01*
G01X0005739Y0001364D02*
G01X0005601Y0001364D01*
G01X0005739Y0003136D02*
G01X0005601Y0003136D01*
G01X0004361Y0001364D02*
G01X0004361Y0003136D01*
G01X0005739Y0001364D02*
G01X0005739Y0003136D01*
G01X0011550Y0003500D02*
G75*
G03X0011550Y0003500I-000050J0000000D01*
G01X0011050Y0003500D02*
G01X0011450Y0003500D01*
G01X0011450Y0003500D02*
G01X0011450Y0004100D01*
G01X0011450Y0004100D02*
G01X0011050Y0004100D01*
G01X0010650Y0004100D02*
G01X0010250Y0004100D01*
G01X0010250Y0004100D02*
G01X0010250Y0003500D01*
G01X0010250Y0003500D02*
G01X0010650Y0003500D01*
G01X0002900Y0005250D02*
G75*
G03X0002900Y0005250I-000050J0000000D01*
G01X0002400Y0005250D02*
G01X0002800Y0005250D01*
G01X0002800Y0005250D02*
G01X0002800Y0005850D01*
G01X0002800Y0005850D02*
G01X0002400Y0005850D01*
G01X0002000Y0005850D02*
G01X0001600Y0005850D01*
G01X0001600Y0005850D02*
G01X0001600Y0005250D01*
G01X0001600Y0005250D02*
G01X0002000Y0005250D01*
G54D12*
G01X0004233Y0004205D02*
G01X0004242Y0004195D01*
G01X0004242Y0004195D02*
G01X0004270Y0004186D01*
G01X0004270Y0004186D02*
G01X0004289Y0004186D01*
G01X0004289Y0004186D02*
G01X0004317Y0004195D01*
G01X0004317Y0004195D02*
G01X0004336Y0004214D01*
G01X0004336Y0004214D02*
G01X0004345Y0004233D01*
G01X0004345Y0004233D02*
G01X0004355Y0004270D01*
G01X0004355Y0004270D02*
G01X0004355Y0004298D01*
G01X0004355Y0004298D02*
G01X0004345Y0004336D01*
G01X0004345Y0004336D02*
G01X0004336Y0004355D01*
G01X0004336Y0004355D02*
G01X0004317Y0004374D01*
G01X0004317Y0004374D02*
G01X0004289Y0004383D01*
G01X0004289Y0004383D02*
G01X0004270Y0004383D01*
G01X0004270Y0004383D02*
G01X0004242Y0004374D01*
G01X0004242Y0004374D02*
G01X0004233Y0004364D01*
G01X0004167Y0004383D02*
G01X0004045Y0004383D01*
G01X0004045Y0004383D02*
G01X0004111Y0004308D01*
G01X0004111Y0004308D02*
G01X0004083Y0004308D01*
G01X0004083Y0004308D02*
G01X0004064Y0004298D01*
G01X0004064Y0004298D02*
G01X0004055Y0004289D01*
G01X0004055Y0004289D02*
G01X0004045Y0004270D01*
G01X0004045Y0004270D02*
G01X0004045Y0004223D01*
G01X0004045Y0004223D02*
G01X0004055Y0004205D01*
G01X0004055Y0004205D02*
G01X0004064Y0004195D01*
G01X0004064Y0004195D02*
G01X0004083Y0004186D01*
G01X0004083Y0004186D02*
G01X0004139Y0004186D01*
G01X0004139Y0004186D02*
G01X0004158Y0004195D01*
G01X0004158Y0004195D02*
G01X0004167Y0004205D01*
G01X0004361Y0003911D02*
G01X0004474Y0003911D01*
G01X0004417Y0003911D02*
G01X0004417Y0004108D01*
G01X0004417Y0004108D02*
G01X0004436Y0004080D01*
G01X0004436Y0004080D02*
G01X0004455Y0004061D01*
G01X0004455Y0004061D02*
G01X0004474Y0004052D01*
G01X0004239Y0004108D02*
G01X0004220Y0004108D01*
G01X0004220Y0004108D02*
G01X0004202Y0004099D01*
G01X0004202Y0004099D02*
G01X0004192Y0004089D01*
G01X0004192Y0004089D02*
G01X0004183Y0004070D01*
G01X0004183Y0004070D02*
G01X0004173Y0004033D01*
G01X0004173Y0004033D02*
G01X0004173Y0003986D01*
G01X0004173Y0003986D02*
G01X0004183Y0003948D01*
G01X0004183Y0003948D02*
G01X0004192Y0003930D01*
G01X0004192Y0003930D02*
G01X0004202Y0003920D01*
G01X0004202Y0003920D02*
G01X0004220Y0003911D01*
G01X0004220Y0003911D02*
G01X0004239Y0003911D01*
G01X0004239Y0003911D02*
G01X0004258Y0003920D01*
G01X0004258Y0003920D02*
G01X0004267Y0003930D01*
G01X0004267Y0003930D02*
G01X0004277Y0003948D01*
G01X0004277Y0003948D02*
G01X0004286Y0003986D01*
G01X0004286Y0003986D02*
G01X0004286Y0004033D01*
G01X0004286Y0004033D02*
G01X0004277Y0004070D01*
G01X0004277Y0004070D02*
G01X0004267Y0004089D01*
G01X0004267Y0004089D02*
G01X0004258Y0004099D01*
G01X0004258Y0004099D02*
G01X0004239Y0004108D01*
G01X0004005Y0004042D02*
G01X0004005Y0003911D01*
G01X0004089Y0004042D02*
G01X0004089Y0003939D01*
G01X0004089Y0003939D02*
G01X0004080Y0003920D01*
G01X0004080Y0003920D02*
G01X0004061Y0003911D01*
G01X0004061Y0003911D02*
G01X0004033Y0003911D01*
G01X0004033Y0003911D02*
G01X0004014Y0003920D01*
G01X0004014Y0003920D02*
G01X0004005Y0003930D01*
G01X0003845Y0004014D02*
G01X0003911Y0004014D01*
G01X0003911Y0003911D02*
G01X0003911Y0004108D01*
G01X0003911Y0004108D02*
G01X0003817Y0004108D01*
G54D11*
G01X0002887Y0008250D02*
G01X0003205Y0008250D01*
G01X0003205Y0008250D02*
G01X0003243Y0008231D01*
G01X0003243Y0008231D02*
G01X0003262Y0008212D01*
G01X0003262Y0008212D02*
G01X0003280Y0008175D01*
G01X0003280Y0008175D02*
G01X0003280Y0008100D01*
G01X0003280Y0008100D02*
G01X0003262Y0008062D01*
G01X0003262Y0008062D02*
G01X0003243Y0008044D01*
G01X0003243Y0008044D02*
G01X0003205Y0008025D01*
G01X0003205Y0008025D02*
G01X0002887Y0008025D01*
G01X0003280Y0007631D02*
G01X0003280Y0007856D01*
G01X0003280Y0007744D02*
G01X0002887Y0007744D01*
G01X0002887Y0007744D02*
G01X0002943Y0007781D01*
G01X0002943Y0007781D02*
G01X0002981Y0007819D01*
G01X0002981Y0007819D02*
G01X0002999Y0007856D01*
G54D12*
G01X0010977Y0004736D02*
G01X0011042Y0004830D01*
G01X0011089Y0004736D02*
G01X0011089Y0004933D01*
G01X0011089Y0004933D02*
G01X0011014Y0004933D01*
G01X0011014Y0004933D02*
G01X0010995Y0004924D01*
G01X0010995Y0004924D02*
G01X0010986Y0004914D01*
G01X0010986Y0004914D02*
G01X0010977Y0004895D01*
G01X0010977Y0004895D02*
G01X0010977Y0004867D01*
G01X0010977Y0004867D02*
G01X0010986Y0004848D01*
G01X0010986Y0004848D02*
G01X0010995Y0004839D01*
G01X0010995Y0004839D02*
G01X0011014Y0004830D01*
G01X0011014Y0004830D02*
G01X0011089Y0004830D01*
G01X0010789Y0004736D02*
G01X0010902Y0004736D01*
G01X0010845Y0004736D02*
G01X0010845Y0004933D01*
G01X0010845Y0004933D02*
G01X0010864Y0004905D01*
G01X0010864Y0004905D02*
G01X0010883Y0004886D01*
G01X0010883Y0004886D02*
G01X0010902Y0004877D01*
G01X0010611Y0004933D02*
G01X0010705Y0004933D01*
G01X0010705Y0004933D02*
G01X0010714Y0004839D01*
G01X0010714Y0004839D02*
G01X0010705Y0004848D01*
G01X0010705Y0004848D02*
G01X0010686Y0004858D01*
G01X0010686Y0004858D02*
G01X0010639Y0004858D01*
G01X0010639Y0004858D02*
G01X0010620Y0004848D01*
G01X0010620Y0004848D02*
G01X0010611Y0004839D01*
G01X0010611Y0004839D02*
G01X0010601Y0004820D01*
G01X0010601Y0004820D02*
G01X0010601Y0004773D01*
G01X0010601Y0004773D02*
G01X0010611Y0004755D01*
G01X0010611Y0004755D02*
G01X0010620Y0004745D01*
G01X0010620Y0004745D02*
G01X0010639Y0004736D01*
G01X0010639Y0004736D02*
G01X0010686Y0004736D01*
G01X0010686Y0004736D02*
G01X0010705Y0004745D01*
G01X0010705Y0004745D02*
G01X0010714Y0004755D01*
G01X0010823Y0004461D02*
G01X0010936Y0004461D01*
G01X0010880Y0004461D02*
G01X0010880Y0004658D01*
G01X0010880Y0004658D02*
G01X0010899Y0004630D01*
G01X0010899Y0004630D02*
G01X0010917Y0004611D01*
G01X0010917Y0004611D02*
G01X0010936Y0004602D01*
G01X0010739Y0004461D02*
G01X0010739Y0004658D01*
G01X0010720Y0004536D02*
G01X0010664Y0004461D01*
G01X0010664Y0004592D02*
G01X0010739Y0004517D01*
G01X0010977Y0005736D02*
G01X0011042Y0005830D01*
G01X0011089Y0005736D02*
G01X0011089Y0005933D01*
G01X0011089Y0005933D02*
G01X0011014Y0005933D01*
G01X0011014Y0005933D02*
G01X0010995Y0005924D01*
G01X0010995Y0005924D02*
G01X0010986Y0005914D01*
G01X0010986Y0005914D02*
G01X0010977Y0005895D01*
G01X0010977Y0005895D02*
G01X0010977Y0005867D01*
G01X0010977Y0005867D02*
G01X0010986Y0005848D01*
G01X0010986Y0005848D02*
G01X0010995Y0005839D01*
G01X0010995Y0005839D02*
G01X0011014Y0005830D01*
G01X0011014Y0005830D02*
G01X0011089Y0005830D01*
G01X0010789Y0005736D02*
G01X0010902Y0005736D01*
G01X0010845Y0005736D02*
G01X0010845Y0005933D01*
G01X0010845Y0005933D02*
G01X0010864Y0005905D01*
G01X0010864Y0005905D02*
G01X0010883Y0005886D01*
G01X0010883Y0005886D02*
G01X0010902Y0005877D01*
G01X0010620Y0005867D02*
G01X0010620Y0005736D01*
G01X0010667Y0005942D02*
G01X0010714Y0005802D01*
G01X0010714Y0005802D02*
G01X0010592Y0005802D01*
G01X0010823Y0005461D02*
G01X0010936Y0005461D01*
G01X0010880Y0005461D02*
G01X0010880Y0005658D01*
G01X0010880Y0005658D02*
G01X0010899Y0005630D01*
G01X0010899Y0005630D02*
G01X0010917Y0005611D01*
G01X0010917Y0005611D02*
G01X0010936Y0005602D01*
G01X0010739Y0005461D02*
G01X0010739Y0005658D01*
G01X0010720Y0005536D02*
G01X0010664Y0005461D01*
G01X0010664Y0005592D02*
G01X0010739Y0005517D01*
G01X0010977Y0006736D02*
G01X0011042Y0006830D01*
G01X0011089Y0006736D02*
G01X0011089Y0006933D01*
G01X0011089Y0006933D02*
G01X0011014Y0006933D01*
G01X0011014Y0006933D02*
G01X0010995Y0006924D01*
G01X0010995Y0006924D02*
G01X0010986Y0006914D01*
G01X0010986Y0006914D02*
G01X0010977Y0006895D01*
G01X0010977Y0006895D02*
G01X0010977Y0006867D01*
G01X0010977Y0006867D02*
G01X0010986Y0006848D01*
G01X0010986Y0006848D02*
G01X0010995Y0006839D01*
G01X0010995Y0006839D02*
G01X0011014Y0006830D01*
G01X0011014Y0006830D02*
G01X0011089Y0006830D01*
G01X0010789Y0006736D02*
G01X0010902Y0006736D01*
G01X0010845Y0006736D02*
G01X0010845Y0006933D01*
G01X0010845Y0006933D02*
G01X0010864Y0006905D01*
G01X0010864Y0006905D02*
G01X0010883Y0006886D01*
G01X0010883Y0006886D02*
G01X0010902Y0006877D01*
G01X0010723Y0006933D02*
G01X0010601Y0006933D01*
G01X0010601Y0006933D02*
G01X0010667Y0006858D01*
G01X0010667Y0006858D02*
G01X0010639Y0006858D01*
G01X0010639Y0006858D02*
G01X0010620Y0006848D01*
G01X0010620Y0006848D02*
G01X0010611Y0006839D01*
G01X0010611Y0006839D02*
G01X0010601Y0006820D01*
G01X0010601Y0006820D02*
G01X0010601Y0006773D01*
G01X0010601Y0006773D02*
G01X0010611Y0006755D01*
G01X0010611Y0006755D02*
G01X0010620Y0006745D01*
G01X0010620Y0006745D02*
G01X0010639Y0006736D01*
G01X0010639Y0006736D02*
G01X0010695Y0006736D01*
G01X0010695Y0006736D02*
G01X0010714Y0006745D01*
G01X0010714Y0006745D02*
G01X0010723Y0006755D01*
G01X0010823Y0006461D02*
G01X0010936Y0006461D01*
G01X0010880Y0006461D02*
G01X0010880Y0006658D01*
G01X0010880Y0006658D02*
G01X0010899Y0006630D01*
G01X0010899Y0006630D02*
G01X0010917Y0006611D01*
G01X0010917Y0006611D02*
G01X0010936Y0006602D01*
G01X0010739Y0006461D02*
G01X0010739Y0006658D01*
G01X0010720Y0006536D02*
G01X0010664Y0006461D01*
G01X0010664Y0006592D02*
G01X0010739Y0006517D01*
G01X0010977Y0007736D02*
G01X0011042Y0007830D01*
G01X0011089Y0007736D02*
G01X0011089Y0007933D01*
G01X0011089Y0007933D02*
G01X0011014Y0007933D01*
G01X0011014Y0007933D02*
G01X0010995Y0007924D01*
G01X0010995Y0007924D02*
G01X0010986Y0007914D01*
G01X0010986Y0007914D02*
G01X0010977Y0007895D01*
G01X0010977Y0007895D02*
G01X0010977Y0007867D01*
G01X0010977Y0007867D02*
G01X0010986Y0007848D01*
G01X0010986Y0007848D02*
G01X0010995Y0007839D01*
G01X0010995Y0007839D02*
G01X0011014Y0007830D01*
G01X0011014Y0007830D02*
G01X0011089Y0007830D01*
G01X0010789Y0007736D02*
G01X0010902Y0007736D01*
G01X0010845Y0007736D02*
G01X0010845Y0007933D01*
G01X0010845Y0007933D02*
G01X0010864Y0007905D01*
G01X0010864Y0007905D02*
G01X0010883Y0007886D01*
G01X0010883Y0007886D02*
G01X0010902Y0007877D01*
G01X0010714Y0007914D02*
G01X0010705Y0007924D01*
G01X0010705Y0007924D02*
G01X0010686Y0007933D01*
G01X0010686Y0007933D02*
G01X0010639Y0007933D01*
G01X0010639Y0007933D02*
G01X0010620Y0007924D01*
G01X0010620Y0007924D02*
G01X0010611Y0007914D01*
G01X0010611Y0007914D02*
G01X0010601Y0007895D01*
G01X0010601Y0007895D02*
G01X0010601Y0007877D01*
G01X0010601Y0007877D02*
G01X0010611Y0007848D01*
G01X0010611Y0007848D02*
G01X0010723Y0007736D01*
G01X0010723Y0007736D02*
G01X0010601Y0007736D01*
G01X0010823Y0007461D02*
G01X0010936Y0007461D01*
G01X0010880Y0007461D02*
G01X0010880Y0007658D01*
G01X0010880Y0007658D02*
G01X0010899Y0007630D01*
G01X0010899Y0007630D02*
G01X0010917Y0007611D01*
G01X0010917Y0007611D02*
G01X0010936Y0007602D01*
G01X0010739Y0007461D02*
G01X0010739Y0007658D01*
G01X0010720Y0007536D02*
G01X0010664Y0007461D01*
G01X0010664Y0007592D02*
G01X0010739Y0007517D01*
G01X0010977Y0008736D02*
G01X0011042Y0008830D01*
G01X0011089Y0008736D02*
G01X0011089Y0008933D01*
G01X0011089Y0008933D02*
G01X0011014Y0008933D01*
G01X0011014Y0008933D02*
G01X0010995Y0008924D01*
G01X0010995Y0008924D02*
G01X0010986Y0008914D01*
G01X0010986Y0008914D02*
G01X0010977Y0008895D01*
G01X0010977Y0008895D02*
G01X0010977Y0008867D01*
G01X0010977Y0008867D02*
G01X0010986Y0008848D01*
G01X0010986Y0008848D02*
G01X0010995Y0008839D01*
G01X0010995Y0008839D02*
G01X0011014Y0008830D01*
G01X0011014Y0008830D02*
G01X0011089Y0008830D01*
G01X0010789Y0008736D02*
G01X0010902Y0008736D01*
G01X0010845Y0008736D02*
G01X0010845Y0008933D01*
G01X0010845Y0008933D02*
G01X0010864Y0008905D01*
G01X0010864Y0008905D02*
G01X0010883Y0008886D01*
G01X0010883Y0008886D02*
G01X0010902Y0008877D01*
G01X0010601Y0008736D02*
G01X0010714Y0008736D01*
G01X0010658Y0008736D02*
G01X0010658Y0008933D01*
G01X0010658Y0008933D02*
G01X0010676Y0008905D01*
G01X0010676Y0008905D02*
G01X0010695Y0008886D01*
G01X0010695Y0008886D02*
G01X0010714Y0008877D01*
G01X0010823Y0008461D02*
G01X0010936Y0008461D01*
G01X0010880Y0008461D02*
G01X0010880Y0008658D01*
G01X0010880Y0008658D02*
G01X0010899Y0008630D01*
G01X0010899Y0008630D02*
G01X0010917Y0008611D01*
G01X0010917Y0008611D02*
G01X0010936Y0008602D01*
G01X0010739Y0008461D02*
G01X0010739Y0008658D01*
G01X0010720Y0008536D02*
G01X0010664Y0008461D01*
G01X0010664Y0008592D02*
G01X0010739Y0008517D01*
G01X0010977Y0009736D02*
G01X0011042Y0009830D01*
G01X0011089Y0009736D02*
G01X0011089Y0009933D01*
G01X0011089Y0009933D02*
G01X0011014Y0009933D01*
G01X0011014Y0009933D02*
G01X0010995Y0009924D01*
G01X0010995Y0009924D02*
G01X0010986Y0009914D01*
G01X0010986Y0009914D02*
G01X0010977Y0009895D01*
G01X0010977Y0009895D02*
G01X0010977Y0009867D01*
G01X0010977Y0009867D02*
G01X0010986Y0009848D01*
G01X0010986Y0009848D02*
G01X0010995Y0009839D01*
G01X0010995Y0009839D02*
G01X0011014Y0009830D01*
G01X0011014Y0009830D02*
G01X0011089Y0009830D01*
G01X0010789Y0009736D02*
G01X0010902Y0009736D01*
G01X0010845Y0009736D02*
G01X0010845Y0009933D01*
G01X0010845Y0009933D02*
G01X0010864Y0009905D01*
G01X0010864Y0009905D02*
G01X0010883Y0009886D01*
G01X0010883Y0009886D02*
G01X0010902Y0009877D01*
G01X0010667Y0009933D02*
G01X0010648Y0009933D01*
G01X0010648Y0009933D02*
G01X0010630Y0009924D01*
G01X0010630Y0009924D02*
G01X0010620Y0009914D01*
G01X0010620Y0009914D02*
G01X0010611Y0009895D01*
G01X0010611Y0009895D02*
G01X0010601Y0009858D01*
G01X0010601Y0009858D02*
G01X0010601Y0009811D01*
G01X0010601Y0009811D02*
G01X0010611Y0009773D01*
G01X0010611Y0009773D02*
G01X0010620Y0009755D01*
G01X0010620Y0009755D02*
G01X0010630Y0009745D01*
G01X0010630Y0009745D02*
G01X0010648Y0009736D01*
G01X0010648Y0009736D02*
G01X0010667Y0009736D01*
G01X0010667Y0009736D02*
G01X0010686Y0009745D01*
G01X0010686Y0009745D02*
G01X0010695Y0009755D01*
G01X0010695Y0009755D02*
G01X0010705Y0009773D01*
G01X0010705Y0009773D02*
G01X0010714Y0009811D01*
G01X0010714Y0009811D02*
G01X0010714Y0009858D01*
G01X0010714Y0009858D02*
G01X0010705Y0009895D01*
G01X0010705Y0009895D02*
G01X0010695Y0009914D01*
G01X0010695Y0009914D02*
G01X0010686Y0009924D01*
G01X0010686Y0009924D02*
G01X0010667Y0009933D01*
G01X0010823Y0009461D02*
G01X0010936Y0009461D01*
G01X0010880Y0009461D02*
G01X0010880Y0009658D01*
G01X0010880Y0009658D02*
G01X0010899Y0009630D01*
G01X0010899Y0009630D02*
G01X0010917Y0009611D01*
G01X0010917Y0009611D02*
G01X0010936Y0009602D01*
G01X0010739Y0009461D02*
G01X0010739Y0009658D01*
G01X0010720Y0009536D02*
G01X0010664Y0009461D01*
G01X0010664Y0009592D02*
G01X0010739Y0009517D01*
G01X0010883Y0010736D02*
G01X0010949Y0010830D01*
G01X0010995Y0010736D02*
G01X0010995Y0010933D01*
G01X0010995Y0010933D02*
G01X0010920Y0010933D01*
G01X0010920Y0010933D02*
G01X0010902Y0010924D01*
G01X0010902Y0010924D02*
G01X0010892Y0010914D01*
G01X0010892Y0010914D02*
G01X0010883Y0010895D01*
G01X0010883Y0010895D02*
G01X0010883Y0010867D01*
G01X0010883Y0010867D02*
G01X0010892Y0010848D01*
G01X0010892Y0010848D02*
G01X0010902Y0010839D01*
G01X0010902Y0010839D02*
G01X0010920Y0010830D01*
G01X0010920Y0010830D02*
G01X0010995Y0010830D01*
G01X0010789Y0010736D02*
G01X0010752Y0010736D01*
G01X0010752Y0010736D02*
G01X0010733Y0010745D01*
G01X0010733Y0010745D02*
G01X0010723Y0010755D01*
G01X0010723Y0010755D02*
G01X0010705Y0010783D01*
G01X0010705Y0010783D02*
G01X0010695Y0010820D01*
G01X0010695Y0010820D02*
G01X0010695Y0010895D01*
G01X0010695Y0010895D02*
G01X0010705Y0010914D01*
G01X0010705Y0010914D02*
G01X0010714Y0010924D01*
G01X0010714Y0010924D02*
G01X0010733Y0010933D01*
G01X0010733Y0010933D02*
G01X0010770Y0010933D01*
G01X0010770Y0010933D02*
G01X0010789Y0010924D01*
G01X0010789Y0010924D02*
G01X0010798Y0010914D01*
G01X0010798Y0010914D02*
G01X0010808Y0010895D01*
G01X0010808Y0010895D02*
G01X0010808Y0010848D01*
G01X0010808Y0010848D02*
G01X0010798Y0010830D01*
G01X0010798Y0010830D02*
G01X0010789Y0010820D01*
G01X0010789Y0010820D02*
G01X0010770Y0010811D01*
G01X0010770Y0010811D02*
G01X0010733Y0010811D01*
G01X0010733Y0010811D02*
G01X0010714Y0010820D01*
G01X0010714Y0010820D02*
G01X0010705Y0010830D01*
G01X0010705Y0010830D02*
G01X0010695Y0010848D01*
G01X0010823Y0010461D02*
G01X0010936Y0010461D01*
G01X0010880Y0010461D02*
G01X0010880Y0010658D01*
G01X0010880Y0010658D02*
G01X0010899Y0010630D01*
G01X0010899Y0010630D02*
G01X0010917Y0010611D01*
G01X0010917Y0010611D02*
G01X0010936Y0010602D01*
G01X0010739Y0010461D02*
G01X0010739Y0010658D01*
G01X0010720Y0010536D02*
G01X0010664Y0010461D01*
G01X0010664Y0010592D02*
G01X0010739Y0010517D01*
G01X0010883Y0011736D02*
G01X0010949Y0011830D01*
G01X0010995Y0011736D02*
G01X0010995Y0011933D01*
G01X0010995Y0011933D02*
G01X0010920Y0011933D01*
G01X0010920Y0011933D02*
G01X0010902Y0011924D01*
G01X0010902Y0011924D02*
G01X0010892Y0011914D01*
G01X0010892Y0011914D02*
G01X0010883Y0011895D01*
G01X0010883Y0011895D02*
G01X0010883Y0011867D01*
G01X0010883Y0011867D02*
G01X0010892Y0011848D01*
G01X0010892Y0011848D02*
G01X0010902Y0011839D01*
G01X0010902Y0011839D02*
G01X0010920Y0011830D01*
G01X0010920Y0011830D02*
G01X0010995Y0011830D01*
G01X0010770Y0011848D02*
G01X0010789Y0011858D01*
G01X0010789Y0011858D02*
G01X0010798Y0011867D01*
G01X0010798Y0011867D02*
G01X0010808Y0011886D01*
G01X0010808Y0011886D02*
G01X0010808Y0011895D01*
G01X0010808Y0011895D02*
G01X0010798Y0011914D01*
G01X0010798Y0011914D02*
G01X0010789Y0011924D01*
G01X0010789Y0011924D02*
G01X0010770Y0011933D01*
G01X0010770Y0011933D02*
G01X0010733Y0011933D01*
G01X0010733Y0011933D02*
G01X0010714Y0011924D01*
G01X0010714Y0011924D02*
G01X0010705Y0011914D01*
G01X0010705Y0011914D02*
G01X0010695Y0011895D01*
G01X0010695Y0011895D02*
G01X0010695Y0011886D01*
G01X0010695Y0011886D02*
G01X0010705Y0011867D01*
G01X0010705Y0011867D02*
G01X0010714Y0011858D01*
G01X0010714Y0011858D02*
G01X0010733Y0011848D01*
G01X0010733Y0011848D02*
G01X0010770Y0011848D01*
G01X0010770Y0011848D02*
G01X0010789Y0011839D01*
G01X0010789Y0011839D02*
G01X0010798Y0011830D01*
G01X0010798Y0011830D02*
G01X0010808Y0011811D01*
G01X0010808Y0011811D02*
G01X0010808Y0011773D01*
G01X0010808Y0011773D02*
G01X0010798Y0011755D01*
G01X0010798Y0011755D02*
G01X0010789Y0011745D01*
G01X0010789Y0011745D02*
G01X0010770Y0011736D01*
G01X0010770Y0011736D02*
G01X0010733Y0011736D01*
G01X0010733Y0011736D02*
G01X0010714Y0011745D01*
G01X0010714Y0011745D02*
G01X0010705Y0011755D01*
G01X0010705Y0011755D02*
G01X0010695Y0011773D01*
G01X0010695Y0011773D02*
G01X0010695Y0011811D01*
G01X0010695Y0011811D02*
G01X0010705Y0011830D01*
G01X0010705Y0011830D02*
G01X0010714Y0011839D01*
G01X0010714Y0011839D02*
G01X0010733Y0011848D01*
G01X0010823Y0011461D02*
G01X0010936Y0011461D01*
G01X0010880Y0011461D02*
G01X0010880Y0011658D01*
G01X0010880Y0011658D02*
G01X0010899Y0011630D01*
G01X0010899Y0011630D02*
G01X0010917Y0011611D01*
G01X0010917Y0011611D02*
G01X0010936Y0011602D01*
G01X0010739Y0011461D02*
G01X0010739Y0011658D01*
G01X0010720Y0011536D02*
G01X0010664Y0011461D01*
G01X0010664Y0011592D02*
G01X0010739Y0011517D01*
G01X0003914Y0005533D02*
G01X0003820Y0005599D01*
G01X0003914Y0005645D02*
G01X0003717Y0005645D01*
G01X0003717Y0005645D02*
G01X0003717Y0005570D01*
G01X0003717Y0005570D02*
G01X0003727Y0005552D01*
G01X0003727Y0005552D02*
G01X0003736Y0005542D01*
G01X0003736Y0005542D02*
G01X0003755Y0005533D01*
G01X0003755Y0005533D02*
G01X0003783Y0005533D01*
G01X0003783Y0005533D02*
G01X0003802Y0005542D01*
G01X0003802Y0005542D02*
G01X0003811Y0005552D01*
G01X0003811Y0005552D02*
G01X0003820Y0005570D01*
G01X0003820Y0005570D02*
G01X0003820Y0005645D01*
G01X0003717Y0005467D02*
G01X0003717Y0005336D01*
G01X0003717Y0005336D02*
G01X0003914Y0005420D01*
G01X0003639Y0005667D02*
G01X0003639Y0005780D01*
G01X0003639Y0005724D02*
G01X0003442Y0005724D01*
G01X0003442Y0005724D02*
G01X0003470Y0005742D01*
G01X0003470Y0005742D02*
G01X0003489Y0005761D01*
G01X0003489Y0005761D02*
G01X0003498Y0005780D01*
G01X0003442Y0005545D02*
G01X0003442Y0005527D01*
G01X0003442Y0005527D02*
G01X0003452Y0005508D01*
G01X0003452Y0005508D02*
G01X0003461Y0005498D01*
G01X0003461Y0005498D02*
G01X0003480Y0005489D01*
G01X0003480Y0005489D02*
G01X0003517Y0005480D01*
G01X0003517Y0005480D02*
G01X0003564Y0005480D01*
G01X0003564Y0005480D02*
G01X0003602Y0005489D01*
G01X0003602Y0005489D02*
G01X0003620Y0005498D01*
G01X0003620Y0005498D02*
G01X0003630Y0005508D01*
G01X0003630Y0005508D02*
G01X0003639Y0005527D01*
G01X0003639Y0005527D02*
G01X0003639Y0005545D01*
G01X0003639Y0005545D02*
G01X0003630Y0005564D01*
G01X0003630Y0005564D02*
G01X0003620Y0005573D01*
G01X0003620Y0005573D02*
G01X0003602Y0005583D01*
G01X0003602Y0005583D02*
G01X0003564Y0005592D01*
G01X0003564Y0005592D02*
G01X0003517Y0005592D01*
G01X0003517Y0005592D02*
G01X0003480Y0005583D01*
G01X0003480Y0005583D02*
G01X0003461Y0005573D01*
G01X0003461Y0005573D02*
G01X0003452Y0005564D01*
G01X0003452Y0005564D02*
G01X0003442Y0005545D01*
G01X0003639Y0005395D02*
G01X0003442Y0005395D01*
G01X0003564Y0005376D02*
G01X0003639Y0005320D01*
G01X0003508Y0005320D02*
G01X0003583Y0005395D01*
G01X0005614Y0005533D02*
G01X0005520Y0005599D01*
G01X0005614Y0005645D02*
G01X0005417Y0005645D01*
G01X0005417Y0005645D02*
G01X0005417Y0005570D01*
G01X0005417Y0005570D02*
G01X0005427Y0005552D01*
G01X0005427Y0005552D02*
G01X0005436Y0005542D01*
G01X0005436Y0005542D02*
G01X0005455Y0005533D01*
G01X0005455Y0005533D02*
G01X0005483Y0005533D01*
G01X0005483Y0005533D02*
G01X0005502Y0005542D01*
G01X0005502Y0005542D02*
G01X0005511Y0005552D01*
G01X0005511Y0005552D02*
G01X0005520Y0005570D01*
G01X0005520Y0005570D02*
G01X0005520Y0005645D01*
G01X0005417Y0005364D02*
G01X0005417Y0005402D01*
G01X0005417Y0005402D02*
G01X0005427Y0005420D01*
G01X0005427Y0005420D02*
G01X0005436Y0005430D01*
G01X0005436Y0005430D02*
G01X0005464Y0005448D01*
G01X0005464Y0005448D02*
G01X0005502Y0005458D01*
G01X0005502Y0005458D02*
G01X0005577Y0005458D01*
G01X0005577Y0005458D02*
G01X0005595Y0005448D01*
G01X0005595Y0005448D02*
G01X0005605Y0005439D01*
G01X0005605Y0005439D02*
G01X0005614Y0005420D01*
G01X0005614Y0005420D02*
G01X0005614Y0005383D01*
G01X0005614Y0005383D02*
G01X0005605Y0005364D01*
G01X0005605Y0005364D02*
G01X0005595Y0005355D01*
G01X0005595Y0005355D02*
G01X0005577Y0005345D01*
G01X0005577Y0005345D02*
G01X0005530Y0005345D01*
G01X0005530Y0005345D02*
G01X0005511Y0005355D01*
G01X0005511Y0005355D02*
G01X0005502Y0005364D01*
G01X0005502Y0005364D02*
G01X0005492Y0005383D01*
G01X0005492Y0005383D02*
G01X0005492Y0005420D01*
G01X0005492Y0005420D02*
G01X0005502Y0005439D01*
G01X0005502Y0005439D02*
G01X0005511Y0005448D01*
G01X0005511Y0005448D02*
G01X0005530Y0005458D01*
G01X0005339Y0005667D02*
G01X0005339Y0005780D01*
G01X0005339Y0005724D02*
G01X0005142Y0005724D01*
G01X0005142Y0005724D02*
G01X0005170Y0005742D01*
G01X0005170Y0005742D02*
G01X0005189Y0005761D01*
G01X0005189Y0005761D02*
G01X0005198Y0005780D01*
G01X0005142Y0005545D02*
G01X0005142Y0005527D01*
G01X0005142Y0005527D02*
G01X0005152Y0005508D01*
G01X0005152Y0005508D02*
G01X0005161Y0005498D01*
G01X0005161Y0005498D02*
G01X0005180Y0005489D01*
G01X0005180Y0005489D02*
G01X0005217Y0005480D01*
G01X0005217Y0005480D02*
G01X0005264Y0005480D01*
G01X0005264Y0005480D02*
G01X0005302Y0005489D01*
G01X0005302Y0005489D02*
G01X0005320Y0005498D01*
G01X0005320Y0005498D02*
G01X0005330Y0005508D01*
G01X0005330Y0005508D02*
G01X0005339Y0005527D01*
G01X0005339Y0005527D02*
G01X0005339Y0005545D01*
G01X0005339Y0005545D02*
G01X0005330Y0005564D01*
G01X0005330Y0005564D02*
G01X0005320Y0005573D01*
G01X0005320Y0005573D02*
G01X0005302Y0005583D01*
G01X0005302Y0005583D02*
G01X0005264Y0005592D01*
G01X0005264Y0005592D02*
G01X0005217Y0005592D01*
G01X0005217Y0005592D02*
G01X0005180Y0005583D01*
G01X0005180Y0005583D02*
G01X0005161Y0005573D01*
G01X0005161Y0005573D02*
G01X0005152Y0005564D01*
G01X0005152Y0005564D02*
G01X0005142Y0005545D01*
G01X0005339Y0005395D02*
G01X0005142Y0005395D01*
G01X0005264Y0005376D02*
G01X0005339Y0005320D01*
G01X0005208Y0005320D02*
G01X0005283Y0005395D01*
G01X0004814Y0005483D02*
G01X0004720Y0005548D01*
G01X0004814Y0005595D02*
G01X0004617Y0005595D01*
G01X0004617Y0005595D02*
G01X0004617Y0005520D01*
G01X0004617Y0005520D02*
G01X0004627Y0005502D01*
G01X0004627Y0005502D02*
G01X0004636Y0005492D01*
G01X0004636Y0005492D02*
G01X0004655Y0005483D01*
G01X0004655Y0005483D02*
G01X0004683Y0005483D01*
G01X0004683Y0005483D02*
G01X0004702Y0005492D01*
G01X0004702Y0005492D02*
G01X0004711Y0005502D01*
G01X0004711Y0005502D02*
G01X0004720Y0005520D01*
G01X0004720Y0005520D02*
G01X0004720Y0005595D01*
G01X0004617Y0005305D02*
G01X0004617Y0005398D01*
G01X0004617Y0005398D02*
G01X0004711Y0005408D01*
G01X0004711Y0005408D02*
G01X0004702Y0005398D01*
G01X0004702Y0005398D02*
G01X0004692Y0005380D01*
G01X0004692Y0005380D02*
G01X0004692Y0005333D01*
G01X0004692Y0005333D02*
G01X0004702Y0005314D01*
G01X0004702Y0005314D02*
G01X0004711Y0005305D01*
G01X0004711Y0005305D02*
G01X0004730Y0005295D01*
G01X0004730Y0005295D02*
G01X0004777Y0005295D01*
G01X0004777Y0005295D02*
G01X0004795Y0005305D01*
G01X0004795Y0005305D02*
G01X0004805Y0005314D01*
G01X0004805Y0005314D02*
G01X0004814Y0005333D01*
G01X0004814Y0005333D02*
G01X0004814Y0005380D01*
G01X0004814Y0005380D02*
G01X0004805Y0005398D01*
G01X0004805Y0005398D02*
G01X0004795Y0005408D01*
G01X0004539Y0005617D02*
G01X0004539Y0005730D01*
G01X0004539Y0005674D02*
G01X0004342Y0005674D01*
G01X0004342Y0005674D02*
G01X0004370Y0005692D01*
G01X0004370Y0005692D02*
G01X0004389Y0005711D01*
G01X0004389Y0005711D02*
G01X0004398Y0005730D01*
G01X0004342Y0005495D02*
G01X0004342Y0005477D01*
G01X0004342Y0005477D02*
G01X0004352Y0005458D01*
G01X0004352Y0005458D02*
G01X0004361Y0005448D01*
G01X0004361Y0005448D02*
G01X0004380Y0005439D01*
G01X0004380Y0005439D02*
G01X0004417Y0005430D01*
G01X0004417Y0005430D02*
G01X0004464Y0005430D01*
G01X0004464Y0005430D02*
G01X0004502Y0005439D01*
G01X0004502Y0005439D02*
G01X0004520Y0005448D01*
G01X0004520Y0005448D02*
G01X0004530Y0005458D01*
G01X0004530Y0005458D02*
G01X0004539Y0005477D01*
G01X0004539Y0005477D02*
G01X0004539Y0005495D01*
G01X0004539Y0005495D02*
G01X0004530Y0005514D01*
G01X0004530Y0005514D02*
G01X0004520Y0005523D01*
G01X0004520Y0005523D02*
G01X0004502Y0005533D01*
G01X0004502Y0005533D02*
G01X0004464Y0005542D01*
G01X0004464Y0005542D02*
G01X0004417Y0005542D01*
G01X0004417Y0005542D02*
G01X0004380Y0005533D01*
G01X0004380Y0005533D02*
G01X0004361Y0005523D01*
G01X0004361Y0005523D02*
G01X0004352Y0005514D01*
G01X0004352Y0005514D02*
G01X0004342Y0005495D01*
G01X0004539Y0005345D02*
G01X0004342Y0005345D01*
G01X0004464Y0005326D02*
G01X0004539Y0005270D01*
G01X0004408Y0005270D02*
G01X0004483Y0005345D01*
G01X0005414Y0011933D02*
G01X0005320Y0011999D01*
G01X0005414Y0012045D02*
G01X0005217Y0012045D01*
G01X0005217Y0012045D02*
G01X0005217Y0011970D01*
G01X0005217Y0011970D02*
G01X0005226Y0011952D01*
G01X0005226Y0011952D02*
G01X0005236Y0011942D01*
G01X0005236Y0011942D02*
G01X0005255Y0011933D01*
G01X0005255Y0011933D02*
G01X0005283Y0011933D01*
G01X0005283Y0011933D02*
G01X0005302Y0011942D01*
G01X0005302Y0011942D02*
G01X0005311Y0011952D01*
G01X0005311Y0011952D02*
G01X0005320Y0011970D01*
G01X0005320Y0011970D02*
G01X0005320Y0012045D01*
G01X0005283Y0011764D02*
G01X0005414Y0011764D01*
G01X0005208Y0011811D02*
G01X0005348Y0011858D01*
G01X0005348Y0011858D02*
G01X0005348Y0011736D01*
G01X0004942Y0012058D02*
G01X0004942Y0012039D01*
G01X0004942Y0012039D02*
G01X0004952Y0012020D01*
G01X0004952Y0012020D02*
G01X0004961Y0012011D01*
G01X0004961Y0012011D02*
G01X0004980Y0012002D01*
G01X0004980Y0012002D02*
G01X0005017Y0011992D01*
G01X0005017Y0011992D02*
G01X0005064Y0011992D01*
G01X0005064Y0011992D02*
G01X0005102Y0012002D01*
G01X0005102Y0012002D02*
G01X0005120Y0012011D01*
G01X0005120Y0012011D02*
G01X0005130Y0012020D01*
G01X0005130Y0012020D02*
G01X0005139Y0012039D01*
G01X0005139Y0012039D02*
G01X0005139Y0012058D01*
G01X0005139Y0012058D02*
G01X0005130Y0012077D01*
G01X0005130Y0012077D02*
G01X0005120Y0012086D01*
G01X0005120Y0012086D02*
G01X0005102Y0012095D01*
G01X0005102Y0012095D02*
G01X0005064Y0012105D01*
G01X0005064Y0012105D02*
G01X0005017Y0012105D01*
G01X0005017Y0012105D02*
G01X0004980Y0012095D01*
G01X0004980Y0012095D02*
G01X0004961Y0012086D01*
G01X0004961Y0012086D02*
G01X0004952Y0012077D01*
G01X0004952Y0012077D02*
G01X0004942Y0012058D01*
G01X0005139Y0011795D02*
G01X0005045Y0011861D01*
G01X0005139Y0011908D02*
G01X0004942Y0011908D01*
G01X0004942Y0011908D02*
G01X0004942Y0011833D01*
G01X0004942Y0011833D02*
G01X0004952Y0011814D01*
G01X0004952Y0011814D02*
G01X0004961Y0011805D01*
G01X0004961Y0011805D02*
G01X0004980Y0011795D01*
G01X0004980Y0011795D02*
G01X0005008Y0011795D01*
G01X0005008Y0011795D02*
G01X0005027Y0011805D01*
G01X0005027Y0011805D02*
G01X0005036Y0011814D01*
G01X0005036Y0011814D02*
G01X0005045Y0011833D01*
G01X0005045Y0011833D02*
G01X0005045Y0011908D01*
G01X0003883Y0010486D02*
G01X0003949Y0010580D01*
G01X0003995Y0010486D02*
G01X0003995Y0010683D01*
G01X0003995Y0010683D02*
G01X0003920Y0010683D01*
G01X0003920Y0010683D02*
G01X0003902Y0010674D01*
G01X0003902Y0010674D02*
G01X0003892Y0010664D01*
G01X0003892Y0010664D02*
G01X0003883Y0010645D01*
G01X0003883Y0010645D02*
G01X0003883Y0010617D01*
G01X0003883Y0010617D02*
G01X0003892Y0010598D01*
G01X0003892Y0010598D02*
G01X0003902Y0010589D01*
G01X0003902Y0010589D02*
G01X0003920Y0010580D01*
G01X0003920Y0010580D02*
G01X0003995Y0010580D01*
G01X0003817Y0010683D02*
G01X0003695Y0010683D01*
G01X0003695Y0010683D02*
G01X0003761Y0010608D01*
G01X0003761Y0010608D02*
G01X0003733Y0010608D01*
G01X0003733Y0010608D02*
G01X0003714Y0010598D01*
G01X0003714Y0010598D02*
G01X0003705Y0010589D01*
G01X0003705Y0010589D02*
G01X0003695Y0010570D01*
G01X0003695Y0010570D02*
G01X0003695Y0010523D01*
G01X0003695Y0010523D02*
G01X0003705Y0010505D01*
G01X0003705Y0010505D02*
G01X0003714Y0010495D01*
G01X0003714Y0010495D02*
G01X0003733Y0010486D01*
G01X0003733Y0010486D02*
G01X0003789Y0010486D01*
G01X0003789Y0010486D02*
G01X0003808Y0010495D01*
G01X0003808Y0010495D02*
G01X0003817Y0010505D01*
G01X0003975Y0010836D02*
G01X0003825Y0010836D01*
G01X0003883Y0011386D02*
G01X0003949Y0011480D01*
G01X0003995Y0011386D02*
G01X0003995Y0011583D01*
G01X0003995Y0011583D02*
G01X0003920Y0011583D01*
G01X0003920Y0011583D02*
G01X0003902Y0011574D01*
G01X0003902Y0011574D02*
G01X0003892Y0011564D01*
G01X0003892Y0011564D02*
G01X0003883Y0011545D01*
G01X0003883Y0011545D02*
G01X0003883Y0011517D01*
G01X0003883Y0011517D02*
G01X0003892Y0011498D01*
G01X0003892Y0011498D02*
G01X0003902Y0011489D01*
G01X0003902Y0011489D02*
G01X0003920Y0011480D01*
G01X0003920Y0011480D02*
G01X0003995Y0011480D01*
G01X0003808Y0011564D02*
G01X0003798Y0011574D01*
G01X0003798Y0011574D02*
G01X0003780Y0011583D01*
G01X0003780Y0011583D02*
G01X0003733Y0011583D01*
G01X0003733Y0011583D02*
G01X0003714Y0011574D01*
G01X0003714Y0011574D02*
G01X0003705Y0011564D01*
G01X0003705Y0011564D02*
G01X0003695Y0011545D01*
G01X0003695Y0011545D02*
G01X0003695Y0011527D01*
G01X0003695Y0011527D02*
G01X0003705Y0011498D01*
G01X0003705Y0011498D02*
G01X0003817Y0011386D01*
G01X0003817Y0011386D02*
G01X0003695Y0011386D01*
G01X0004017Y0011661D02*
G01X0004130Y0011661D01*
G01X0004074Y0011661D02*
G01X0004074Y0011858D01*
G01X0004074Y0011858D02*
G01X0004092Y0011830D01*
G01X0004092Y0011830D02*
G01X0004111Y0011811D01*
G01X0004111Y0011811D02*
G01X0004130Y0011802D01*
G01X0003895Y0011858D02*
G01X0003877Y0011858D01*
G01X0003877Y0011858D02*
G01X0003858Y0011849D01*
G01X0003858Y0011849D02*
G01X0003848Y0011839D01*
G01X0003848Y0011839D02*
G01X0003839Y0011820D01*
G01X0003839Y0011820D02*
G01X0003830Y0011783D01*
G01X0003830Y0011783D02*
G01X0003830Y0011736D01*
G01X0003830Y0011736D02*
G01X0003839Y0011698D01*
G01X0003839Y0011698D02*
G01X0003848Y0011680D01*
G01X0003848Y0011680D02*
G01X0003858Y0011670D01*
G01X0003858Y0011670D02*
G01X0003877Y0011661D01*
G01X0003877Y0011661D02*
G01X0003895Y0011661D01*
G01X0003895Y0011661D02*
G01X0003914Y0011670D01*
G01X0003914Y0011670D02*
G01X0003923Y0011680D01*
G01X0003923Y0011680D02*
G01X0003933Y0011698D01*
G01X0003933Y0011698D02*
G01X0003942Y0011736D01*
G01X0003942Y0011736D02*
G01X0003942Y0011783D01*
G01X0003942Y0011783D02*
G01X0003933Y0011820D01*
G01X0003933Y0011820D02*
G01X0003923Y0011839D01*
G01X0003923Y0011839D02*
G01X0003914Y0011849D01*
G01X0003914Y0011849D02*
G01X0003895Y0011858D01*
G01X0003745Y0011661D02*
G01X0003745Y0011858D01*
G01X0003726Y0011736D02*
G01X0003670Y0011661D01*
G01X0003670Y0011792D02*
G01X0003745Y0011717D01*
G01X0003883Y0012236D02*
G01X0003949Y0012330D01*
G01X0003995Y0012236D02*
G01X0003995Y0012433D01*
G01X0003995Y0012433D02*
G01X0003920Y0012433D01*
G01X0003920Y0012433D02*
G01X0003902Y0012424D01*
G01X0003902Y0012424D02*
G01X0003892Y0012414D01*
G01X0003892Y0012414D02*
G01X0003883Y0012395D01*
G01X0003883Y0012395D02*
G01X0003883Y0012367D01*
G01X0003883Y0012367D02*
G01X0003892Y0012348D01*
G01X0003892Y0012348D02*
G01X0003902Y0012339D01*
G01X0003902Y0012339D02*
G01X0003920Y0012330D01*
G01X0003920Y0012330D02*
G01X0003995Y0012330D01*
G01X0003695Y0012236D02*
G01X0003808Y0012236D01*
G01X0003752Y0012236D02*
G01X0003752Y0012433D01*
G01X0003752Y0012433D02*
G01X0003770Y0012405D01*
G01X0003770Y0012405D02*
G01X0003789Y0012386D01*
G01X0003789Y0012386D02*
G01X0003808Y0012377D01*
G01X0004017Y0012511D02*
G01X0004130Y0012511D01*
G01X0004074Y0012511D02*
G01X0004074Y0012708D01*
G01X0004074Y0012708D02*
G01X0004092Y0012680D01*
G01X0004092Y0012680D02*
G01X0004111Y0012661D01*
G01X0004111Y0012661D02*
G01X0004130Y0012652D01*
G01X0003895Y0012708D02*
G01X0003877Y0012708D01*
G01X0003877Y0012708D02*
G01X0003858Y0012699D01*
G01X0003858Y0012699D02*
G01X0003848Y0012689D01*
G01X0003848Y0012689D02*
G01X0003839Y0012670D01*
G01X0003839Y0012670D02*
G01X0003830Y0012633D01*
G01X0003830Y0012633D02*
G01X0003830Y0012586D01*
G01X0003830Y0012586D02*
G01X0003839Y0012548D01*
G01X0003839Y0012548D02*
G01X0003848Y0012530D01*
G01X0003848Y0012530D02*
G01X0003858Y0012520D01*
G01X0003858Y0012520D02*
G01X0003877Y0012511D01*
G01X0003877Y0012511D02*
G01X0003895Y0012511D01*
G01X0003895Y0012511D02*
G01X0003914Y0012520D01*
G01X0003914Y0012520D02*
G01X0003923Y0012530D01*
G01X0003923Y0012530D02*
G01X0003933Y0012548D01*
G01X0003933Y0012548D02*
G01X0003942Y0012586D01*
G01X0003942Y0012586D02*
G01X0003942Y0012633D01*
G01X0003942Y0012633D02*
G01X0003933Y0012670D01*
G01X0003933Y0012670D02*
G01X0003923Y0012689D01*
G01X0003923Y0012689D02*
G01X0003914Y0012699D01*
G01X0003914Y0012699D02*
G01X0003895Y0012708D01*
G01X0003745Y0012511D02*
G01X0003745Y0012708D01*
G01X0003726Y0012586D02*
G01X0003670Y0012511D01*
G01X0003670Y0012642D02*
G01X0003745Y0012567D01*
G54D13*
G01X0006821Y0002693D02*
G01X0006221Y0002693D01*
G01X0006221Y0002693D02*
G01X0006221Y0002550D01*
G01X0006221Y0002550D02*
G01X0006250Y0002464D01*
G01X0006250Y0002464D02*
G01X0006307Y0002407D01*
G01X0006307Y0002407D02*
G01X0006364Y0002379D01*
G01X0006364Y0002379D02*
G01X0006479Y0002350D01*
G01X0006479Y0002350D02*
G01X0006564Y0002350D01*
G01X0006564Y0002350D02*
G01X0006679Y0002379D01*
G01X0006679Y0002379D02*
G01X0006736Y0002407D01*
G01X0006736Y0002407D02*
G01X0006793Y0002464D01*
G01X0006793Y0002464D02*
G01X0006821Y0002550D01*
G01X0006821Y0002550D02*
G01X0006821Y0002693D01*
G01X0006821Y0001779D02*
G01X0006821Y0002121D01*
G01X0006821Y0001950D02*
G01X0006221Y0001950D01*
G01X0006221Y0001950D02*
G01X0006307Y0002007D01*
G01X0006307Y0002007D02*
G01X0006364Y0002064D01*
G01X0006364Y0002064D02*
G01X0006393Y0002121D01*
G54D14*
G01X0004453Y0000998D02*
G01X0004453Y0000904D01*
G01X0004509Y0001017D02*
G01X0004312Y0000951D01*
G01X0004312Y0000951D02*
G01X0004509Y0000885D01*
G01X0004470Y0003483D02*
G01X0004273Y0003483D01*
G01X0004470Y0003370D02*
G01X0004358Y0003454D01*
G01X0004273Y0003370D02*
G01X0004386Y0003483D01*
G54D12*
G01X0010883Y0003855D02*
G01X0010892Y0003845D01*
G01X0010892Y0003845D02*
G01X0010920Y0003836D01*
G01X0010920Y0003836D02*
G01X0010939Y0003836D01*
G01X0010939Y0003836D02*
G01X0010967Y0003845D01*
G01X0010967Y0003845D02*
G01X0010986Y0003864D01*
G01X0010986Y0003864D02*
G01X0010995Y0003883D01*
G01X0010995Y0003883D02*
G01X0011005Y0003920D01*
G01X0011005Y0003920D02*
G01X0011005Y0003948D01*
G01X0011005Y0003948D02*
G01X0010995Y0003986D01*
G01X0010995Y0003986D02*
G01X0010986Y0004005D01*
G01X0010986Y0004005D02*
G01X0010967Y0004024D01*
G01X0010967Y0004024D02*
G01X0010939Y0004033D01*
G01X0010939Y0004033D02*
G01X0010920Y0004033D01*
G01X0010920Y0004033D02*
G01X0010892Y0004024D01*
G01X0010892Y0004024D02*
G01X0010883Y0004014D01*
G01X0010808Y0004014D02*
G01X0010798Y0004024D01*
G01X0010798Y0004024D02*
G01X0010780Y0004033D01*
G01X0010780Y0004033D02*
G01X0010733Y0004033D01*
G01X0010733Y0004033D02*
G01X0010714Y0004024D01*
G01X0010714Y0004024D02*
G01X0010705Y0004014D01*
G01X0010705Y0004014D02*
G01X0010695Y0003995D01*
G01X0010695Y0003995D02*
G01X0010695Y0003977D01*
G01X0010695Y0003977D02*
G01X0010705Y0003948D01*
G01X0010705Y0003948D02*
G01X0010817Y0003836D01*
G01X0010817Y0003836D02*
G01X0010695Y0003836D01*
G01X0011011Y0003561D02*
G01X0011124Y0003561D01*
G01X0011067Y0003561D02*
G01X0011067Y0003758D01*
G01X0011067Y0003758D02*
G01X0011086Y0003730D01*
G01X0011086Y0003730D02*
G01X0011105Y0003711D01*
G01X0011105Y0003711D02*
G01X0011124Y0003702D01*
G01X0010889Y0003758D02*
G01X0010870Y0003758D01*
G01X0010870Y0003758D02*
G01X0010852Y0003749D01*
G01X0010852Y0003749D02*
G01X0010842Y0003739D01*
G01X0010842Y0003739D02*
G01X0010833Y0003720D01*
G01X0010833Y0003720D02*
G01X0010823Y0003683D01*
G01X0010823Y0003683D02*
G01X0010823Y0003636D01*
G01X0010823Y0003636D02*
G01X0010833Y0003598D01*
G01X0010833Y0003598D02*
G01X0010842Y0003580D01*
G01X0010842Y0003580D02*
G01X0010852Y0003570D01*
G01X0010852Y0003570D02*
G01X0010870Y0003561D01*
G01X0010870Y0003561D02*
G01X0010889Y0003561D01*
G01X0010889Y0003561D02*
G01X0010908Y0003570D01*
G01X0010908Y0003570D02*
G01X0010917Y0003580D01*
G01X0010917Y0003580D02*
G01X0010927Y0003598D01*
G01X0010927Y0003598D02*
G01X0010936Y0003636D01*
G01X0010936Y0003636D02*
G01X0010936Y0003683D01*
G01X0010936Y0003683D02*
G01X0010927Y0003720D01*
G01X0010927Y0003720D02*
G01X0010917Y0003739D01*
G01X0010917Y0003739D02*
G01X0010908Y0003749D01*
G01X0010908Y0003749D02*
G01X0010889Y0003758D01*
G01X0010655Y0003692D02*
G01X0010655Y0003561D01*
G01X0010739Y0003692D02*
G01X0010739Y0003589D01*
G01X0010739Y0003589D02*
G01X0010730Y0003570D01*
G01X0010730Y0003570D02*
G01X0010711Y0003561D01*
G01X0010711Y0003561D02*
G01X0010683Y0003561D01*
G01X0010683Y0003561D02*
G01X0010664Y0003570D01*
G01X0010664Y0003570D02*
G01X0010655Y0003580D01*
G01X0010495Y0003664D02*
G01X0010561Y0003664D01*
G01X0010561Y0003561D02*
G01X0010561Y0003758D01*
G01X0010561Y0003758D02*
G01X0010467Y0003758D01*
G01X0002233Y0005605D02*
G01X0002242Y0005595D01*
G01X0002242Y0005595D02*
G01X0002270Y0005586D01*
G01X0002270Y0005586D02*
G01X0002289Y0005586D01*
G01X0002289Y0005586D02*
G01X0002317Y0005595D01*
G01X0002317Y0005595D02*
G01X0002336Y0005614D01*
G01X0002336Y0005614D02*
G01X0002345Y0005633D01*
G01X0002345Y0005633D02*
G01X0002355Y0005670D01*
G01X0002355Y0005670D02*
G01X0002355Y0005698D01*
G01X0002355Y0005698D02*
G01X0002345Y0005736D01*
G01X0002345Y0005736D02*
G01X0002336Y0005755D01*
G01X0002336Y0005755D02*
G01X0002317Y0005774D01*
G01X0002317Y0005774D02*
G01X0002289Y0005783D01*
G01X0002289Y0005783D02*
G01X0002270Y0005783D01*
G01X0002270Y0005783D02*
G01X0002242Y0005774D01*
G01X0002242Y0005774D02*
G01X0002233Y0005764D01*
G01X0002045Y0005586D02*
G01X0002158Y0005586D01*
G01X0002102Y0005586D02*
G01X0002102Y0005783D01*
G01X0002102Y0005783D02*
G01X0002120Y0005755D01*
G01X0002120Y0005755D02*
G01X0002139Y0005736D01*
G01X0002139Y0005736D02*
G01X0002158Y0005727D01*
G01X0002455Y0005311D02*
G01X0002567Y0005311D01*
G01X0002511Y0005311D02*
G01X0002511Y0005508D01*
G01X0002511Y0005508D02*
G01X0002530Y0005480D01*
G01X0002530Y0005480D02*
G01X0002549Y0005461D01*
G01X0002549Y0005461D02*
G01X0002567Y0005452D01*
G01X0002333Y0005508D02*
G01X0002314Y0005508D01*
G01X0002314Y0005508D02*
G01X0002295Y0005498D01*
G01X0002295Y0005498D02*
G01X0002286Y0005489D01*
G01X0002286Y0005489D02*
G01X0002277Y0005470D01*
G01X0002277Y0005470D02*
G01X0002267Y0005433D01*
G01X0002267Y0005433D02*
G01X0002267Y0005386D01*
G01X0002267Y0005386D02*
G01X0002277Y0005348D01*
G01X0002277Y0005348D02*
G01X0002286Y0005330D01*
G01X0002286Y0005330D02*
G01X0002295Y0005320D01*
G01X0002295Y0005320D02*
G01X0002314Y0005311D01*
G01X0002314Y0005311D02*
G01X0002333Y0005311D01*
G01X0002333Y0005311D02*
G01X0002352Y0005320D01*
G01X0002352Y0005320D02*
G01X0002361Y0005330D01*
G01X0002361Y0005330D02*
G01X0002370Y0005348D01*
G01X0002370Y0005348D02*
G01X0002380Y0005386D01*
G01X0002380Y0005386D02*
G01X0002380Y0005433D01*
G01X0002380Y0005433D02*
G01X0002370Y0005470D01*
G01X0002370Y0005470D02*
G01X0002361Y0005489D01*
G01X0002361Y0005489D02*
G01X0002352Y0005498D01*
G01X0002352Y0005498D02*
G01X0002333Y0005508D01*
G01X0002145Y0005508D02*
G01X0002127Y0005508D01*
G01X0002127Y0005508D02*
G01X0002108Y0005498D01*
G01X0002108Y0005498D02*
G01X0002098Y0005489D01*
G01X0002098Y0005489D02*
G01X0002089Y0005470D01*
G01X0002089Y0005470D02*
G01X0002080Y0005433D01*
G01X0002080Y0005433D02*
G01X0002080Y0005386D01*
G01X0002080Y0005386D02*
G01X0002089Y0005348D01*
G01X0002089Y0005348D02*
G01X0002098Y0005330D01*
G01X0002098Y0005330D02*
G01X0002108Y0005320D01*
G01X0002108Y0005320D02*
G01X0002127Y0005311D01*
G01X0002127Y0005311D02*
G01X0002145Y0005311D01*
G01X0002145Y0005311D02*
G01X0002164Y0005320D01*
G01X0002164Y0005320D02*
G01X0002173Y0005330D01*
G01X0002173Y0005330D02*
G01X0002183Y0005348D01*
G01X0002183Y0005348D02*
G01X0002192Y0005386D01*
G01X0002192Y0005386D02*
G01X0002192Y0005433D01*
G01X0002192Y0005433D02*
G01X0002183Y0005470D01*
G01X0002183Y0005470D02*
G01X0002173Y0005489D01*
G01X0002173Y0005489D02*
G01X0002164Y0005498D01*
G01X0002164Y0005498D02*
G01X0002145Y0005508D01*
G01X0001995Y0005442D02*
G01X0001995Y0005311D01*
G01X0001995Y0005423D02*
G01X0001986Y0005433D01*
G01X0001986Y0005433D02*
G01X0001967Y0005442D01*
G01X0001967Y0005442D02*
G01X0001939Y0005442D01*
G01X0001939Y0005442D02*
G01X0001920Y0005433D01*
G01X0001920Y0005433D02*
G01X0001911Y0005414D01*
G01X0001911Y0005414D02*
G01X0001911Y0005311D01*
G01X0001751Y0005414D02*
G01X0001817Y0005414D01*
G01X0001817Y0005311D02*
G01X0001817Y0005508D01*
G01X0001817Y0005508D02*
G01X0001723Y0005508D01*
M02*
