G04 This is an RS-274x file exported by *
G04 gerbv version 2.6.1 *
G04 More information is available about gerbv at *
G04 http://gerbv.geda-project.org/ *
G04 --End of header info--*
%MOIN*%
%FSLAX34Y34*%
%IPPOS*%
G04 --Define apertures--*
%ADD10C,0.0118*%
%ADD11R,0.0600X0.0600*%
%ADD12C,0.2362*%
%ADD13R,0.1500X0.1500*%
%ADD14C,0.0350*%
%ADD15C,0.0197*%
%ADD16C,0.0157*%
%ADD17C,0.0100*%
G04 --Start main section--*
G54D11*
G01X0001500Y0006100D03*
G01X0002500Y0006100D03*
G01X0001500Y0005100D03*
G01X0002500Y0005100D03*
G01X0001500Y0004100D03*
G01X0002500Y0004100D03*
G01X0008900Y0008300D03*
G01X0007900Y0008300D03*
G01X0010400Y0010600D03*
G01X0009400Y0010600D03*
G01X0010400Y0011600D03*
G01X0009400Y0011600D03*
G01X0008000Y0014475D03*
G01X0008000Y0013475D03*
G01X0007000Y0014475D03*
G01X0007000Y0013475D03*
G01X0006000Y0014475D03*
G01X0006000Y0013475D03*
G01X0005000Y0014475D03*
G01X0005000Y0013475D03*
G01X0004000Y0014475D03*
G01X0004000Y0013475D03*
G54D12*
G01X0002000Y0014000D03*
G01X0010000Y0002000D03*
G01X0010000Y0014000D03*
G01X0002000Y0002000D03*
G54D13*
G01X0007200Y0002131D03*
G01X0007200Y0004100D03*
G01X0005200Y0002131D03*
G01X0005200Y0004100D03*
G54D11*
G01X0001525Y0009750D03*
G01X0001525Y0010750D03*
G01X0001525Y0011750D03*
G01X0008400Y0010600D03*
G01X0008400Y0011600D03*
G54D14*
G01X0003054Y0012327D03*
G01X0006200Y0009125D03*
G01X0006950Y0010900D03*
G01X0008032Y0009465D03*
G54D15*
G01X0010400Y0012097D02*
G01X0010400Y0011600D01*
G01X0010400Y0012097D02*
G01X0010247Y0012250D01*
G01X0006728Y0012250D02*
G01X0006460Y0012518D01*
G01X0010247Y0012250D02*
G01X0006728Y0012250D01*
G01X0006000Y0012978D02*
G01X0006460Y0012518D01*
G01X0006000Y0013475D02*
G01X0006000Y0012978D01*
G01X0006000Y0012978D02*
G01X0005349Y0012327D01*
G01X0004944Y0012327D02*
G01X0003054Y0012327D01*
G01X0005349Y0012327D02*
G01X0004944Y0012327D01*
G54D10*
G01X0006200Y0009125D02*
G01X0007493Y0009125D01*
G01X0007493Y0009125D02*
G01X0007900Y0008718D01*
G01X0007900Y0008718D02*
G01X0007900Y0008300D01*
G01X0009400Y0010600D02*
G01X0009400Y0011018D01*
G01X0009400Y0011018D02*
G01X0009380Y0011038D01*
G01X0009380Y0011038D02*
G01X0007088Y0011038D01*
G01X0007088Y0011038D02*
G01X0006950Y0010900D01*
G54D16*
G01X0001525Y0010750D02*
G01X0001982Y0010750D01*
G01X0001982Y0010750D02*
G01X0002290Y0010443D01*
G01X0002290Y0010443D02*
G01X0003345Y0010443D01*
G01X0003345Y0010443D02*
G01X0007055Y0010443D01*
G01X0007055Y0010443D02*
G01X0008032Y0009465D01*
G54D17*
G36*
G01X0011630Y0000370D02*
G01X0010955Y0000370D01*
G01X0010955Y0010300D01*
G01X0010955Y0010900D01*
G01X0010936Y0010995D01*
G01X0010881Y0011079D01*
G01X0010851Y0011100D01*
G01X0010879Y0011119D01*
G01X0010935Y0011202D01*
G01X0010955Y0011300D01*
G01X0010955Y0011900D01*
G01X0010936Y0011995D01*
G01X0010881Y0012079D01*
G01X0010798Y0012135D01*
G01X0010738Y0012147D01*
G01X0010722Y0012230D01*
G01X0010646Y0012343D01*
G01X0010646Y0012343D01*
G01X0010493Y0012496D01*
G01X0010380Y0012572D01*
G01X0010358Y0012576D01*
G01X0010247Y0012598D01*
G01X0010247Y0012598D01*
G01X0006872Y0012598D01*
G01X0006707Y0012764D01*
G01X0006707Y0012764D01*
G01X0006478Y0012993D01*
G01X0006479Y0012994D01*
G01X0006500Y0013024D01*
G01X0006519Y0012996D01*
G01X0006602Y0012940D01*
G01X0006700Y0012920D01*
G01X0007300Y0012920D01*
G01X0007395Y0012939D01*
G01X0007479Y0012994D01*
G01X0007535Y0013077D01*
G01X0007555Y0013175D01*
G01X0007555Y0013775D01*
G01X0007536Y0013870D01*
G01X0007481Y0013954D01*
G01X0007451Y0013975D01*
G01X0007479Y0013994D01*
G01X0007535Y0014077D01*
G01X0007555Y0014175D01*
G01X0007555Y0014775D01*
G01X0007536Y0014870D01*
G01X0007481Y0014954D01*
G01X0007398Y0015010D01*
G01X0007300Y0015030D01*
G01X0006700Y0015030D01*
G01X0006605Y0015011D01*
G01X0006521Y0014956D01*
G01X0006500Y0014926D01*
G01X0006481Y0014954D01*
G01X0006398Y0015010D01*
G01X0006300Y0015030D01*
G01X0005700Y0015030D01*
G01X0005605Y0015011D01*
G01X0005521Y0014956D01*
G01X0005500Y0014926D01*
G01X0005481Y0014954D01*
G01X0005398Y0015010D01*
G01X0005300Y0015030D01*
G01X0004700Y0015030D01*
G01X0004605Y0015011D01*
G01X0004521Y0014956D01*
G01X0004465Y0014873D01*
G01X0004445Y0014775D01*
G01X0004445Y0014175D01*
G01X0004464Y0014080D01*
G01X0004519Y0013996D01*
G01X0004549Y0013975D01*
G01X0004521Y0013956D01*
G01X0004465Y0013873D01*
G01X0004445Y0013775D01*
G01X0004445Y0013175D01*
G01X0004464Y0013080D01*
G01X0004519Y0012996D01*
G01X0004602Y0012940D01*
G01X0004700Y0012920D01*
G01X0005300Y0012920D01*
G01X0005395Y0012939D01*
G01X0005479Y0012994D01*
G01X0005500Y0013024D01*
G01X0005519Y0012996D01*
G01X0005522Y0012993D01*
G01X0005204Y0012675D01*
G01X0004944Y0012675D01*
G01X0003307Y0012675D01*
G01X0003295Y0012687D01*
G01X0003139Y0012752D01*
G01X0002970Y0012752D01*
G01X0002814Y0012687D01*
G01X0002694Y0012568D01*
G01X0002629Y0012412D01*
G01X0002629Y0012243D01*
G01X0002694Y0012086D01*
G01X0002813Y0011967D01*
G01X0002969Y0011902D01*
G01X0003138Y0011902D01*
G01X0003295Y0011966D01*
G01X0003307Y0011978D01*
G01X0004944Y0011978D01*
G01X0005349Y0011978D01*
G01X0005349Y0011978D01*
G01X0005349Y0011978D01*
G01X0005460Y0012000D01*
G01X0005482Y0012005D01*
G01X0005482Y0012005D01*
G01X0005595Y0012080D01*
G01X0006000Y0012485D01*
G01X0006214Y0012271D01*
G01X0006214Y0012271D01*
G01X0006482Y0012004D01*
G01X0006482Y0012004D01*
G01X0006482Y0012004D01*
G01X0006557Y0011953D01*
G01X0006595Y0011928D01*
G01X0006595Y0011928D01*
G01X0006728Y0011902D01*
G01X0006728Y0011902D01*
G01X0006728Y0011902D01*
G01X0008845Y0011902D01*
G01X0008845Y0011900D01*
G01X0008845Y0011347D01*
G01X0007088Y0011347D01*
G01X0006978Y0011325D01*
G01X0006978Y0011325D01*
G01X0006866Y0011325D01*
G01X0006710Y0011261D01*
G01X0006590Y0011141D01*
G01X0006525Y0010985D01*
G01X0006525Y0010816D01*
G01X0006543Y0010771D01*
G01X0003345Y0010771D01*
G01X0002426Y0010771D01*
G01X0002215Y0010982D01*
G01X0002108Y0011054D01*
G01X0002078Y0011060D01*
G01X0002061Y0011145D01*
G01X0002006Y0011229D01*
G01X0001976Y0011250D01*
G01X0002004Y0011269D01*
G01X0002060Y0011352D01*
G01X0002080Y0011450D01*
G01X0002080Y0012050D01*
G01X0002061Y0012145D01*
G01X0002006Y0012229D01*
G01X0001923Y0012285D01*
G01X0001825Y0012305D01*
G01X0001225Y0012305D01*
G01X0001130Y0012286D01*
G01X0001046Y0012231D01*
G01X0000990Y0012148D01*
G01X0000970Y0012050D01*
G01X0000970Y0011450D01*
G01X0000989Y0011355D01*
G01X0001044Y0011271D01*
G01X0001074Y0011250D01*
G01X0001046Y0011231D01*
G01X0000990Y0011148D01*
G01X0000970Y0011050D01*
G01X0000970Y0010450D01*
G01X0000989Y0010355D01*
G01X0001044Y0010271D01*
G01X0001074Y0010250D01*
G01X0001046Y0010231D01*
G01X0000990Y0010148D01*
G01X0000970Y0010050D01*
G01X0000970Y0009450D01*
G01X0000989Y0009355D01*
G01X0001044Y0009271D01*
G01X0001127Y0009215D01*
G01X0001225Y0009195D01*
G01X0001825Y0009195D01*
G01X0001920Y0009214D01*
G01X0002004Y0009269D01*
G01X0002060Y0009352D01*
G01X0002080Y0009450D01*
G01X0002080Y0010050D01*
G01X0002061Y0010145D01*
G01X0002006Y0010229D01*
G01X0001976Y0010250D01*
G01X0002001Y0010267D01*
G01X0002058Y0010210D01*
G01X0002164Y0010139D01*
G01X0002164Y0010139D01*
G01X0002290Y0010114D01*
G01X0003345Y0010114D01*
G01X0006919Y0010114D01*
G01X0007607Y0009425D01*
G01X0007607Y0009411D01*
G01X0007493Y0009434D01*
G01X0006492Y0009434D01*
G01X0006441Y0009485D01*
G01X0006285Y0009550D01*
G01X0006116Y0009550D01*
G01X0005960Y0009486D01*
G01X0005840Y0009366D01*
G01X0005775Y0009210D01*
G01X0005775Y0009041D01*
G01X0005839Y0008885D01*
G01X0005959Y0008765D01*
G01X0006115Y0008700D01*
G01X0006284Y0008700D01*
G01X0006440Y0008764D01*
G01X0006492Y0008816D01*
G01X0007365Y0008816D01*
G01X0007412Y0008769D01*
G01X0007365Y0008698D01*
G01X0007345Y0008600D01*
G01X0007345Y0008000D01*
G01X0007364Y0007905D01*
G01X0007419Y0007821D01*
G01X0007502Y0007765D01*
G01X0007600Y0007745D01*
G01X0008200Y0007745D01*
G01X0008295Y0007764D01*
G01X0008379Y0007819D01*
G01X0008435Y0007902D01*
G01X0008455Y0008000D01*
G01X0008455Y0008600D01*
G01X0008436Y0008695D01*
G01X0008381Y0008779D01*
G01X0008298Y0008835D01*
G01X0008200Y0008855D01*
G01X0008173Y0008855D01*
G01X0008119Y0008937D01*
G01X0008015Y0009040D01*
G01X0008117Y0009040D01*
G01X0008273Y0009105D01*
G01X0008392Y0009224D01*
G01X0008457Y0009380D01*
G01X0008457Y0009549D01*
G01X0008393Y0009706D01*
G01X0008273Y0009825D01*
G01X0008117Y0009890D01*
G01X0008072Y0009890D01*
G01X0007307Y0010656D01*
G01X0007310Y0010659D01*
G01X0007339Y0010729D01*
G01X0008845Y0010729D01*
G01X0008845Y0010300D01*
G01X0008864Y0010205D01*
G01X0008919Y0010121D01*
G01X0009002Y0010065D01*
G01X0009100Y0010045D01*
G01X0009700Y0010045D01*
G01X0009795Y0010064D01*
G01X0009879Y0010119D01*
G01X0009900Y0010149D01*
G01X0009919Y0010121D01*
G01X0010002Y0010065D01*
G01X0010100Y0010045D01*
G01X0010700Y0010045D01*
G01X0010795Y0010064D01*
G01X0010879Y0010119D01*
G01X0010935Y0010202D01*
G01X0010955Y0010300D01*
G01X0010955Y0000370D01*
G01X0008205Y0000370D01*
G01X0008205Y0001381D01*
G01X0008205Y0002881D01*
G01X0008186Y0002977D01*
G01X0008131Y0003061D01*
G01X0008049Y0003116D01*
G01X0008129Y0003169D01*
G01X0008185Y0003252D01*
G01X0008205Y0003350D01*
G01X0008205Y0004850D01*
G01X0008186Y0004945D01*
G01X0008131Y0005029D01*
G01X0008048Y0005085D01*
G01X0007950Y0005105D01*
G01X0006450Y0005105D01*
G01X0006355Y0005086D01*
G01X0006271Y0005031D01*
G01X0006215Y0004948D01*
G01X0006200Y0004875D01*
G01X0006186Y0004945D01*
G01X0006131Y0005029D01*
G01X0006048Y0005085D01*
G01X0005950Y0005105D01*
G01X0004450Y0005105D01*
G01X0004355Y0005086D01*
G01X0004271Y0005031D01*
G01X0004215Y0004948D01*
G01X0004195Y0004850D01*
G01X0004195Y0003350D01*
G01X0004214Y0003255D01*
G01X0004269Y0003171D01*
G01X0004351Y0003115D01*
G01X0004271Y0003063D01*
G01X0004215Y0002980D01*
G01X0004195Y0002881D01*
G01X0004195Y0001381D01*
G01X0004214Y0001286D01*
G01X0004269Y0001202D01*
G01X0004352Y0001146D01*
G01X0004450Y0001127D01*
G01X0005950Y0001127D01*
G01X0006045Y0001145D01*
G01X0006129Y0001200D01*
G01X0006185Y0001283D01*
G01X0006200Y0001357D01*
G01X0006214Y0001286D01*
G01X0006269Y0001202D01*
G01X0006352Y0001146D01*
G01X0006450Y0001127D01*
G01X0007950Y0001127D01*
G01X0008045Y0001145D01*
G01X0008129Y0001200D01*
G01X0008185Y0001283D01*
G01X0008205Y0001381D01*
G01X0008205Y0000370D01*
G01X0003055Y0000370D01*
G01X0003055Y0004800D01*
G01X0003055Y0005400D01*
G01X0003036Y0005495D01*
G01X0002981Y0005579D01*
G01X0002898Y0005635D01*
G01X0002800Y0005655D01*
G01X0002200Y0005655D01*
G01X0002105Y0005636D01*
G01X0002021Y0005581D01*
G01X0002000Y0005551D01*
G01X0001981Y0005579D01*
G01X0001898Y0005635D01*
G01X0001800Y0005655D01*
G01X0001200Y0005655D01*
G01X0001105Y0005636D01*
G01X0001021Y0005581D01*
G01X0000965Y0005498D01*
G01X0000945Y0005400D01*
G01X0000945Y0004800D01*
G01X0000964Y0004705D01*
G01X0001019Y0004621D01*
G01X0001102Y0004565D01*
G01X0001200Y0004545D01*
G01X0001800Y0004545D01*
G01X0001895Y0004564D01*
G01X0001979Y0004619D01*
G01X0002000Y0004649D01*
G01X0002019Y0004621D01*
G01X0002102Y0004565D01*
G01X0002200Y0004545D01*
G01X0002800Y0004545D01*
G01X0002895Y0004564D01*
G01X0002979Y0004619D01*
G01X0003035Y0004702D01*
G01X0003055Y0004800D01*
G01X0003055Y0000370D01*
G01X0000370Y0000370D01*
G01X0000370Y0015630D01*
G01X0011630Y0015630D01*
G01X0011630Y0000370D01*
G01X0011630Y0000370D01*
G37*
G01X0011630Y0000370D02*
G01X0010955Y0000370D01*
G01X0010955Y0000370D02*
G01X0010955Y0010300D01*
G01X0010955Y0010300D02*
G01X0010955Y0010900D01*
G01X0010955Y0010900D02*
G01X0010936Y0010995D01*
G01X0010936Y0010995D02*
G01X0010881Y0011079D01*
G01X0010881Y0011079D02*
G01X0010851Y0011100D01*
G01X0010851Y0011100D02*
G01X0010879Y0011119D01*
G01X0010879Y0011119D02*
G01X0010935Y0011202D01*
G01X0010935Y0011202D02*
G01X0010955Y0011300D01*
G01X0010955Y0011300D02*
G01X0010955Y0011900D01*
G01X0010955Y0011900D02*
G01X0010936Y0011995D01*
G01X0010936Y0011995D02*
G01X0010881Y0012079D01*
G01X0010881Y0012079D02*
G01X0010798Y0012135D01*
G01X0010798Y0012135D02*
G01X0010738Y0012147D01*
G01X0010738Y0012147D02*
G01X0010722Y0012230D01*
G01X0010722Y0012230D02*
G01X0010646Y0012343D01*
G01X0010646Y0012343D02*
G01X0010646Y0012343D01*
G01X0010646Y0012343D02*
G01X0010493Y0012496D01*
G01X0010493Y0012496D02*
G01X0010380Y0012572D01*
G01X0010380Y0012572D02*
G01X0010358Y0012576D01*
G01X0010358Y0012576D02*
G01X0010247Y0012598D01*
G01X0010247Y0012598D02*
G01X0010247Y0012598D01*
G01X0010247Y0012598D02*
G01X0006872Y0012598D01*
G01X0006872Y0012598D02*
G01X0006707Y0012764D01*
G01X0006707Y0012764D02*
G01X0006707Y0012764D01*
G01X0006707Y0012764D02*
G01X0006478Y0012993D01*
G01X0006478Y0012993D02*
G01X0006479Y0012994D01*
G01X0006479Y0012994D02*
G01X0006500Y0013024D01*
G01X0006500Y0013024D02*
G01X0006519Y0012996D01*
G01X0006519Y0012996D02*
G01X0006602Y0012940D01*
G01X0006602Y0012940D02*
G01X0006700Y0012920D01*
G01X0006700Y0012920D02*
G01X0007300Y0012920D01*
G01X0007300Y0012920D02*
G01X0007395Y0012939D01*
G01X0007395Y0012939D02*
G01X0007479Y0012994D01*
G01X0007479Y0012994D02*
G01X0007535Y0013077D01*
G01X0007535Y0013077D02*
G01X0007555Y0013175D01*
G01X0007555Y0013175D02*
G01X0007555Y0013775D01*
G01X0007555Y0013775D02*
G01X0007536Y0013870D01*
G01X0007536Y0013870D02*
G01X0007481Y0013954D01*
G01X0007481Y0013954D02*
G01X0007451Y0013975D01*
G01X0007451Y0013975D02*
G01X0007479Y0013994D01*
G01X0007479Y0013994D02*
G01X0007535Y0014077D01*
G01X0007535Y0014077D02*
G01X0007555Y0014175D01*
G01X0007555Y0014175D02*
G01X0007555Y0014775D01*
G01X0007555Y0014775D02*
G01X0007536Y0014870D01*
G01X0007536Y0014870D02*
G01X0007481Y0014954D01*
G01X0007481Y0014954D02*
G01X0007398Y0015010D01*
G01X0007398Y0015010D02*
G01X0007300Y0015030D01*
G01X0007300Y0015030D02*
G01X0006700Y0015030D01*
G01X0006700Y0015030D02*
G01X0006605Y0015011D01*
G01X0006605Y0015011D02*
G01X0006521Y0014956D01*
G01X0006521Y0014956D02*
G01X0006500Y0014926D01*
G01X0006500Y0014926D02*
G01X0006481Y0014954D01*
G01X0006481Y0014954D02*
G01X0006398Y0015010D01*
G01X0006398Y0015010D02*
G01X0006300Y0015030D01*
G01X0006300Y0015030D02*
G01X0005700Y0015030D01*
G01X0005700Y0015030D02*
G01X0005605Y0015011D01*
G01X0005605Y0015011D02*
G01X0005521Y0014956D01*
G01X0005521Y0014956D02*
G01X0005500Y0014926D01*
G01X0005500Y0014926D02*
G01X0005481Y0014954D01*
G01X0005481Y0014954D02*
G01X0005398Y0015010D01*
G01X0005398Y0015010D02*
G01X0005300Y0015030D01*
G01X0005300Y0015030D02*
G01X0004700Y0015030D01*
G01X0004700Y0015030D02*
G01X0004605Y0015011D01*
G01X0004605Y0015011D02*
G01X0004521Y0014956D01*
G01X0004521Y0014956D02*
G01X0004465Y0014873D01*
G01X0004465Y0014873D02*
G01X0004445Y0014775D01*
G01X0004445Y0014775D02*
G01X0004445Y0014175D01*
G01X0004445Y0014175D02*
G01X0004464Y0014080D01*
G01X0004464Y0014080D02*
G01X0004519Y0013996D01*
G01X0004519Y0013996D02*
G01X0004549Y0013975D01*
G01X0004549Y0013975D02*
G01X0004521Y0013956D01*
G01X0004521Y0013956D02*
G01X0004465Y0013873D01*
G01X0004465Y0013873D02*
G01X0004445Y0013775D01*
G01X0004445Y0013775D02*
G01X0004445Y0013175D01*
G01X0004445Y0013175D02*
G01X0004464Y0013080D01*
G01X0004464Y0013080D02*
G01X0004519Y0012996D01*
G01X0004519Y0012996D02*
G01X0004602Y0012940D01*
G01X0004602Y0012940D02*
G01X0004700Y0012920D01*
G01X0004700Y0012920D02*
G01X0005300Y0012920D01*
G01X0005300Y0012920D02*
G01X0005395Y0012939D01*
G01X0005395Y0012939D02*
G01X0005479Y0012994D01*
G01X0005479Y0012994D02*
G01X0005500Y0013024D01*
G01X0005500Y0013024D02*
G01X0005519Y0012996D01*
G01X0005519Y0012996D02*
G01X0005522Y0012993D01*
G01X0005522Y0012993D02*
G01X0005204Y0012675D01*
G01X0005204Y0012675D02*
G01X0004944Y0012675D01*
G01X0004944Y0012675D02*
G01X0003307Y0012675D01*
G01X0003307Y0012675D02*
G01X0003295Y0012687D01*
G01X0003295Y0012687D02*
G01X0003139Y0012752D01*
G01X0003139Y0012752D02*
G01X0002970Y0012752D01*
G01X0002970Y0012752D02*
G01X0002814Y0012687D01*
G01X0002814Y0012687D02*
G01X0002694Y0012568D01*
G01X0002694Y0012568D02*
G01X0002629Y0012412D01*
G01X0002629Y0012412D02*
G01X0002629Y0012243D01*
G01X0002629Y0012243D02*
G01X0002694Y0012086D01*
G01X0002694Y0012086D02*
G01X0002813Y0011967D01*
G01X0002813Y0011967D02*
G01X0002969Y0011902D01*
G01X0002969Y0011902D02*
G01X0003138Y0011902D01*
G01X0003138Y0011902D02*
G01X0003295Y0011966D01*
G01X0003295Y0011966D02*
G01X0003307Y0011978D01*
G01X0003307Y0011978D02*
G01X0004944Y0011978D01*
G01X0004944Y0011978D02*
G01X0005349Y0011978D01*
G01X0005349Y0011978D02*
G01X0005349Y0011978D01*
G01X0005349Y0011978D02*
G01X0005349Y0011978D01*
G01X0005349Y0011978D02*
G01X0005460Y0012000D01*
G01X0005460Y0012000D02*
G01X0005482Y0012005D01*
G01X0005482Y0012005D02*
G01X0005482Y0012005D01*
G01X0005482Y0012005D02*
G01X0005595Y0012080D01*
G01X0005595Y0012080D02*
G01X0006000Y0012485D01*
G01X0006000Y0012485D02*
G01X0006214Y0012271D01*
G01X0006214Y0012271D02*
G01X0006214Y0012271D01*
G01X0006214Y0012271D02*
G01X0006482Y0012004D01*
G01X0006482Y0012004D02*
G01X0006482Y0012004D01*
G01X0006482Y0012004D02*
G01X0006482Y0012004D01*
G01X0006482Y0012004D02*
G01X0006557Y0011953D01*
G01X0006557Y0011953D02*
G01X0006595Y0011928D01*
G01X0006595Y0011928D02*
G01X0006595Y0011928D01*
G01X0006595Y0011928D02*
G01X0006728Y0011902D01*
G01X0006728Y0011902D02*
G01X0006728Y0011902D01*
G01X0006728Y0011902D02*
G01X0006728Y0011902D01*
G01X0006728Y0011902D02*
G01X0008845Y0011902D01*
G01X0008845Y0011902D02*
G01X0008845Y0011900D01*
G01X0008845Y0011900D02*
G01X0008845Y0011347D01*
G01X0008845Y0011347D02*
G01X0007088Y0011347D01*
G01X0007088Y0011347D02*
G01X0006978Y0011325D01*
G01X0006978Y0011325D02*
G01X0006978Y0011325D01*
G01X0006978Y0011325D02*
G01X0006866Y0011325D01*
G01X0006866Y0011325D02*
G01X0006710Y0011261D01*
G01X0006710Y0011261D02*
G01X0006590Y0011141D01*
G01X0006590Y0011141D02*
G01X0006525Y0010985D01*
G01X0006525Y0010985D02*
G01X0006525Y0010816D01*
G01X0006525Y0010816D02*
G01X0006543Y0010771D01*
G01X0006543Y0010771D02*
G01X0003345Y0010771D01*
G01X0003345Y0010771D02*
G01X0002426Y0010771D01*
G01X0002426Y0010771D02*
G01X0002215Y0010982D01*
G01X0002215Y0010982D02*
G01X0002108Y0011054D01*
G01X0002108Y0011054D02*
G01X0002078Y0011060D01*
G01X0002078Y0011060D02*
G01X0002061Y0011145D01*
G01X0002061Y0011145D02*
G01X0002006Y0011229D01*
G01X0002006Y0011229D02*
G01X0001976Y0011250D01*
G01X0001976Y0011250D02*
G01X0002004Y0011269D01*
G01X0002004Y0011269D02*
G01X0002060Y0011352D01*
G01X0002060Y0011352D02*
G01X0002080Y0011450D01*
G01X0002080Y0011450D02*
G01X0002080Y0012050D01*
G01X0002080Y0012050D02*
G01X0002061Y0012145D01*
G01X0002061Y0012145D02*
G01X0002006Y0012229D01*
G01X0002006Y0012229D02*
G01X0001923Y0012285D01*
G01X0001923Y0012285D02*
G01X0001825Y0012305D01*
G01X0001825Y0012305D02*
G01X0001225Y0012305D01*
G01X0001225Y0012305D02*
G01X0001130Y0012286D01*
G01X0001130Y0012286D02*
G01X0001046Y0012231D01*
G01X0001046Y0012231D02*
G01X0000990Y0012148D01*
G01X0000990Y0012148D02*
G01X0000970Y0012050D01*
G01X0000970Y0012050D02*
G01X0000970Y0011450D01*
G01X0000970Y0011450D02*
G01X0000989Y0011355D01*
G01X0000989Y0011355D02*
G01X0001044Y0011271D01*
G01X0001044Y0011271D02*
G01X0001074Y0011250D01*
G01X0001074Y0011250D02*
G01X0001046Y0011231D01*
G01X0001046Y0011231D02*
G01X0000990Y0011148D01*
G01X0000990Y0011148D02*
G01X0000970Y0011050D01*
G01X0000970Y0011050D02*
G01X0000970Y0010450D01*
G01X0000970Y0010450D02*
G01X0000989Y0010355D01*
G01X0000989Y0010355D02*
G01X0001044Y0010271D01*
G01X0001044Y0010271D02*
G01X0001074Y0010250D01*
G01X0001074Y0010250D02*
G01X0001046Y0010231D01*
G01X0001046Y0010231D02*
G01X0000990Y0010148D01*
G01X0000990Y0010148D02*
G01X0000970Y0010050D01*
G01X0000970Y0010050D02*
G01X0000970Y0009450D01*
G01X0000970Y0009450D02*
G01X0000989Y0009355D01*
G01X0000989Y0009355D02*
G01X0001044Y0009271D01*
G01X0001044Y0009271D02*
G01X0001127Y0009215D01*
G01X0001127Y0009215D02*
G01X0001225Y0009195D01*
G01X0001225Y0009195D02*
G01X0001825Y0009195D01*
G01X0001825Y0009195D02*
G01X0001920Y0009214D01*
G01X0001920Y0009214D02*
G01X0002004Y0009269D01*
G01X0002004Y0009269D02*
G01X0002060Y0009352D01*
G01X0002060Y0009352D02*
G01X0002080Y0009450D01*
G01X0002080Y0009450D02*
G01X0002080Y0010050D01*
G01X0002080Y0010050D02*
G01X0002061Y0010145D01*
G01X0002061Y0010145D02*
G01X0002006Y0010229D01*
G01X0002006Y0010229D02*
G01X0001976Y0010250D01*
G01X0001976Y0010250D02*
G01X0002001Y0010267D01*
G01X0002001Y0010267D02*
G01X0002058Y0010210D01*
G01X0002058Y0010210D02*
G01X0002164Y0010139D01*
G01X0002164Y0010139D02*
G01X0002164Y0010139D01*
G01X0002164Y0010139D02*
G01X0002290Y0010114D01*
G01X0002290Y0010114D02*
G01X0003345Y0010114D01*
G01X0003345Y0010114D02*
G01X0006919Y0010114D01*
G01X0006919Y0010114D02*
G01X0007607Y0009425D01*
G01X0007607Y0009425D02*
G01X0007607Y0009411D01*
G01X0007607Y0009411D02*
G01X0007493Y0009434D01*
G01X0007493Y0009434D02*
G01X0006492Y0009434D01*
G01X0006492Y0009434D02*
G01X0006441Y0009485D01*
G01X0006441Y0009485D02*
G01X0006285Y0009550D01*
G01X0006285Y0009550D02*
G01X0006116Y0009550D01*
G01X0006116Y0009550D02*
G01X0005960Y0009486D01*
G01X0005960Y0009486D02*
G01X0005840Y0009366D01*
G01X0005840Y0009366D02*
G01X0005775Y0009210D01*
G01X0005775Y0009210D02*
G01X0005775Y0009041D01*
G01X0005775Y0009041D02*
G01X0005839Y0008885D01*
G01X0005839Y0008885D02*
G01X0005959Y0008765D01*
G01X0005959Y0008765D02*
G01X0006115Y0008700D01*
G01X0006115Y0008700D02*
G01X0006284Y0008700D01*
G01X0006284Y0008700D02*
G01X0006440Y0008764D01*
G01X0006440Y0008764D02*
G01X0006492Y0008816D01*
G01X0006492Y0008816D02*
G01X0007365Y0008816D01*
G01X0007365Y0008816D02*
G01X0007412Y0008769D01*
G01X0007412Y0008769D02*
G01X0007365Y0008698D01*
G01X0007365Y0008698D02*
G01X0007345Y0008600D01*
G01X0007345Y0008600D02*
G01X0007345Y0008000D01*
G01X0007345Y0008000D02*
G01X0007364Y0007905D01*
G01X0007364Y0007905D02*
G01X0007419Y0007821D01*
G01X0007419Y0007821D02*
G01X0007502Y0007765D01*
G01X0007502Y0007765D02*
G01X0007600Y0007745D01*
G01X0007600Y0007745D02*
G01X0008200Y0007745D01*
G01X0008200Y0007745D02*
G01X0008295Y0007764D01*
G01X0008295Y0007764D02*
G01X0008379Y0007819D01*
G01X0008379Y0007819D02*
G01X0008435Y0007902D01*
G01X0008435Y0007902D02*
G01X0008455Y0008000D01*
G01X0008455Y0008000D02*
G01X0008455Y0008600D01*
G01X0008455Y0008600D02*
G01X0008436Y0008695D01*
G01X0008436Y0008695D02*
G01X0008381Y0008779D01*
G01X0008381Y0008779D02*
G01X0008298Y0008835D01*
G01X0008298Y0008835D02*
G01X0008200Y0008855D01*
G01X0008200Y0008855D02*
G01X0008173Y0008855D01*
G01X0008173Y0008855D02*
G01X0008119Y0008937D01*
G01X0008119Y0008937D02*
G01X0008015Y0009040D01*
G01X0008015Y0009040D02*
G01X0008117Y0009040D01*
G01X0008117Y0009040D02*
G01X0008273Y0009105D01*
G01X0008273Y0009105D02*
G01X0008392Y0009224D01*
G01X0008392Y0009224D02*
G01X0008457Y0009380D01*
G01X0008457Y0009380D02*
G01X0008457Y0009549D01*
G01X0008457Y0009549D02*
G01X0008393Y0009706D01*
G01X0008393Y0009706D02*
G01X0008273Y0009825D01*
G01X0008273Y0009825D02*
G01X0008117Y0009890D01*
G01X0008117Y0009890D02*
G01X0008072Y0009890D01*
G01X0008072Y0009890D02*
G01X0007307Y0010656D01*
G01X0007307Y0010656D02*
G01X0007310Y0010659D01*
G01X0007310Y0010659D02*
G01X0007339Y0010729D01*
G01X0007339Y0010729D02*
G01X0008845Y0010729D01*
G01X0008845Y0010729D02*
G01X0008845Y0010300D01*
G01X0008845Y0010300D02*
G01X0008864Y0010205D01*
G01X0008864Y0010205D02*
G01X0008919Y0010121D01*
G01X0008919Y0010121D02*
G01X0009002Y0010065D01*
G01X0009002Y0010065D02*
G01X0009100Y0010045D01*
G01X0009100Y0010045D02*
G01X0009700Y0010045D01*
G01X0009700Y0010045D02*
G01X0009795Y0010064D01*
G01X0009795Y0010064D02*
G01X0009879Y0010119D01*
G01X0009879Y0010119D02*
G01X0009900Y0010149D01*
G01X0009900Y0010149D02*
G01X0009919Y0010121D01*
G01X0009919Y0010121D02*
G01X0010002Y0010065D01*
G01X0010002Y0010065D02*
G01X0010100Y0010045D01*
G01X0010100Y0010045D02*
G01X0010700Y0010045D01*
G01X0010700Y0010045D02*
G01X0010795Y0010064D01*
G01X0010795Y0010064D02*
G01X0010879Y0010119D01*
G01X0010879Y0010119D02*
G01X0010935Y0010202D01*
G01X0010935Y0010202D02*
G01X0010955Y0010300D01*
G01X0010955Y0010300D02*
G01X0010955Y0000370D01*
G01X0010955Y0000370D02*
G01X0008205Y0000370D01*
G01X0008205Y0000370D02*
G01X0008205Y0001381D01*
G01X0008205Y0001381D02*
G01X0008205Y0002881D01*
G01X0008205Y0002881D02*
G01X0008186Y0002977D01*
G01X0008186Y0002977D02*
G01X0008131Y0003061D01*
G01X0008131Y0003061D02*
G01X0008049Y0003116D01*
G01X0008049Y0003116D02*
G01X0008129Y0003169D01*
G01X0008129Y0003169D02*
G01X0008185Y0003252D01*
G01X0008185Y0003252D02*
G01X0008205Y0003350D01*
G01X0008205Y0003350D02*
G01X0008205Y0004850D01*
G01X0008205Y0004850D02*
G01X0008186Y0004945D01*
G01X0008186Y0004945D02*
G01X0008131Y0005029D01*
G01X0008131Y0005029D02*
G01X0008048Y0005085D01*
G01X0008048Y0005085D02*
G01X0007950Y0005105D01*
G01X0007950Y0005105D02*
G01X0006450Y0005105D01*
G01X0006450Y0005105D02*
G01X0006355Y0005086D01*
G01X0006355Y0005086D02*
G01X0006271Y0005031D01*
G01X0006271Y0005031D02*
G01X0006215Y0004948D01*
G01X0006215Y0004948D02*
G01X0006200Y0004875D01*
G01X0006200Y0004875D02*
G01X0006186Y0004945D01*
G01X0006186Y0004945D02*
G01X0006131Y0005029D01*
G01X0006131Y0005029D02*
G01X0006048Y0005085D01*
G01X0006048Y0005085D02*
G01X0005950Y0005105D01*
G01X0005950Y0005105D02*
G01X0004450Y0005105D01*
G01X0004450Y0005105D02*
G01X0004355Y0005086D01*
G01X0004355Y0005086D02*
G01X0004271Y0005031D01*
G01X0004271Y0005031D02*
G01X0004215Y0004948D01*
G01X0004215Y0004948D02*
G01X0004195Y0004850D01*
G01X0004195Y0004850D02*
G01X0004195Y0003350D01*
G01X0004195Y0003350D02*
G01X0004214Y0003255D01*
G01X0004214Y0003255D02*
G01X0004269Y0003171D01*
G01X0004269Y0003171D02*
G01X0004351Y0003115D01*
G01X0004351Y0003115D02*
G01X0004271Y0003063D01*
G01X0004271Y0003063D02*
G01X0004215Y0002980D01*
G01X0004215Y0002980D02*
G01X0004195Y0002881D01*
G01X0004195Y0002881D02*
G01X0004195Y0001381D01*
G01X0004195Y0001381D02*
G01X0004214Y0001286D01*
G01X0004214Y0001286D02*
G01X0004269Y0001202D01*
G01X0004269Y0001202D02*
G01X0004352Y0001146D01*
G01X0004352Y0001146D02*
G01X0004450Y0001127D01*
G01X0004450Y0001127D02*
G01X0005950Y0001127D01*
G01X0005950Y0001127D02*
G01X0006045Y0001145D01*
G01X0006045Y0001145D02*
G01X0006129Y0001200D01*
G01X0006129Y0001200D02*
G01X0006185Y0001283D01*
G01X0006185Y0001283D02*
G01X0006200Y0001357D01*
G01X0006200Y0001357D02*
G01X0006214Y0001286D01*
G01X0006214Y0001286D02*
G01X0006269Y0001202D01*
G01X0006269Y0001202D02*
G01X0006352Y0001146D01*
G01X0006352Y0001146D02*
G01X0006450Y0001127D01*
G01X0006450Y0001127D02*
G01X0007950Y0001127D01*
G01X0007950Y0001127D02*
G01X0008045Y0001145D01*
G01X0008045Y0001145D02*
G01X0008129Y0001200D01*
G01X0008129Y0001200D02*
G01X0008185Y0001283D01*
G01X0008185Y0001283D02*
G01X0008205Y0001381D01*
G01X0008205Y0001381D02*
G01X0008205Y0000370D01*
G01X0008205Y0000370D02*
G01X0003055Y0000370D01*
G01X0003055Y0000370D02*
G01X0003055Y0004800D01*
G01X0003055Y0004800D02*
G01X0003055Y0005400D01*
G01X0003055Y0005400D02*
G01X0003036Y0005495D01*
G01X0003036Y0005495D02*
G01X0002981Y0005579D01*
G01X0002981Y0005579D02*
G01X0002898Y0005635D01*
G01X0002898Y0005635D02*
G01X0002800Y0005655D01*
G01X0002800Y0005655D02*
G01X0002200Y0005655D01*
G01X0002200Y0005655D02*
G01X0002105Y0005636D01*
G01X0002105Y0005636D02*
G01X0002021Y0005581D01*
G01X0002021Y0005581D02*
G01X0002000Y0005551D01*
G01X0002000Y0005551D02*
G01X0001981Y0005579D01*
G01X0001981Y0005579D02*
G01X0001898Y0005635D01*
G01X0001898Y0005635D02*
G01X0001800Y0005655D01*
G01X0001800Y0005655D02*
G01X0001200Y0005655D01*
G01X0001200Y0005655D02*
G01X0001105Y0005636D01*
G01X0001105Y0005636D02*
G01X0001021Y0005581D01*
G01X0001021Y0005581D02*
G01X0000965Y0005498D01*
G01X0000965Y0005498D02*
G01X0000945Y0005400D01*
G01X0000945Y0005400D02*
G01X0000945Y0004800D01*
G01X0000945Y0004800D02*
G01X0000964Y0004705D01*
G01X0000964Y0004705D02*
G01X0001019Y0004621D01*
G01X0001019Y0004621D02*
G01X0001102Y0004565D01*
G01X0001102Y0004565D02*
G01X0001200Y0004545D01*
G01X0001200Y0004545D02*
G01X0001800Y0004545D01*
G01X0001800Y0004545D02*
G01X0001895Y0004564D01*
G01X0001895Y0004564D02*
G01X0001979Y0004619D01*
G01X0001979Y0004619D02*
G01X0002000Y0004649D01*
G01X0002000Y0004649D02*
G01X0002019Y0004621D01*
G01X0002019Y0004621D02*
G01X0002102Y0004565D01*
G01X0002102Y0004565D02*
G01X0002200Y0004545D01*
G01X0002200Y0004545D02*
G01X0002800Y0004545D01*
G01X0002800Y0004545D02*
G01X0002895Y0004564D01*
G01X0002895Y0004564D02*
G01X0002979Y0004619D01*
G01X0002979Y0004619D02*
G01X0003035Y0004702D01*
G01X0003035Y0004702D02*
G01X0003055Y0004800D01*
G01X0003055Y0004800D02*
G01X0003055Y0000370D01*
G01X0003055Y0000370D02*
G01X0000370Y0000370D01*
G01X0000370Y0000370D02*
G01X0000370Y0015630D01*
G01X0000370Y0015630D02*
G01X0011630Y0015630D01*
G01X0011630Y0015630D02*
G01X0011630Y0000370D01*
M02*
