G04 This is an RS-274x file exported by *
G04 gerbv version 2.6.1 *
G04 More information is available about gerbv at *
G04 http://gerbv.geda-project.org/ *
G04 --End of header info--*
%MOIN*%
%FSLAX34Y34*%
%IPPOS*%
G04 --Define apertures--*
%ADD10C,0.0118*%
%ADD11R,0.0350X0.0550*%
%ADD12R,0.0550X0.0350*%
%ADD13R,0.0984X0.0709*%
%ADD14R,0.0512X0.0669*%
%ADD15R,0.0394X0.0315*%
%ADD16R,0.0600X0.0600*%
%ADD17C,0.2362*%
%ADD18R,0.1500X0.1500*%
%ADD19R,0.0118X0.0256*%
%ADD20R,0.0488X0.0305*%
G04 --Start main section--*
G54D11*
G01X0008975Y0006400D03*
G01X0008225Y0006400D03*
G01X0004175Y0006400D03*
G01X0003425Y0006400D03*
G54D12*
G01X0008500Y0009875D03*
G01X0008500Y0009125D03*
G01X0007500Y0009875D03*
G01X0007500Y0009125D03*
G54D13*
G01X0003987Y0008100D03*
G01X0002413Y0008100D03*
G54D14*
G01X0006889Y0007300D03*
G01X0005511Y0007300D03*
G01X0005511Y0008400D03*
G01X0006889Y0008400D03*
G54D15*
G01X0003383Y0011400D03*
G01X0002517Y0011775D03*
G01X0002517Y0011025D03*
G54D16*
G01X0001500Y0006100D03*
G01X0002500Y0006100D03*
G01X0001500Y0005100D03*
G01X0002500Y0005100D03*
G01X0001500Y0004100D03*
G01X0002500Y0004100D03*
G01X0008900Y0008300D03*
G01X0007900Y0008300D03*
G01X0010400Y0010600D03*
G01X0009400Y0010600D03*
G01X0010400Y0011600D03*
G01X0009400Y0011600D03*
G01X0008000Y0014475D03*
G01X0008000Y0013475D03*
G01X0007000Y0014475D03*
G01X0007000Y0013475D03*
G01X0006000Y0014475D03*
G01X0006000Y0013475D03*
G01X0005000Y0014475D03*
G01X0005000Y0013475D03*
G01X0004000Y0014475D03*
G01X0004000Y0013475D03*
G54D17*
G01X0002000Y0014000D03*
G01X0010000Y0002000D03*
G01X0010000Y0014000D03*
G01X0002000Y0002000D03*
G54D18*
G01X0007200Y0002131D03*
G01X0007200Y0004100D03*
G01X0005200Y0002131D03*
G01X0005200Y0004100D03*
G54D12*
G01X0007200Y0006375D03*
G01X0007200Y0005625D03*
G01X0005200Y0006375D03*
G01X0005200Y0005625D03*
G01X0002600Y0009975D03*
G01X0002600Y0009225D03*
G54D11*
G01X0006975Y0012200D03*
G01X0006225Y0012200D03*
G01X0004850Y0012200D03*
G01X0005600Y0012200D03*
G54D19*
G01X0006469Y0009690D03*
G01X0006272Y0009690D03*
G01X0006075Y0009690D03*
G01X0005878Y0009690D03*
G01X0005681Y0009690D03*
G01X0005681Y0010910D03*
G01X0005878Y0010910D03*
G01X0006075Y0010910D03*
G01X0006272Y0010910D03*
G01X0006469Y0010910D03*
G54D20*
G01X0005831Y0010453D03*
G01X0006319Y0010453D03*
G01X0005831Y0010147D03*
G01X0006319Y0010147D03*
G54D16*
G01X0001525Y0009750D03*
G01X0001525Y0010750D03*
G01X0001525Y0011750D03*
G01X0008400Y0010600D03*
G01X0008400Y0011600D03*
G54D12*
G01X0001200Y0007925D03*
G01X0001200Y0008675D03*
G54D11*
G01X0002325Y0007050D03*
G01X0001575Y0007050D03*
G01X0004125Y0009300D03*
G01X0003375Y0009300D03*
G54D12*
G01X0003700Y0003625D03*
G01X0003700Y0004375D03*
G01X0003700Y0010075D03*
G01X0003700Y0010825D03*
G54D11*
G01X0003425Y0005500D03*
G01X0004175Y0005500D03*
M02*
