M48
INCH,TZ
T10C0.025
T11C0.035
T12C0.051
T13C0.118
%
T10
X003054Y012327
X006200Y009125
X006950Y010900
X008032Y009465
T11
X001500Y006100
X001500Y005100
X001500Y004100
X001525Y011750
X001525Y010750
X001525Y009750
X002500Y006100
X002500Y005100
X002500Y004100
X004000Y014475
X004000Y013475
X005000Y014475
X005000Y013475
X006000Y014475
X006000Y013475
X007000Y014475
X007000Y013475
X007900Y008300
X008000Y014475
X008000Y013475
X008400Y011600
X008400Y010600
X008900Y008300
X009400Y011600
X009400Y010600
X010400Y011600
X010400Y010600
T12
X005200Y004100
X005200Y002131
X007200Y004100
X007200Y002131
T13
X002000Y014000
X002000Y002000
X010000Y014000
X010000Y002000
M30
