G04 This is an RS-274x file exported by *
G04 gerbv version 2.6.1 *
G04 More information is available about gerbv at *
G04 http://gerbv.geda-project.org/ *
G04 --End of header info--*
%MOIN*%
%FSLAX34Y34*%
%IPPOS*%
G04 --Define apertures--*
%ADD10C,0.0118*%
%ADD11C,0.0059*%
%ADD12C,0.0020*%
%ADD13C,0.0120*%
%ADD14R,0.0600X0.0600*%
%ADD15C,0.2362*%
%ADD16R,0.1500X0.1500*%
G04 --Start main section--*
G54D10*
G01X0007730Y0015675D02*
G01X0007674Y0015703D01*
G01X0007674Y0015703D02*
G01X0007589Y0015703D01*
G01X0007589Y0015703D02*
G01X0007505Y0015675D01*
G01X0007505Y0015675D02*
G01X0007449Y0015619D01*
G01X0007449Y0015619D02*
G01X0007421Y0015563D01*
G01X0007421Y0015563D02*
G01X0007393Y0015450D01*
G01X0007393Y0015450D02*
G01X0007393Y0015366D01*
G01X0007393Y0015366D02*
G01X0007421Y0015253D01*
G01X0007421Y0015253D02*
G01X0007449Y0015197D01*
G01X0007449Y0015197D02*
G01X0007505Y0015141D01*
G01X0007505Y0015141D02*
G01X0007589Y0015113D01*
G01X0007589Y0015113D02*
G01X0007646Y0015113D01*
G01X0007646Y0015113D02*
G01X0007730Y0015141D01*
G01X0007730Y0015141D02*
G01X0007758Y0015169D01*
G01X0007758Y0015169D02*
G01X0007758Y0015366D01*
G01X0007758Y0015366D02*
G01X0007646Y0015366D01*
G01X0008011Y0015113D02*
G01X0008011Y0015703D01*
G01X0008011Y0015703D02*
G01X0008349Y0015113D01*
G01X0008349Y0015113D02*
G01X0008349Y0015703D01*
G01X0008630Y0015113D02*
G01X0008630Y0015703D01*
G01X0008630Y0015703D02*
G01X0008771Y0015703D01*
G01X0008771Y0015703D02*
G01X0008855Y0015675D01*
G01X0008855Y0015675D02*
G01X0008911Y0015619D01*
G01X0008911Y0015619D02*
G01X0008939Y0015563D01*
G01X0008939Y0015563D02*
G01X0008967Y0015450D01*
G01X0008967Y0015450D02*
G01X0008967Y0015366D01*
G01X0008967Y0015366D02*
G01X0008939Y0015253D01*
G01X0008939Y0015253D02*
G01X0008911Y0015197D01*
G01X0008911Y0015197D02*
G01X0008855Y0015141D01*
G01X0008855Y0015141D02*
G01X0008771Y0015113D01*
G01X0008771Y0015113D02*
G01X0008630Y0015113D01*
G01X0001971Y0007502D02*
G01X0002252Y0007502D01*
G01X0001914Y0007333D02*
G01X0002111Y0007923D01*
G01X0002111Y0007923D02*
G01X0002308Y0007333D01*
G01X0002505Y0007333D02*
G01X0002505Y0007923D01*
G01X0002505Y0007923D02*
G01X0002646Y0007923D01*
G01X0002646Y0007923D02*
G01X0002730Y0007895D01*
G01X0002730Y0007895D02*
G01X0002786Y0007839D01*
G01X0002786Y0007839D02*
G01X0002814Y0007783D01*
G01X0002814Y0007783D02*
G01X0002842Y0007670D01*
G01X0002842Y0007670D02*
G01X0002842Y0007586D01*
G01X0002842Y0007586D02*
G01X0002814Y0007473D01*
G01X0002814Y0007473D02*
G01X0002786Y0007417D01*
G01X0002786Y0007417D02*
G01X0002730Y0007361D01*
G01X0002730Y0007361D02*
G01X0002646Y0007333D01*
G01X0002646Y0007333D02*
G01X0002505Y0007333D01*
G01X0003433Y0007333D02*
G01X0003236Y0007614D01*
G01X0003095Y0007333D02*
G01X0003095Y0007923D01*
G01X0003095Y0007923D02*
G01X0003320Y0007923D01*
G01X0003320Y0007923D02*
G01X0003377Y0007895D01*
G01X0003377Y0007895D02*
G01X0003405Y0007867D01*
G01X0003405Y0007867D02*
G01X0003433Y0007811D01*
G01X0003433Y0007811D02*
G01X0003433Y0007727D01*
G01X0003433Y0007727D02*
G01X0003405Y0007670D01*
G01X0003405Y0007670D02*
G01X0003377Y0007642D01*
G01X0003377Y0007642D02*
G01X0003320Y0007614D01*
G01X0003320Y0007614D02*
G01X0003095Y0007614D01*
G01X0003686Y0007389D02*
G01X0003714Y0007361D01*
G01X0003714Y0007361D02*
G01X0003686Y0007333D01*
G01X0003686Y0007333D02*
G01X0003658Y0007361D01*
G01X0003658Y0007361D02*
G01X0003686Y0007389D01*
G01X0003686Y0007389D02*
G01X0003686Y0007333D01*
G01X0004530Y0007923D02*
G01X0004586Y0007923D01*
G01X0004586Y0007923D02*
G01X0004642Y0007895D01*
G01X0004642Y0007895D02*
G01X0004670Y0007867D01*
G01X0004670Y0007867D02*
G01X0004698Y0007811D01*
G01X0004698Y0007811D02*
G01X0004726Y0007698D01*
G01X0004726Y0007698D02*
G01X0004726Y0007558D01*
G01X0004726Y0007558D02*
G01X0004698Y0007445D01*
G01X0004698Y0007445D02*
G01X0004670Y0007389D01*
G01X0004670Y0007389D02*
G01X0004642Y0007361D01*
G01X0004642Y0007361D02*
G01X0004586Y0007333D01*
G01X0004586Y0007333D02*
G01X0004530Y0007333D01*
G01X0004530Y0007333D02*
G01X0004473Y0007361D01*
G01X0004473Y0007361D02*
G01X0004445Y0007389D01*
G01X0004445Y0007389D02*
G01X0004417Y0007445D01*
G01X0004417Y0007445D02*
G01X0004389Y0007558D01*
G01X0004389Y0007558D02*
G01X0004389Y0007698D01*
G01X0004389Y0007698D02*
G01X0004417Y0007811D01*
G01X0004417Y0007811D02*
G01X0004445Y0007867D01*
G01X0004445Y0007867D02*
G01X0004473Y0007895D01*
G01X0004473Y0007895D02*
G01X0004530Y0007923D01*
G01X0004923Y0007333D02*
G01X0005233Y0007727D01*
G01X0004923Y0007727D02*
G01X0005233Y0007333D01*
G01X0005430Y0007867D02*
G01X0005458Y0007895D01*
G01X0005458Y0007895D02*
G01X0005514Y0007923D01*
G01X0005514Y0007923D02*
G01X0005654Y0007923D01*
G01X0005654Y0007923D02*
G01X0005711Y0007895D01*
G01X0005711Y0007895D02*
G01X0005739Y0007867D01*
G01X0005739Y0007867D02*
G01X0005767Y0007811D01*
G01X0005767Y0007811D02*
G01X0005767Y0007755D01*
G01X0005767Y0007755D02*
G01X0005739Y0007670D01*
G01X0005739Y0007670D02*
G01X0005401Y0007333D01*
G01X0005401Y0007333D02*
G01X0005767Y0007333D01*
G01X0006273Y0007727D02*
G01X0006273Y0007333D01*
G01X0006133Y0007952D02*
G01X0005992Y0007530D01*
G01X0005992Y0007530D02*
G01X0006358Y0007530D01*
G01X0007205Y0010650D02*
G01X0007177Y0010594D01*
G01X0007177Y0010594D02*
G01X0007177Y0010509D01*
G01X0007177Y0010509D02*
G01X0007205Y0010425D01*
G01X0007205Y0010425D02*
G01X0007261Y0010369D01*
G01X0007261Y0010369D02*
G01X0007317Y0010341D01*
G01X0007317Y0010341D02*
G01X0007430Y0010313D01*
G01X0007430Y0010313D02*
G01X0007514Y0010313D01*
G01X0007514Y0010313D02*
G01X0007627Y0010341D01*
G01X0007627Y0010341D02*
G01X0007683Y0010369D01*
G01X0007683Y0010369D02*
G01X0007739Y0010425D01*
G01X0007739Y0010425D02*
G01X0007767Y0010509D01*
G01X0007767Y0010509D02*
G01X0007767Y0010566D01*
G01X0007767Y0010566D02*
G01X0007739Y0010650D01*
G01X0007739Y0010650D02*
G01X0007711Y0010678D01*
G01X0007711Y0010678D02*
G01X0007514Y0010678D01*
G01X0007514Y0010678D02*
G01X0007514Y0010566D01*
G01X0007767Y0010931D02*
G01X0007177Y0010931D01*
G01X0007177Y0010931D02*
G01X0007767Y0011269D01*
G01X0007767Y0011269D02*
G01X0007177Y0011269D01*
G01X0007767Y0011550D02*
G01X0007177Y0011550D01*
G01X0007177Y0011550D02*
G01X0007177Y0011691D01*
G01X0007177Y0011691D02*
G01X0007205Y0011775D01*
G01X0007205Y0011775D02*
G01X0007261Y0011831D01*
G01X0007261Y0011831D02*
G01X0007317Y0011859D01*
G01X0007317Y0011859D02*
G01X0007430Y0011887D01*
G01X0007430Y0011887D02*
G01X0007514Y0011887D01*
G01X0007514Y0011887D02*
G01X0007627Y0011859D01*
G01X0007627Y0011859D02*
G01X0007683Y0011831D01*
G01X0007683Y0011831D02*
G01X0007739Y0011775D01*
G01X0007739Y0011775D02*
G01X0007767Y0011691D01*
G01X0007767Y0011691D02*
G01X0007767Y0011550D01*
G01X0000867Y0003736D02*
G01X0000277Y0003736D01*
G01X0000277Y0003736D02*
G01X0000277Y0003961D01*
G01X0000277Y0003961D02*
G01X0000305Y0004017D01*
G01X0000305Y0004017D02*
G01X0000333Y0004045D01*
G01X0000333Y0004045D02*
G01X0000389Y0004074D01*
G01X0000389Y0004074D02*
G01X0000473Y0004074D01*
G01X0000473Y0004074D02*
G01X0000530Y0004045D01*
G01X0000530Y0004045D02*
G01X0000558Y0004017D01*
G01X0000558Y0004017D02*
G01X0000586Y0003961D01*
G01X0000586Y0003961D02*
G01X0000586Y0003736D01*
G01X0000277Y0004439D02*
G01X0000277Y0004552D01*
G01X0000277Y0004552D02*
G01X0000305Y0004608D01*
G01X0000305Y0004608D02*
G01X0000361Y0004664D01*
G01X0000361Y0004664D02*
G01X0000473Y0004692D01*
G01X0000473Y0004692D02*
G01X0000670Y0004692D01*
G01X0000670Y0004692D02*
G01X0000783Y0004664D01*
G01X0000783Y0004664D02*
G01X0000839Y0004608D01*
G01X0000839Y0004608D02*
G01X0000867Y0004552D01*
G01X0000867Y0004552D02*
G01X0000867Y0004439D01*
G01X0000867Y0004439D02*
G01X0000839Y0004383D01*
G01X0000839Y0004383D02*
G01X0000783Y0004327D01*
G01X0000783Y0004327D02*
G01X0000670Y0004299D01*
G01X0000670Y0004299D02*
G01X0000473Y0004299D01*
G01X0000473Y0004299D02*
G01X0000361Y0004327D01*
G01X0000361Y0004327D02*
G01X0000305Y0004383D01*
G01X0000305Y0004383D02*
G01X0000277Y0004439D01*
G01X0000277Y0004889D02*
G01X0000867Y0005030D01*
G01X0000867Y0005030D02*
G01X0000445Y0005142D01*
G01X0000445Y0005142D02*
G01X0000867Y0005255D01*
G01X0000867Y0005255D02*
G01X0000277Y0005395D01*
G01X0000558Y0005620D02*
G01X0000558Y0005817D01*
G01X0000867Y0005901D02*
G01X0000867Y0005620D01*
G01X0000867Y0005620D02*
G01X0000277Y0005620D01*
G01X0000277Y0005620D02*
G01X0000277Y0005901D01*
G01X0000867Y0006492D02*
G01X0000586Y0006295D01*
G01X0000867Y0006155D02*
G01X0000277Y0006155D01*
G01X0000277Y0006155D02*
G01X0000277Y0006380D01*
G01X0000277Y0006380D02*
G01X0000305Y0006436D01*
G01X0000305Y0006436D02*
G01X0000333Y0006464D01*
G01X0000333Y0006464D02*
G01X0000389Y0006492D01*
G01X0000389Y0006492D02*
G01X0000473Y0006492D01*
G01X0000473Y0006492D02*
G01X0000530Y0006464D01*
G01X0000530Y0006464D02*
G01X0000558Y0006436D01*
G01X0000558Y0006436D02*
G01X0000586Y0006380D01*
G01X0000586Y0006380D02*
G01X0000586Y0006155D01*
G01X0010967Y0003464D02*
G01X0010377Y0003464D01*
G01X0010433Y0003717D02*
G01X0010405Y0003746D01*
G01X0010405Y0003746D02*
G01X0010377Y0003802D01*
G01X0010377Y0003802D02*
G01X0010377Y0003942D01*
G01X0010377Y0003942D02*
G01X0010405Y0003999D01*
G01X0010405Y0003999D02*
G01X0010433Y0004027D01*
G01X0010433Y0004027D02*
G01X0010489Y0004055D01*
G01X0010489Y0004055D02*
G01X0010545Y0004055D01*
G01X0010545Y0004055D02*
G01X0010630Y0004027D01*
G01X0010630Y0004027D02*
G01X0010967Y0003689D01*
G01X0010967Y0003689D02*
G01X0010967Y0004055D01*
G01X0010911Y0004645D02*
G01X0010939Y0004617D01*
G01X0010939Y0004617D02*
G01X0010967Y0004533D01*
G01X0010967Y0004533D02*
G01X0010967Y0004477D01*
G01X0010967Y0004477D02*
G01X0010939Y0004392D01*
G01X0010939Y0004392D02*
G01X0010883Y0004336D01*
G01X0010883Y0004336D02*
G01X0010827Y0004308D01*
G01X0010827Y0004308D02*
G01X0010714Y0004280D01*
G01X0010714Y0004280D02*
G01X0010630Y0004280D01*
G01X0010630Y0004280D02*
G01X0010517Y0004308D01*
G01X0010517Y0004308D02*
G01X0010461Y0004336D01*
G01X0010461Y0004336D02*
G01X0010405Y0004392D01*
G01X0010405Y0004392D02*
G01X0010377Y0004477D01*
G01X0010377Y0004477D02*
G01X0010377Y0004533D01*
G01X0010377Y0004533D02*
G01X0010405Y0004617D01*
G01X0010405Y0004617D02*
G01X0010433Y0004645D01*
G01X0010798Y0004870D02*
G01X0010798Y0005152D01*
G01X0010967Y0004814D02*
G01X0010377Y0005011D01*
G01X0010377Y0005011D02*
G01X0010967Y0005208D01*
G01X0010967Y0005405D02*
G01X0010377Y0005405D01*
G01X0010377Y0005405D02*
G01X0010377Y0005545D01*
G01X0010377Y0005545D02*
G01X0010405Y0005630D01*
G01X0010405Y0005630D02*
G01X0010461Y0005686D01*
G01X0010461Y0005686D02*
G01X0010517Y0005714D01*
G01X0010517Y0005714D02*
G01X0010630Y0005742D01*
G01X0010630Y0005742D02*
G01X0010714Y0005742D01*
G01X0010714Y0005742D02*
G01X0010827Y0005714D01*
G01X0010827Y0005714D02*
G01X0010883Y0005686D01*
G01X0010883Y0005686D02*
G01X0010939Y0005630D01*
G01X0010939Y0005630D02*
G01X0010967Y0005545D01*
G01X0010967Y0005545D02*
G01X0010967Y0005405D01*
G01X0010911Y0006333D02*
G01X0010939Y0006305D01*
G01X0010939Y0006305D02*
G01X0010967Y0006220D01*
G01X0010967Y0006220D02*
G01X0010967Y0006164D01*
G01X0010967Y0006164D02*
G01X0010939Y0006080D01*
G01X0010939Y0006080D02*
G01X0010883Y0006023D01*
G01X0010883Y0006023D02*
G01X0010827Y0005995D01*
G01X0010827Y0005995D02*
G01X0010714Y0005967D01*
G01X0010714Y0005967D02*
G01X0010630Y0005967D01*
G01X0010630Y0005967D02*
G01X0010517Y0005995D01*
G01X0010517Y0005995D02*
G01X0010461Y0006023D01*
G01X0010461Y0006023D02*
G01X0010405Y0006080D01*
G01X0010405Y0006080D02*
G01X0010377Y0006164D01*
G01X0010377Y0006164D02*
G01X0010377Y0006220D01*
G01X0010377Y0006220D02*
G01X0010405Y0006305D01*
G01X0010405Y0006305D02*
G01X0010433Y0006333D01*
G01X0010377Y0006698D02*
G01X0010377Y0006755D01*
G01X0010377Y0006755D02*
G01X0010405Y0006811D01*
G01X0010405Y0006811D02*
G01X0010433Y0006839D01*
G01X0010433Y0006839D02*
G01X0010489Y0006867D01*
G01X0010489Y0006867D02*
G01X0010602Y0006895D01*
G01X0010602Y0006895D02*
G01X0010742Y0006895D01*
G01X0010742Y0006895D02*
G01X0010855Y0006867D01*
G01X0010855Y0006867D02*
G01X0010911Y0006839D01*
G01X0010911Y0006839D02*
G01X0010939Y0006811D01*
G01X0010939Y0006811D02*
G01X0010967Y0006755D01*
G01X0010967Y0006755D02*
G01X0010967Y0006698D01*
G01X0010967Y0006698D02*
G01X0010939Y0006642D01*
G01X0010939Y0006642D02*
G01X0010911Y0006614D01*
G01X0010911Y0006614D02*
G01X0010855Y0006586D01*
G01X0010855Y0006586D02*
G01X0010742Y0006558D01*
G01X0010742Y0006558D02*
G01X0010602Y0006558D01*
G01X0010602Y0006558D02*
G01X0010489Y0006586D01*
G01X0010489Y0006586D02*
G01X0010433Y0006614D01*
G01X0010433Y0006614D02*
G01X0010405Y0006642D01*
G01X0010405Y0006642D02*
G01X0010377Y0006698D01*
G01X0010967Y0007458D02*
G01X0010967Y0007120D01*
G01X0010967Y0007289D02*
G01X0010377Y0007289D01*
G01X0010377Y0007289D02*
G01X0010461Y0007233D01*
G01X0010461Y0007233D02*
G01X0010517Y0007176D01*
G01X0010517Y0007176D02*
G01X0010545Y0007120D01*
G01X0010798Y0007683D02*
G01X0010798Y0007964D01*
G01X0010967Y0007626D02*
G01X0010377Y0007823D01*
G01X0010377Y0007823D02*
G01X0010967Y0008020D01*
G01X0010067Y0003999D02*
G01X0009477Y0003999D01*
G01X0009477Y0003999D02*
G01X0009898Y0004196D01*
G01X0009898Y0004196D02*
G01X0009477Y0004392D01*
G01X0009477Y0004392D02*
G01X0010067Y0004392D01*
G01X0010067Y0004955D02*
G01X0010067Y0004674D01*
G01X0010067Y0004674D02*
G01X0009477Y0004674D01*
G01X0009898Y0005124D02*
G01X0009898Y0005405D01*
G01X0010067Y0005067D02*
G01X0009477Y0005264D01*
G01X0009477Y0005264D02*
G01X0010067Y0005461D01*
G01X0009758Y0005855D02*
G01X0009786Y0005939D01*
G01X0009786Y0005939D02*
G01X0009814Y0005967D01*
G01X0009814Y0005967D02*
G01X0009870Y0005995D01*
G01X0009870Y0005995D02*
G01X0009955Y0005995D01*
G01X0009955Y0005995D02*
G01X0010011Y0005967D01*
G01X0010011Y0005967D02*
G01X0010039Y0005939D01*
G01X0010039Y0005939D02*
G01X0010067Y0005883D01*
G01X0010067Y0005883D02*
G01X0010067Y0005658D01*
G01X0010067Y0005658D02*
G01X0009477Y0005658D01*
G01X0009477Y0005658D02*
G01X0009477Y0005855D01*
G01X0009477Y0005855D02*
G01X0009505Y0005911D01*
G01X0009505Y0005911D02*
G01X0009533Y0005939D01*
G01X0009533Y0005939D02*
G01X0009589Y0005967D01*
G01X0009589Y0005967D02*
G01X0009645Y0005967D01*
G01X0009645Y0005967D02*
G01X0009702Y0005939D01*
G01X0009702Y0005939D02*
G01X0009730Y0005911D01*
G01X0009730Y0005911D02*
G01X0009758Y0005855D01*
G01X0009758Y0005855D02*
G01X0009758Y0005658D01*
G01X0010011Y0006248D02*
G01X0010039Y0006276D01*
G01X0010039Y0006276D02*
G01X0010067Y0006248D01*
G01X0010067Y0006248D02*
G01X0010039Y0006220D01*
G01X0010039Y0006220D02*
G01X0010011Y0006248D01*
G01X0010011Y0006248D02*
G01X0010067Y0006248D01*
G01X0010011Y0006867D02*
G01X0010039Y0006839D01*
G01X0010039Y0006839D02*
G01X0010067Y0006755D01*
G01X0010067Y0006755D02*
G01X0010067Y0006698D01*
G01X0010067Y0006698D02*
G01X0010039Y0006614D01*
G01X0010039Y0006614D02*
G01X0009983Y0006558D01*
G01X0009983Y0006558D02*
G01X0009927Y0006530D01*
G01X0009927Y0006530D02*
G01X0009814Y0006501D01*
G01X0009814Y0006501D02*
G01X0009730Y0006501D01*
G01X0009730Y0006501D02*
G01X0009617Y0006530D01*
G01X0009617Y0006530D02*
G01X0009561Y0006558D01*
G01X0009561Y0006558D02*
G01X0009505Y0006614D01*
G01X0009505Y0006614D02*
G01X0009477Y0006698D01*
G01X0009477Y0006698D02*
G01X0009477Y0006755D01*
G01X0009477Y0006755D02*
G01X0009505Y0006839D01*
G01X0009505Y0006839D02*
G01X0009533Y0006867D01*
G01X0009477Y0007064D02*
G01X0009477Y0007458D01*
G01X0009477Y0007458D02*
G01X0010067Y0007064D01*
G01X0010067Y0007064D02*
G01X0010067Y0007458D01*
G01X0008967Y0003341D02*
G01X0008377Y0003341D01*
G01X0008967Y0003622D02*
G01X0008377Y0003622D01*
G01X0008377Y0003622D02*
G01X0008967Y0003959D01*
G01X0008967Y0003959D02*
G01X0008377Y0003959D01*
G01X0008742Y0004240D02*
G01X0008742Y0004690D01*
G01X0008967Y0004465D02*
G01X0008517Y0004465D01*
G01X0003967Y0003341D02*
G01X0003377Y0003341D01*
G01X0003967Y0003622D02*
G01X0003377Y0003622D01*
G01X0003377Y0003622D02*
G01X0003967Y0003959D01*
G01X0003967Y0003959D02*
G01X0003377Y0003959D01*
G01X0003742Y0004240D02*
G01X0003742Y0004690D01*
G01X0000713Y0009023D02*
G01X0000909Y0008433D01*
G01X0000909Y0008433D02*
G01X0001106Y0009023D01*
G01X0001641Y0008489D02*
G01X0001612Y0008461D01*
G01X0001612Y0008461D02*
G01X0001528Y0008433D01*
G01X0001528Y0008433D02*
G01X0001472Y0008433D01*
G01X0001472Y0008433D02*
G01X0001388Y0008461D01*
G01X0001388Y0008461D02*
G01X0001331Y0008517D01*
G01X0001331Y0008517D02*
G01X0001303Y0008573D01*
G01X0001303Y0008573D02*
G01X0001275Y0008686D01*
G01X0001275Y0008686D02*
G01X0001275Y0008770D01*
G01X0001275Y0008770D02*
G01X0001303Y0008883D01*
G01X0001303Y0008883D02*
G01X0001331Y0008939D01*
G01X0001331Y0008939D02*
G01X0001388Y0008995D01*
G01X0001388Y0008995D02*
G01X0001472Y0009023D01*
G01X0001472Y0009023D02*
G01X0001528Y0009023D01*
G01X0001528Y0009023D02*
G01X0001612Y0008995D01*
G01X0001612Y0008995D02*
G01X0001641Y0008967D01*
G01X0002231Y0008489D02*
G01X0002203Y0008461D01*
G01X0002203Y0008461D02*
G01X0002119Y0008433D01*
G01X0002119Y0008433D02*
G01X0002062Y0008433D01*
G01X0002062Y0008433D02*
G01X0001978Y0008461D01*
G01X0001978Y0008461D02*
G01X0001922Y0008517D01*
G01X0001922Y0008517D02*
G01X0001894Y0008573D01*
G01X0001894Y0008573D02*
G01X0001866Y0008686D01*
G01X0001866Y0008686D02*
G01X0001866Y0008770D01*
G01X0001866Y0008770D02*
G01X0001894Y0008883D01*
G01X0001894Y0008883D02*
G01X0001922Y0008939D01*
G01X0001922Y0008939D02*
G01X0001978Y0008995D01*
G01X0001978Y0008995D02*
G01X0002062Y0009023D01*
G01X0002062Y0009023D02*
G01X0002119Y0009023D01*
G01X0002119Y0009023D02*
G01X0002203Y0008995D01*
G01X0002203Y0008995D02*
G01X0002231Y0008967D01*
G01X0000867Y0010097D02*
G01X0000586Y0009900D01*
G01X0000867Y0009760D02*
G01X0000277Y0009760D01*
G01X0000277Y0009760D02*
G01X0000277Y0009984D01*
G01X0000277Y0009984D02*
G01X0000305Y0010041D01*
G01X0000305Y0010041D02*
G01X0000333Y0010069D01*
G01X0000333Y0010069D02*
G01X0000389Y0010097D01*
G01X0000389Y0010097D02*
G01X0000473Y0010097D01*
G01X0000473Y0010097D02*
G01X0000530Y0010069D01*
G01X0000530Y0010069D02*
G01X0000558Y0010041D01*
G01X0000558Y0010041D02*
G01X0000586Y0009984D01*
G01X0000586Y0009984D02*
G01X0000586Y0009760D01*
G01X0000558Y0010350D02*
G01X0000558Y0010547D01*
G01X0000867Y0010631D02*
G01X0000867Y0010350D01*
G01X0000867Y0010350D02*
G01X0000277Y0010350D01*
G01X0000277Y0010350D02*
G01X0000277Y0010631D01*
G01X0000558Y0011081D02*
G01X0000558Y0010884D01*
G01X0000867Y0010884D02*
G01X0000277Y0010884D01*
G01X0000277Y0010884D02*
G01X0000277Y0011166D01*
G01X0000642Y0011391D02*
G01X0000642Y0011840D01*
G01X0000867Y0011616D02*
G01X0000417Y0011616D01*
G01X0002256Y0012023D02*
G01X0002453Y0011433D01*
G01X0002453Y0011433D02*
G01X0002650Y0012023D01*
G01X0002847Y0011433D02*
G01X0002847Y0011827D01*
G01X0002847Y0011714D02*
G01X0002875Y0011770D01*
G01X0002875Y0011770D02*
G01X0002903Y0011798D01*
G01X0002903Y0011798D02*
G01X0002959Y0011827D01*
G01X0002959Y0011827D02*
G01X0003016Y0011827D01*
G01X0003437Y0011461D02*
G01X0003381Y0011433D01*
G01X0003381Y0011433D02*
G01X0003269Y0011433D01*
G01X0003269Y0011433D02*
G01X0003212Y0011461D01*
G01X0003212Y0011461D02*
G01X0003184Y0011517D01*
G01X0003184Y0011517D02*
G01X0003184Y0011742D01*
G01X0003184Y0011742D02*
G01X0003212Y0011798D01*
G01X0003212Y0011798D02*
G01X0003269Y0011827D01*
G01X0003269Y0011827D02*
G01X0003381Y0011827D01*
G01X0003381Y0011827D02*
G01X0003437Y0011798D01*
G01X0003437Y0011798D02*
G01X0003465Y0011742D01*
G01X0003465Y0011742D02*
G01X0003465Y0011686D01*
G01X0003465Y0011686D02*
G01X0003184Y0011630D01*
G01X0003634Y0011827D02*
G01X0003859Y0011827D01*
G01X0003719Y0011433D02*
G01X0003719Y0011939D01*
G01X0003719Y0011939D02*
G01X0003747Y0011995D01*
G01X0003747Y0011995D02*
G01X0003803Y0012023D01*
G01X0003803Y0012023D02*
G01X0003859Y0012023D01*
G01X0008998Y0012289D02*
G01X0008970Y0012261D01*
G01X0008970Y0012261D02*
G01X0008886Y0012233D01*
G01X0008886Y0012233D02*
G01X0008830Y0012233D01*
G01X0008830Y0012233D02*
G01X0008745Y0012261D01*
G01X0008745Y0012261D02*
G01X0008689Y0012317D01*
G01X0008689Y0012317D02*
G01X0008661Y0012373D01*
G01X0008661Y0012373D02*
G01X0008633Y0012486D01*
G01X0008633Y0012486D02*
G01X0008633Y0012570D01*
G01X0008633Y0012570D02*
G01X0008661Y0012683D01*
G01X0008661Y0012683D02*
G01X0008689Y0012739D01*
G01X0008689Y0012739D02*
G01X0008745Y0012795D01*
G01X0008745Y0012795D02*
G01X0008830Y0012823D01*
G01X0008830Y0012823D02*
G01X0008886Y0012823D01*
G01X0008886Y0012823D02*
G01X0008970Y0012795D01*
G01X0008970Y0012795D02*
G01X0008998Y0012767D01*
G01X0009223Y0012402D02*
G01X0009505Y0012402D01*
G01X0009167Y0012233D02*
G01X0009364Y0012823D01*
G01X0009364Y0012823D02*
G01X0009561Y0012233D01*
G01X0010067Y0012233D02*
G01X0009730Y0012233D01*
G01X0009898Y0012233D02*
G01X0009898Y0012823D01*
G01X0009898Y0012823D02*
G01X0009842Y0012739D01*
G01X0009842Y0012739D02*
G01X0009786Y0012683D01*
G01X0009786Y0012683D02*
G01X0009730Y0012655D01*
G01X0009950Y0008895D02*
G01X0009894Y0008923D01*
G01X0009894Y0008923D02*
G01X0009809Y0008923D01*
G01X0009809Y0008923D02*
G01X0009725Y0008895D01*
G01X0009725Y0008895D02*
G01X0009669Y0008839D01*
G01X0009669Y0008839D02*
G01X0009641Y0008783D01*
G01X0009641Y0008783D02*
G01X0009613Y0008670D01*
G01X0009613Y0008670D02*
G01X0009613Y0008586D01*
G01X0009613Y0008586D02*
G01X0009641Y0008473D01*
G01X0009641Y0008473D02*
G01X0009669Y0008417D01*
G01X0009669Y0008417D02*
G01X0009725Y0008361D01*
G01X0009725Y0008361D02*
G01X0009809Y0008333D01*
G01X0009809Y0008333D02*
G01X0009866Y0008333D01*
G01X0009866Y0008333D02*
G01X0009950Y0008361D01*
G01X0009950Y0008361D02*
G01X0009978Y0008389D01*
G01X0009978Y0008389D02*
G01X0009978Y0008586D01*
G01X0009978Y0008586D02*
G01X0009866Y0008586D01*
G01X0010231Y0008333D02*
G01X0010231Y0008923D01*
G01X0010231Y0008923D02*
G01X0010569Y0008333D01*
G01X0010569Y0008333D02*
G01X0010569Y0008923D01*
G01X0010850Y0008333D02*
G01X0010850Y0008923D01*
G01X0010850Y0008923D02*
G01X0010991Y0008923D01*
G01X0010991Y0008923D02*
G01X0011075Y0008895D01*
G01X0011075Y0008895D02*
G01X0011131Y0008839D01*
G01X0011131Y0008839D02*
G01X0011159Y0008783D01*
G01X0011159Y0008783D02*
G01X0011187Y0008670D01*
G01X0011187Y0008670D02*
G01X0011187Y0008586D01*
G01X0011187Y0008586D02*
G01X0011159Y0008473D01*
G01X0011159Y0008473D02*
G01X0011131Y0008417D01*
G01X0011131Y0008417D02*
G01X0011075Y0008361D01*
G01X0011075Y0008361D02*
G01X0010991Y0008333D01*
G01X0010991Y0008333D02*
G01X0010850Y0008333D01*
G01X0011077Y0010313D02*
G01X0011667Y0010509D01*
G01X0011667Y0010509D02*
G01X0011077Y0010706D01*
G01X0011611Y0011241D02*
G01X0011639Y0011212D01*
G01X0011639Y0011212D02*
G01X0011667Y0011128D01*
G01X0011667Y0011128D02*
G01X0011667Y0011072D01*
G01X0011667Y0011072D02*
G01X0011639Y0010988D01*
G01X0011639Y0010988D02*
G01X0011583Y0010931D01*
G01X0011583Y0010931D02*
G01X0011527Y0010903D01*
G01X0011527Y0010903D02*
G01X0011414Y0010875D01*
G01X0011414Y0010875D02*
G01X0011330Y0010875D01*
G01X0011330Y0010875D02*
G01X0011217Y0010903D01*
G01X0011217Y0010903D02*
G01X0011161Y0010931D01*
G01X0011161Y0010931D02*
G01X0011105Y0010988D01*
G01X0011105Y0010988D02*
G01X0011077Y0011072D01*
G01X0011077Y0011072D02*
G01X0011077Y0011128D01*
G01X0011077Y0011128D02*
G01X0011105Y0011212D01*
G01X0011105Y0011212D02*
G01X0011133Y0011241D01*
G01X0011611Y0011831D02*
G01X0011639Y0011803D01*
G01X0011639Y0011803D02*
G01X0011667Y0011719D01*
G01X0011667Y0011719D02*
G01X0011667Y0011662D01*
G01X0011667Y0011662D02*
G01X0011639Y0011578D01*
G01X0011639Y0011578D02*
G01X0011583Y0011522D01*
G01X0011583Y0011522D02*
G01X0011527Y0011494D01*
G01X0011527Y0011494D02*
G01X0011414Y0011466D01*
G01X0011414Y0011466D02*
G01X0011330Y0011466D01*
G01X0011330Y0011466D02*
G01X0011217Y0011494D01*
G01X0011217Y0011494D02*
G01X0011161Y0011522D01*
G01X0011161Y0011522D02*
G01X0011105Y0011578D01*
G01X0011105Y0011578D02*
G01X0011077Y0011662D01*
G01X0011077Y0011662D02*
G01X0011077Y0011719D01*
G01X0011077Y0011719D02*
G01X0011105Y0011803D01*
G01X0011105Y0011803D02*
G01X0011133Y0011831D01*
G01X0008998Y0009389D02*
G01X0008970Y0009361D01*
G01X0008970Y0009361D02*
G01X0008886Y0009333D01*
G01X0008886Y0009333D02*
G01X0008830Y0009333D01*
G01X0008830Y0009333D02*
G01X0008745Y0009361D01*
G01X0008745Y0009361D02*
G01X0008689Y0009417D01*
G01X0008689Y0009417D02*
G01X0008661Y0009473D01*
G01X0008661Y0009473D02*
G01X0008633Y0009586D01*
G01X0008633Y0009586D02*
G01X0008633Y0009670D01*
G01X0008633Y0009670D02*
G01X0008661Y0009783D01*
G01X0008661Y0009783D02*
G01X0008689Y0009839D01*
G01X0008689Y0009839D02*
G01X0008745Y0009895D01*
G01X0008745Y0009895D02*
G01X0008830Y0009923D01*
G01X0008830Y0009923D02*
G01X0008886Y0009923D01*
G01X0008886Y0009923D02*
G01X0008970Y0009895D01*
G01X0008970Y0009895D02*
G01X0008998Y0009867D01*
G01X0009223Y0009502D02*
G01X0009505Y0009502D01*
G01X0009167Y0009333D02*
G01X0009364Y0009923D01*
G01X0009364Y0009923D02*
G01X0009561Y0009333D01*
G01X0009870Y0009923D02*
G01X0009926Y0009923D01*
G01X0009926Y0009923D02*
G01X0009983Y0009895D01*
G01X0009983Y0009895D02*
G01X0010011Y0009867D01*
G01X0010011Y0009867D02*
G01X0010039Y0009811D01*
G01X0010039Y0009811D02*
G01X0010067Y0009698D01*
G01X0010067Y0009698D02*
G01X0010067Y0009558D01*
G01X0010067Y0009558D02*
G01X0010039Y0009445D01*
G01X0010039Y0009445D02*
G01X0010011Y0009389D01*
G01X0010011Y0009389D02*
G01X0009983Y0009361D01*
G01X0009983Y0009361D02*
G01X0009926Y0009333D01*
G01X0009926Y0009333D02*
G01X0009870Y0009333D01*
G01X0009870Y0009333D02*
G01X0009814Y0009361D01*
G01X0009814Y0009361D02*
G01X0009786Y0009389D01*
G01X0009786Y0009389D02*
G01X0009758Y0009445D01*
G01X0009758Y0009445D02*
G01X0009730Y0009558D01*
G01X0009730Y0009558D02*
G01X0009730Y0009698D01*
G01X0009730Y0009698D02*
G01X0009758Y0009811D01*
G01X0009758Y0009811D02*
G01X0009786Y0009867D01*
G01X0009786Y0009867D02*
G01X0009814Y0009895D01*
G01X0009814Y0009895D02*
G01X0009870Y0009923D01*
G01X0005316Y0008233D02*
G01X0005119Y0008514D01*
G01X0004978Y0008233D02*
G01X0004978Y0008823D01*
G01X0004978Y0008823D02*
G01X0005203Y0008823D01*
G01X0005203Y0008823D02*
G01X0005260Y0008795D01*
G01X0005260Y0008795D02*
G01X0005288Y0008767D01*
G01X0005288Y0008767D02*
G01X0005316Y0008711D01*
G01X0005316Y0008711D02*
G01X0005316Y0008627D01*
G01X0005316Y0008627D02*
G01X0005288Y0008570D01*
G01X0005288Y0008570D02*
G01X0005260Y0008542D01*
G01X0005260Y0008542D02*
G01X0005203Y0008514D01*
G01X0005203Y0008514D02*
G01X0004978Y0008514D01*
G01X0005569Y0008542D02*
G01X0005766Y0008542D01*
G01X0005850Y0008233D02*
G01X0005569Y0008233D01*
G01X0005569Y0008233D02*
G01X0005569Y0008823D01*
G01X0005569Y0008823D02*
G01X0005850Y0008823D01*
G01X0006300Y0008542D02*
G01X0006103Y0008542D01*
G01X0006103Y0008233D02*
G01X0006103Y0008823D01*
G01X0006103Y0008823D02*
G01X0006384Y0008823D01*
G01X0006609Y0008458D02*
G01X0007059Y0008458D01*
G01X0006283Y0012161D02*
G01X0006367Y0012133D01*
G01X0006367Y0012133D02*
G01X0006508Y0012133D01*
G01X0006508Y0012133D02*
G01X0006564Y0012161D01*
G01X0006564Y0012161D02*
G01X0006592Y0012189D01*
G01X0006592Y0012189D02*
G01X0006620Y0012245D01*
G01X0006620Y0012245D02*
G01X0006620Y0012302D01*
G01X0006620Y0012302D02*
G01X0006592Y0012358D01*
G01X0006592Y0012358D02*
G01X0006564Y0012386D01*
G01X0006564Y0012386D02*
G01X0006508Y0012414D01*
G01X0006508Y0012414D02*
G01X0006395Y0012442D01*
G01X0006395Y0012442D02*
G01X0006339Y0012470D01*
G01X0006339Y0012470D02*
G01X0006311Y0012498D01*
G01X0006311Y0012498D02*
G01X0006283Y0012555D01*
G01X0006283Y0012555D02*
G01X0006283Y0012611D01*
G01X0006283Y0012611D02*
G01X0006311Y0012667D01*
G01X0006311Y0012667D02*
G01X0006339Y0012695D01*
G01X0006339Y0012695D02*
G01X0006395Y0012723D01*
G01X0006395Y0012723D02*
G01X0006536Y0012723D01*
G01X0006536Y0012723D02*
G01X0006620Y0012695D01*
G01X0006873Y0012133D02*
G01X0006873Y0012723D01*
G01X0006873Y0012723D02*
G01X0007014Y0012723D01*
G01X0007014Y0012723D02*
G01X0007098Y0012695D01*
G01X0007098Y0012695D02*
G01X0007155Y0012639D01*
G01X0007155Y0012639D02*
G01X0007183Y0012583D01*
G01X0007183Y0012583D02*
G01X0007211Y0012470D01*
G01X0007211Y0012470D02*
G01X0007211Y0012386D01*
G01X0007211Y0012386D02*
G01X0007183Y0012273D01*
G01X0007183Y0012273D02*
G01X0007155Y0012217D01*
G01X0007155Y0012217D02*
G01X0007098Y0012161D01*
G01X0007098Y0012161D02*
G01X0007014Y0012133D01*
G01X0007014Y0012133D02*
G01X0006873Y0012133D01*
G01X0007436Y0012302D02*
G01X0007717Y0012302D01*
G01X0007380Y0012133D02*
G01X0007576Y0012723D01*
G01X0007576Y0012723D02*
G01X0007773Y0012133D01*
G01X0005213Y0015723D02*
G01X0005409Y0015133D01*
G01X0005409Y0015133D02*
G01X0005606Y0015723D01*
G01X0005803Y0015133D02*
G01X0005803Y0015723D01*
G01X0005803Y0015723D02*
G01X0005944Y0015723D01*
G01X0005944Y0015723D02*
G01X0006028Y0015695D01*
G01X0006028Y0015695D02*
G01X0006084Y0015639D01*
G01X0006084Y0015639D02*
G01X0006112Y0015583D01*
G01X0006112Y0015583D02*
G01X0006141Y0015470D01*
G01X0006141Y0015470D02*
G01X0006141Y0015386D01*
G01X0006141Y0015386D02*
G01X0006112Y0015273D01*
G01X0006112Y0015273D02*
G01X0006084Y0015217D01*
G01X0006084Y0015217D02*
G01X0006028Y0015161D01*
G01X0006028Y0015161D02*
G01X0005944Y0015133D01*
G01X0005944Y0015133D02*
G01X0005803Y0015133D01*
G01X0006394Y0015133D02*
G01X0006394Y0015723D01*
G01X0006394Y0015723D02*
G01X0006534Y0015723D01*
G01X0006534Y0015723D02*
G01X0006619Y0015695D01*
G01X0006619Y0015695D02*
G01X0006675Y0015639D01*
G01X0006675Y0015639D02*
G01X0006703Y0015583D01*
G01X0006703Y0015583D02*
G01X0006731Y0015470D01*
G01X0006731Y0015470D02*
G01X0006731Y0015386D01*
G01X0006731Y0015386D02*
G01X0006703Y0015273D01*
G01X0006703Y0015273D02*
G01X0006675Y0015217D01*
G01X0006675Y0015217D02*
G01X0006619Y0015161D01*
G01X0006619Y0015161D02*
G01X0006534Y0015133D01*
G01X0006534Y0015133D02*
G01X0006394Y0015133D01*
G01X0004297Y0012161D02*
G01X0004381Y0012133D01*
G01X0004381Y0012133D02*
G01X0004522Y0012133D01*
G01X0004522Y0012133D02*
G01X0004578Y0012161D01*
G01X0004578Y0012161D02*
G01X0004606Y0012189D01*
G01X0004606Y0012189D02*
G01X0004634Y0012245D01*
G01X0004634Y0012245D02*
G01X0004634Y0012302D01*
G01X0004634Y0012302D02*
G01X0004606Y0012358D01*
G01X0004606Y0012358D02*
G01X0004578Y0012386D01*
G01X0004578Y0012386D02*
G01X0004522Y0012414D01*
G01X0004522Y0012414D02*
G01X0004409Y0012442D01*
G01X0004409Y0012442D02*
G01X0004353Y0012470D01*
G01X0004353Y0012470D02*
G01X0004325Y0012498D01*
G01X0004325Y0012498D02*
G01X0004297Y0012555D01*
G01X0004297Y0012555D02*
G01X0004297Y0012611D01*
G01X0004297Y0012611D02*
G01X0004325Y0012667D01*
G01X0004325Y0012667D02*
G01X0004353Y0012695D01*
G01X0004353Y0012695D02*
G01X0004409Y0012723D01*
G01X0004409Y0012723D02*
G01X0004550Y0012723D01*
G01X0004550Y0012723D02*
G01X0004634Y0012695D01*
G01X0005225Y0012189D02*
G01X0005197Y0012161D01*
G01X0005197Y0012161D02*
G01X0005112Y0012133D01*
G01X0005112Y0012133D02*
G01X0005056Y0012133D01*
G01X0005056Y0012133D02*
G01X0004972Y0012161D01*
G01X0004972Y0012161D02*
G01X0004916Y0012217D01*
G01X0004916Y0012217D02*
G01X0004888Y0012273D01*
G01X0004888Y0012273D02*
G01X0004859Y0012386D01*
G01X0004859Y0012386D02*
G01X0004859Y0012470D01*
G01X0004859Y0012470D02*
G01X0004888Y0012583D01*
G01X0004888Y0012583D02*
G01X0004916Y0012639D01*
G01X0004916Y0012639D02*
G01X0004972Y0012695D01*
G01X0004972Y0012695D02*
G01X0005056Y0012723D01*
G01X0005056Y0012723D02*
G01X0005112Y0012723D01*
G01X0005112Y0012723D02*
G01X0005197Y0012695D01*
G01X0005197Y0012695D02*
G01X0005225Y0012667D01*
G01X0005759Y0012133D02*
G01X0005478Y0012133D01*
G01X0005478Y0012133D02*
G01X0005478Y0012723D01*
G01X0003550Y0015695D02*
G01X0003494Y0015723D01*
G01X0003494Y0015723D02*
G01X0003409Y0015723D01*
G01X0003409Y0015723D02*
G01X0003325Y0015695D01*
G01X0003325Y0015695D02*
G01X0003269Y0015639D01*
G01X0003269Y0015639D02*
G01X0003241Y0015583D01*
G01X0003241Y0015583D02*
G01X0003213Y0015470D01*
G01X0003213Y0015470D02*
G01X0003213Y0015386D01*
G01X0003213Y0015386D02*
G01X0003241Y0015273D01*
G01X0003241Y0015273D02*
G01X0003269Y0015217D01*
G01X0003269Y0015217D02*
G01X0003325Y0015161D01*
G01X0003325Y0015161D02*
G01X0003409Y0015133D01*
G01X0003409Y0015133D02*
G01X0003466Y0015133D01*
G01X0003466Y0015133D02*
G01X0003550Y0015161D01*
G01X0003550Y0015161D02*
G01X0003578Y0015189D01*
G01X0003578Y0015189D02*
G01X0003578Y0015386D01*
G01X0003578Y0015386D02*
G01X0003466Y0015386D01*
G01X0003831Y0015133D02*
G01X0003831Y0015723D01*
G01X0003831Y0015723D02*
G01X0004169Y0015133D01*
G01X0004169Y0015133D02*
G01X0004169Y0015723D01*
G01X0004450Y0015133D02*
G01X0004450Y0015723D01*
G01X0004450Y0015723D02*
G01X0004591Y0015723D01*
G01X0004591Y0015723D02*
G01X0004675Y0015695D01*
G01X0004675Y0015695D02*
G01X0004731Y0015639D01*
G01X0004731Y0015639D02*
G01X0004759Y0015583D01*
G01X0004759Y0015583D02*
G01X0004787Y0015470D01*
G01X0004787Y0015470D02*
G01X0004787Y0015386D01*
G01X0004787Y0015386D02*
G01X0004759Y0015273D01*
G01X0004759Y0015273D02*
G01X0004731Y0015217D01*
G01X0004731Y0015217D02*
G01X0004675Y0015161D01*
G01X0004675Y0015161D02*
G01X0004591Y0015133D01*
G01X0004591Y0015133D02*
G01X0004450Y0015133D01*
G54D11*
G01X0001000Y0006600D02*
G01X0003000Y0006600D01*
G01X0003000Y0006600D02*
G01X0003000Y0003600D01*
G01X0003000Y0003600D02*
G01X0001000Y0003600D01*
G01X0001000Y0003600D02*
G01X0001000Y0006600D01*
G01X0009400Y0007800D02*
G01X0007400Y0007800D01*
G01X0007400Y0007800D02*
G01X0007400Y0008800D01*
G01X0007400Y0008800D02*
G01X0009400Y0008800D01*
G01X0009400Y0008800D02*
G01X0009400Y0007800D01*
G01X0010900Y0010100D02*
G01X0008900Y0010100D01*
G01X0008900Y0010100D02*
G01X0008900Y0011100D01*
G01X0008900Y0011100D02*
G01X0010900Y0011100D01*
G01X0010900Y0011100D02*
G01X0010900Y0010100D01*
G01X0010900Y0011100D02*
G01X0008900Y0011100D01*
G01X0008900Y0011100D02*
G01X0008900Y0012100D01*
G01X0008900Y0012100D02*
G01X0010900Y0012100D01*
G01X0010900Y0012100D02*
G01X0010900Y0011100D01*
G01X0008500Y0014975D02*
G01X0008500Y0012975D01*
G01X0008500Y0012975D02*
G01X0003500Y0012975D01*
G01X0003500Y0012975D02*
G01X0003500Y0014975D01*
G01X0003500Y0014975D02*
G01X0008500Y0014975D01*
G01X0008184Y0006069D02*
G01X0007987Y0006069D01*
G01X0006413Y0006069D02*
G01X0006216Y0006069D01*
G01X0008184Y0003706D02*
G01X0006216Y0003706D01*
G01X0008184Y0000163D02*
G01X0006216Y0000163D01*
G01X0007791Y0006856D02*
G01X0006609Y0006856D01*
G01X0007791Y0005872D02*
G01X0006609Y0005872D01*
G01X0006413Y0007053D02*
G01X0007987Y0007053D01*
G01X0006413Y0005675D02*
G01X0007987Y0005675D01*
G01X0007791Y0004494D02*
G01X0006609Y0004494D01*
G01X0006413Y0003509D02*
G01X0007987Y0003509D01*
G01X0007987Y0000360D02*
G01X0006413Y0000360D01*
G01X0007594Y0003509D02*
G01X0007594Y0003706D01*
G01X0007791Y0005872D02*
G01X0007791Y0006856D01*
G01X0007987Y0005675D02*
G01X0007987Y0007053D01*
G01X0006806Y0003509D02*
G01X0006806Y0003706D01*
G01X0006609Y0005872D02*
G01X0006609Y0006856D01*
G01X0006413Y0005675D02*
G01X0006413Y0007053D01*
G01X0007791Y0004494D02*
G01X0007791Y0005675D01*
G01X0007987Y0000360D02*
G01X0007987Y0003509D01*
G01X0008184Y0003706D02*
G01X0008184Y0006069D01*
G01X0006609Y0004494D02*
G01X0006609Y0005675D01*
G01X0006413Y0000360D02*
G01X0006413Y0003509D01*
G01X0006216Y0003706D02*
G01X0006216Y0006069D01*
G01X0008184Y0003706D02*
G01X0008184Y0000163D01*
G01X0006216Y0000163D02*
G01X0006216Y0003706D01*
G01X0006184Y0006069D02*
G01X0005987Y0006069D01*
G01X0004413Y0006069D02*
G01X0004216Y0006069D01*
G01X0006184Y0003706D02*
G01X0004216Y0003706D01*
G01X0006184Y0000163D02*
G01X0004216Y0000163D01*
G01X0005791Y0006856D02*
G01X0004609Y0006856D01*
G01X0005791Y0005872D02*
G01X0004609Y0005872D01*
G01X0004413Y0007053D02*
G01X0005987Y0007053D01*
G01X0004413Y0005675D02*
G01X0005987Y0005675D01*
G01X0005791Y0004494D02*
G01X0004609Y0004494D01*
G01X0004413Y0003509D02*
G01X0005987Y0003509D01*
G01X0005987Y0000360D02*
G01X0004413Y0000360D01*
G01X0005594Y0003509D02*
G01X0005594Y0003706D01*
G01X0005791Y0005872D02*
G01X0005791Y0006856D01*
G01X0005987Y0005675D02*
G01X0005987Y0007053D01*
G01X0004806Y0003509D02*
G01X0004806Y0003706D01*
G01X0004609Y0005872D02*
G01X0004609Y0006856D01*
G01X0004413Y0005675D02*
G01X0004413Y0007053D01*
G01X0005791Y0004494D02*
G01X0005791Y0005675D01*
G01X0005987Y0000360D02*
G01X0005987Y0003509D01*
G01X0006184Y0003706D02*
G01X0006184Y0006069D01*
G01X0004609Y0004494D02*
G01X0004609Y0005675D01*
G01X0004413Y0000360D02*
G01X0004413Y0003509D01*
G01X0004216Y0003706D02*
G01X0004216Y0006069D01*
G01X0006184Y0003706D02*
G01X0006184Y0000163D01*
G01X0004216Y0000163D02*
G01X0004216Y0003706D01*
G01X0001025Y0012250D02*
G01X0002025Y0012250D01*
G01X0002025Y0012250D02*
G01X0002025Y0009250D01*
G01X0002025Y0009250D02*
G01X0001025Y0009250D01*
G01X0001025Y0009250D02*
G01X0001025Y0012250D01*
G01X0007900Y0010100D02*
G01X0007900Y0012100D01*
G01X0007900Y0012100D02*
G01X0008900Y0012100D01*
G01X0008900Y0012100D02*
G01X0008900Y0010100D01*
G01X0008900Y0010100D02*
G01X0007900Y0010100D01*
G54D12*
G01X0000906Y0006011D02*
G01X0000794Y0006011D01*
G01X0000850Y0006011D02*
G01X0000850Y0006208D01*
G01X0000850Y0006208D02*
G01X0000831Y0006180D01*
G01X0000831Y0006180D02*
G01X0000813Y0006161D01*
G01X0000813Y0006161D02*
G01X0000794Y0006152D01*
G54D13*
G01X0007129Y0002971D02*
G01X0007129Y0003429D01*
G54D12*
G01X0000931Y0011661D02*
G01X0000819Y0011661D01*
G01X0000875Y0011661D02*
G01X0000875Y0011858D01*
G01X0000875Y0011858D02*
G01X0000856Y0011830D01*
G01X0000856Y0011830D02*
G01X0000838Y0011811D01*
G01X0000838Y0011811D02*
G01X0000819Y0011802D01*
%LPC*%
G54D14*
G01X0001500Y0006100D03*
G01X0002500Y0006100D03*
G01X0001500Y0005100D03*
G01X0002500Y0005100D03*
G01X0001500Y0004100D03*
G01X0002500Y0004100D03*
G01X0008900Y0008300D03*
G01X0007900Y0008300D03*
G01X0010400Y0010600D03*
G01X0009400Y0010600D03*
G01X0010400Y0011600D03*
G01X0009400Y0011600D03*
G01X0008000Y0014475D03*
G01X0008000Y0013475D03*
G01X0007000Y0014475D03*
G01X0007000Y0013475D03*
G01X0006000Y0014475D03*
G01X0006000Y0013475D03*
G01X0005000Y0014475D03*
G01X0005000Y0013475D03*
G01X0004000Y0014475D03*
G01X0004000Y0013475D03*
G54D15*
G01X0002000Y0014000D03*
G01X0010000Y0002000D03*
G01X0010000Y0014000D03*
G01X0002000Y0002000D03*
G54D16*
G01X0007200Y0002131D03*
G01X0007200Y0004100D03*
G01X0005200Y0002131D03*
G01X0005200Y0004100D03*
G54D14*
G01X0001525Y0009750D03*
G01X0001525Y0010750D03*
G01X0001525Y0011750D03*
G01X0008400Y0010600D03*
G01X0008400Y0011600D03*
M02*
