G04 This is an RS-274x file exported by *
G04 gerbv version 2.6.1 *
G04 More information is available about gerbv at *
G04 http://gerbv.geda-project.org/ *
G04 --End of header info--*
%MOIN*%
%FSLAX34Y34*%
%IPPOS*%
%IN "TXB0108.pcb"*%
G04 --Define apertures--*
%ADD10C,0.0010*%
%ADD11C,0.2462*%
%ADD12C,0.0800*%
%ADD13C,0.0900*%
G04 --Start main section--*
G54D11*
G01X0014000Y0014000D03*
G01X0014000Y0026000D03*
G01X0026000Y0026000D03*
G01X0026000Y0014000D03*
G54D12*
G01X0025500Y0023500D03*
G01X0026500Y0023500D03*
G01X0025500Y0022500D03*
G01X0026500Y0022500D03*
G01X0025500Y0021500D03*
G01X0026500Y0021500D03*
G01X0025500Y0020500D03*
G01X0026500Y0020500D03*
G01X0025500Y0019500D03*
G01X0026500Y0019500D03*
G01X0025500Y0018500D03*
G01X0026500Y0018500D03*
G01X0025500Y0017500D03*
G01X0026500Y0017500D03*
G01X0025500Y0016500D03*
G01X0026500Y0016500D03*
G01X0013500Y0023500D03*
G01X0014500Y0023500D03*
G01X0013500Y0022500D03*
G01X0014500Y0022500D03*
G01X0013500Y0021500D03*
G01X0014500Y0021500D03*
G01X0013500Y0020500D03*
G01X0014500Y0020500D03*
G01X0013500Y0019500D03*
G01X0014500Y0019500D03*
G01X0013500Y0018500D03*
G01X0014500Y0018500D03*
G01X0013500Y0017500D03*
G01X0014500Y0017500D03*
G01X0013500Y0016500D03*
G01X0014500Y0016500D03*
G54D13*
G01X0023000Y0026500D03*
G01X0023000Y0025500D03*
G01X0022000Y0026500D03*
G01X0022000Y0025500D03*
G01X0021000Y0026500D03*
G01X0021000Y0025500D03*
G01X0019000Y0026500D03*
G01X0019000Y0025500D03*
G01X0018000Y0026500D03*
G01X0018000Y0025500D03*
G01X0017000Y0026500D03*
G01X0017000Y0025500D03*
G01X0020500Y0016800D03*
G01X0019500Y0016800D03*
M02*
