G04 This is an RS-274x file exported by *
G04 gerbv version 2.6.1 *
G04 More information is available about gerbv at *
G04 http://gerbv.geda-project.org/ *
G04 --End of header info--*
%MOIN*%
%FSLAX34Y34*%
%IPPOS*%
%IN "TXB0108.pcb"*%
G04 --Define apertures--*
%ADD10C,0.2362*%
%ADD11C,0.0010*%
%ADD12C,0.0100*%
%ADD13C,0.0700*%
%ADD14C,0.0800*%
G04 --Start main section--*
G54D10*
G01X0014000Y0014000D03*
G01X0014000Y0026000D03*
G01X0026000Y0026000D03*
G01X0026000Y0014000D03*
G54D12*
G01X0021150Y0016800D02*
G75*
G03X0021150Y0016800I-000650J0000000D01*
G01X0027730Y0012320D02*
G01X0027730Y0027680D01*
G01X0027730Y0027680D02*
G75*
G03X0027680Y0027730I-000050J0000000D01*
G01X0027680Y0027730D02*
G01X0012320Y0027730D01*
G01X0012320Y0027730D02*
G75*
G03X0012270Y0027680I0000000J-000050D01*
G01X0012270Y0027680D02*
G01X0012270Y0012320D01*
G01X0012270Y0012320D02*
G75*
G03X0012320Y0012270I0000050J0000000D01*
G01X0012320Y0012270D02*
G01X0027680Y0012270D01*
G01X0027680Y0012270D02*
G75*
G03X0027730Y0012320I0000000J0000050D01*
G01X0026883Y0023039D02*
G75*
G03X0026039Y0023883I-000383J0000461D01*
G01X0026883Y0023039D02*
G75*
G03X0026883Y0022962I0000032J-000038D01*
G01X0026883Y0022039D02*
G75*
G03X0026883Y0022962I-000383J0000461D01*
G01X0026883Y0022039D02*
G75*
G03X0026883Y0021962I0000032J-000038D01*
G01X0026883Y0021039D02*
G75*
G03X0026883Y0021962I-000383J0000461D01*
G01X0026883Y0021039D02*
G75*
G03X0026883Y0020962I0000032J-000038D01*
G01X0026883Y0020039D02*
G75*
G03X0026883Y0020962I-000383J0000461D01*
G01X0026883Y0020039D02*
G75*
G03X0026883Y0019962I0000032J-000038D01*
G01X0026883Y0019039D02*
G75*
G03X0026883Y0019962I-000383J0000461D01*
G01X0026883Y0019039D02*
G75*
G03X0026883Y0018962I0000032J-000038D01*
G01X0026883Y0018039D02*
G75*
G03X0026883Y0018962I-000383J0000461D01*
G01X0026883Y0018039D02*
G75*
G03X0026883Y0017962I0000032J-000038D01*
G01X0026883Y0017039D02*
G75*
G03X0026883Y0017962I-000383J0000461D01*
G01X0026883Y0017039D02*
G75*
G03X0026883Y0016962I0000032J-000038D01*
G01X0026039Y0016117D02*
G75*
G03X0026883Y0016962I0000461J0000383D01*
G01X0026039Y0016117D02*
G75*
G03X0025962Y0016117I-000038J-000032D01*
G01X0025117Y0016962D02*
G75*
G03X0025962Y0016117I0000383J-000461D01*
G01X0025117Y0016962D02*
G75*
G03X0025117Y0017039I-000032J0000038D01*
G01X0025117Y0017962D02*
G75*
G03X0025117Y0017039I0000383J-000461D01*
G01X0025117Y0017962D02*
G75*
G03X0025117Y0018039I-000032J0000038D01*
G01X0025117Y0018962D02*
G75*
G03X0025117Y0018039I0000383J-000461D01*
G01X0025117Y0018962D02*
G75*
G03X0025117Y0019039I-000032J0000038D01*
G01X0025117Y0019962D02*
G75*
G03X0025117Y0019039I0000383J-000461D01*
G01X0025117Y0019962D02*
G75*
G03X0025117Y0020039I-000032J0000038D01*
G01X0025117Y0020962D02*
G75*
G03X0025117Y0020039I0000383J-000461D01*
G01X0025117Y0020962D02*
G75*
G03X0025117Y0021039I-000032J0000038D01*
G01X0025117Y0021962D02*
G75*
G03X0025117Y0021039I0000383J-000461D01*
G01X0025117Y0021962D02*
G75*
G03X0025117Y0022039I-000032J0000038D01*
G01X0025117Y0022962D02*
G75*
G03X0025117Y0022039I0000383J-000461D01*
G01X0025117Y0022962D02*
G75*
G03X0025117Y0023039I-000032J0000038D01*
G01X0025962Y0023883D02*
G75*
G03X0025117Y0023039I-000461J-000383D01*
G01X0025962Y0023883D02*
G75*
G03X0026039Y0023883I0000038J0000032D01*
G01X0022455Y0026036D02*
G75*
G03X0021545Y0026036I-000455J0000464D01*
G01X0022455Y0026036D02*
G75*
G03X0022455Y0025964I0000035J-000036D01*
G01X0021545Y0025964D02*
G75*
G03X0022455Y0025964I0000455J-000464D01*
G01X0021545Y0025964D02*
G75*
G03X0021545Y0026036I-000035J0000036D01*
G01X0021150Y0016800D02*
G75*
G03X0021150Y0016800I-000650J0000000D01*
G01X0018455Y0026036D02*
G75*
G03X0017545Y0026036I-000455J0000464D01*
G01X0018455Y0026036D02*
G75*
G03X0018455Y0025964I0000035J-000036D01*
G01X0017545Y0025964D02*
G75*
G03X0018455Y0025964I0000455J-000464D01*
G01X0017545Y0025964D02*
G75*
G03X0017545Y0026036I-000035J0000036D01*
G01X0014883Y0023039D02*
G75*
G03X0014039Y0023883I-000383J0000461D01*
G01X0014883Y0023039D02*
G75*
G03X0014883Y0022962I0000032J-000038D01*
G01X0014883Y0022039D02*
G75*
G03X0014883Y0022962I-000383J0000461D01*
G01X0014883Y0022039D02*
G75*
G03X0014883Y0021962I0000032J-000038D01*
G01X0014883Y0021039D02*
G75*
G03X0014883Y0021962I-000383J0000461D01*
G01X0014883Y0021039D02*
G75*
G03X0014883Y0020962I0000032J-000038D01*
G01X0014883Y0020039D02*
G75*
G03X0014883Y0020962I-000383J0000461D01*
G01X0014883Y0020039D02*
G75*
G03X0014883Y0019962I0000032J-000038D01*
G01X0014883Y0019039D02*
G75*
G03X0014883Y0019962I-000383J0000461D01*
G01X0014883Y0019039D02*
G75*
G03X0014883Y0018962I0000032J-000038D01*
G01X0014883Y0018039D02*
G75*
G03X0014883Y0018962I-000383J0000461D01*
G01X0014883Y0018039D02*
G75*
G03X0014883Y0017962I0000032J-000038D01*
G01X0014883Y0017039D02*
G75*
G03X0014883Y0017962I-000383J0000461D01*
G01X0014883Y0017039D02*
G75*
G03X0014883Y0016962I0000032J-000038D01*
G01X0014039Y0016117D02*
G75*
G03X0014883Y0016962I0000461J0000383D01*
G01X0014039Y0016117D02*
G75*
G03X0013962Y0016117I-000038J-000032D01*
G01X0013117Y0016962D02*
G75*
G03X0013962Y0016117I0000383J-000461D01*
G01X0013117Y0016962D02*
G75*
G03X0013117Y0017039I-000032J0000038D01*
G01X0013117Y0017962D02*
G75*
G03X0013117Y0017039I0000383J-000461D01*
G01X0013117Y0017962D02*
G75*
G03X0013117Y0018039I-000032J0000038D01*
G01X0013117Y0018962D02*
G75*
G03X0013117Y0018039I0000383J-000461D01*
G01X0013117Y0018962D02*
G75*
G03X0013117Y0019039I-000032J0000038D01*
G01X0013117Y0019962D02*
G75*
G03X0013117Y0019039I0000383J-000461D01*
G01X0013117Y0019962D02*
G75*
G03X0013117Y0020039I-000032J0000038D01*
G01X0013117Y0020962D02*
G75*
G03X0013117Y0020039I0000383J-000461D01*
G01X0013117Y0020962D02*
G75*
G03X0013117Y0021039I-000032J0000038D01*
G01X0013117Y0021962D02*
G75*
G03X0013117Y0021039I0000383J-000461D01*
G01X0013117Y0021962D02*
G75*
G03X0013117Y0022039I-000032J0000038D01*
G01X0013117Y0022962D02*
G75*
G03X0013117Y0022039I0000383J-000461D01*
G01X0013117Y0022962D02*
G75*
G03X0013117Y0023039I-000032J0000038D01*
G01X0013962Y0023883D02*
G75*
G03X0013117Y0023039I-000461J-000383D01*
G01X0013962Y0023883D02*
G75*
G03X0014039Y0023883I0000038J0000032D01*
G01X0012270Y0027660D02*
G01X0027730Y0027660D01*
G01X0012270Y0027570D02*
G01X0027730Y0027570D01*
G01X0012270Y0027480D02*
G01X0027730Y0027480D01*
G01X0012270Y0027390D02*
G01X0027730Y0027390D01*
G01X0012270Y0027300D02*
G01X0027730Y0027300D01*
G01X0012270Y0027210D02*
G01X0027730Y0027210D01*
G01X0022196Y0027120D02*
G01X0027730Y0027120D01*
G01X0022377Y0027030D02*
G01X0027730Y0027030D01*
G01X0022479Y0026940D02*
G01X0027730Y0026940D01*
G01X0022548Y0026850D02*
G01X0027730Y0026850D01*
G01X0022596Y0026760D02*
G01X0027730Y0026760D01*
G01X0022627Y0026670D02*
G01X0027730Y0026670D01*
G01X0022645Y0026580D02*
G01X0027730Y0026580D01*
G01X0022650Y0026490D02*
G01X0027730Y0026490D01*
G01X0022642Y0026400D02*
G01X0027730Y0026400D01*
G01X0022622Y0026310D02*
G01X0027730Y0026310D01*
G01X0022587Y0026220D02*
G01X0027730Y0026220D01*
G01X0022534Y0026130D02*
G01X0027730Y0026130D01*
G01X0022459Y0026040D02*
G01X0027730Y0026040D01*
G01X0022469Y0025950D02*
G01X0027730Y0025950D01*
G01X0022541Y0025860D02*
G01X0027730Y0025860D01*
G01X0022591Y0025770D02*
G01X0027730Y0025770D01*
G01X0022625Y0025680D02*
G01X0027730Y0025680D01*
G01X0022644Y0025590D02*
G01X0027730Y0025590D01*
G01X0022650Y0025500D02*
G01X0027730Y0025500D01*
G01X0022644Y0025410D02*
G01X0027730Y0025410D01*
G01X0022625Y0025320D02*
G01X0027730Y0025320D01*
G01X0022591Y0025230D02*
G01X0027730Y0025230D01*
G01X0022541Y0025140D02*
G01X0027730Y0025140D01*
G01X0022469Y0025050D02*
G01X0027730Y0025050D01*
G01X0022362Y0024960D02*
G01X0027730Y0024960D01*
G01X0022160Y0024870D02*
G01X0027730Y0024870D01*
G01X0012270Y0024780D02*
G01X0027730Y0024780D01*
G01X0012270Y0024690D02*
G01X0027730Y0024690D01*
G01X0012270Y0024600D02*
G01X0027730Y0024600D01*
G01X0012270Y0024510D02*
G01X0027730Y0024510D01*
G01X0012270Y0024420D02*
G01X0027730Y0024420D01*
G01X0012270Y0024330D02*
G01X0027730Y0024330D01*
G01X0012270Y0024240D02*
G01X0027730Y0024240D01*
G01X0012270Y0024150D02*
G01X0027730Y0024150D01*
G01X0026716Y0024060D02*
G01X0027730Y0024060D01*
G01X0026873Y0023970D02*
G01X0027730Y0023970D01*
G01X0026964Y0023880D02*
G01X0027730Y0023880D01*
G01X0027025Y0023790D02*
G01X0027730Y0023790D01*
G01X0027066Y0023700D02*
G01X0027730Y0023700D01*
G01X0027090Y0023610D02*
G01X0027730Y0023610D01*
G01X0027100Y0023520D02*
G01X0027730Y0023520D01*
G01X0027096Y0023430D02*
G01X0027730Y0023430D01*
G01X0027078Y0023340D02*
G01X0027730Y0023340D01*
G01X0027045Y0023250D02*
G01X0027730Y0023250D01*
G01X0026994Y0023160D02*
G01X0027730Y0023160D01*
G01X0026918Y0023070D02*
G01X0027730Y0023070D01*
G01X0026870Y0022980D02*
G01X0027730Y0022980D01*
G01X0026956Y0022890D02*
G01X0027730Y0022890D01*
G01X0027020Y0022800D02*
G01X0027730Y0022800D01*
G01X0027062Y0022710D02*
G01X0027730Y0022710D01*
G01X0027088Y0022620D02*
G01X0027730Y0022620D01*
G01X0027099Y0022530D02*
G01X0027730Y0022530D01*
G01X0027097Y0022440D02*
G01X0027730Y0022440D01*
G01X0027081Y0022350D02*
G01X0027730Y0022350D01*
G01X0027050Y0022260D02*
G01X0027730Y0022260D01*
G01X0027001Y0022170D02*
G01X0027730Y0022170D01*
G01X0026928Y0022080D02*
G01X0027730Y0022080D01*
G01X0026866Y0021990D02*
G01X0027730Y0021990D01*
G01X0026947Y0021900D02*
G01X0027730Y0021900D01*
G01X0027014Y0021810D02*
G01X0027730Y0021810D01*
G01X0027058Y0021720D02*
G01X0027730Y0021720D01*
G01X0027086Y0021630D02*
G01X0027730Y0021630D01*
G01X0027099Y0021540D02*
G01X0027730Y0021540D01*
G01X0027098Y0021450D02*
G01X0027730Y0021450D01*
G01X0027083Y0021360D02*
G01X0027730Y0021360D01*
G01X0027054Y0021270D02*
G01X0027730Y0021270D01*
G01X0027008Y0021180D02*
G01X0027730Y0021180D01*
G01X0026938Y0021090D02*
G01X0027730Y0021090D01*
G01X0026865Y0021000D02*
G01X0027730Y0021000D01*
G01X0026938Y0020910D02*
G01X0027730Y0020910D01*
G01X0027008Y0020820D02*
G01X0027730Y0020820D01*
G01X0027054Y0020730D02*
G01X0027730Y0020730D01*
G01X0027083Y0020640D02*
G01X0027730Y0020640D01*
G01X0027098Y0020550D02*
G01X0027730Y0020550D01*
G01X0027099Y0020460D02*
G01X0027730Y0020460D01*
G01X0027086Y0020370D02*
G01X0027730Y0020370D01*
G01X0027058Y0020280D02*
G01X0027730Y0020280D01*
G01X0027014Y0020190D02*
G01X0027730Y0020190D01*
G01X0026947Y0020100D02*
G01X0027730Y0020100D01*
G01X0026866Y0020010D02*
G01X0027730Y0020010D01*
G01X0026929Y0019920D02*
G01X0027730Y0019920D01*
G01X0027001Y0019830D02*
G01X0027730Y0019830D01*
G01X0027050Y0019740D02*
G01X0027730Y0019740D01*
G01X0027081Y0019650D02*
G01X0027730Y0019650D01*
G01X0027097Y0019560D02*
G01X0027730Y0019560D01*
G01X0027099Y0019470D02*
G01X0027730Y0019470D01*
G01X0027088Y0019380D02*
G01X0027730Y0019380D01*
G01X0027062Y0019290D02*
G01X0027730Y0019290D01*
G01X0027020Y0019200D02*
G01X0027730Y0019200D01*
G01X0026956Y0019110D02*
G01X0027730Y0019110D01*
G01X0026870Y0019020D02*
G01X0027730Y0019020D01*
G01X0026919Y0018930D02*
G01X0027730Y0018930D01*
G01X0026995Y0018840D02*
G01X0027730Y0018840D01*
G01X0027045Y0018750D02*
G01X0027730Y0018750D01*
G01X0027078Y0018660D02*
G01X0027730Y0018660D01*
G01X0027096Y0018570D02*
G01X0027730Y0018570D01*
G01X0027100Y0018480D02*
G01X0027730Y0018480D01*
G01X0027090Y0018390D02*
G01X0027730Y0018390D01*
G01X0027066Y0018300D02*
G01X0027730Y0018300D01*
G01X0027025Y0018210D02*
G01X0027730Y0018210D01*
G01X0026964Y0018120D02*
G01X0027730Y0018120D01*
G01X0026875Y0018030D02*
G01X0027730Y0018030D01*
G01X0026908Y0017940D02*
G01X0027730Y0017940D01*
G01X0026987Y0017850D02*
G01X0027730Y0017850D01*
G01X0027041Y0017760D02*
G01X0027730Y0017760D01*
G01X0027076Y0017670D02*
G01X0027730Y0017670D01*
G01X0027095Y0017580D02*
G01X0027730Y0017580D01*
G01X0027100Y0017490D02*
G01X0027730Y0017490D01*
G01X0027092Y0017400D02*
G01X0027730Y0017400D01*
G01X0027069Y0017310D02*
G01X0027730Y0017310D01*
G01X0027031Y0017220D02*
G01X0027730Y0017220D01*
G01X0026972Y0017130D02*
G01X0027730Y0017130D01*
G01X0026885Y0017040D02*
G01X0027730Y0017040D01*
G01X0026897Y0016950D02*
G01X0027730Y0016950D01*
G01X0026980Y0016860D02*
G01X0027730Y0016860D01*
G01X0027036Y0016770D02*
G01X0027730Y0016770D01*
G01X0027072Y0016680D02*
G01X0027730Y0016680D01*
G01X0027093Y0016590D02*
G01X0027730Y0016590D01*
G01X0027100Y0016500D02*
G01X0027730Y0016500D01*
G01X0027093Y0016410D02*
G01X0027730Y0016410D01*
G01X0027072Y0016320D02*
G01X0027730Y0016320D01*
G01X0027036Y0016230D02*
G01X0027730Y0016230D01*
G01X0026980Y0016140D02*
G01X0027730Y0016140D01*
G01X0026897Y0016050D02*
G01X0027730Y0016050D01*
G01X0026761Y0015960D02*
G01X0027730Y0015960D01*
G01X0012270Y0015870D02*
G01X0027730Y0015870D01*
G01X0012270Y0015780D02*
G01X0027730Y0015780D01*
G01X0012270Y0015690D02*
G01X0027730Y0015690D01*
G01X0012270Y0015600D02*
G01X0027730Y0015600D01*
G01X0012270Y0015510D02*
G01X0027730Y0015510D01*
G01X0012270Y0015420D02*
G01X0027730Y0015420D01*
G01X0012270Y0015330D02*
G01X0027730Y0015330D01*
G01X0012270Y0015240D02*
G01X0027730Y0015240D01*
G01X0012270Y0015150D02*
G01X0027730Y0015150D01*
G01X0012270Y0015060D02*
G01X0027730Y0015060D01*
G01X0012270Y0014970D02*
G01X0027730Y0014970D01*
G01X0012270Y0014880D02*
G01X0027730Y0014880D01*
G01X0012270Y0014790D02*
G01X0027730Y0014790D01*
G01X0012270Y0014700D02*
G01X0027730Y0014700D01*
G01X0012270Y0014610D02*
G01X0027730Y0014610D01*
G01X0012270Y0014520D02*
G01X0027730Y0014520D01*
G01X0012270Y0014430D02*
G01X0027730Y0014430D01*
G01X0012270Y0014340D02*
G01X0027730Y0014340D01*
G01X0012270Y0014250D02*
G01X0027730Y0014250D01*
G01X0012270Y0014160D02*
G01X0027730Y0014160D01*
G01X0012270Y0014070D02*
G01X0027730Y0014070D01*
G01X0012270Y0013980D02*
G01X0027730Y0013980D01*
G01X0012270Y0013890D02*
G01X0027730Y0013890D01*
G01X0012270Y0013800D02*
G01X0027730Y0013800D01*
G01X0012270Y0013710D02*
G01X0027730Y0013710D01*
G01X0012270Y0013620D02*
G01X0027730Y0013620D01*
G01X0012270Y0013530D02*
G01X0027730Y0013530D01*
G01X0012270Y0013440D02*
G01X0027730Y0013440D01*
G01X0012270Y0013350D02*
G01X0027730Y0013350D01*
G01X0012270Y0013260D02*
G01X0027730Y0013260D01*
G01X0012270Y0013170D02*
G01X0027730Y0013170D01*
G01X0012270Y0013080D02*
G01X0027730Y0013080D01*
G01X0012270Y0012990D02*
G01X0027730Y0012990D01*
G01X0012270Y0012900D02*
G01X0027730Y0012900D01*
G01X0012270Y0012810D02*
G01X0027730Y0012810D01*
G01X0012270Y0012720D02*
G01X0027730Y0012720D01*
G01X0012270Y0012630D02*
G01X0027730Y0012630D01*
G01X0012270Y0012540D02*
G01X0027730Y0012540D01*
G01X0012270Y0012450D02*
G01X0027730Y0012450D01*
G01X0012270Y0012360D02*
G01X0027730Y0012360D01*
G01X0025716Y0024060D02*
G01X0026284Y0024060D01*
G01X0025761Y0015960D02*
G01X0026239Y0015960D01*
G01X0025873Y0023970D02*
G01X0026127Y0023970D01*
G01X0025897Y0016050D02*
G01X0026103Y0016050D01*
G01X0025965Y0023880D02*
G01X0026035Y0023880D01*
G01X0014716Y0024060D02*
G01X0025284Y0024060D01*
G01X0014761Y0015960D02*
G01X0025239Y0015960D01*
G01X0014865Y0021000D02*
G01X0025135Y0021000D01*
G01X0014866Y0020010D02*
G01X0025134Y0020010D01*
G01X0014866Y0021990D02*
G01X0025134Y0021990D01*
G01X0014870Y0019020D02*
G01X0025130Y0019020D01*
G01X0014870Y0022980D02*
G01X0025130Y0022980D01*
G01X0014873Y0023970D02*
G01X0025127Y0023970D01*
G01X0014875Y0018030D02*
G01X0025125Y0018030D01*
G01X0021104Y0017040D02*
G01X0025115Y0017040D01*
G01X0014897Y0016050D02*
G01X0025103Y0016050D01*
G01X0021133Y0016950D02*
G01X0025103Y0016950D01*
G01X0014908Y0017940D02*
G01X0025092Y0017940D01*
G01X0014918Y0023070D02*
G01X0025082Y0023070D01*
G01X0014919Y0018930D02*
G01X0025081Y0018930D01*
G01X0014928Y0022080D02*
G01X0025072Y0022080D01*
G01X0014929Y0019920D02*
G01X0025071Y0019920D01*
G01X0014938Y0021090D02*
G01X0025062Y0021090D01*
G01X0014938Y0020910D02*
G01X0025062Y0020910D01*
G01X0014947Y0020100D02*
G01X0025053Y0020100D01*
G01X0014947Y0021900D02*
G01X0025053Y0021900D01*
G01X0014956Y0019110D02*
G01X0025044Y0019110D01*
G01X0014956Y0022890D02*
G01X0025044Y0022890D01*
G01X0014964Y0018120D02*
G01X0025036Y0018120D01*
G01X0014964Y0023880D02*
G01X0025036Y0023880D01*
G01X0021060Y0017130D02*
G01X0025028Y0017130D01*
G01X0014980Y0016140D02*
G01X0025020Y0016140D01*
G01X0021147Y0016860D02*
G01X0025020Y0016860D01*
G01X0014987Y0017850D02*
G01X0025013Y0017850D01*
G01X0014994Y0023160D02*
G01X0025006Y0023160D01*
G01X0014995Y0018840D02*
G01X0025006Y0018840D01*
G01X0015001Y0022170D02*
G01X0024999Y0022170D01*
G01X0015001Y0019830D02*
G01X0024999Y0019830D01*
G01X0015008Y0021180D02*
G01X0024993Y0021180D01*
G01X0015008Y0020820D02*
G01X0024992Y0020820D01*
G01X0015014Y0020190D02*
G01X0024986Y0020190D01*
G01X0015014Y0021810D02*
G01X0024986Y0021810D01*
G01X0015019Y0019200D02*
G01X0024981Y0019200D01*
G01X0015020Y0022800D02*
G01X0024980Y0022800D01*
G01X0015025Y0018210D02*
G01X0024975Y0018210D01*
G01X0015025Y0023790D02*
G01X0024975Y0023790D01*
G01X0020996Y0017220D02*
G01X0024969Y0017220D01*
G01X0020812Y0016230D02*
G01X0024964Y0016230D01*
G01X0021149Y0016770D02*
G01X0024964Y0016770D01*
G01X0015041Y0017760D02*
G01X0024959Y0017760D01*
G01X0015045Y0023250D02*
G01X0024955Y0023250D01*
G01X0015046Y0018750D02*
G01X0024955Y0018750D01*
G01X0015050Y0022260D02*
G01X0024950Y0022260D01*
G01X0015050Y0019740D02*
G01X0024950Y0019740D01*
G01X0015054Y0021270D02*
G01X0024946Y0021270D01*
G01X0015054Y0020730D02*
G01X0024946Y0020730D01*
G01X0015058Y0020280D02*
G01X0024942Y0020280D01*
G01X0015058Y0021720D02*
G01X0024942Y0021720D01*
G01X0015062Y0019290D02*
G01X0024938Y0019290D01*
G01X0015062Y0022710D02*
G01X0024938Y0022710D01*
G01X0015066Y0018300D02*
G01X0024934Y0018300D01*
G01X0015066Y0023700D02*
G01X0024934Y0023700D01*
G01X0020903Y0017310D02*
G01X0024931Y0017310D01*
G01X0020938Y0016320D02*
G01X0024928Y0016320D01*
G01X0021139Y0016680D02*
G01X0024928Y0016680D01*
G01X0015076Y0017670D02*
G01X0024925Y0017670D01*
G01X0015078Y0023340D02*
G01X0024922Y0023340D01*
G01X0015078Y0018660D02*
G01X0024922Y0018660D01*
G01X0015081Y0022350D02*
G01X0024919Y0022350D01*
G01X0015081Y0019650D02*
G01X0024919Y0019650D01*
G01X0015083Y0021360D02*
G01X0024917Y0021360D01*
G01X0015084Y0020640D02*
G01X0024917Y0020640D01*
G01X0015086Y0020370D02*
G01X0024914Y0020370D01*
G01X0015086Y0021630D02*
G01X0024914Y0021630D01*
G01X0015088Y0019380D02*
G01X0024912Y0019380D01*
G01X0015088Y0022620D02*
G01X0024912Y0022620D01*
G01X0015090Y0018390D02*
G01X0024910Y0018390D01*
G01X0015090Y0023610D02*
G01X0024910Y0023610D01*
G01X0020750Y0017400D02*
G01X0024908Y0017400D01*
G01X0021020Y0016410D02*
G01X0024907Y0016410D01*
G01X0021115Y0016590D02*
G01X0024907Y0016590D01*
G01X0015095Y0017580D02*
G01X0024905Y0017580D01*
G01X0015096Y0023430D02*
G01X0024904Y0023430D01*
G01X0015096Y0018570D02*
G01X0024904Y0018570D01*
G01X0015097Y0022440D02*
G01X0024903Y0022440D01*
G01X0015097Y0019560D02*
G01X0024903Y0019560D01*
G01X0015098Y0021450D02*
G01X0024902Y0021450D01*
G01X0015098Y0020550D02*
G01X0024902Y0020550D01*
G01X0015099Y0020460D02*
G01X0024901Y0020460D01*
G01X0015099Y0021540D02*
G01X0024901Y0021540D01*
G01X0015099Y0019470D02*
G01X0024901Y0019470D01*
G01X0015099Y0022530D02*
G01X0024901Y0022530D01*
G01X0015100Y0018480D02*
G01X0024900Y0018480D01*
G01X0015100Y0023520D02*
G01X0024900Y0023520D01*
G01X0015100Y0017490D02*
G01X0024900Y0017490D01*
G01X0021077Y0016500D02*
G01X0024900Y0016500D01*
G01X0018160Y0024870D02*
G01X0021841Y0024870D01*
G01X0018196Y0027120D02*
G01X0021804Y0027120D01*
G01X0018362Y0024960D02*
G01X0021638Y0024960D01*
G01X0018377Y0027030D02*
G01X0021624Y0027030D01*
G01X0018459Y0026040D02*
G01X0021541Y0026040D01*
G01X0018469Y0025050D02*
G01X0021531Y0025050D01*
G01X0018469Y0025950D02*
G01X0021531Y0025950D01*
G01X0018479Y0026940D02*
G01X0021521Y0026940D01*
G01X0018534Y0026130D02*
G01X0021466Y0026130D01*
G01X0018541Y0025140D02*
G01X0021459Y0025140D01*
G01X0018541Y0025860D02*
G01X0021459Y0025860D01*
G01X0018548Y0026850D02*
G01X0021452Y0026850D01*
G01X0018587Y0026220D02*
G01X0021414Y0026220D01*
G01X0018591Y0025230D02*
G01X0021409Y0025230D01*
G01X0018591Y0025770D02*
G01X0021409Y0025770D01*
G01X0018596Y0026760D02*
G01X0021404Y0026760D01*
G01X0018622Y0026310D02*
G01X0021378Y0026310D01*
G01X0018625Y0025320D02*
G01X0021376Y0025320D01*
G01X0018625Y0025680D02*
G01X0021375Y0025680D01*
G01X0018627Y0026670D02*
G01X0021373Y0026670D01*
G01X0018642Y0026400D02*
G01X0021358Y0026400D01*
G01X0018644Y0025410D02*
G01X0021356Y0025410D01*
G01X0018644Y0025590D02*
G01X0021356Y0025590D01*
G01X0018645Y0026580D02*
G01X0021355Y0026580D01*
G01X0018650Y0026490D02*
G01X0021350Y0026490D01*
G01X0018650Y0025500D02*
G01X0021350Y0025500D01*
G01X0015092Y0017400D02*
G01X0020250Y0017400D01*
G01X0015036Y0016230D02*
G01X0020188Y0016230D01*
G01X0015069Y0017310D02*
G01X0020097Y0017310D01*
G01X0015072Y0016320D02*
G01X0020062Y0016320D01*
G01X0015031Y0017220D02*
G01X0020004Y0017220D01*
G01X0015093Y0016410D02*
G01X0019980Y0016410D01*
G01X0014972Y0017130D02*
G01X0019940Y0017130D01*
G01X0015100Y0016500D02*
G01X0019923Y0016500D01*
G01X0014885Y0017040D02*
G01X0019896Y0017040D01*
G01X0015093Y0016590D02*
G01X0019885Y0016590D01*
G01X0014897Y0016950D02*
G01X0019868Y0016950D01*
G01X0015072Y0016680D02*
G01X0019861Y0016680D01*
G01X0014980Y0016860D02*
G01X0019853Y0016860D01*
G01X0015036Y0016770D02*
G01X0019851Y0016770D01*
G01X0012270Y0024870D02*
G01X0017841Y0024870D01*
G01X0012270Y0027120D02*
G01X0017804Y0027120D01*
G01X0012270Y0024960D02*
G01X0017638Y0024960D01*
G01X0012270Y0027030D02*
G01X0017624Y0027030D01*
G01X0012270Y0026040D02*
G01X0017541Y0026040D01*
G01X0012270Y0025050D02*
G01X0017531Y0025050D01*
G01X0012270Y0025950D02*
G01X0017531Y0025950D01*
G01X0012270Y0026940D02*
G01X0017521Y0026940D01*
G01X0012270Y0026130D02*
G01X0017466Y0026130D01*
G01X0012270Y0025140D02*
G01X0017459Y0025140D01*
G01X0012270Y0025860D02*
G01X0017459Y0025860D01*
G01X0012270Y0026850D02*
G01X0017452Y0026850D01*
G01X0012270Y0026220D02*
G01X0017414Y0026220D01*
G01X0012270Y0025230D02*
G01X0017409Y0025230D01*
G01X0012270Y0025770D02*
G01X0017409Y0025770D01*
G01X0012270Y0026760D02*
G01X0017404Y0026760D01*
G01X0012270Y0026310D02*
G01X0017378Y0026310D01*
G01X0012270Y0025320D02*
G01X0017376Y0025320D01*
G01X0012270Y0025680D02*
G01X0017375Y0025680D01*
G01X0012270Y0026670D02*
G01X0017373Y0026670D01*
G01X0012270Y0026400D02*
G01X0017358Y0026400D01*
G01X0012270Y0025410D02*
G01X0017356Y0025410D01*
G01X0012270Y0025590D02*
G01X0017356Y0025590D01*
G01X0012270Y0026580D02*
G01X0017355Y0026580D01*
G01X0012270Y0026490D02*
G01X0017350Y0026490D01*
G01X0012270Y0025500D02*
G01X0017350Y0025500D01*
G01X0013716Y0024060D02*
G01X0014284Y0024060D01*
G01X0013761Y0015960D02*
G01X0014239Y0015960D01*
G01X0013873Y0023970D02*
G01X0014127Y0023970D01*
G01X0013897Y0016050D02*
G01X0014103Y0016050D01*
G01X0013965Y0023880D02*
G01X0014035Y0023880D01*
G01X0012270Y0024060D02*
G01X0013284Y0024060D01*
G01X0012270Y0015960D02*
G01X0013239Y0015960D01*
G01X0012270Y0021000D02*
G01X0013135Y0021000D01*
G01X0012270Y0020010D02*
G01X0013134Y0020010D01*
G01X0012270Y0021990D02*
G01X0013134Y0021990D01*
G01X0012270Y0019020D02*
G01X0013131Y0019020D01*
G01X0012270Y0022980D02*
G01X0013130Y0022980D01*
G01X0012270Y0023970D02*
G01X0013127Y0023970D01*
G01X0012270Y0018030D02*
G01X0013125Y0018030D01*
G01X0012270Y0017040D02*
G01X0013115Y0017040D01*
G01X0012270Y0016050D02*
G01X0013103Y0016050D01*
G01X0012270Y0016950D02*
G01X0013103Y0016950D01*
G01X0012270Y0017940D02*
G01X0013092Y0017940D01*
G01X0012270Y0023070D02*
G01X0013082Y0023070D01*
G01X0012270Y0018930D02*
G01X0013081Y0018930D01*
G01X0012270Y0022080D02*
G01X0013072Y0022080D01*
G01X0012270Y0019920D02*
G01X0013071Y0019920D01*
G01X0012270Y0021090D02*
G01X0013062Y0021090D01*
G01X0012270Y0020910D02*
G01X0013062Y0020910D01*
G01X0012270Y0020100D02*
G01X0013053Y0020100D01*
G01X0012270Y0021900D02*
G01X0013053Y0021900D01*
G01X0012270Y0019110D02*
G01X0013044Y0019110D01*
G01X0012270Y0022890D02*
G01X0013044Y0022890D01*
G01X0012270Y0018120D02*
G01X0013036Y0018120D01*
G01X0012270Y0023880D02*
G01X0013036Y0023880D01*
G01X0012270Y0017130D02*
G01X0013028Y0017130D01*
G01X0012270Y0016140D02*
G01X0013020Y0016140D01*
G01X0012270Y0016860D02*
G01X0013020Y0016860D01*
G01X0012270Y0017850D02*
G01X0013013Y0017850D01*
G01X0012270Y0023160D02*
G01X0013006Y0023160D01*
G01X0012270Y0018840D02*
G01X0013006Y0018840D01*
G01X0012270Y0022170D02*
G01X0012999Y0022170D01*
G01X0012270Y0019830D02*
G01X0012999Y0019830D01*
G01X0012270Y0021180D02*
G01X0012993Y0021180D01*
G01X0012270Y0020820D02*
G01X0012992Y0020820D01*
G01X0012270Y0020190D02*
G01X0012986Y0020190D01*
G01X0012270Y0021810D02*
G01X0012986Y0021810D01*
G01X0012270Y0019200D02*
G01X0012981Y0019200D01*
G01X0012270Y0022800D02*
G01X0012980Y0022800D01*
G01X0012270Y0018210D02*
G01X0012975Y0018210D01*
G01X0012270Y0023790D02*
G01X0012975Y0023790D01*
G01X0012270Y0017220D02*
G01X0012969Y0017220D01*
G01X0012270Y0016230D02*
G01X0012964Y0016230D01*
G01X0012270Y0016770D02*
G01X0012964Y0016770D01*
G01X0012270Y0017760D02*
G01X0012959Y0017760D01*
G01X0012270Y0023250D02*
G01X0012955Y0023250D01*
G01X0012270Y0018750D02*
G01X0012955Y0018750D01*
G01X0012270Y0022260D02*
G01X0012950Y0022260D01*
G01X0012270Y0019740D02*
G01X0012950Y0019740D01*
G01X0012270Y0021270D02*
G01X0012946Y0021270D01*
G01X0012270Y0020730D02*
G01X0012946Y0020730D01*
G01X0012270Y0020280D02*
G01X0012942Y0020280D01*
G01X0012270Y0021720D02*
G01X0012942Y0021720D01*
G01X0012270Y0019290D02*
G01X0012938Y0019290D01*
G01X0012270Y0022710D02*
G01X0012938Y0022710D01*
G01X0012270Y0018300D02*
G01X0012934Y0018300D01*
G01X0012270Y0023700D02*
G01X0012934Y0023700D01*
G01X0012270Y0017310D02*
G01X0012931Y0017310D01*
G01X0012270Y0016320D02*
G01X0012928Y0016320D01*
G01X0012270Y0016680D02*
G01X0012928Y0016680D01*
G01X0012270Y0017670D02*
G01X0012925Y0017670D01*
G01X0012270Y0023340D02*
G01X0012922Y0023340D01*
G01X0012270Y0018660D02*
G01X0012922Y0018660D01*
G01X0012270Y0022350D02*
G01X0012919Y0022350D01*
G01X0012270Y0019650D02*
G01X0012919Y0019650D01*
G01X0012270Y0021360D02*
G01X0012917Y0021360D01*
G01X0012270Y0020640D02*
G01X0012917Y0020640D01*
G01X0012270Y0020370D02*
G01X0012914Y0020370D01*
G01X0012270Y0021630D02*
G01X0012914Y0021630D01*
G01X0012270Y0019380D02*
G01X0012912Y0019380D01*
G01X0012270Y0022620D02*
G01X0012912Y0022620D01*
G01X0012270Y0018390D02*
G01X0012910Y0018390D01*
G01X0012270Y0023610D02*
G01X0012910Y0023610D01*
G01X0012270Y0017400D02*
G01X0012908Y0017400D01*
G01X0012270Y0016410D02*
G01X0012907Y0016410D01*
G01X0012270Y0016590D02*
G01X0012907Y0016590D01*
G01X0012270Y0017580D02*
G01X0012905Y0017580D01*
G01X0012270Y0023430D02*
G01X0012904Y0023430D01*
G01X0012270Y0018570D02*
G01X0012904Y0018570D01*
G01X0012270Y0022440D02*
G01X0012903Y0022440D01*
G01X0012270Y0019560D02*
G01X0012903Y0019560D01*
G01X0012270Y0021450D02*
G01X0012902Y0021450D01*
G01X0012270Y0020550D02*
G01X0012902Y0020550D01*
G01X0012270Y0020460D02*
G01X0012901Y0020460D01*
G01X0012270Y0021540D02*
G01X0012901Y0021540D01*
G01X0012270Y0019470D02*
G01X0012901Y0019470D01*
G01X0012270Y0022530D02*
G01X0012901Y0022530D01*
G01X0012270Y0018480D02*
G01X0012900Y0018480D01*
G01X0012270Y0023520D02*
G01X0012900Y0023520D01*
G01X0012270Y0017490D02*
G01X0012900Y0017490D01*
G01X0012270Y0016500D02*
G01X0012900Y0016500D01*
G54D13*
G01X0025500Y0023500D03*
G01X0026500Y0023500D03*
G01X0025500Y0022500D03*
G01X0026500Y0022500D03*
G01X0025500Y0021500D03*
G01X0026500Y0021500D03*
G01X0025500Y0020500D03*
G01X0026500Y0020500D03*
G01X0025500Y0019500D03*
G01X0026500Y0019500D03*
G01X0025500Y0018500D03*
G01X0026500Y0018500D03*
G01X0025500Y0017500D03*
G01X0026500Y0017500D03*
G01X0025500Y0016500D03*
G01X0026500Y0016500D03*
G01X0013500Y0023500D03*
G01X0014500Y0023500D03*
G01X0013500Y0022500D03*
G01X0014500Y0022500D03*
G01X0013500Y0021500D03*
G01X0014500Y0021500D03*
G01X0013500Y0020500D03*
G01X0014500Y0020500D03*
G01X0013500Y0019500D03*
G01X0014500Y0019500D03*
G01X0013500Y0018500D03*
G01X0014500Y0018500D03*
G01X0013500Y0017500D03*
G01X0014500Y0017500D03*
G01X0013500Y0016500D03*
G01X0014500Y0016500D03*
G54D14*
G01X0023000Y0026500D03*
G01X0023000Y0025500D03*
G01X0022000Y0026500D03*
G01X0022000Y0025500D03*
G01X0021000Y0026500D03*
G01X0021000Y0025500D03*
G01X0019000Y0026500D03*
G01X0019000Y0025500D03*
G01X0018000Y0026500D03*
G01X0018000Y0025500D03*
G01X0017000Y0026500D03*
G01X0017000Y0025500D03*
G01X0020500Y0016800D03*
G01X0019500Y0016800D03*
M02*
