G04 This is an RS-274x file exported by *
G04 gerbv version 2.6.1 *
G04 More information is available about gerbv at *
G04 http://gerbv.geda-project.org/ *
G04 --End of header info--*
%MOIN*%
%FSLAX34Y34*%
%IPPOS*%
%IN "TXB0108.pcb"*%
G04 --Define apertures--*
%ADD10C,0.0010*%
%ADD11C,0.0100*%
%ADD12C,0.0050*%
%ADD13C,0.0080*%
G04 --Start main section--*
G54D11*
G01X0016705Y0024706D02*
G01X0016886Y0024050D01*
G01X0017068Y0024706D02*
G01X0016886Y0024050D01*
G01X0017546Y0024394D02*
G01X0017500Y0024456D01*
G01X0017500Y0024456D02*
G01X0017455Y0024488D01*
G01X0017455Y0024488D02*
G01X0017386Y0024488D01*
G01X0017386Y0024488D02*
G01X0017341Y0024456D01*
G01X0017341Y0024456D02*
G01X0017296Y0024394D01*
G01X0017296Y0024394D02*
G01X0017273Y0024300D01*
G01X0017273Y0024300D02*
G01X0017273Y0024238D01*
G01X0017273Y0024238D02*
G01X0017296Y0024144D01*
G01X0017296Y0024144D02*
G01X0017341Y0024081D01*
G01X0017341Y0024081D02*
G01X0017386Y0024050D01*
G01X0017386Y0024050D02*
G01X0017455Y0024050D01*
G01X0017455Y0024050D02*
G01X0017500Y0024081D01*
G01X0017500Y0024081D02*
G01X0017546Y0024144D01*
G01X0018023Y0024394D02*
G01X0017977Y0024456D01*
G01X0017977Y0024456D02*
G01X0017932Y0024488D01*
G01X0017932Y0024488D02*
G01X0017864Y0024488D01*
G01X0017864Y0024488D02*
G01X0017818Y0024456D01*
G01X0017818Y0024456D02*
G01X0017773Y0024394D01*
G01X0017773Y0024394D02*
G01X0017750Y0024300D01*
G01X0017750Y0024300D02*
G01X0017750Y0024238D01*
G01X0017750Y0024238D02*
G01X0017773Y0024144D01*
G01X0017773Y0024144D02*
G01X0017818Y0024081D01*
G01X0017818Y0024081D02*
G01X0017864Y0024050D01*
G01X0017864Y0024050D02*
G01X0017932Y0024050D01*
G01X0017932Y0024050D02*
G01X0017977Y0024081D01*
G01X0017977Y0024081D02*
G01X0018023Y0024144D01*
G01X0018750Y0024706D02*
G01X0018750Y0024050D01*
G01X0018750Y0024706D02*
G01X0018955Y0024706D01*
G01X0018955Y0024706D02*
G01X0019023Y0024675D01*
G01X0019023Y0024675D02*
G01X0019046Y0024644D01*
G01X0019046Y0024644D02*
G01X0019068Y0024581D01*
G01X0019068Y0024581D02*
G01X0019068Y0024519D01*
G01X0019068Y0024519D02*
G01X0019046Y0024456D01*
G01X0019046Y0024456D02*
G01X0019023Y0024425D01*
G01X0019023Y0024425D02*
G01X0018955Y0024394D01*
G01X0018750Y0024394D02*
G01X0018955Y0024394D01*
G01X0018955Y0024394D02*
G01X0019023Y0024362D01*
G01X0019023Y0024362D02*
G01X0019046Y0024331D01*
G01X0019046Y0024331D02*
G01X0019068Y0024269D01*
G01X0019068Y0024269D02*
G01X0019068Y0024175D01*
G01X0019068Y0024175D02*
G01X0019046Y0024113D01*
G01X0019046Y0024113D02*
G01X0019023Y0024081D01*
G01X0019023Y0024081D02*
G01X0018955Y0024050D01*
G01X0018955Y0024050D02*
G01X0018750Y0024050D01*
G01X0019796Y0024613D02*
G01X0020159Y0024362D01*
G01X0020159Y0024362D02*
G01X0019796Y0024081D01*
G01X0020795Y0024706D02*
G01X0020977Y0024050D01*
G01X0021159Y0024706D02*
G01X0020977Y0024050D01*
G01X0021636Y0024394D02*
G01X0021591Y0024456D01*
G01X0021591Y0024456D02*
G01X0021546Y0024488D01*
G01X0021546Y0024488D02*
G01X0021477Y0024488D01*
G01X0021477Y0024488D02*
G01X0021432Y0024456D01*
G01X0021432Y0024456D02*
G01X0021386Y0024394D01*
G01X0021386Y0024394D02*
G01X0021364Y0024300D01*
G01X0021364Y0024300D02*
G01X0021364Y0024238D01*
G01X0021364Y0024238D02*
G01X0021386Y0024144D01*
G01X0021386Y0024144D02*
G01X0021432Y0024081D01*
G01X0021432Y0024081D02*
G01X0021477Y0024050D01*
G01X0021477Y0024050D02*
G01X0021546Y0024050D01*
G01X0021546Y0024050D02*
G01X0021591Y0024081D01*
G01X0021591Y0024081D02*
G01X0021636Y0024144D01*
G01X0022114Y0024394D02*
G01X0022068Y0024456D01*
G01X0022068Y0024456D02*
G01X0022023Y0024488D01*
G01X0022023Y0024488D02*
G01X0021955Y0024488D01*
G01X0021955Y0024488D02*
G01X0021909Y0024456D01*
G01X0021909Y0024456D02*
G01X0021864Y0024394D01*
G01X0021864Y0024394D02*
G01X0021841Y0024300D01*
G01X0021841Y0024300D02*
G01X0021841Y0024238D01*
G01X0021841Y0024238D02*
G01X0021864Y0024144D01*
G01X0021864Y0024144D02*
G01X0021909Y0024081D01*
G01X0021909Y0024081D02*
G01X0021955Y0024050D01*
G01X0021955Y0024050D02*
G01X0022023Y0024050D01*
G01X0022023Y0024050D02*
G01X0022068Y0024081D01*
G01X0022068Y0024081D02*
G01X0022114Y0024144D01*
G01X0023023Y0024706D02*
G01X0022841Y0024050D01*
G01X0023023Y0024706D02*
G01X0023205Y0024050D01*
G01X0022909Y0024269D02*
G01X0023136Y0024269D01*
G01X0022839Y0018274D02*
G01X0022808Y0018320D01*
G01X0022808Y0018320D02*
G01X0022714Y0018388D01*
G01X0022714Y0018388D02*
G01X0023370Y0018388D01*
G01X0023308Y0018615D02*
G01X0023339Y0018592D01*
G01X0023339Y0018592D02*
G01X0023370Y0018615D01*
G01X0023370Y0018615D02*
G01X0023339Y0018638D01*
G01X0023339Y0018638D02*
G01X0023308Y0018615D01*
G01X0022870Y0018865D02*
G01X0022839Y0018865D01*
G01X0022839Y0018865D02*
G01X0022776Y0018888D01*
G01X0022776Y0018888D02*
G01X0022745Y0018911D01*
G01X0022745Y0018911D02*
G01X0022714Y0018956D01*
G01X0022714Y0018956D02*
G01X0022714Y0019047D01*
G01X0022714Y0019047D02*
G01X0022745Y0019092D01*
G01X0022745Y0019092D02*
G01X0022776Y0019115D01*
G01X0022776Y0019115D02*
G01X0022839Y0019138D01*
G01X0022839Y0019138D02*
G01X0022901Y0019138D01*
G01X0022901Y0019138D02*
G01X0022964Y0019115D01*
G01X0022964Y0019115D02*
G01X0023058Y0019070D01*
G01X0023058Y0019070D02*
G01X0023370Y0018842D01*
G01X0023370Y0018842D02*
G01X0023370Y0019161D01*
G01X0023089Y0019365D02*
G01X0023089Y0019774D01*
G01X0022714Y0020024D02*
G01X0022714Y0020274D01*
G01X0022714Y0020274D02*
G01X0022964Y0020138D01*
G01X0022964Y0020138D02*
G01X0022964Y0020206D01*
G01X0022964Y0020206D02*
G01X0022995Y0020251D01*
G01X0022995Y0020251D02*
G01X0023026Y0020274D01*
G01X0023026Y0020274D02*
G01X0023120Y0020297D01*
G01X0023120Y0020297D02*
G01X0023183Y0020297D01*
G01X0023183Y0020297D02*
G01X0023276Y0020274D01*
G01X0023276Y0020274D02*
G01X0023339Y0020229D01*
G01X0023339Y0020229D02*
G01X0023370Y0020161D01*
G01X0023370Y0020161D02*
G01X0023370Y0020092D01*
G01X0023370Y0020092D02*
G01X0023339Y0020024D01*
G01X0023339Y0020024D02*
G01X0023308Y0020001D01*
G01X0023308Y0020001D02*
G01X0023245Y0019979D01*
G01X0023308Y0020524D02*
G01X0023339Y0020501D01*
G01X0023339Y0020501D02*
G01X0023370Y0020524D01*
G01X0023370Y0020524D02*
G01X0023339Y0020547D01*
G01X0023339Y0020547D02*
G01X0023308Y0020524D01*
G01X0022808Y0021024D02*
G01X0022745Y0021001D01*
G01X0022745Y0021001D02*
G01X0022714Y0020933D01*
G01X0022714Y0020933D02*
G01X0022714Y0020888D01*
G01X0022714Y0020888D02*
G01X0022745Y0020820D01*
G01X0022745Y0020820D02*
G01X0022839Y0020774D01*
G01X0022839Y0020774D02*
G01X0022995Y0020751D01*
G01X0022995Y0020751D02*
G01X0023151Y0020751D01*
G01X0023151Y0020751D02*
G01X0023276Y0020774D01*
G01X0023276Y0020774D02*
G01X0023339Y0020820D01*
G01X0023339Y0020820D02*
G01X0023370Y0020888D01*
G01X0023370Y0020888D02*
G01X0023370Y0020911D01*
G01X0023370Y0020911D02*
G01X0023339Y0020979D01*
G01X0023339Y0020979D02*
G01X0023276Y0021024D01*
G01X0023276Y0021024D02*
G01X0023183Y0021047D01*
G01X0023183Y0021047D02*
G01X0023151Y0021047D01*
G01X0023151Y0021047D02*
G01X0023058Y0021024D01*
G01X0023058Y0021024D02*
G01X0022995Y0020979D01*
G01X0022995Y0020979D02*
G01X0022964Y0020911D01*
G01X0022964Y0020911D02*
G01X0022964Y0020888D01*
G01X0022964Y0020888D02*
G01X0022995Y0020820D01*
G01X0022995Y0020820D02*
G01X0023058Y0020774D01*
G01X0023058Y0020774D02*
G01X0023151Y0020751D01*
G01X0022714Y0021251D02*
G01X0023370Y0021433D01*
G01X0022714Y0021615D02*
G01X0023370Y0021433D01*
G01X0016969Y0018220D02*
G01X0016938Y0018266D01*
G01X0016938Y0018266D02*
G01X0016844Y0018334D01*
G01X0016844Y0018334D02*
G01X0017501Y0018334D01*
G01X0017438Y0018561D02*
G01X0017469Y0018538D01*
G01X0017469Y0018538D02*
G01X0017501Y0018561D01*
G01X0017501Y0018561D02*
G01X0017469Y0018584D01*
G01X0017469Y0018584D02*
G01X0017438Y0018561D01*
G01X0016844Y0019106D02*
G01X0017501Y0018879D01*
G01X0016844Y0018788D02*
G01X0016844Y0019106D01*
G01X0017219Y0019311D02*
G01X0017219Y0019720D01*
G01X0016844Y0020220D02*
G01X0016844Y0019993D01*
G01X0016844Y0019993D02*
G01X0017126Y0019970D01*
G01X0017126Y0019970D02*
G01X0017094Y0019993D01*
G01X0017094Y0019993D02*
G01X0017063Y0020061D01*
G01X0017063Y0020061D02*
G01X0017063Y0020129D01*
G01X0017063Y0020129D02*
G01X0017094Y0020197D01*
G01X0017094Y0020197D02*
G01X0017157Y0020243D01*
G01X0017157Y0020243D02*
G01X0017251Y0020266D01*
G01X0017251Y0020266D02*
G01X0017313Y0020243D01*
G01X0017313Y0020243D02*
G01X0017407Y0020220D01*
G01X0017407Y0020220D02*
G01X0017469Y0020175D01*
G01X0017469Y0020175D02*
G01X0017501Y0020106D01*
G01X0017501Y0020106D02*
G01X0017501Y0020038D01*
G01X0017501Y0020038D02*
G01X0017469Y0019970D01*
G01X0017469Y0019970D02*
G01X0017438Y0019947D01*
G01X0017438Y0019947D02*
G01X0017376Y0019925D01*
G01X0017438Y0020493D02*
G01X0017469Y0020470D01*
G01X0017469Y0020470D02*
G01X0017501Y0020493D01*
G01X0017501Y0020493D02*
G01X0017469Y0020516D01*
G01X0017469Y0020516D02*
G01X0017438Y0020493D01*
G01X0016844Y0021016D02*
G01X0016844Y0020788D01*
G01X0016844Y0020788D02*
G01X0017126Y0020766D01*
G01X0017126Y0020766D02*
G01X0017094Y0020788D01*
G01X0017094Y0020788D02*
G01X0017063Y0020856D01*
G01X0017063Y0020856D02*
G01X0017063Y0020925D01*
G01X0017063Y0020925D02*
G01X0017094Y0020993D01*
G01X0017094Y0020993D02*
G01X0017157Y0021038D01*
G01X0017157Y0021038D02*
G01X0017251Y0021061D01*
G01X0017251Y0021061D02*
G01X0017313Y0021038D01*
G01X0017313Y0021038D02*
G01X0017407Y0021016D01*
G01X0017407Y0021016D02*
G01X0017469Y0020970D01*
G01X0017469Y0020970D02*
G01X0017501Y0020902D01*
G01X0017501Y0020902D02*
G01X0017501Y0020834D01*
G01X0017501Y0020834D02*
G01X0017469Y0020766D01*
G01X0017469Y0020766D02*
G01X0017438Y0020743D01*
G01X0017438Y0020743D02*
G01X0017376Y0020720D01*
G01X0016844Y0021266D02*
G01X0017501Y0021447D01*
G01X0016844Y0021629D02*
G01X0017501Y0021447D01*
G01X0020000Y0022130D02*
G01X0020000Y0018040D01*
G54D12*
G01X0021921Y0026259D02*
G01X0021921Y0025959D01*
G01X0021921Y0025959D02*
G01X0021907Y0025903D01*
G01X0021907Y0025903D02*
G01X0021893Y0025884D01*
G01X0021893Y0025884D02*
G01X0021866Y0025866D01*
G01X0021866Y0025866D02*
G01X0021839Y0025866D01*
G01X0021839Y0025866D02*
G01X0021811Y0025884D01*
G01X0021811Y0025884D02*
G01X0021798Y0025903D01*
G01X0021798Y0025903D02*
G01X0021784Y0025959D01*
G01X0021784Y0025959D02*
G01X0021784Y0025997D01*
G01X0022043Y0026184D02*
G01X0022071Y0026203D01*
G01X0022071Y0026203D02*
G01X0022111Y0026259D01*
G01X0022111Y0026259D02*
G01X0022111Y0025866D01*
G01X0017859Y0026259D02*
G01X0017859Y0025959D01*
G01X0017859Y0025959D02*
G01X0017846Y0025903D01*
G01X0017846Y0025903D02*
G01X0017832Y0025884D01*
G01X0017832Y0025884D02*
G01X0017805Y0025866D01*
G01X0017805Y0025866D02*
G01X0017777Y0025866D01*
G01X0017777Y0025866D02*
G01X0017750Y0025884D01*
G01X0017750Y0025884D02*
G01X0017736Y0025903D01*
G01X0017736Y0025903D02*
G01X0017723Y0025959D01*
G01X0017723Y0025959D02*
G01X0017723Y0025997D01*
G01X0017996Y0026166D02*
G01X0017996Y0026184D01*
G01X0017996Y0026184D02*
G01X0018009Y0026222D01*
G01X0018009Y0026222D02*
G01X0018023Y0026241D01*
G01X0018023Y0026241D02*
G01X0018050Y0026259D01*
G01X0018050Y0026259D02*
G01X0018105Y0026259D01*
G01X0018105Y0026259D02*
G01X0018132Y0026241D01*
G01X0018132Y0026241D02*
G01X0018146Y0026222D01*
G01X0018146Y0026222D02*
G01X0018159Y0026184D01*
G01X0018159Y0026184D02*
G01X0018159Y0026147D01*
G01X0018159Y0026147D02*
G01X0018146Y0026109D01*
G01X0018146Y0026109D02*
G01X0018118Y0026053D01*
G01X0018118Y0026053D02*
G01X0017982Y0025866D01*
G01X0017982Y0025866D02*
G01X0018173Y0025866D01*
G01X0025741Y0019852D02*
G01X0026041Y0019852D01*
G01X0026041Y0019852D02*
G01X0026097Y0019839D01*
G01X0026097Y0019839D02*
G01X0026116Y0019825D01*
G01X0026116Y0019825D02*
G01X0026134Y0019798D01*
G01X0026134Y0019798D02*
G01X0026134Y0019771D01*
G01X0026134Y0019771D02*
G01X0026116Y0019743D01*
G01X0026116Y0019743D02*
G01X0026097Y0019730D01*
G01X0026097Y0019730D02*
G01X0026041Y0019716D01*
G01X0026041Y0019716D02*
G01X0026003Y0019716D01*
G01X0025741Y0020111D02*
G01X0026003Y0019975D01*
G01X0026003Y0019975D02*
G01X0026003Y0020180D01*
G01X0025741Y0020111D02*
G01X0026134Y0020111D01*
G01X0013741Y0019852D02*
G01X0014041Y0019852D01*
G01X0014041Y0019852D02*
G01X0014097Y0019839D01*
G01X0014097Y0019839D02*
G01X0014116Y0019825D01*
G01X0014116Y0019825D02*
G01X0014134Y0019798D01*
G01X0014134Y0019798D02*
G01X0014134Y0019771D01*
G01X0014134Y0019771D02*
G01X0014116Y0019743D01*
G01X0014116Y0019743D02*
G01X0014097Y0019730D01*
G01X0014097Y0019730D02*
G01X0014041Y0019716D01*
G01X0014041Y0019716D02*
G01X0014003Y0019716D01*
G01X0013741Y0020152D02*
G01X0013741Y0020016D01*
G01X0013741Y0020016D02*
G01X0013909Y0020002D01*
G01X0013909Y0020002D02*
G01X0013891Y0020016D01*
G01X0013891Y0020016D02*
G01X0013872Y0020057D01*
G01X0013872Y0020057D02*
G01X0013872Y0020098D01*
G01X0013872Y0020098D02*
G01X0013891Y0020139D01*
G01X0013891Y0020139D02*
G01X0013928Y0020166D01*
G01X0013928Y0020166D02*
G01X0013984Y0020180D01*
G01X0013984Y0020180D02*
G01X0014022Y0020166D01*
G01X0014022Y0020166D02*
G01X0014078Y0020152D01*
G01X0014078Y0020152D02*
G01X0014116Y0020125D01*
G01X0014116Y0020125D02*
G01X0014134Y0020084D01*
G01X0014134Y0020084D02*
G01X0014134Y0020043D01*
G01X0014134Y0020043D02*
G01X0014116Y0020002D01*
G01X0014116Y0020002D02*
G01X0014097Y0019989D01*
G01X0014097Y0019989D02*
G01X0014059Y0019975D01*
G01X0013743Y0014259D02*
G01X0013743Y0013866D01*
G01X0013743Y0014259D02*
G01X0013852Y0013866D01*
G01X0013961Y0014259D02*
G01X0013852Y0013866D01*
G01X0013961Y0014259D02*
G01X0013961Y0013866D01*
G01X0014084Y0014184D02*
G01X0014111Y0014203D01*
G01X0014111Y0014203D02*
G01X0014152Y0014259D01*
G01X0014152Y0014259D02*
G01X0014152Y0013866D01*
G01X0013682Y0026259D02*
G01X0013682Y0025866D01*
G01X0013682Y0026259D02*
G01X0013791Y0025866D01*
G01X0013900Y0026259D02*
G01X0013791Y0025866D01*
G01X0013900Y0026259D02*
G01X0013900Y0025866D01*
G01X0014036Y0026166D02*
G01X0014036Y0026184D01*
G01X0014036Y0026184D02*
G01X0014050Y0026222D01*
G01X0014050Y0026222D02*
G01X0014064Y0026241D01*
G01X0014064Y0026241D02*
G01X0014091Y0026259D01*
G01X0014091Y0026259D02*
G01X0014146Y0026259D01*
G01X0014146Y0026259D02*
G01X0014173Y0026241D01*
G01X0014173Y0026241D02*
G01X0014186Y0026222D01*
G01X0014186Y0026222D02*
G01X0014200Y0026184D01*
G01X0014200Y0026184D02*
G01X0014200Y0026147D01*
G01X0014200Y0026147D02*
G01X0014186Y0026109D01*
G01X0014186Y0026109D02*
G01X0014159Y0026053D01*
G01X0014159Y0026053D02*
G01X0014023Y0025866D01*
G01X0014023Y0025866D02*
G01X0014214Y0025866D01*
G01X0025682Y0026259D02*
G01X0025682Y0025866D01*
G01X0025682Y0026259D02*
G01X0025791Y0025866D01*
G01X0025900Y0026259D02*
G01X0025791Y0025866D01*
G01X0025900Y0026259D02*
G01X0025900Y0025866D01*
G01X0026050Y0026259D02*
G01X0026200Y0026259D01*
G01X0026200Y0026259D02*
G01X0026118Y0026109D01*
G01X0026118Y0026109D02*
G01X0026159Y0026109D01*
G01X0026159Y0026109D02*
G01X0026186Y0026091D01*
G01X0026186Y0026091D02*
G01X0026200Y0026072D01*
G01X0026200Y0026072D02*
G01X0026214Y0026016D01*
G01X0026214Y0026016D02*
G01X0026214Y0025978D01*
G01X0026214Y0025978D02*
G01X0026200Y0025922D01*
G01X0026200Y0025922D02*
G01X0026173Y0025884D01*
G01X0026173Y0025884D02*
G01X0026132Y0025866D01*
G01X0026132Y0025866D02*
G01X0026091Y0025866D01*
G01X0026091Y0025866D02*
G01X0026050Y0025884D01*
G01X0026050Y0025884D02*
G01X0026036Y0025903D01*
G01X0026036Y0025903D02*
G01X0026023Y0025941D01*
G01X0025675Y0014259D02*
G01X0025675Y0013866D01*
G01X0025675Y0014259D02*
G01X0025784Y0013866D01*
G01X0025893Y0014259D02*
G01X0025784Y0013866D01*
G01X0025893Y0014259D02*
G01X0025893Y0013866D01*
G01X0026152Y0014259D02*
G01X0026016Y0013997D01*
G01X0026016Y0013997D02*
G01X0026221Y0013997D01*
G01X0026152Y0014259D02*
G01X0026152Y0013866D01*
G01X0019859Y0016859D02*
G01X0019859Y0016559D01*
G01X0019859Y0016559D02*
G01X0019846Y0016503D01*
G01X0019846Y0016503D02*
G01X0019832Y0016484D01*
G01X0019832Y0016484D02*
G01X0019805Y0016466D01*
G01X0019805Y0016466D02*
G01X0019777Y0016466D01*
G01X0019777Y0016466D02*
G01X0019750Y0016484D01*
G01X0019750Y0016484D02*
G01X0019736Y0016503D01*
G01X0019736Y0016503D02*
G01X0019723Y0016559D01*
G01X0019723Y0016559D02*
G01X0019723Y0016597D01*
G01X0020009Y0016859D02*
G01X0020159Y0016859D01*
G01X0020159Y0016859D02*
G01X0020077Y0016709D01*
G01X0020077Y0016709D02*
G01X0020118Y0016709D01*
G01X0020118Y0016709D02*
G01X0020146Y0016691D01*
G01X0020146Y0016691D02*
G01X0020159Y0016672D01*
G01X0020159Y0016672D02*
G01X0020173Y0016616D01*
G01X0020173Y0016616D02*
G01X0020173Y0016578D01*
G01X0020173Y0016578D02*
G01X0020159Y0016522D01*
G01X0020159Y0016522D02*
G01X0020132Y0016484D01*
G01X0020132Y0016484D02*
G01X0020091Y0016466D01*
G01X0020091Y0016466D02*
G01X0020050Y0016466D01*
G01X0020050Y0016466D02*
G01X0020009Y0016484D01*
G01X0020009Y0016484D02*
G01X0019996Y0016503D01*
G01X0019996Y0016503D02*
G01X0019982Y0016541D01*
G54D13*
G01X0020500Y0027000D02*
G01X0023500Y0027000D01*
G01X0023500Y0027000D02*
G01X0023500Y0025000D01*
G01X0023500Y0025000D02*
G01X0020500Y0025000D01*
G01X0020500Y0025000D02*
G01X0020500Y0027000D01*
G01X0016500Y0027000D02*
G01X0019500Y0027000D01*
G01X0019500Y0027000D02*
G01X0019500Y0025000D01*
G01X0019500Y0025000D02*
G01X0016500Y0025000D01*
G01X0016500Y0025000D02*
G01X0016500Y0027000D01*
G01X0025000Y0016000D02*
G01X0025000Y0024000D01*
G01X0025000Y0024000D02*
G01X0027000Y0024000D01*
G01X0027000Y0024000D02*
G01X0027000Y0016000D01*
G01X0027000Y0016000D02*
G01X0025000Y0016000D01*
G01X0013000Y0016000D02*
G01X0013000Y0024000D01*
G01X0013000Y0024000D02*
G01X0015000Y0024000D01*
G01X0015000Y0024000D02*
G01X0015000Y0016000D01*
G01X0015000Y0016000D02*
G01X0013000Y0016000D01*
G01X0021000Y0016300D02*
G01X0019000Y0016300D01*
G01X0019000Y0016300D02*
G01X0019000Y0017300D01*
G01X0019000Y0017300D02*
G01X0021000Y0017300D01*
G01X0021000Y0017300D02*
G01X0021000Y0016300D01*
G01X0020345Y0017600D02*
G01X0020870Y0017600D01*
G01X0020345Y0017600D02*
G01X0020345Y0017727D01*
G01X0020345Y0017727D02*
G01X0020370Y0017782D01*
G01X0020370Y0017782D02*
G01X0020420Y0017818D01*
G01X0020420Y0017818D02*
G01X0020470Y0017836D01*
G01X0020470Y0017836D02*
G01X0020545Y0017855D01*
G01X0020545Y0017855D02*
G01X0020670Y0017855D01*
G01X0020670Y0017855D02*
G01X0020745Y0017836D01*
G01X0020745Y0017836D02*
G01X0020795Y0017818D01*
G01X0020795Y0017818D02*
G01X0020845Y0017782D01*
G01X0020845Y0017782D02*
G01X0020870Y0017727D01*
G01X0020870Y0017727D02*
G01X0020870Y0017600D01*
G01X0020345Y0018018D02*
G01X0020370Y0018036D01*
G01X0020370Y0018036D02*
G01X0020345Y0018055D01*
G01X0020345Y0018055D02*
G01X0020320Y0018036D01*
G01X0020320Y0018036D02*
G01X0020345Y0018018D01*
G01X0020520Y0018036D02*
G01X0020870Y0018036D01*
G01X0020595Y0018418D02*
G01X0020545Y0018400D01*
G01X0020545Y0018400D02*
G01X0020520Y0018346D01*
G01X0020520Y0018346D02*
G01X0020520Y0018291D01*
G01X0020520Y0018291D02*
G01X0020545Y0018236D01*
G01X0020545Y0018236D02*
G01X0020595Y0018218D01*
G01X0020595Y0018218D02*
G01X0020645Y0018236D01*
G01X0020645Y0018236D02*
G01X0020670Y0018273D01*
G01X0020670Y0018273D02*
G01X0020695Y0018364D01*
G01X0020695Y0018364D02*
G01X0020720Y0018400D01*
G01X0020720Y0018400D02*
G01X0020770Y0018418D01*
G01X0020770Y0018418D02*
G01X0020795Y0018418D01*
G01X0020795Y0018418D02*
G01X0020845Y0018400D01*
G01X0020845Y0018400D02*
G01X0020870Y0018346D01*
G01X0020870Y0018346D02*
G01X0020870Y0018291D01*
G01X0020870Y0018291D02*
G01X0020845Y0018236D01*
G01X0020845Y0018236D02*
G01X0020795Y0018218D01*
G01X0020520Y0018800D02*
G01X0020870Y0018800D01*
G01X0020595Y0018800D02*
G01X0020545Y0018764D01*
G01X0020545Y0018764D02*
G01X0020520Y0018727D01*
G01X0020520Y0018727D02*
G01X0020520Y0018673D01*
G01X0020520Y0018673D02*
G01X0020545Y0018636D01*
G01X0020545Y0018636D02*
G01X0020595Y0018600D01*
G01X0020595Y0018600D02*
G01X0020670Y0018582D01*
G01X0020670Y0018582D02*
G01X0020720Y0018582D01*
G01X0020720Y0018582D02*
G01X0020795Y0018600D01*
G01X0020795Y0018600D02*
G01X0020845Y0018636D01*
G01X0020845Y0018636D02*
G01X0020870Y0018673D01*
G01X0020870Y0018673D02*
G01X0020870Y0018727D01*
G01X0020870Y0018727D02*
G01X0020845Y0018764D01*
G01X0020845Y0018764D02*
G01X0020795Y0018800D01*
G01X0020345Y0018964D02*
G01X0020870Y0018964D01*
G01X0020595Y0018964D02*
G01X0020545Y0019000D01*
G01X0020545Y0019000D02*
G01X0020520Y0019036D01*
G01X0020520Y0019036D02*
G01X0020520Y0019091D01*
G01X0020520Y0019091D02*
G01X0020545Y0019127D01*
G01X0020545Y0019127D02*
G01X0020595Y0019164D01*
G01X0020595Y0019164D02*
G01X0020670Y0019182D01*
G01X0020670Y0019182D02*
G01X0020720Y0019182D01*
G01X0020720Y0019182D02*
G01X0020795Y0019164D01*
G01X0020795Y0019164D02*
G01X0020845Y0019127D01*
G01X0020845Y0019127D02*
G01X0020870Y0019091D01*
G01X0020870Y0019091D02*
G01X0020870Y0019036D01*
G01X0020870Y0019036D02*
G01X0020845Y0019000D01*
G01X0020845Y0019000D02*
G01X0020795Y0018964D01*
G01X0020345Y0019346D02*
G01X0020870Y0019346D01*
G01X0020670Y0019509D02*
G01X0020670Y0019727D01*
G01X0020670Y0019727D02*
G01X0020620Y0019727D01*
G01X0020620Y0019727D02*
G01X0020570Y0019709D01*
G01X0020570Y0019709D02*
G01X0020545Y0019691D01*
G01X0020545Y0019691D02*
G01X0020520Y0019655D01*
G01X0020520Y0019655D02*
G01X0020520Y0019600D01*
G01X0020520Y0019600D02*
G01X0020545Y0019564D01*
G01X0020545Y0019564D02*
G01X0020595Y0019527D01*
G01X0020595Y0019527D02*
G01X0020670Y0019509D01*
G01X0020670Y0019509D02*
G01X0020720Y0019509D01*
G01X0020720Y0019509D02*
G01X0020795Y0019527D01*
G01X0020795Y0019527D02*
G01X0020845Y0019564D01*
G01X0020845Y0019564D02*
G01X0020870Y0019600D01*
G01X0020870Y0019600D02*
G01X0020870Y0019655D01*
G01X0020870Y0019655D02*
G01X0020845Y0019691D01*
G01X0020845Y0019691D02*
G01X0020795Y0019727D01*
G01X0015600Y0023775D02*
G01X0015600Y0023250D01*
G01X0015600Y0023775D02*
G01X0015764Y0023775D01*
G01X0015764Y0023775D02*
G01X0015818Y0023750D01*
G01X0015818Y0023750D02*
G01X0015836Y0023725D01*
G01X0015836Y0023725D02*
G01X0015855Y0023675D01*
G01X0015855Y0023675D02*
G01X0015855Y0023625D01*
G01X0015855Y0023625D02*
G01X0015836Y0023575D01*
G01X0015836Y0023575D02*
G01X0015818Y0023550D01*
G01X0015818Y0023550D02*
G01X0015764Y0023525D01*
G01X0015600Y0023525D02*
G01X0015764Y0023525D01*
G01X0015764Y0023525D02*
G01X0015818Y0023500D01*
G01X0015818Y0023500D02*
G01X0015836Y0023475D01*
G01X0015836Y0023475D02*
G01X0015855Y0023425D01*
G01X0015855Y0023425D02*
G01X0015855Y0023350D01*
G01X0015855Y0023350D02*
G01X0015836Y0023300D01*
G01X0015836Y0023300D02*
G01X0015818Y0023275D01*
G01X0015818Y0023275D02*
G01X0015764Y0023250D01*
G01X0015764Y0023250D02*
G01X0015600Y0023250D01*
G01X0016018Y0023675D02*
G01X0016055Y0023700D01*
G01X0016055Y0023700D02*
G01X0016109Y0023775D01*
G01X0016109Y0023775D02*
G01X0016109Y0023250D01*
G01X0015600Y0022775D02*
G01X0015600Y0022250D01*
G01X0015600Y0022775D02*
G01X0015764Y0022775D01*
G01X0015764Y0022775D02*
G01X0015818Y0022750D01*
G01X0015818Y0022750D02*
G01X0015836Y0022725D01*
G01X0015836Y0022725D02*
G01X0015855Y0022675D01*
G01X0015855Y0022675D02*
G01X0015855Y0022625D01*
G01X0015855Y0022625D02*
G01X0015836Y0022575D01*
G01X0015836Y0022575D02*
G01X0015818Y0022550D01*
G01X0015818Y0022550D02*
G01X0015764Y0022525D01*
G01X0015600Y0022525D02*
G01X0015764Y0022525D01*
G01X0015764Y0022525D02*
G01X0015818Y0022500D01*
G01X0015818Y0022500D02*
G01X0015836Y0022475D01*
G01X0015836Y0022475D02*
G01X0015855Y0022425D01*
G01X0015855Y0022425D02*
G01X0015855Y0022350D01*
G01X0015855Y0022350D02*
G01X0015836Y0022300D01*
G01X0015836Y0022300D02*
G01X0015818Y0022275D01*
G01X0015818Y0022275D02*
G01X0015764Y0022250D01*
G01X0015764Y0022250D02*
G01X0015600Y0022250D01*
G01X0016036Y0022650D02*
G01X0016036Y0022675D01*
G01X0016036Y0022675D02*
G01X0016055Y0022725D01*
G01X0016055Y0022725D02*
G01X0016073Y0022750D01*
G01X0016073Y0022750D02*
G01X0016109Y0022775D01*
G01X0016109Y0022775D02*
G01X0016182Y0022775D01*
G01X0016182Y0022775D02*
G01X0016218Y0022750D01*
G01X0016218Y0022750D02*
G01X0016236Y0022725D01*
G01X0016236Y0022725D02*
G01X0016255Y0022675D01*
G01X0016255Y0022675D02*
G01X0016255Y0022625D01*
G01X0016255Y0022625D02*
G01X0016236Y0022575D01*
G01X0016236Y0022575D02*
G01X0016200Y0022500D01*
G01X0016200Y0022500D02*
G01X0016018Y0022250D01*
G01X0016018Y0022250D02*
G01X0016273Y0022250D01*
G01X0015600Y0021775D02*
G01X0015600Y0021250D01*
G01X0015600Y0021775D02*
G01X0015764Y0021775D01*
G01X0015764Y0021775D02*
G01X0015818Y0021750D01*
G01X0015818Y0021750D02*
G01X0015836Y0021725D01*
G01X0015836Y0021725D02*
G01X0015855Y0021675D01*
G01X0015855Y0021675D02*
G01X0015855Y0021625D01*
G01X0015855Y0021625D02*
G01X0015836Y0021575D01*
G01X0015836Y0021575D02*
G01X0015818Y0021550D01*
G01X0015818Y0021550D02*
G01X0015764Y0021525D01*
G01X0015600Y0021525D02*
G01X0015764Y0021525D01*
G01X0015764Y0021525D02*
G01X0015818Y0021500D01*
G01X0015818Y0021500D02*
G01X0015836Y0021475D01*
G01X0015836Y0021475D02*
G01X0015855Y0021425D01*
G01X0015855Y0021425D02*
G01X0015855Y0021350D01*
G01X0015855Y0021350D02*
G01X0015836Y0021300D01*
G01X0015836Y0021300D02*
G01X0015818Y0021275D01*
G01X0015818Y0021275D02*
G01X0015764Y0021250D01*
G01X0015764Y0021250D02*
G01X0015600Y0021250D01*
G01X0016055Y0021775D02*
G01X0016255Y0021775D01*
G01X0016255Y0021775D02*
G01X0016146Y0021575D01*
G01X0016146Y0021575D02*
G01X0016200Y0021575D01*
G01X0016200Y0021575D02*
G01X0016236Y0021550D01*
G01X0016236Y0021550D02*
G01X0016255Y0021525D01*
G01X0016255Y0021525D02*
G01X0016273Y0021450D01*
G01X0016273Y0021450D02*
G01X0016273Y0021400D01*
G01X0016273Y0021400D02*
G01X0016255Y0021325D01*
G01X0016255Y0021325D02*
G01X0016218Y0021275D01*
G01X0016218Y0021275D02*
G01X0016164Y0021250D01*
G01X0016164Y0021250D02*
G01X0016109Y0021250D01*
G01X0016109Y0021250D02*
G01X0016055Y0021275D01*
G01X0016055Y0021275D02*
G01X0016036Y0021300D01*
G01X0016036Y0021300D02*
G01X0016018Y0021350D01*
G01X0015600Y0020775D02*
G01X0015600Y0020250D01*
G01X0015600Y0020775D02*
G01X0015764Y0020775D01*
G01X0015764Y0020775D02*
G01X0015818Y0020750D01*
G01X0015818Y0020750D02*
G01X0015836Y0020725D01*
G01X0015836Y0020725D02*
G01X0015855Y0020675D01*
G01X0015855Y0020675D02*
G01X0015855Y0020625D01*
G01X0015855Y0020625D02*
G01X0015836Y0020575D01*
G01X0015836Y0020575D02*
G01X0015818Y0020550D01*
G01X0015818Y0020550D02*
G01X0015764Y0020525D01*
G01X0015600Y0020525D02*
G01X0015764Y0020525D01*
G01X0015764Y0020525D02*
G01X0015818Y0020500D01*
G01X0015818Y0020500D02*
G01X0015836Y0020475D01*
G01X0015836Y0020475D02*
G01X0015855Y0020425D01*
G01X0015855Y0020425D02*
G01X0015855Y0020350D01*
G01X0015855Y0020350D02*
G01X0015836Y0020300D01*
G01X0015836Y0020300D02*
G01X0015818Y0020275D01*
G01X0015818Y0020275D02*
G01X0015764Y0020250D01*
G01X0015764Y0020250D02*
G01X0015600Y0020250D01*
G01X0016200Y0020775D02*
G01X0016018Y0020425D01*
G01X0016018Y0020425D02*
G01X0016291Y0020425D01*
G01X0016200Y0020775D02*
G01X0016200Y0020250D01*
G01X0015600Y0019775D02*
G01X0015600Y0019250D01*
G01X0015600Y0019775D02*
G01X0015764Y0019775D01*
G01X0015764Y0019775D02*
G01X0015818Y0019750D01*
G01X0015818Y0019750D02*
G01X0015836Y0019725D01*
G01X0015836Y0019725D02*
G01X0015855Y0019675D01*
G01X0015855Y0019675D02*
G01X0015855Y0019625D01*
G01X0015855Y0019625D02*
G01X0015836Y0019575D01*
G01X0015836Y0019575D02*
G01X0015818Y0019550D01*
G01X0015818Y0019550D02*
G01X0015764Y0019525D01*
G01X0015600Y0019525D02*
G01X0015764Y0019525D01*
G01X0015764Y0019525D02*
G01X0015818Y0019500D01*
G01X0015818Y0019500D02*
G01X0015836Y0019475D01*
G01X0015836Y0019475D02*
G01X0015855Y0019425D01*
G01X0015855Y0019425D02*
G01X0015855Y0019350D01*
G01X0015855Y0019350D02*
G01X0015836Y0019300D01*
G01X0015836Y0019300D02*
G01X0015818Y0019275D01*
G01X0015818Y0019275D02*
G01X0015764Y0019250D01*
G01X0015764Y0019250D02*
G01X0015600Y0019250D01*
G01X0016255Y0019775D02*
G01X0016073Y0019775D01*
G01X0016073Y0019775D02*
G01X0016055Y0019550D01*
G01X0016055Y0019550D02*
G01X0016073Y0019575D01*
G01X0016073Y0019575D02*
G01X0016127Y0019600D01*
G01X0016127Y0019600D02*
G01X0016182Y0019600D01*
G01X0016182Y0019600D02*
G01X0016236Y0019575D01*
G01X0016236Y0019575D02*
G01X0016273Y0019525D01*
G01X0016273Y0019525D02*
G01X0016291Y0019450D01*
G01X0016291Y0019450D02*
G01X0016273Y0019400D01*
G01X0016273Y0019400D02*
G01X0016255Y0019325D01*
G01X0016255Y0019325D02*
G01X0016218Y0019275D01*
G01X0016218Y0019275D02*
G01X0016164Y0019250D01*
G01X0016164Y0019250D02*
G01X0016109Y0019250D01*
G01X0016109Y0019250D02*
G01X0016055Y0019275D01*
G01X0016055Y0019275D02*
G01X0016036Y0019300D01*
G01X0016036Y0019300D02*
G01X0016018Y0019350D01*
G01X0015600Y0018775D02*
G01X0015600Y0018250D01*
G01X0015600Y0018775D02*
G01X0015764Y0018775D01*
G01X0015764Y0018775D02*
G01X0015818Y0018750D01*
G01X0015818Y0018750D02*
G01X0015836Y0018725D01*
G01X0015836Y0018725D02*
G01X0015855Y0018675D01*
G01X0015855Y0018675D02*
G01X0015855Y0018625D01*
G01X0015855Y0018625D02*
G01X0015836Y0018575D01*
G01X0015836Y0018575D02*
G01X0015818Y0018550D01*
G01X0015818Y0018550D02*
G01X0015764Y0018525D01*
G01X0015600Y0018525D02*
G01X0015764Y0018525D01*
G01X0015764Y0018525D02*
G01X0015818Y0018500D01*
G01X0015818Y0018500D02*
G01X0015836Y0018475D01*
G01X0015836Y0018475D02*
G01X0015855Y0018425D01*
G01X0015855Y0018425D02*
G01X0015855Y0018350D01*
G01X0015855Y0018350D02*
G01X0015836Y0018300D01*
G01X0015836Y0018300D02*
G01X0015818Y0018275D01*
G01X0015818Y0018275D02*
G01X0015764Y0018250D01*
G01X0015764Y0018250D02*
G01X0015600Y0018250D01*
G01X0016236Y0018700D02*
G01X0016218Y0018750D01*
G01X0016218Y0018750D02*
G01X0016164Y0018775D01*
G01X0016164Y0018775D02*
G01X0016127Y0018775D01*
G01X0016127Y0018775D02*
G01X0016073Y0018750D01*
G01X0016073Y0018750D02*
G01X0016036Y0018675D01*
G01X0016036Y0018675D02*
G01X0016018Y0018550D01*
G01X0016018Y0018550D02*
G01X0016018Y0018425D01*
G01X0016018Y0018425D02*
G01X0016036Y0018325D01*
G01X0016036Y0018325D02*
G01X0016073Y0018275D01*
G01X0016073Y0018275D02*
G01X0016127Y0018250D01*
G01X0016127Y0018250D02*
G01X0016146Y0018250D01*
G01X0016146Y0018250D02*
G01X0016200Y0018275D01*
G01X0016200Y0018275D02*
G01X0016236Y0018325D01*
G01X0016236Y0018325D02*
G01X0016255Y0018400D01*
G01X0016255Y0018400D02*
G01X0016255Y0018425D01*
G01X0016255Y0018425D02*
G01X0016236Y0018500D01*
G01X0016236Y0018500D02*
G01X0016200Y0018550D01*
G01X0016200Y0018550D02*
G01X0016146Y0018575D01*
G01X0016146Y0018575D02*
G01X0016127Y0018575D01*
G01X0016127Y0018575D02*
G01X0016073Y0018550D01*
G01X0016073Y0018550D02*
G01X0016036Y0018500D01*
G01X0016036Y0018500D02*
G01X0016018Y0018425D01*
G01X0015600Y0017775D02*
G01X0015600Y0017250D01*
G01X0015600Y0017775D02*
G01X0015764Y0017775D01*
G01X0015764Y0017775D02*
G01X0015818Y0017750D01*
G01X0015818Y0017750D02*
G01X0015836Y0017725D01*
G01X0015836Y0017725D02*
G01X0015855Y0017675D01*
G01X0015855Y0017675D02*
G01X0015855Y0017625D01*
G01X0015855Y0017625D02*
G01X0015836Y0017575D01*
G01X0015836Y0017575D02*
G01X0015818Y0017550D01*
G01X0015818Y0017550D02*
G01X0015764Y0017525D01*
G01X0015600Y0017525D02*
G01X0015764Y0017525D01*
G01X0015764Y0017525D02*
G01X0015818Y0017500D01*
G01X0015818Y0017500D02*
G01X0015836Y0017475D01*
G01X0015836Y0017475D02*
G01X0015855Y0017425D01*
G01X0015855Y0017425D02*
G01X0015855Y0017350D01*
G01X0015855Y0017350D02*
G01X0015836Y0017300D01*
G01X0015836Y0017300D02*
G01X0015818Y0017275D01*
G01X0015818Y0017275D02*
G01X0015764Y0017250D01*
G01X0015764Y0017250D02*
G01X0015600Y0017250D01*
G01X0016273Y0017775D02*
G01X0016091Y0017250D01*
G01X0016018Y0017775D02*
G01X0016273Y0017775D01*
G01X0015600Y0016775D02*
G01X0015600Y0016250D01*
G01X0015600Y0016775D02*
G01X0015764Y0016775D01*
G01X0015764Y0016775D02*
G01X0015818Y0016750D01*
G01X0015818Y0016750D02*
G01X0015836Y0016725D01*
G01X0015836Y0016725D02*
G01X0015855Y0016675D01*
G01X0015855Y0016675D02*
G01X0015855Y0016625D01*
G01X0015855Y0016625D02*
G01X0015836Y0016575D01*
G01X0015836Y0016575D02*
G01X0015818Y0016550D01*
G01X0015818Y0016550D02*
G01X0015764Y0016525D01*
G01X0015600Y0016525D02*
G01X0015764Y0016525D01*
G01X0015764Y0016525D02*
G01X0015818Y0016500D01*
G01X0015818Y0016500D02*
G01X0015836Y0016475D01*
G01X0015836Y0016475D02*
G01X0015855Y0016425D01*
G01X0015855Y0016425D02*
G01X0015855Y0016350D01*
G01X0015855Y0016350D02*
G01X0015836Y0016300D01*
G01X0015836Y0016300D02*
G01X0015818Y0016275D01*
G01X0015818Y0016275D02*
G01X0015764Y0016250D01*
G01X0015764Y0016250D02*
G01X0015600Y0016250D01*
G01X0016109Y0016775D02*
G01X0016055Y0016750D01*
G01X0016055Y0016750D02*
G01X0016036Y0016700D01*
G01X0016036Y0016700D02*
G01X0016036Y0016650D01*
G01X0016036Y0016650D02*
G01X0016055Y0016600D01*
G01X0016055Y0016600D02*
G01X0016091Y0016575D01*
G01X0016091Y0016575D02*
G01X0016164Y0016550D01*
G01X0016164Y0016550D02*
G01X0016218Y0016525D01*
G01X0016218Y0016525D02*
G01X0016255Y0016475D01*
G01X0016255Y0016475D02*
G01X0016273Y0016425D01*
G01X0016273Y0016425D02*
G01X0016273Y0016350D01*
G01X0016273Y0016350D02*
G01X0016255Y0016300D01*
G01X0016255Y0016300D02*
G01X0016236Y0016275D01*
G01X0016236Y0016275D02*
G01X0016182Y0016250D01*
G01X0016182Y0016250D02*
G01X0016109Y0016250D01*
G01X0016109Y0016250D02*
G01X0016055Y0016275D01*
G01X0016055Y0016275D02*
G01X0016036Y0016300D01*
G01X0016036Y0016300D02*
G01X0016018Y0016350D01*
G01X0016018Y0016350D02*
G01X0016018Y0016425D01*
G01X0016018Y0016425D02*
G01X0016036Y0016475D01*
G01X0016036Y0016475D02*
G01X0016073Y0016525D01*
G01X0016073Y0016525D02*
G01X0016127Y0016550D01*
G01X0016127Y0016550D02*
G01X0016200Y0016575D01*
G01X0016200Y0016575D02*
G01X0016236Y0016600D01*
G01X0016236Y0016600D02*
G01X0016255Y0016650D01*
G01X0016255Y0016650D02*
G01X0016255Y0016700D01*
G01X0016255Y0016700D02*
G01X0016236Y0016750D01*
G01X0016236Y0016750D02*
G01X0016182Y0016775D01*
G01X0016182Y0016775D02*
G01X0016109Y0016775D01*
G01X0023946Y0023775D02*
G01X0023800Y0023250D01*
G01X0023946Y0023775D02*
G01X0024091Y0023250D01*
G01X0023855Y0023425D02*
G01X0024036Y0023425D01*
G01X0024255Y0023675D02*
G01X0024291Y0023700D01*
G01X0024291Y0023700D02*
G01X0024346Y0023775D01*
G01X0024346Y0023775D02*
G01X0024346Y0023250D01*
G01X0023946Y0022775D02*
G01X0023800Y0022250D01*
G01X0023946Y0022775D02*
G01X0024091Y0022250D01*
G01X0023855Y0022425D02*
G01X0024036Y0022425D01*
G01X0024273Y0022650D02*
G01X0024273Y0022675D01*
G01X0024273Y0022675D02*
G01X0024291Y0022725D01*
G01X0024291Y0022725D02*
G01X0024309Y0022750D01*
G01X0024309Y0022750D02*
G01X0024346Y0022775D01*
G01X0024346Y0022775D02*
G01X0024418Y0022775D01*
G01X0024418Y0022775D02*
G01X0024455Y0022750D01*
G01X0024455Y0022750D02*
G01X0024473Y0022725D01*
G01X0024473Y0022725D02*
G01X0024491Y0022675D01*
G01X0024491Y0022675D02*
G01X0024491Y0022625D01*
G01X0024491Y0022625D02*
G01X0024473Y0022575D01*
G01X0024473Y0022575D02*
G01X0024436Y0022500D01*
G01X0024436Y0022500D02*
G01X0024255Y0022250D01*
G01X0024255Y0022250D02*
G01X0024509Y0022250D01*
G01X0023946Y0021775D02*
G01X0023800Y0021250D01*
G01X0023946Y0021775D02*
G01X0024091Y0021250D01*
G01X0023855Y0021425D02*
G01X0024036Y0021425D01*
G01X0024291Y0021775D02*
G01X0024491Y0021775D01*
G01X0024491Y0021775D02*
G01X0024382Y0021575D01*
G01X0024382Y0021575D02*
G01X0024436Y0021575D01*
G01X0024436Y0021575D02*
G01X0024473Y0021550D01*
G01X0024473Y0021550D02*
G01X0024491Y0021525D01*
G01X0024491Y0021525D02*
G01X0024509Y0021450D01*
G01X0024509Y0021450D02*
G01X0024509Y0021400D01*
G01X0024509Y0021400D02*
G01X0024491Y0021325D01*
G01X0024491Y0021325D02*
G01X0024455Y0021275D01*
G01X0024455Y0021275D02*
G01X0024400Y0021250D01*
G01X0024400Y0021250D02*
G01X0024346Y0021250D01*
G01X0024346Y0021250D02*
G01X0024291Y0021275D01*
G01X0024291Y0021275D02*
G01X0024273Y0021300D01*
G01X0024273Y0021300D02*
G01X0024255Y0021350D01*
G01X0023946Y0020775D02*
G01X0023800Y0020250D01*
G01X0023946Y0020775D02*
G01X0024091Y0020250D01*
G01X0023855Y0020425D02*
G01X0024036Y0020425D01*
G01X0024436Y0020775D02*
G01X0024255Y0020425D01*
G01X0024255Y0020425D02*
G01X0024527Y0020425D01*
G01X0024436Y0020775D02*
G01X0024436Y0020250D01*
G01X0023946Y0019775D02*
G01X0023800Y0019250D01*
G01X0023946Y0019775D02*
G01X0024091Y0019250D01*
G01X0023855Y0019425D02*
G01X0024036Y0019425D01*
G01X0024491Y0019775D02*
G01X0024309Y0019775D01*
G01X0024309Y0019775D02*
G01X0024291Y0019550D01*
G01X0024291Y0019550D02*
G01X0024309Y0019575D01*
G01X0024309Y0019575D02*
G01X0024364Y0019600D01*
G01X0024364Y0019600D02*
G01X0024418Y0019600D01*
G01X0024418Y0019600D02*
G01X0024473Y0019575D01*
G01X0024473Y0019575D02*
G01X0024509Y0019525D01*
G01X0024509Y0019525D02*
G01X0024527Y0019450D01*
G01X0024527Y0019450D02*
G01X0024509Y0019400D01*
G01X0024509Y0019400D02*
G01X0024491Y0019325D01*
G01X0024491Y0019325D02*
G01X0024455Y0019275D01*
G01X0024455Y0019275D02*
G01X0024400Y0019250D01*
G01X0024400Y0019250D02*
G01X0024346Y0019250D01*
G01X0024346Y0019250D02*
G01X0024291Y0019275D01*
G01X0024291Y0019275D02*
G01X0024273Y0019300D01*
G01X0024273Y0019300D02*
G01X0024255Y0019350D01*
G01X0023946Y0018775D02*
G01X0023800Y0018250D01*
G01X0023946Y0018775D02*
G01X0024091Y0018250D01*
G01X0023855Y0018425D02*
G01X0024036Y0018425D01*
G01X0024473Y0018700D02*
G01X0024455Y0018750D01*
G01X0024455Y0018750D02*
G01X0024400Y0018775D01*
G01X0024400Y0018775D02*
G01X0024364Y0018775D01*
G01X0024364Y0018775D02*
G01X0024309Y0018750D01*
G01X0024309Y0018750D02*
G01X0024273Y0018675D01*
G01X0024273Y0018675D02*
G01X0024255Y0018550D01*
G01X0024255Y0018550D02*
G01X0024255Y0018425D01*
G01X0024255Y0018425D02*
G01X0024273Y0018325D01*
G01X0024273Y0018325D02*
G01X0024309Y0018275D01*
G01X0024309Y0018275D02*
G01X0024364Y0018250D01*
G01X0024364Y0018250D02*
G01X0024382Y0018250D01*
G01X0024382Y0018250D02*
G01X0024436Y0018275D01*
G01X0024436Y0018275D02*
G01X0024473Y0018325D01*
G01X0024473Y0018325D02*
G01X0024491Y0018400D01*
G01X0024491Y0018400D02*
G01X0024491Y0018425D01*
G01X0024491Y0018425D02*
G01X0024473Y0018500D01*
G01X0024473Y0018500D02*
G01X0024436Y0018550D01*
G01X0024436Y0018550D02*
G01X0024382Y0018575D01*
G01X0024382Y0018575D02*
G01X0024364Y0018575D01*
G01X0024364Y0018575D02*
G01X0024309Y0018550D01*
G01X0024309Y0018550D02*
G01X0024273Y0018500D01*
G01X0024273Y0018500D02*
G01X0024255Y0018425D01*
G01X0023946Y0017775D02*
G01X0023800Y0017250D01*
G01X0023946Y0017775D02*
G01X0024091Y0017250D01*
G01X0023855Y0017425D02*
G01X0024036Y0017425D01*
G01X0024509Y0017775D02*
G01X0024327Y0017250D01*
G01X0024255Y0017775D02*
G01X0024509Y0017775D01*
G01X0023946Y0016775D02*
G01X0023800Y0016250D01*
G01X0023946Y0016775D02*
G01X0024091Y0016250D01*
G01X0023855Y0016425D02*
G01X0024036Y0016425D01*
G01X0024346Y0016775D02*
G01X0024291Y0016750D01*
G01X0024291Y0016750D02*
G01X0024273Y0016700D01*
G01X0024273Y0016700D02*
G01X0024273Y0016650D01*
G01X0024273Y0016650D02*
G01X0024291Y0016600D01*
G01X0024291Y0016600D02*
G01X0024327Y0016575D01*
G01X0024327Y0016575D02*
G01X0024400Y0016550D01*
G01X0024400Y0016550D02*
G01X0024455Y0016525D01*
G01X0024455Y0016525D02*
G01X0024491Y0016475D01*
G01X0024491Y0016475D02*
G01X0024509Y0016425D01*
G01X0024509Y0016425D02*
G01X0024509Y0016350D01*
G01X0024509Y0016350D02*
G01X0024491Y0016300D01*
G01X0024491Y0016300D02*
G01X0024473Y0016275D01*
G01X0024473Y0016275D02*
G01X0024418Y0016250D01*
G01X0024418Y0016250D02*
G01X0024346Y0016250D01*
G01X0024346Y0016250D02*
G01X0024291Y0016275D01*
G01X0024291Y0016275D02*
G01X0024273Y0016300D01*
G01X0024273Y0016300D02*
G01X0024255Y0016350D01*
G01X0024255Y0016350D02*
G01X0024255Y0016425D01*
G01X0024255Y0016425D02*
G01X0024273Y0016475D01*
G01X0024273Y0016475D02*
G01X0024309Y0016525D01*
G01X0024309Y0016525D02*
G01X0024364Y0016550D01*
G01X0024364Y0016550D02*
G01X0024436Y0016575D01*
G01X0024436Y0016575D02*
G01X0024473Y0016600D01*
G01X0024473Y0016600D02*
G01X0024491Y0016650D01*
G01X0024491Y0016650D02*
G01X0024491Y0016700D01*
G01X0024491Y0016700D02*
G01X0024473Y0016750D01*
G01X0024473Y0016750D02*
G01X0024418Y0016775D01*
G01X0024418Y0016775D02*
G01X0024346Y0016775D01*
G01X0017880Y0015650D02*
G01X0017953Y0015300D01*
G01X0018026Y0015650D02*
G01X0017953Y0015300D01*
G01X0018026Y0015650D02*
G01X0018098Y0015300D01*
G01X0018171Y0015650D02*
G01X0018098Y0015300D01*
G01X0018335Y0015650D02*
G01X0018407Y0015300D01*
G01X0018480Y0015650D02*
G01X0018407Y0015300D01*
G01X0018480Y0015650D02*
G01X0018553Y0015300D01*
G01X0018626Y0015650D02*
G01X0018553Y0015300D01*
G01X0018789Y0015650D02*
G01X0018862Y0015300D01*
G01X0018935Y0015650D02*
G01X0018862Y0015300D01*
G01X0018935Y0015650D02*
G01X0019007Y0015300D01*
G01X0019080Y0015650D02*
G01X0019007Y0015300D01*
G01X0019262Y0015350D02*
G01X0019244Y0015325D01*
G01X0019244Y0015325D02*
G01X0019262Y0015300D01*
G01X0019262Y0015300D02*
G01X0019280Y0015325D01*
G01X0019280Y0015325D02*
G01X0019262Y0015350D01*
G01X0019444Y0015825D02*
G01X0019444Y0015300D01*
G01X0019444Y0015825D02*
G01X0019589Y0015300D01*
G01X0019735Y0015825D02*
G01X0019589Y0015300D01*
G01X0019735Y0015825D02*
G01X0019735Y0015300D01*
G01X0019898Y0015825D02*
G01X0019898Y0015300D01*
G01X0019898Y0015300D02*
G01X0020116Y0015300D01*
G01X0020426Y0015825D02*
G01X0020280Y0015300D01*
G01X0020426Y0015825D02*
G01X0020571Y0015300D01*
G01X0020335Y0015475D02*
G01X0020516Y0015475D01*
G01X0020734Y0015825D02*
G01X0020734Y0015300D01*
G01X0020734Y0015825D02*
G01X0020898Y0015825D01*
G01X0020898Y0015825D02*
G01X0020953Y0015800D01*
G01X0020953Y0015800D02*
G01X0020971Y0015775D01*
G01X0020971Y0015775D02*
G01X0020989Y0015725D01*
G01X0020989Y0015725D02*
G01X0020989Y0015675D01*
G01X0020989Y0015675D02*
G01X0020971Y0015625D01*
G01X0020971Y0015625D02*
G01X0020953Y0015600D01*
G01X0020953Y0015600D02*
G01X0020898Y0015575D01*
G01X0020734Y0015575D02*
G01X0020898Y0015575D01*
G01X0020898Y0015575D02*
G01X0020953Y0015550D01*
G01X0020953Y0015550D02*
G01X0020971Y0015525D01*
G01X0020971Y0015525D02*
G01X0020989Y0015475D01*
G01X0020989Y0015475D02*
G01X0020989Y0015400D01*
G01X0020989Y0015400D02*
G01X0020971Y0015350D01*
G01X0020971Y0015350D02*
G01X0020953Y0015325D01*
G01X0020953Y0015325D02*
G01X0020898Y0015300D01*
G01X0020898Y0015300D02*
G01X0020734Y0015300D01*
G01X0021171Y0015350D02*
G01X0021153Y0015325D01*
G01X0021153Y0015325D02*
G01X0021171Y0015300D01*
G01X0021171Y0015300D02*
G01X0021189Y0015325D01*
G01X0021189Y0015325D02*
G01X0021171Y0015350D01*
G01X0021571Y0015575D02*
G01X0021535Y0015625D01*
G01X0021535Y0015625D02*
G01X0021498Y0015650D01*
G01X0021498Y0015650D02*
G01X0021444Y0015650D01*
G01X0021444Y0015650D02*
G01X0021407Y0015625D01*
G01X0021407Y0015625D02*
G01X0021371Y0015575D01*
G01X0021371Y0015575D02*
G01X0021353Y0015500D01*
G01X0021353Y0015500D02*
G01X0021353Y0015450D01*
G01X0021353Y0015450D02*
G01X0021371Y0015375D01*
G01X0021371Y0015375D02*
G01X0021407Y0015325D01*
G01X0021407Y0015325D02*
G01X0021444Y0015300D01*
G01X0021444Y0015300D02*
G01X0021498Y0015300D01*
G01X0021498Y0015300D02*
G01X0021535Y0015325D01*
G01X0021535Y0015325D02*
G01X0021571Y0015375D01*
G01X0021935Y0015650D02*
G01X0021735Y0015300D01*
G01X0021735Y0015650D02*
G01X0021935Y0015650D01*
G01X0021735Y0015300D02*
G01X0021935Y0015300D01*
G01X0018820Y0014775D02*
G01X0018966Y0014250D01*
G01X0019111Y0014775D02*
G01X0018966Y0014250D01*
G01X0019275Y0014775D02*
G01X0019275Y0014250D01*
G01X0019275Y0014250D02*
G01X0019493Y0014250D01*
G01X0019784Y0014775D02*
G01X0019784Y0014250D01*
G01X0019656Y0014775D02*
G01X0019911Y0014775D01*
G01X0020184Y0014775D02*
G01X0020129Y0014750D01*
G01X0020129Y0014750D02*
G01X0020093Y0014675D01*
G01X0020093Y0014675D02*
G01X0020075Y0014550D01*
G01X0020075Y0014550D02*
G01X0020075Y0014475D01*
G01X0020075Y0014475D02*
G01X0020093Y0014350D01*
G01X0020093Y0014350D02*
G01X0020129Y0014275D01*
G01X0020129Y0014275D02*
G01X0020184Y0014250D01*
G01X0020184Y0014250D02*
G01X0020220Y0014250D01*
G01X0020220Y0014250D02*
G01X0020275Y0014275D01*
G01X0020275Y0014275D02*
G01X0020311Y0014350D01*
G01X0020311Y0014350D02*
G01X0020329Y0014475D01*
G01X0020329Y0014475D02*
G01X0020329Y0014550D01*
G01X0020329Y0014550D02*
G01X0020311Y0014675D01*
G01X0020311Y0014675D02*
G01X0020275Y0014750D01*
G01X0020275Y0014750D02*
G01X0020220Y0014775D01*
G01X0020220Y0014775D02*
G01X0020184Y0014775D01*
G01X0020493Y0014675D02*
G01X0020529Y0014700D01*
G01X0020529Y0014700D02*
G01X0020584Y0014775D01*
G01X0020584Y0014775D02*
G01X0020584Y0014250D01*
G01X0020893Y0014775D02*
G01X0020747Y0014250D01*
G01X0020893Y0014775D02*
G01X0021038Y0014250D01*
G01X0020802Y0014425D02*
G01X0020984Y0014425D01*
G01X0018160Y0013825D02*
G01X0018160Y0013300D01*
G01X0018415Y0013825D02*
G01X0018160Y0013475D01*
G01X0018251Y0013600D02*
G01X0018415Y0013300D01*
G01X0018796Y0013650D02*
G01X0018796Y0013300D01*
G01X0018796Y0013575D02*
G01X0018760Y0013625D01*
G01X0018760Y0013625D02*
G01X0018724Y0013650D01*
G01X0018724Y0013650D02*
G01X0018669Y0013650D01*
G01X0018669Y0013650D02*
G01X0018633Y0013625D01*
G01X0018633Y0013625D02*
G01X0018596Y0013575D01*
G01X0018596Y0013575D02*
G01X0018578Y0013500D01*
G01X0018578Y0013500D02*
G01X0018578Y0013450D01*
G01X0018578Y0013450D02*
G01X0018596Y0013375D01*
G01X0018596Y0013375D02*
G01X0018633Y0013325D01*
G01X0018633Y0013325D02*
G01X0018669Y0013300D01*
G01X0018669Y0013300D02*
G01X0018724Y0013300D01*
G01X0018724Y0013300D02*
G01X0018760Y0013325D01*
G01X0018760Y0013325D02*
G01X0018796Y0013375D01*
G01X0018960Y0013825D02*
G01X0018960Y0013300D01*
G01X0019142Y0013650D02*
G01X0018960Y0013400D01*
G01X0019033Y0013500D02*
G01X0019160Y0013300D01*
G01X0019324Y0013825D02*
G01X0019324Y0013300D01*
G01X0019487Y0013825D02*
G01X0019506Y0013800D01*
G01X0019506Y0013800D02*
G01X0019524Y0013825D01*
G01X0019524Y0013825D02*
G01X0019506Y0013850D01*
G01X0019506Y0013850D02*
G01X0019487Y0013825D01*
G01X0019506Y0013650D02*
G01X0019506Y0013300D01*
G01X0019687Y0013825D02*
G01X0019687Y0013300D01*
G01X0019869Y0013650D02*
G01X0019687Y0013400D01*
G01X0019760Y0013500D02*
G01X0019887Y0013300D01*
G01X0020487Y0013700D02*
G01X0020487Y0013725D01*
G01X0020487Y0013725D02*
G01X0020506Y0013775D01*
G01X0020506Y0013775D02*
G01X0020524Y0013800D01*
G01X0020524Y0013800D02*
G01X0020560Y0013825D01*
G01X0020560Y0013825D02*
G01X0020633Y0013825D01*
G01X0020633Y0013825D02*
G01X0020669Y0013800D01*
G01X0020669Y0013800D02*
G01X0020687Y0013775D01*
G01X0020687Y0013775D02*
G01X0020706Y0013725D01*
G01X0020706Y0013725D02*
G01X0020706Y0013675D01*
G01X0020706Y0013675D02*
G01X0020687Y0013625D01*
G01X0020687Y0013625D02*
G01X0020651Y0013550D01*
G01X0020651Y0013550D02*
G01X0020469Y0013300D01*
G01X0020469Y0013300D02*
G01X0020724Y0013300D01*
G01X0020996Y0013825D02*
G01X0020942Y0013800D01*
G01X0020942Y0013800D02*
G01X0020906Y0013725D01*
G01X0020906Y0013725D02*
G01X0020887Y0013600D01*
G01X0020887Y0013600D02*
G01X0020887Y0013525D01*
G01X0020887Y0013525D02*
G01X0020906Y0013400D01*
G01X0020906Y0013400D02*
G01X0020942Y0013325D01*
G01X0020942Y0013325D02*
G01X0020996Y0013300D01*
G01X0020996Y0013300D02*
G01X0021033Y0013300D01*
G01X0021033Y0013300D02*
G01X0021087Y0013325D01*
G01X0021087Y0013325D02*
G01X0021124Y0013400D01*
G01X0021124Y0013400D02*
G01X0021142Y0013525D01*
G01X0021142Y0013525D02*
G01X0021142Y0013600D01*
G01X0021142Y0013600D02*
G01X0021124Y0013725D01*
G01X0021124Y0013725D02*
G01X0021087Y0013800D01*
G01X0021087Y0013800D02*
G01X0021033Y0013825D01*
G01X0021033Y0013825D02*
G01X0020996Y0013825D01*
G01X0021306Y0013725D02*
G01X0021342Y0013750D01*
G01X0021342Y0013750D02*
G01X0021396Y0013825D01*
G01X0021396Y0013825D02*
G01X0021396Y0013300D01*
G01X0021796Y0013825D02*
G01X0021615Y0013825D01*
G01X0021615Y0013825D02*
G01X0021596Y0013600D01*
G01X0021596Y0013600D02*
G01X0021615Y0013625D01*
G01X0021615Y0013625D02*
G01X0021669Y0013650D01*
G01X0021669Y0013650D02*
G01X0021724Y0013650D01*
G01X0021724Y0013650D02*
G01X0021778Y0013625D01*
G01X0021778Y0013625D02*
G01X0021815Y0013575D01*
G01X0021815Y0013575D02*
G01X0021833Y0013500D01*
G01X0021833Y0013500D02*
G01X0021815Y0013450D01*
G01X0021815Y0013450D02*
G01X0021796Y0013375D01*
G01X0021796Y0013375D02*
G01X0021760Y0013325D01*
G01X0021760Y0013325D02*
G01X0021706Y0013300D01*
G01X0021706Y0013300D02*
G01X0021651Y0013300D01*
G01X0021651Y0013300D02*
G01X0021596Y0013325D01*
G01X0021596Y0013325D02*
G01X0021578Y0013350D01*
G01X0021578Y0013350D02*
G01X0021560Y0013400D01*
M02*
